<svg id="Calque_1" data-name="Calque 1" xmlns="http://www.w3.org/2000/svg" viewBox="0 0 337.06 333.2"><defs><style>.cls-1,.cls-4{fill:none;}.cls-1{stroke:#502c51;stroke-miterlimit:10;stroke-width:10px;}.cls-2{fill:#502c51;}.cls-3,.cls-6{fill:#eee7d3;}.cls-3{opacity:0.5;}.cls-5{fill:#da6f5b;}.cls-6{opacity:0.3;}</style></defs><title>bande-magnetique</title><path class="cls-1" d="M407.67,291c-.69,61.58,48,187,310,155" transform="translate(-381.22 -122.94)"/><ellipse class="cls-2" cx="540.78" cy="282.94" rx="142.65" ry="142.57" transform="translate(-422.89 342.32) rotate(-45)"/><path class="cls-3" d="M570.15,290.49l36.39,55.61a91,91,0,0,0-8.68-134.35L569,269l-43-21.7,27.56-54.56a91.13,91.13,0,0,0-101.14,69.46l55.55-3.1,2.68,48-56.4,3.15a91.15,91.15,0,0,0,110.87,60.41l-35.23-53.84Z" transform="translate(-381.22 -122.94)"/><circle class="cls-2" cx="159.94" cy="159.94" r="57.88"/><path class="cls-4" d="M542.25,280h0L541,283l75.9-50.44a91.41,91.41,0,0,0-19.16-20.86h0l-.2-.16L596,210.33c-.67-.51-1.34-1-2-1.49l-.21-.15a90.79,90.79,0,0,0-18-10L542.25,280Z" transform="translate(-381.22 -122.94)"/><path class="cls-4" d="M626.32,251c-.72-1.93-1.51-3.84-2.36-5.71L541,283Z" transform="translate(-381.22 -122.94)"/><path class="cls-4" d="M469.11,338.37A91,91,0,0,0,575.3,367.18L541,283Z" transform="translate(-381.22 -122.94)"/><path class="cls-4" d="M620.16,237.84q-1.54-2.7-3.26-5.28L541,283Z" transform="translate(-381.22 -122.94)"/><path class="cls-4" d="M595.24,356a90.77,90.77,0,0,0,36.85-73.1A92.08,92.08,0,0,0,630.7,267L541,283Z" transform="translate(-381.22 -122.94)"/><path class="cls-4" d="M542.25,280l-86,35.61a90.34,90.34,0,0,0,6,12.55L541,283Z" transform="translate(-381.22 -122.94)"/><polygon class="cls-5" points="161.04 157.02 161.04 157.02 161.04 157.02 161.04 157.02"/><path class="cls-6" d="M698.65,254.91A159.41,159.41,0,0,0,691,226.77q-1.92-5.11-4.16-10-3.06-6.72-6.7-13.08-2.72-4.76-5.73-9.29a159.36,159.36,0,1,0,24.28,60.55ZM595.24,356a91,91,0,0,1-138.95-40.41c-.68-1.76-1.32-3.55-1.89-5.37l-.26,0a91.77,91.77,0,0,1-1.83-48.09l.29,0a91,91,0,0,1,88.55-70.17,91.65,91.65,0,0,1,12.25.83l.05-.11a90.79,90.79,0,0,1,40.3,16l.21.15c.68.49,1.35,1,2,1.49l1.57,1.21.2.16h0a91.41,91.41,0,0,1,19.16,20.86q1.71,2.58,3.26,5.28c1.38,2.42,2.64,4.91,3.8,7.45.85,1.87,1.64,3.78,2.36,5.71a90.4,90.4,0,0,1,4.38,16,92.08,92.08,0,0,1,1.39,15.86A90.77,90.77,0,0,1,595.24,356Z" transform="translate(-381.22 -122.94)"/></svg>