<svg xmlns="http://www.w3.org/2000/svg" viewBox="0 0 338 341"><defs><style>.cls-1{fill:#502c51;}.cls-2{fill:#6e4072;}.cls-3,.cls-5,.cls-6,.cls-8{fill:#eee7d3;}.cls-3{opacity:0.5;}.cls-4{fill:none;}.cls-5{opacity:0.3;}.cls-6{opacity:0.4;}.cls-7{fill:#da6f5b;}</style></defs><title>bobine-theme-vecto-1</title><g id="Calque_3" data-name="Calque 3"><path class="cls-1" d="M293.54,101a142.72,142.72,0,0,0-258,17.68q-2.49,6.48-4.33,13.12c-1.23,4.39-2.23,8.84-3,13.31A142.73,142.73,0,0,0,90,289h0a141.38,141.38,0,0,0,50.44,20.8c3.17.64,6.36,1.16,9.56,1.58,4.34.57,8.71.94,13.08,1.1,3.24.13,6.49.14,9.73.05a142.23,142.23,0,0,0,79-26.71A142.9,142.9,0,0,0,293.54,101ZM169,227.76a57.88,57.88,0,0,1-4-115.62c1.31-.09,2.63-.14,4-.14a57.88,57.88,0,0,1,4.28,115.6C171.89,227.71,170.46,227.76,169,227.76Z"/><path class="cls-2" d="M285.35,105.72a132.7,132.7,0,0,0-245.77,35,132.86,132.86,0,0,0,6.34,78.44A136.15,136.15,0,0,0,54.77,237a126.65,126.65,0,0,0,11.38,16.38,140.21,140.21,0,0,0,13.7,14.51,132,132,0,0,0,91.28,34.39,131.85,131.85,0,0,0,74.94-24.55l.12-.09h.15l-.26.09a130.4,130.4,0,0,0,18.21-15.71,133.35,133.35,0,0,0,15.15-18.7,131.15,131.15,0,0,0,19-44.06,133.31,133.31,0,0,0-13.06-93.58Zm0,0a133.79,133.79,0,0,1-5.45,137.94,135.82,135.82,0,0,1-15.09,18.9,130.24,130.24,0,0,1-18.21,15.93l-.11.09h-.16l.26-.09a133.53,133.53,0,0,1-152,3.24A134.48,134.48,0,0,1,44.11,219.9a134.62,134.62,0,0,1-6.22-79.55,132.39,132.39,0,0,1,14.81-37.5A133.82,133.82,0,0,1,228.27,50.72a134.11,134.11,0,0,1,57.08,55Z"/><path class="cls-2" d="M169,227.76a58.17,58.17,0,0,1-22.17-4.36c-1.77-.67-3.45-1.56-5.15-2.4-.85-.43-1.65-.94-2.47-1.41l-1.23-.72-1.18-.8a56.18,56.18,0,0,1-8.81-7.18,62.23,62.23,0,0,1-7.29-8.74c-1-1.61-2.1-3.18-3-4.88a51.6,51.6,0,0,1-2.51-5.12,58.57,58.57,0,0,1-.34-44.69,58.73,58.73,0,0,1,12.6-19.09l1-1,1.07-1c.72-.63,1.42-1.29,2.17-1.9,1.52-1.18,3-2.4,4.63-3.43s3.26-2,4.92-3c.85-.45,1.72-.86,2.58-1.29.44-.21.86-.43,1.3-.63l1.34-.54a57.33,57.33,0,0,1,11-3.39l2.84-.5c1-.16,1.92-.23,2.87-.34,1.91-.26,3.84-.24,5.77-.34a58.73,58.73,0,0,1,41.52,17.36,57.79,57.79,0,0,1,12.59,19.11A58.31,58.31,0,0,1,169,227.76Zm0,0a57.69,57.69,0,0,0,40.82-17.06A57.33,57.33,0,0,0,169,113c-1.86.08-3.73,0-5.58.29-.92.11-1.86.16-2.77.31l-2.76.47a55.21,55.21,0,0,0-10.68,3.21l-1.3.52c-.43.19-.84.4-1.26.6-.84.41-1.69.8-2.51,1.23-1.61.94-3.27,1.8-4.79,2.88s-3,2.17-4.52,3.3c-.72.59-1.4,1.23-2.11,1.84l-1.05.93-1,1A58.12,58.12,0,0,0,116.17,148a57.48,57.48,0,0,0-.34,43.92,48.49,48.49,0,0,0,2.4,5.11c.83,1.7,1.87,3.27,2.85,4.89a58.86,58.86,0,0,0,7.13,8.78,57.32,57.32,0,0,0,8.73,7.2l1.17.81,1.22.72c.82.47,1.61,1,2.45,1.43,1.69.84,3.36,1.74,5.13,2.42A58.23,58.23,0,0,0,169,227.76Z"/><path class="cls-2" d="M277.16,110.49a123.85,123.85,0,0,0-73.85-59.16,122.25,122.25,0,0,0-48-4,126.41,126.41,0,0,0-23.66,5A123.58,123.58,0,0,0,72.75,92.87a123.18,123.18,0,0,0,61.44,195,106.9,106.9,0,0,0,11.73,2.78l5.94,1c2,.33,4,.53,6,.72s4,.32,6,.4l6,.05a105.36,105.36,0,0,0,12.05-.61,123.13,123.13,0,0,0,105.3-87.63,124,124,0,0,0-.63-71.77A127.5,127.5,0,0,0,277.16,110.49Zm0,0a127.5,127.5,0,0,1,9.54,22.3,125.89,125.89,0,0,1,5,23.75,124.15,124.15,0,0,1-109.58,137,107.86,107.86,0,0,1-12.18.71h-6.11q-3.06-.1-6.1-.36c-2-.18-4.06-.37-6.07-.69l-6-1a101.61,101.61,0,0,1-11.9-2.77,124.22,124.22,0,1,1,143.45-179Z"/><path class="cls-2" d="M169,227.76a58.17,58.17,0,0,1-22.17-4.36c-1.77-.67-3.45-1.56-5.15-2.4-.85-.43-1.65-.94-2.47-1.41l-1.23-.72-1.18-.8a56.18,56.18,0,0,1-8.81-7.18,62.23,62.23,0,0,1-7.29-8.74c-1-1.61-2.1-3.18-3-4.88a51.6,51.6,0,0,1-2.51-5.12,58.57,58.57,0,0,1-.34-44.69,58.73,58.73,0,0,1,12.6-19.09l1-1,1.07-1c.72-.63,1.42-1.29,2.17-1.9,1.52-1.18,3-2.4,4.63-3.43s3.26-2,4.92-3c.85-.45,1.72-.86,2.58-1.29.44-.21.86-.43,1.3-.63l1.34-.54a57.33,57.33,0,0,1,11-3.39l2.84-.5c1-.16,1.92-.23,2.87-.34,1.91-.26,3.84-.24,5.77-.34a58.73,58.73,0,0,1,41.52,17.36,57.79,57.79,0,0,1,12.59,19.11A58.31,58.31,0,0,1,169,227.76Zm0,0a57.69,57.69,0,0,0,40.82-17.06A57.33,57.33,0,0,0,169,113c-1.86.08-3.73,0-5.58.29-.92.11-1.86.16-2.77.31l-2.76.47a55.21,55.21,0,0,0-10.68,3.21l-1.3.52c-.43.19-.84.4-1.26.6-.84.41-1.69.8-2.51,1.23-1.61.94-3.27,1.8-4.79,2.88s-3,2.17-4.52,3.3c-.72.59-1.4,1.23-2.11,1.84l-1.05.93-1,1A58.12,58.12,0,0,0,116.17,148a57.48,57.48,0,0,0-.34,43.92,48.49,48.49,0,0,0,2.4,5.11c.83,1.7,1.87,3.27,2.85,4.89a58.86,58.86,0,0,0,7.13,8.78,57.32,57.32,0,0,0,8.73,7.2l1.17.81,1.22.72c.82.47,1.61,1,2.45,1.43,1.69.84,3.36,1.74,5.13,2.42A58.23,58.23,0,0,0,169,227.76Z"/><path class="cls-2" d="M269,115.26A113.77,113.77,0,0,0,95.84,82.67,116.55,116.55,0,0,0,80.29,98.61a113.72,113.72,0,0,0,56.31,180.1,103.81,103.81,0,0,0,10.82,2.6c3.66.6,7.32,1.31,11,1.62,1.85.17,3.7.3,5.55.38l5.58.06a96.16,96.16,0,0,0,11.12-.53,113.72,113.72,0,0,0,97.4-80.67,114.63,114.63,0,0,0-.43-66.27A116.86,116.86,0,0,0,269,115.26Zm0,0a114.32,114.32,0,0,1,13.33,42.55,114.72,114.72,0,0,1-101.46,126.4,98.57,98.57,0,0,1-11.26.63h-5.65c-1.88-.07-3.76-.18-5.63-.34-3.76-.28-7.46-1-11.19-1.55a99,99,0,0,1-11-2.59,115.2,115.2,0,0,1-68.66-55.28,115.52,115.52,0,0,1-9.22-87.65,114.18,114.18,0,0,1,21-39.67,118.71,118.71,0,0,1,15.87-16A114.75,114.75,0,0,1,269,115.26Z"/><path class="cls-2" d="M169,227.76a58.17,58.17,0,0,1-22.17-4.36c-1.77-.67-3.45-1.56-5.15-2.4-.85-.43-1.65-.94-2.47-1.41l-1.23-.72-1.18-.8a56.18,56.18,0,0,1-8.81-7.18,62.23,62.23,0,0,1-7.29-8.74c-1-1.61-2.1-3.18-3-4.88a51.6,51.6,0,0,1-2.51-5.12,58.57,58.57,0,0,1-.34-44.69,58.73,58.73,0,0,1,12.6-19.09l1-1,1.07-1c.72-.63,1.42-1.29,2.17-1.9,1.52-1.18,3-2.4,4.63-3.43s3.26-2,4.92-3c.85-.45,1.72-.86,2.58-1.29.44-.21.86-.43,1.3-.63l1.34-.54a57.33,57.33,0,0,1,11-3.39l2.84-.5c1-.16,1.92-.23,2.87-.34,1.91-.26,3.84-.24,5.77-.34a58.73,58.73,0,0,1,41.52,17.36,57.79,57.79,0,0,1,12.59,19.11A58.31,58.31,0,0,1,169,227.76Zm0,0a57.69,57.69,0,0,0,40.82-17.06A57.33,57.33,0,0,0,169,113c-1.86.08-3.73,0-5.58.29-.92.11-1.86.16-2.77.31l-2.76.47a55.21,55.21,0,0,0-10.68,3.21l-1.3.52c-.43.19-.84.4-1.26.6-.84.41-1.69.8-2.51,1.23-1.61.94-3.27,1.8-4.79,2.88s-3,2.17-4.52,3.3c-.72.59-1.4,1.23-2.11,1.84l-1.05.93-1,1A58.12,58.12,0,0,0,116.17,148a57.48,57.48,0,0,0-.34,43.92,48.49,48.49,0,0,0,2.4,5.11c.83,1.7,1.87,3.27,2.85,4.89a58.86,58.86,0,0,0,7.13,8.78,57.32,57.32,0,0,0,8.73,7.2l1.17.81,1.22.72c.82.47,1.61,1,2.45,1.43,1.69.84,3.36,1.74,5.13,2.42A58.23,58.23,0,0,0,169,227.76Z"/><path class="cls-2" d="M260.77,120A104.28,104.28,0,1,0,103.23,250.57a103.29,103.29,0,0,0,35.8,19,112.47,112.47,0,0,0,20,3.92c1.69.17,3.39.29,5.09.37s3.4,0,5.11.06l2.55,0,2.55-.11c1.7-.05,3.4-.25,5.1-.37a104.24,104.24,0,0,0,89.5-73.7,106.13,106.13,0,0,0,3.91-20.13A104.87,104.87,0,0,0,260.77,120Zm0,0a105.05,105.05,0,0,1,12.28,59.61,105.22,105.22,0,0,1-93.48,95.18c-1.72.14-3.44.35-5.16.42l-2.59.13h-2.59c-1.72,0-3.45,0-5.17,0s-3.45-.18-5.17-.33a109.2,109.2,0,0,1-20.35-3.84A105.26,105.26,0,0,1,102.05,252a109,109,0,0,1-14.76-14.54A105.26,105.26,0,1,1,260.77,120Z"/><path class="cls-2" d="M169,227.76a58.17,58.17,0,0,1-22.17-4.36c-1.77-.67-3.45-1.56-5.15-2.4-.85-.43-1.65-.94-2.47-1.41l-1.23-.72-1.18-.8a56.18,56.18,0,0,1-8.81-7.18,62.23,62.23,0,0,1-7.29-8.74c-1-1.61-2.1-3.18-3-4.88a51.6,51.6,0,0,1-2.51-5.12,58.57,58.57,0,0,1-.34-44.69,58.73,58.73,0,0,1,12.6-19.09l1-1,1.07-1c.72-.63,1.42-1.29,2.17-1.9,1.52-1.18,3-2.4,4.63-3.43s3.26-2,4.92-3c.85-.45,1.72-.86,2.58-1.29.44-.21.86-.43,1.3-.63l1.34-.54a57.33,57.33,0,0,1,11-3.39l2.84-.5c1-.16,1.92-.23,2.87-.34,1.91-.26,3.84-.24,5.77-.34a58.73,58.73,0,0,1,41.52,17.36,57.79,57.79,0,0,1,12.59,19.11A58.31,58.31,0,0,1,169,227.76Zm0,0a57.69,57.69,0,0,0,40.82-17.06A57.33,57.33,0,0,0,169,113c-1.86.08-3.73,0-5.58.29-.92.11-1.86.16-2.77.31l-2.76.47a55.21,55.21,0,0,0-10.68,3.21l-1.3.52c-.43.19-.84.4-1.26.6-.84.41-1.69.8-2.51,1.23-1.61.94-3.27,1.8-4.79,2.88s-3,2.17-4.52,3.3c-.72.59-1.4,1.23-2.11,1.84l-1.05.93-1,1A58.12,58.12,0,0,0,116.17,148a57.48,57.48,0,0,0-.34,43.92,48.49,48.49,0,0,0,2.4,5.11c.83,1.7,1.87,3.27,2.85,4.89a58.86,58.86,0,0,0,7.13,8.78,57.32,57.32,0,0,0,8.73,7.2l1.17.81,1.22.72c.82.47,1.61,1,2.45,1.43,1.69.84,3.36,1.74,5.13,2.42A58.23,58.23,0,0,0,169,227.76Z"/><path class="cls-2" d="M251.57,125.39a93.62,93.62,0,1,0-165,88.6,93.15,93.15,0,0,0,55.13,45.25,87.29,87.29,0,0,0,8.88,2.22c3,.48,6,1.11,9,1.37,1.52.16,3,.27,4.57.35s3,0,4.58.07a80.07,80.07,0,0,0,9.16-.36,93.32,93.32,0,0,0,63.25-33.61A94.86,94.86,0,0,0,258.63,197a94.28,94.28,0,0,0-7.06-71.65Zm0,0a94.51,94.51,0,0,1,7.34,71.74,96.34,96.34,0,0,1-17.19,32.55,93.46,93.46,0,0,1-28.31,23.62,94.49,94.49,0,0,1-35.29,11,80.22,80.22,0,0,1-9.3.46c-1.55,0-3.11,0-4.65,0s-3.1-.16-4.65-.3c-3.1-.24-6.15-.84-9.22-1.3a85.44,85.44,0,0,1-9.06-2.21A94.63,94.63,0,1,1,251.57,125.39Z"/><path class="cls-2" d="M169,227.76a58.17,58.17,0,0,1-22.17-4.36c-1.77-.67-3.45-1.56-5.15-2.4-.85-.43-1.65-.94-2.47-1.41l-1.23-.72-1.18-.8a56.18,56.18,0,0,1-8.81-7.18,62.23,62.23,0,0,1-7.29-8.74c-1-1.61-2.1-3.18-3-4.88a51.6,51.6,0,0,1-2.51-5.12,58.57,58.57,0,0,1-.34-44.69,58.73,58.73,0,0,1,12.6-19.09l1-1,1.07-1c.72-.63,1.42-1.29,2.17-1.9,1.52-1.18,3-2.4,4.63-3.43s3.26-2,4.92-3c.85-.45,1.72-.86,2.58-1.29.44-.21.86-.43,1.3-.63l1.34-.54a57.33,57.33,0,0,1,11-3.39l2.84-.5c1-.16,1.92-.23,2.87-.34,1.91-.26,3.84-.24,5.77-.34a58.73,58.73,0,0,1,41.52,17.36,57.79,57.79,0,0,1,12.59,19.11A58.31,58.31,0,0,1,169,227.76Zm0,0a57.69,57.69,0,0,0,40.82-17.06A57.33,57.33,0,0,0,169,113c-1.86.08-3.73,0-5.58.29-.92.11-1.86.16-2.77.31l-2.76.47a55.21,55.21,0,0,0-10.68,3.21l-1.3.52c-.43.19-.84.4-1.26.6-.84.41-1.69.8-2.51,1.23-1.61.94-3.27,1.8-4.79,2.88s-3,2.17-4.52,3.3c-.72.59-1.4,1.23-2.11,1.84l-1.05.93-1,1A58.12,58.12,0,0,0,116.17,148a57.48,57.48,0,0,0-.34,43.92,48.49,48.49,0,0,0,2.4,5.11c.83,1.7,1.87,3.27,2.85,4.89a58.86,58.86,0,0,0,7.13,8.78,57.32,57.32,0,0,0,8.73,7.2l1.17.81,1.22.72c.82.47,1.61,1,2.45,1.43,1.69.84,3.36,1.74,5.13,2.42A58.23,58.23,0,0,0,169,227.76Z"/><path class="cls-2" d="M226.65,111.93l-3-2.72c-1-.88-1.94-1.85-3-2.66-2.07-1.72-4.25-3.29-6.47-4.8A81.59,81.59,0,0,0,93.7,201a81,81,0,0,0,17.65,26.25,90.67,90.67,0,0,0,12.26,10.12,88.47,88.47,0,0,0,14,7.53,87,87,0,0,0,15.22,4.63,83.3,83.3,0,0,0,15.83,1.57,81,81,0,0,0,15.85-1.48,78,78,0,0,0,15.29-4.5,81.58,81.58,0,0,0,26.86-133.17Zm0,0a81.77,81.77,0,0,1,24.16,58,82.54,82.54,0,0,1-50.5,76.44,79.24,79.24,0,0,1-15.51,4.76,78.21,78.21,0,0,1-16.15,1.66,84.54,84.54,0,0,1-16.18-1.53,89.19,89.19,0,0,1-15.58-4.66,82.87,82.87,0,0,1-26.95-18,82.58,82.58,0,0,1,27.19-134.8,84.08,84.08,0,0,1,31.52-6.07,81.61,81.61,0,0,1,45.59,13.92c2.22,1.52,4.39,3.1,6.45,4.83,1.07.82,2,1.79,3,2.68Z"/><path class="cls-2" d="M173.3,227.6l-2.84.12-1.42.05-1.42,0-2.84-.1-2.82-.29-1.42-.16-1.4-.25c-.93-.17-1.86-.32-2.79-.51-1.83-.49-3.7-.87-5.48-1.53a57.66,57.66,0,0,1-19.72-11.07,58.38,58.38,0,0,1-17.75-62.29,49.15,49.15,0,0,1,2-5.38l1.2-2.61c.42-.87.9-1.7,1.35-2.54l.69-1.27.77-1.21c.53-.81,1-1.64,1.57-2.42,1.14-1.55,2.25-3.12,3.54-4.55s2.61-2.82,3.94-4.21,2.81-2.62,4.37-3.76a56.23,56.23,0,0,1,9.7-6.2,58.5,58.5,0,0,1,10.74-4.2l2.8-.71c.93-.25,1.89-.36,2.84-.55,1.89-.4,3.81-.52,5.73-.74a58.4,58.4,0,0,1,56.65,32.35,58.26,58.26,0,0,1,5.9,22,59,59,0,0,1-.35,11.43,59.64,59.64,0,0,1-2.58,11.12,58.25,58.25,0,0,1-51,39.48Zm0,0A58.18,58.18,0,0,0,195,221.5a57.39,57.39,0,0,0,25.07-77.35,58,58,0,0,0-13.85-17.45,56.82,56.82,0,0,0-41.43-13.53c-1.85.2-3.71.3-5.54.68-.91.18-1.84.28-2.74.52l-2.72.67a56.33,56.33,0,0,0-10.41,4,54.29,54.29,0,0,0-9.45,6c-1.51,1.09-2.85,2.4-4.26,3.62s-2.67,2.61-3.85,4.06-2.35,2.89-3.49,4.38c-.55.75-1,1.55-1.56,2.32l-.77,1.17-.69,1.22c-.45.82-.94,1.62-1.36,2.45l-1.21,2.53a50.93,50.93,0,0,0-2.08,5.21,57.3,57.3,0,0,0,36.23,72.81c1.77.66,3.63,1.05,5.45,1.55.93.2,1.86.35,2.79.53l1.4.26,1.41.16,2.82.32,2.84.11,1.41.06,1.42-.05Z"/><path class="cls-2" d="M218.08,120.5a69.63,69.63,0,0,0-49.43-20.31,69.35,69.35,0,0,0-48.74,118.47,76,76,0,0,0,10.43,8.6,67.87,67.87,0,0,0,11.91,6.39A69.22,69.22,0,0,0,168.64,239a75.32,75.32,0,0,0,13.49-1.25,69.36,69.36,0,0,0,13-3.83,71,71,0,0,0,12-6.32A72.35,72.35,0,0,0,217.73,219a69.53,69.53,0,0,0,.35-98.52Zm0,0a69.76,69.76,0,0,1,15.23,22.65,70.49,70.49,0,0,1-14.87,76.58,73.69,73.69,0,0,1-10.62,8.84,70.28,70.28,0,0,1-66.28,6.8,69.28,69.28,0,0,1-12.27-6.51,76.26,76.26,0,0,1-10.77-8.79,70.6,70.6,0,0,1-20.6-50.14A70.35,70.35,0,0,1,218.08,120.5Z"/><path class="cls-2" d="M215.56,204.3a58.05,58.05,0,0,1-37.95,22.95c-.93.17-1.88.26-2.82.36l-1.42.15-1.42.06-2.85.13-2.85-.07-1.43,0-1.41-.14-2.84-.29-2.82-.48c-.47-.09-.94-.16-1.4-.26l-1.39-.34a57.33,57.33,0,0,1-10.78-3.74,61.39,61.39,0,0,1-9.87-5.78,58.66,58.66,0,0,1-23.38-38.24,59.34,59.34,0,0,1,1-22.91,55.7,55.7,0,0,1,3.86-10.86c.76-1.77,1.77-3.42,2.68-5.12,1.06-1.61,2-3.28,3.22-4.8a58.77,58.77,0,0,1,38.62-23.08,60.59,60.59,0,0,1,11.5-.51,58.5,58.5,0,0,1,53.44,72.6,59.53,59.53,0,0,1-3.85,10.69A60.32,60.32,0,0,1,215.56,204.3Zm0,0a60.7,60.7,0,0,0,5.8-9.75,59.8,59.8,0,0,0,3.77-10.69,58.76,58.76,0,0,0,1-22.53,56.79,56.79,0,0,0-7.77-21.11,57.89,57.89,0,0,0-15.22-16.46,57,57,0,0,0-20.29-9.38,57.71,57.71,0,0,0-11.1-1.53,63.29,63.29,0,0,0-11.17.65,59.71,59.71,0,0,0-10.83,2.75,58.86,58.86,0,0,0-10.06,4.83,57.28,57.28,0,0,0-16.38,15c-1.17,1.46-2.1,3.07-3.14,4.62s-1.87,3.22-2.62,4.93a53.46,53.46,0,0,0-3.8,10.49A57.54,57.54,0,0,0,134.9,216a60.52,60.52,0,0,0,9.62,5.85,56.15,56.15,0,0,0,10.59,3.86l1.37.36c.46.11.92.19,1.38.28l2.78.53,2.81.33,1.41.16,1.41.06,2.83.12,2.83-.08,1.42,0,1.41-.13c.94-.09,1.88-.17,2.81-.34A57.86,57.86,0,0,0,215.56,204.3Z"/><path class="cls-3" d="M181.43,79.72l0,.07-4.32,8.55-5.92,11.73-6.1,12.07a57.89,57.89,0,0,0-49.3,35.06l-13.49.75-12.86.72-8.93.5h-.18c.36-1.57.77-3.12,1.22-4.65a86.89,86.89,0,0,1,2.85-8.33,91,91,0,0,1,75.9-56.91c2.85-.28,5.75-.42,8.68-.42,1.22,0,2.44,0,3.65.07Q177.06,79.12,181.43,79.72Z"/><path class="cls-3" d="M193,257.68a90.75,90.75,0,0,1-21.56,3.18c-.83,0-1.65,0-2.48,0-1.25,0-2.49,0-3.73-.08-2.81-.11-5.6-.35-8.34-.72q-3.09-.4-6.11-1a89.82,89.82,0,0,1-15.92-4.79,91.22,91.22,0,0,1-52.72-57h.18l8.81-.49,12.67-.71,13.24-.74a57.87,57.87,0,0,0,52,32.44c1.44,0,2.87,0,4.28-.16l7.33,11.21,7.14,10.91,5.17,7.89Z"/><path class="cls-3" d="M260,169.88q0,4.32-.39,8.53c-.16,1.69-.36,3.36-.61,5-.22,1.47-.48,2.94-.77,4.39s-.61,2.88-1,4.31c-.59,2.37-1.29,4.73-2.09,7.06q-.5,1.51-1.08,3-1,2.55-2.11,5.05-.51,1.13-1.05,2.25-1.08,2.23-2.3,4.44h0c-.27.47-.54.95-.8,1.43-.55.95-1.12,1.89-1.71,2.83q-1.25,2-2.56,3.87-1.74,2.5-3.68,4.89l-1,1.17h0q-2.13,2.56-4.46,5l-5.16-7.88-6.89-10.53-6.79-10.39a57.89,57.89,0,0,0-5.27-75l5.53-11,5.64-11.17,4.26-8.42a91.86,91.86,0,0,1,9.09,8.33c.3.31.6.63.89,1l.77.84c.42.46.83.92,1.22,1.38s.8.93,1.19,1.4c.23.28.46.55.68.83q.65.78,1.26,1.59c.64.8,1.25,1.61,1.83,2.44.34.46.67.92,1,1.39.23.32.45.65.68,1q.56.83,1.08,1.65t1.14,1.8c.08.12.15.24.22.36.27.44.53.87.78,1.31q.84,1.4,1.59,2.82c.22.41.44.83.65,1.25.54,1,1.06,2.1,1.55,3.16.25.53.49,1.06.73,1.6s.47,1.07.7,1.61c.38.86.73,1.73,1.06,2.61.17.44.33.87.49,1.31a84.1,84.1,0,0,1,3.54,12.1c.2.91.39,1.84.56,2.76s.33,1.85.47,2.77.26,1.78.38,2.68c.22,1.75.38,3.51.5,5.28,0,.71.08,1.43.11,2.14C259.92,167.35,260,168.61,260,169.88Z"/><path class="cls-4" d="M226.9,169.88a57.86,57.86,0,0,1-53.6,57.72c-1.41.11-2.84.16-4.28.16a57.88,57.88,0,0,1-4-115.62c1.31-.09,2.63-.14,4-.14a57.88,57.88,0,0,1,57.88,57.88Z"/><path class="cls-5" d="M186.4,80.62l11.49-68.09A159.49,159.49,0,0,0,175.32,10l-2.73,69A89.78,89.78,0,0,1,186.4,80.62Z"/><path class="cls-5" d="M150.78,259,137,326.61q5.34,1.08,10.72,1.81L156.88,260Q153.82,259.6,150.78,259Z"/><path class="cls-5" d="M81.68,144.57l-66.92-17c-1.33,4.83-2.42,9.7-3.28,14.58l68,11.89A89.84,89.84,0,0,1,81.68,144.57Z"/><path class="cls-5" d="M92,121.57a90.74,90.74,0,0,1,68.3-42.2l-6.64-68.68A160.15,160.15,0,0,0,19.57,112.86l65,23.4A90.9,90.9,0,0,1,92,121.57Z"/><path class="cls-5" d="M120.71,246.92a90.79,90.79,0,0,1-42.36-70L9.57,182.33a160.18,160.18,0,0,0,99.48,135.84l25.84-64A91.66,91.66,0,0,1,120.71,246.92Z"/><path class="cls-5" d="M165.21,260.74l-2.87,68.95q5.46.22,10.91.08l-1.83-69C169.35,260.84,167.28,260.82,165.21,260.74Z"/><path class="cls-5" d="M308.78,92.08l-59.66,34.74a90.87,90.87,0,0,1-10.26,101.3l.06.11a90.09,90.09,0,0,1-17,15.68l40,56.15a160,160,0,0,0,46.8-208Z"/><path class="cls-6" d="M203.94,253.85l-.24.1c-.78.32-1.55.63-2.34.92-.61.24-1.23.46-1.85.69l-.24.08h0a91.43,91.43,0,0,1-27.85,5.14l1.83,69A160.48,160.48,0,0,0,262,300.06l-40-56.15A90.74,90.74,0,0,1,203.94,253.85Z"/><path class="cls-6" d="M156.88,260l-9.18,68.42c4.87.65,9.76,1.07,14.64,1.27l2.87-68.95Q161,260.56,156.88,260Z"/><path class="cls-6" d="M134.89,254.17l-25.84,64A158.8,158.8,0,0,0,137,326.61L150.78,259A89.74,89.74,0,0,1,134.89,254.17Z"/><path class="cls-6" d="M192,81.86l.12-.22a91.76,91.76,0,0,1,41.72,24l-.14.26a90.68,90.68,0,0,1,15.46,20.93l59.66-34.74A160.3,160.3,0,0,0,197.89,12.53L186.4,80.62C188.26,81,190.11,81.38,192,81.86Z"/><path class="cls-6" d="M172.59,79l2.73-69a160,160,0,0,0-21.68.65l6.64,68.68A90.23,90.23,0,0,1,172.59,79Z"/><path class="cls-6" d="M79.46,154l-68-11.89a159.21,159.21,0,0,0-1.91,40.2l68.78-5.46A90.92,90.92,0,0,1,79.46,154Z"/><path class="cls-6" d="M84.54,136.26l-65-23.4c-1.85,4.84-3.46,9.75-4.81,14.69l66.92,17A87.7,87.7,0,0,1,84.54,136.26Z"/><circle class="cls-7" cx="168.5" cy="170.5" r="57.5"/><path class="cls-8" d="M137.4,161.22H119.86v-5.81h5.61V140.47h-5.61v-5.82H132.3v20.76h5.1Z"/><path class="cls-8" d="M139.85,145.67a11.31,11.31,0,0,1,3.19-8.32,11.61,11.61,0,0,1,8.64-3.21q6.54,0,9.41,4.59T164,150.51a29,29,0,0,1-1.27,8.75,13.74,13.74,0,0,1-4.23,6.55,11.93,11.93,0,0,1-8,2.5,15.25,15.25,0,0,1-5.51-1,9.22,9.22,0,0,1-4.38-3.57l3.92-3.93c1.33,1.81,3.4,2.71,6.23,2.71a4.62,4.62,0,0,0,4.28-2.09q1.27-2.1,1.53-7.14a10.38,10.38,0,0,0,0-1.18,7.93,7.93,0,0,1-2.65,2.78,8.49,8.49,0,0,1-4.8,1.2q-5.15,0-7.24-3.34A13.11,13.11,0,0,1,139.85,145.67Zm7-.26a6.27,6.27,0,0,0,1,3.73,4.13,4.13,0,0,0,3.55,1.37,4.86,4.86,0,0,0,3.72-1.3,5,5,0,0,0,1.33-3.29,8.39,8.39,0,0,0-1.33-4.36,4.22,4.22,0,0,0-3.57-1.4Q146.89,140.16,146.89,145.41Z"/><path class="cls-8" d="M190.54,137.87l-11.73,30h-6.73l11.07-27.43h-10.4V146h-6V134.65h22.95Z"/><path class="cls-8" d="M212.88,167.85h-6.83v-8.11H191.36l-.71-5.66,10.09-19.43h12.14v19.43h5l-.51,5.66h-4.49Zm-6.83-13.77V140.47h-1.94l-6.94,13.61Z"/><path class="cls-8" d="M137.4,209.22H119.86v-5.81h5.61V188.47h-5.61v-5.82H132.3v20.76h5.1Z"/><path class="cls-8" d="M139.85,193.67a11.31,11.31,0,0,1,3.19-8.32,11.61,11.61,0,0,1,8.64-3.21q6.54,0,9.41,4.59T164,198.51a29,29,0,0,1-1.27,8.75,13.74,13.74,0,0,1-4.23,6.55,11.93,11.93,0,0,1-8,2.5,15.25,15.25,0,0,1-5.51-1,9.22,9.22,0,0,1-4.38-3.57l3.92-3.93c1.33,1.81,3.4,2.71,6.23,2.71a4.62,4.62,0,0,0,4.28-2.09q1.27-2.1,1.53-7.14a10.38,10.38,0,0,0,0-1.18,7.93,7.93,0,0,1-2.65,2.78,8.49,8.49,0,0,1-4.8,1.2q-5.15,0-7.24-3.34A13.11,13.11,0,0,1,139.85,193.67Zm7-.26a6.27,6.27,0,0,0,1,3.73,4.13,4.13,0,0,0,3.55,1.37,4.86,4.86,0,0,0,3.72-1.3,5,5,0,0,0,1.33-3.29,8.39,8.39,0,0,0-1.33-4.36,4.22,4.22,0,0,0-3.57-1.4Q146.89,188.16,146.89,193.41Z"/><path class="cls-8" d="M191.62,200.55a7.75,7.75,0,0,1-3.57,6.74,15.18,15.18,0,0,1-8.78,2.44,15.87,15.87,0,0,1-8.84-2.19,7.2,7.2,0,0,1-3.35-6.43,6.66,6.66,0,0,1,2-5.2,17.41,17.41,0,0,1,4.7-3,16.33,16.33,0,0,1-4.21-3.31,7.3,7.3,0,0,1-1.76-5.1A7.84,7.84,0,0,1,171,178a13.2,13.2,0,0,1,8.36-2.48,13.33,13.33,0,0,1,8,2.25,7.07,7.07,0,0,1,3.08,6,5.73,5.73,0,0,1-1.71,4.43,15.9,15.9,0,0,1-4,2.7,19,19,0,0,1,4.82,3.63A8.23,8.23,0,0,1,191.62,200.55Zm-7.35.11a3.94,3.94,0,0,0-2.27-3.47q-2.26-1.33-5.12-2.65a7.14,7.14,0,0,0-2.12,2,5,5,0,0,0-.79,2.9,4.57,4.57,0,0,0,1.35,3.42,5.59,5.59,0,0,0,4.06,1.32,5.52,5.52,0,0,0,3.64-1A3.2,3.2,0,0,0,184.27,200.66ZM183.61,185c0-1.6-.44-2.65-1.33-3.16a5.81,5.81,0,0,0-3-.77c-2.78,0-4.18,1-4.18,3a3.44,3.44,0,0,0,1.84,3,36.24,36.24,0,0,0,4.38,2.34A5.3,5.3,0,0,0,183.61,185Z"/><path class="cls-8" d="M218.75,198.21a11.31,11.31,0,0,1-3.19,8.31,11.64,11.64,0,0,1-8.64,3.21q-6.54,0-9.41-4.59t-2.89-11.78a28.94,28.94,0,0,1,1.28-8.74,13.81,13.81,0,0,1,4.21-6.56,11.92,11.92,0,0,1,8-2.5,15,15,0,0,1,5.45,1,9.55,9.55,0,0,1,4.44,3.57l-3.92,3.93q-2-2.7-6.23-2.7a4.68,4.68,0,0,0-4.31,2.09c-.86,1.39-1.37,3.77-1.5,7.14a8.36,8.36,0,0,0-.05,1.17,7.66,7.66,0,0,1,2.65-2.8,8.56,8.56,0,0,1,4.79-1.18c3.44,0,5.85,1.11,7.25,3.32A13.08,13.08,0,0,1,218.75,198.21Zm-7,.25a6.12,6.12,0,0,0-1-3.72,4.09,4.09,0,0,0-3.52-1.38,4.85,4.85,0,0,0-3.72,1.3,5,5,0,0,0-1.33,3.29,8.35,8.35,0,0,0,1.33,4.36,4.19,4.19,0,0,0,3.57,1.4C210.14,203.71,211.71,202,211.71,198.46Z"/></g></svg>