<svg xmlns="http://www.w3.org/2000/svg" xmlns:xlink="http://www.w3.org/1999/xlink" viewBox="0 0 363 519"><defs><style>.cls-1,.cls-2{fill:none;}.cls-2{stroke:#502c51;stroke-miterlimit:10;stroke-width:10px;}.cls-3{fill:#502c51;}.cls-4{fill:#6e4072;}.cls-5,.cls-7,.cls-8{fill:#eee7d3;}.cls-5{opacity:0.5;}.cls-6{fill:#da6f5b;}.cls-7{opacity:0.3;}.cls-8{opacity:0.4;}.cls-9{clip-path:url(#clip-path);}</style><clipPath id="clip-path"><circle class="cls-1" cx="187.75" cy="181.75" r="58.25"/></clipPath></defs><title>bobine-photo-o-guichard</title><g id="Calque_3" data-name="Calque 3"><path class="cls-2" d="M179.48,48.27c-61.57-.7-186.61,47.95-155,310C37,462,97,538,97,538"/><ellipse class="cls-3" cx="187.55" cy="181.38" rx="142.57" ry="142.65" transform="translate(-73.32 185.74) rotate(-45)"/><path class="cls-4" d="M281.72,87.2a133,133,0,1,1-43.17-28.95A133.42,133.42,0,0,1,281.72,87.2Zm0,0a133,133,0,1,0,28.81,43.23A133.4,133.4,0,0,0,281.72,87.2Z"/><path class="cls-4" d="M275,93.9A123.69,123.69,0,1,1,234.92,67,123.88,123.88,0,0,1,275,93.9Zm0,0a123.52,123.52,0,1,0,26.76,40.16A123.85,123.85,0,0,0,275,93.9Z"/><path class="cls-4" d="M268.32,100.6a114.22,114.22,0,0,1,33.61,80.78A114.57,114.57,0,1,1,231.3,75.76,114.3,114.3,0,0,1,268.32,100.6Zm0,0A114,114,0,1,0,293,137.68,114.24,114.24,0,0,0,268.32,100.6Z"/><path class="cls-4" d="M261.62,107.3A105.26,105.26,0,0,1,187.55,287,105.31,105.31,0,1,1,261.62,107.3Zm0,0a104.48,104.48,0,1,0,22.66,34A104.62,104.62,0,0,0,261.62,107.3Z"/><path class="cls-4" d="M254.1,114.83a94,94,0,0,1,27.71,66.55,94.48,94.48,0,1,1-58.21-87A94.24,94.24,0,0,1,254.1,114.83Zm0,0A93.62,93.62,0,1,0,121.7,247.22a93.61,93.61,0,0,0,159.82-65.84,93.93,93.93,0,0,0-27.42-66.55Z"/><path class="cls-4" d="M245.55,123.37a82,82,0,0,1,24.18,58A82.58,82.58,0,1,1,187.55,99.2a81.95,81.95,0,0,1,58,24.17Zm0,0A81.85,81.85,0,1,0,263.28,150,82,82,0,0,0,245.55,123.37Z"/><path class="cls-4" d="M237,131.94a69.87,69.87,0,0,1,20.62,49.44A70.59,70.59,0,1,1,237,131.94Zm0,0a69.45,69.45,0,0,0-113.17,75.84,69.43,69.43,0,0,0,133.5-26.4A69.7,69.7,0,0,0,237,131.94Z"/><path class="cls-4" d="M226.93,142a55.78,55.78,0,0,1,16.46,39.39,56.23,56.23,0,1,1-55.84-55.85A55.78,55.78,0,0,1,226.93,142Zm0,0a55.61,55.61,0,0,0-39.38-16.17,55.2,55.2,0,0,0-50.82,34.5,55.74,55.74,0,0,0-4,21.06,55.2,55.2,0,0,0,93.88,39,55.31,55.31,0,0,0,.35-78.42Z"/><path class="cls-4" d="M218.33,150.59a43.7,43.7,0,0,1,12.9,30.79,44,44,0,0,1-26.76,40.84,43.91,43.91,0,0,1-16.92,3.54,44.14,44.14,0,0,1-44.39-44.38,43.91,43.91,0,0,1,3.53-16.93,44,44,0,0,1,40.86-26.76,43.7,43.7,0,0,1,30.78,12.9Zm0,0A43.42,43.42,0,0,0,187.55,138,42.84,42.84,0,0,0,171,141.45a43,43,0,0,0-26.14,39.93,42.93,42.93,0,0,0,42.68,42.68,43.08,43.08,0,0,0,30.78-73.47Z"/><path class="cls-5" d="M180,210.75l-55.61,36.38a91,91,0,0,0,134.35-8.68l-57.22-28.91,21.69-42.95,54.57,27.57a92,92,0,0,0,.85-12.49A91.05,91.05,0,0,0,208.3,93l3.1,55.54-48,2.69-3.15-56.4A91.14,91.14,0,0,0,99.8,205.71l53.84-35.23Z"/><circle class="cls-6" cx="187.6" cy="181.75" r="57.88"/><path class="cls-7" d="M276.87,199.13,345,210.62a159.49,159.49,0,0,0,2.49-22.57l-69-2.73A91,91,0,0,1,276.87,199.13Z"/><path class="cls-7" d="M98.51,163.51l-67.63-13.8q-1.1,5.34-1.82,10.72l68.42,9.18C97.75,167.57,98.1,165.54,98.51,163.51Z"/><path class="cls-7" d="M212.91,94.41l17-66.93q-7.25-2-14.58-3.27l-11.89,68A89.26,89.26,0,0,1,212.91,94.41Z"/><path class="cls-7" d="M235.91,104.7A90.8,90.8,0,0,1,278.12,173l68.68-6.63A160.07,160.07,0,0,0,244.63,32.3l-23.41,65A91.71,91.71,0,0,1,235.91,104.7Z"/><path class="cls-7" d="M110.56,133.44a90.81,90.81,0,0,1,70.05-42.36l-5.45-68.79A160.11,160.11,0,0,0,39.32,121.78l64,25.84A90.29,90.29,0,0,1,110.56,133.44Z"/><path class="cls-7" d="M96.75,177.94l-69-2.87q-.22,5.46-.07,10.91l69-1.83Q96.61,181,96.75,177.94Z"/><path class="cls-7" d="M265.4,321.51l-34.74-59.66a91,91,0,0,1-101.3-10.26l-.1.06a90.15,90.15,0,0,1-15.69-17l-56.15,40a160.07,160.07,0,0,0,208,46.8Z"/><path class="cls-8" d="M103.63,216.66a2.29,2.29,0,0,0-.1-.23c-.31-.78-.62-1.56-.92-2.34-.23-.62-.46-1.24-.68-1.86l-.09-.23h0a91.32,91.32,0,0,1-5.15-27.84l-69,1.83a160.41,160.41,0,0,0,29.7,88.73l56.15-40A90.81,90.81,0,0,1,103.63,216.66Z"/><path class="cls-8" d="M97.48,169.61l-68.42-9.18q-1,7.31-1.27,14.64l69,2.87C96.86,175.16,97.11,172.38,97.48,169.61Z"/><path class="cls-8" d="M103.32,147.62l-64-25.84a158,158,0,0,0-8.44,27.93l67.63,13.8A89.78,89.78,0,0,1,103.32,147.62Z"/><path class="cls-8" d="M275.62,204.69l.22.12a91.52,91.52,0,0,1-24,41.72l-.26-.14a90.25,90.25,0,0,1-20.93,15.46l34.74,59.66A160.22,160.22,0,0,0,345,210.62l-68.08-11.49C276.51,201,276.1,202.84,275.62,204.69Z"/><path class="cls-8" d="M278.47,185.32l69,2.73a159.93,159.93,0,0,0-.64-21.68L278.12,173A93.71,93.71,0,0,1,278.47,185.32Z"/><path class="cls-8" d="M203.46,92.19l11.89-68a159.6,159.6,0,0,0-40.19-1.92l5.45,68.79A90.88,90.88,0,0,1,203.46,92.19Z"/><path class="cls-8" d="M221.22,97.26l23.41-65q-7.27-2.79-14.7-4.82l-17,66.93Q217.11,95.63,221.22,97.26Z"/></g><g id="Calque_2" data-name="Calque 2"><g class="cls-9"><image width="2264" height="1411" transform="translate(14.53 124.01) scale(0.15)" xlink:href="../images-archives/autres images/14W1_9_HemicycleHDRsd_006.jpg"/></g></g></svg>