<svg xmlns="http://www.w3.org/2000/svg" viewBox="0 0 338 341"><defs><style>.cls-1{fill:#502c51;}.cls-2{fill:#6e4072;}.cls-3,.cls-5,.cls-6,.cls-8{fill:#eee7d3;}.cls-3{opacity:0.5;}.cls-4{fill:none;}.cls-5{opacity:0.3;}.cls-6{opacity:0.4;}.cls-7{fill:#da6f5b;}.cls-8{font-size:51px;font-family:ZillaSlab-Bold, Zilla Slab;font-weight:700;}</style></defs><title>bobine-P1</title><g id="Calque_3" data-name="Calque 3"><path class="cls-1" d="M292.69,101a142.72,142.72,0,0,0-258,17.68q-2.49,6.48-4.33,13.12c-1.23,4.39-2.23,8.84-3,13.31A142.73,142.73,0,0,0,89.11,289h0a141.38,141.38,0,0,0,50.44,20.8c3.17.64,6.36,1.16,9.56,1.58,4.34.57,8.71.94,13.08,1.1,3.24.13,6.49.14,9.73.05a142.23,142.23,0,0,0,79-26.71A142.9,142.9,0,0,0,292.69,101ZM168.17,227.76a57.88,57.88,0,0,1-4-115.62c1.31-.09,2.63-.14,4-.14a57.88,57.88,0,0,1,4.28,115.6C171,227.71,169.61,227.76,168.17,227.76Z"/><path class="cls-2" d="M284.5,105.72A132.72,132.72,0,0,0,36,180.44a134.39,134.39,0,0,0,9.12,38.73A136.09,136.09,0,0,0,53.91,237a126.65,126.65,0,0,0,11.38,16.38A140.21,140.21,0,0,0,79,267.93a134.14,134.14,0,0,0,15.72,12.28,133.06,133.06,0,0,0,150.51-2.44l.12-.09h.15l-.26.09a130.4,130.4,0,0,0,18.21-15.71,134.78,134.78,0,0,0,15.15-18.7,131.15,131.15,0,0,0,19-44.06,133.31,133.31,0,0,0-13.06-93.58Zm0,0A133.53,133.53,0,0,1,264,262.56a130.81,130.81,0,0,1-18.21,15.93l-.11.09h-.16l.26-.09a133.52,133.52,0,0,1-152,3.24A134.48,134.48,0,0,1,43.26,219.9,134.62,134.62,0,0,1,37,140.35a132.66,132.66,0,0,1,14.8-37.5A133.84,133.84,0,0,1,227.42,50.72a134.11,134.11,0,0,1,57.08,55Z"/><path class="cls-2" d="M168.17,227.76A58.13,58.13,0,0,1,146,223.4c-1.78-.67-3.46-1.56-5.16-2.4-.84-.43-1.64-.94-2.47-1.41l-1.22-.72-1.18-.8a56.72,56.72,0,0,1-8.82-7.18,63.63,63.63,0,0,1-7.29-8.74c-1-1.61-2.09-3.18-3-4.88a49.49,49.49,0,0,1-2.51-5.12,58.23,58.23,0,0,1,12.26-63.78l1-1,1.07-1c.72-.63,1.42-1.29,2.16-1.9,1.52-1.18,3-2.4,4.63-3.43s3.27-2,4.93-3c.85-.45,1.72-.86,2.58-1.29.43-.21.86-.43,1.3-.63l1.33-.54a57.42,57.42,0,0,1,11-3.39l2.84-.5c1-.16,1.91-.23,2.87-.34,1.91-.26,3.84-.24,5.76-.34a58.73,58.73,0,0,1,41.53,17.36,57.94,57.94,0,0,1,12.59,19.11,58.31,58.31,0,0,1-54.12,80.29Zm0,0A57.74,57.74,0,0,0,209,210.7a57.08,57.08,0,0,0,12.37-18.79,57.24,57.24,0,0,0-12.87-62.34A56.83,56.83,0,0,0,168.17,113c-1.85.08-3.72,0-5.57.29-.93.11-1.86.16-2.78.31l-2.75.47a55.51,55.51,0,0,0-10.69,3.21l-1.29.52c-.43.19-.84.4-1.27.6-.83.41-1.68.8-2.51,1.23-1.61.94-3.26,1.8-4.79,2.88s-3,2.17-4.51,3.3c-.72.59-1.41,1.23-2.11,1.84l-1.05.93-1,1A58,58,0,0,0,115.31,148a57.6,57.6,0,0,0-.34,43.92,50.65,50.65,0,0,0,2.41,5.11c.82,1.7,1.87,3.27,2.85,4.89a58.86,58.86,0,0,0,7.13,8.78,56.36,56.36,0,0,0,8.73,7.2l1.17.81,1.22.72c.81.47,1.61,1,2.45,1.43,1.69.84,3.36,1.74,5.12,2.42A58.28,58.28,0,0,0,168.17,227.76Z"/><path class="cls-2" d="M276.31,110.49a123.9,123.9,0,0,0-73.86-59.16,122.2,122.2,0,0,0-48-4,126.58,126.58,0,0,0-23.66,5,125.13,125.13,0,0,0-22.18,9.58A123.26,123.26,0,0,0,90.88,265.64a122.2,122.2,0,0,0,42.45,22.23,107.44,107.44,0,0,0,11.73,2.78l5.95,1c2,.33,4,.53,6,.72s4,.32,6,.4l6,.05a105.48,105.48,0,0,0,12.05-.61A123.13,123.13,0,0,0,286.4,204.59a124,124,0,0,0-.63-71.77A126.71,126.71,0,0,0,276.31,110.49Zm0,0a123.75,123.75,0,0,1,14.53,46.05,124.15,124.15,0,0,1-109.58,137,107.9,107.9,0,0,1-12.19.71H163c-2-.07-4.07-.19-6.1-.36s-4.06-.37-6.07-.69l-6-1a101.3,101.3,0,0,1-11.91-2.77,124.22,124.22,0,1,1,143.46-179Z"/><path class="cls-2" d="M168.17,227.76A58.13,58.13,0,0,1,146,223.4c-1.78-.67-3.46-1.56-5.16-2.4-.84-.43-1.64-.94-2.47-1.41l-1.22-.72-1.18-.8a56.72,56.72,0,0,1-8.82-7.18,63.63,63.63,0,0,1-7.29-8.74c-1-1.61-2.09-3.18-3-4.88a49.49,49.49,0,0,1-2.51-5.12,58.23,58.23,0,0,1,12.26-63.78l1-1,1.07-1c.72-.63,1.42-1.29,2.16-1.9,1.52-1.18,3-2.4,4.63-3.43s3.27-2,4.93-3c.85-.45,1.72-.86,2.58-1.29.43-.21.86-.43,1.3-.63l1.33-.54a57.42,57.42,0,0,1,11-3.39l2.84-.5c1-.16,1.91-.23,2.87-.34,1.91-.26,3.84-.24,5.76-.34a58.73,58.73,0,0,1,41.53,17.36,57.94,57.94,0,0,1,12.59,19.11,58.31,58.31,0,0,1-54.12,80.29Zm0,0A57.74,57.74,0,0,0,209,210.7a57.08,57.08,0,0,0,12.37-18.79,57.24,57.24,0,0,0-12.87-62.34A56.83,56.83,0,0,0,168.17,113c-1.85.08-3.72,0-5.57.29-.93.11-1.86.16-2.78.31l-2.75.47a55.51,55.51,0,0,0-10.69,3.21l-1.29.52c-.43.19-.84.4-1.27.6-.83.41-1.68.8-2.51,1.23-1.61.94-3.26,1.8-4.79,2.88s-3,2.17-4.51,3.3c-.72.59-1.41,1.23-2.11,1.84l-1.05.93-1,1A58,58,0,0,0,115.31,148a57.6,57.6,0,0,0-.34,43.92,50.65,50.65,0,0,0,2.41,5.11c.82,1.7,1.87,3.27,2.85,4.89a58.86,58.86,0,0,0,7.13,8.78,56.36,56.36,0,0,0,8.73,7.2l1.17.81,1.22.72c.81.47,1.61,1,2.45,1.43,1.69.84,3.36,1.74,5.12,2.42A58.28,58.28,0,0,0,168.17,227.76Z"/><path class="cls-2" d="M268.12,115.26A113.77,113.77,0,0,0,95,82.67,117.21,117.21,0,0,0,79.43,98.61a113.71,113.71,0,0,0,56.32,180.1,102.61,102.61,0,0,0,10.82,2.6c3.66.6,7.31,1.31,11,1.62,1.84.17,3.69.3,5.55.38l5.57.06a96.22,96.22,0,0,0,11.13-.53,113.72,113.72,0,0,0,97.4-80.67,114.63,114.63,0,0,0-.43-66.27A116.86,116.86,0,0,0,268.12,115.26Zm0,0a114.06,114.06,0,0,1,13.32,42.55A114.72,114.72,0,0,1,180,284.21a98.44,98.44,0,0,1-11.26.63h-5.64c-1.88-.07-3.76-.18-5.64-.34-3.76-.28-7.46-1-11.18-1.55a99,99,0,0,1-11-2.59,115.2,115.2,0,0,1-68.66-55.28,115.47,115.47,0,0,1-9.22-87.65,113.85,113.85,0,0,1,21-39.67,118.64,118.64,0,0,1,15.86-16A114.75,114.75,0,0,1,200.11,60.21,114.58,114.58,0,0,1,268.12,115.26Z"/><path class="cls-2" d="M168.17,227.76A58.13,58.13,0,0,1,146,223.4c-1.78-.67-3.46-1.56-5.16-2.4-.84-.43-1.64-.94-2.47-1.41l-1.22-.72-1.18-.8a56.72,56.72,0,0,1-8.82-7.18,63.63,63.63,0,0,1-7.29-8.74c-1-1.61-2.09-3.18-3-4.88a49.49,49.49,0,0,1-2.51-5.12,58.23,58.23,0,0,1,12.26-63.78l1-1,1.07-1c.72-.63,1.42-1.29,2.16-1.9,1.52-1.18,3-2.4,4.63-3.43s3.27-2,4.93-3c.85-.45,1.72-.86,2.58-1.29.43-.21.86-.43,1.3-.63l1.33-.54a57.42,57.42,0,0,1,11-3.39l2.84-.5c1-.16,1.91-.23,2.87-.34,1.91-.26,3.84-.24,5.76-.34a58.73,58.73,0,0,1,41.53,17.36,57.94,57.94,0,0,1,12.59,19.11,58.31,58.31,0,0,1-54.12,80.29Zm0,0A57.74,57.74,0,0,0,209,210.7a57.08,57.08,0,0,0,12.37-18.79,57.24,57.24,0,0,0-12.87-62.34A56.83,56.83,0,0,0,168.17,113c-1.85.08-3.72,0-5.57.29-.93.11-1.86.16-2.78.31l-2.75.47a55.51,55.51,0,0,0-10.69,3.21l-1.29.52c-.43.19-.84.4-1.27.6-.83.41-1.68.8-2.51,1.23-1.61.94-3.26,1.8-4.79,2.88s-3,2.17-4.51,3.3c-.72.59-1.41,1.23-2.11,1.84l-1.05.93-1,1A58,58,0,0,0,115.31,148a57.6,57.6,0,0,0-.34,43.92,50.65,50.65,0,0,0,2.41,5.11c.82,1.7,1.87,3.27,2.85,4.89a58.86,58.86,0,0,0,7.13,8.78,56.36,56.36,0,0,0,8.73,7.2l1.17.81,1.22.72c.81.47,1.61,1,2.45,1.43,1.69.84,3.36,1.74,5.12,2.42A58.28,58.28,0,0,0,168.17,227.76Z"/><path class="cls-2" d="M259.92,120a104.27,104.27,0,1,0-172,116.2,107,107,0,0,0,14.45,14.34,103.42,103.42,0,0,0,35.81,19,112.12,112.12,0,0,0,20,3.92c1.69.17,3.39.29,5.09.37s3.4,0,5.1.06l2.56,0,2.55-.11c1.7-.05,3.39-.25,5.09-.37a104.24,104.24,0,0,0,89.5-73.7,105.18,105.18,0,0,0-.23-60.77A107.33,107.33,0,0,0,259.92,120Zm0,0a105.05,105.05,0,0,1,12.28,59.61,105.23,105.23,0,0,1-93.49,95.18c-1.72.14-3.43.35-5.16.42l-2.58.13h-2.59c-1.73,0-3.45,0-5.18,0s-3.45-.18-5.17-.33a109.25,109.25,0,0,1-20.34-3.84A105.17,105.17,0,0,1,101.2,252a109,109,0,0,1-14.76-14.54A105.07,105.07,0,0,1,74.8,220.31a106.13,106.13,0,0,1-8.25-80.47A105.28,105.28,0,0,1,259.92,120Z"/><path class="cls-2" d="M168.17,227.76A58.13,58.13,0,0,1,146,223.4c-1.78-.67-3.46-1.56-5.16-2.4-.84-.43-1.64-.94-2.47-1.41l-1.22-.72-1.18-.8a56.72,56.72,0,0,1-8.82-7.18,63.63,63.63,0,0,1-7.29-8.74c-1-1.61-2.09-3.18-3-4.88a49.49,49.49,0,0,1-2.51-5.12,58.23,58.23,0,0,1,12.26-63.78l1-1,1.07-1c.72-.63,1.42-1.29,2.16-1.9,1.52-1.18,3-2.4,4.63-3.43s3.27-2,4.93-3c.85-.45,1.72-.86,2.58-1.29.43-.21.86-.43,1.3-.63l1.33-.54a57.42,57.42,0,0,1,11-3.39l2.84-.5c1-.16,1.91-.23,2.87-.34,1.91-.26,3.84-.24,5.76-.34a58.73,58.73,0,0,1,41.53,17.36,57.94,57.94,0,0,1,12.59,19.11,58.31,58.31,0,0,1-54.12,80.29Zm0,0A57.74,57.74,0,0,0,209,210.7a57.08,57.08,0,0,0,12.37-18.79,57.24,57.24,0,0,0-12.87-62.34A56.83,56.83,0,0,0,168.17,113c-1.85.08-3.72,0-5.57.29-.93.11-1.86.16-2.78.31l-2.75.47a55.51,55.51,0,0,0-10.69,3.21l-1.29.52c-.43.19-.84.4-1.27.6-.83.41-1.68.8-2.51,1.23-1.61.94-3.26,1.8-4.79,2.88s-3,2.17-4.51,3.3c-.72.59-1.41,1.23-2.11,1.84l-1.05.93-1,1A58,58,0,0,0,115.31,148a57.6,57.6,0,0,0-.34,43.92,50.65,50.65,0,0,0,2.41,5.11c.82,1.7,1.87,3.27,2.85,4.89a58.86,58.86,0,0,0,7.13,8.78,56.36,56.36,0,0,0,8.73,7.2l1.17.81,1.22.72c.81.47,1.61,1,2.45,1.43,1.69.84,3.36,1.74,5.12,2.42A58.28,58.28,0,0,0,168.17,227.76Z"/><path class="cls-2" d="M250.72,125.39a93.63,93.63,0,1,0-141.91,116.7,93,93,0,0,0,32.07,17.15,88,88,0,0,0,8.88,2.22c3,.48,6,1.11,9.06,1.37,1.52.16,3,.27,4.56.35s3.06,0,4.59.07a80.16,80.16,0,0,0,9.16-.36,93.32,93.32,0,0,0,63.25-33.61A94.66,94.66,0,0,0,257.77,197a94.34,94.34,0,0,0-7-71.65Zm0,0a94.45,94.45,0,0,1,7.33,71.74,96.31,96.31,0,0,1-17.18,32.55,93.38,93.38,0,0,1-28.32,23.62,94.37,94.37,0,0,1-35.29,11,80.05,80.05,0,0,1-9.29.46c-1.55,0-3.11,0-4.65,0s-3.11-.16-4.65-.3c-3.1-.24-6.15-.84-9.23-1.3a85.86,85.86,0,0,1-9.05-2.21A94.63,94.63,0,1,1,250.72,125.39Z"/><path class="cls-2" d="M168.17,227.76A58.13,58.13,0,0,1,146,223.4c-1.78-.67-3.46-1.56-5.16-2.4-.84-.43-1.64-.94-2.47-1.41l-1.22-.72-1.18-.8a56.72,56.72,0,0,1-8.82-7.18,63.63,63.63,0,0,1-7.29-8.74c-1-1.61-2.09-3.18-3-4.88a49.49,49.49,0,0,1-2.51-5.12,58.23,58.23,0,0,1,12.26-63.78l1-1,1.07-1c.72-.63,1.42-1.29,2.16-1.9,1.52-1.18,3-2.4,4.63-3.43s3.27-2,4.93-3c.85-.45,1.72-.86,2.58-1.29.43-.21.86-.43,1.3-.63l1.33-.54a57.42,57.42,0,0,1,11-3.39l2.84-.5c1-.16,1.91-.23,2.87-.34,1.91-.26,3.84-.24,5.76-.34a58.73,58.73,0,0,1,41.53,17.36,57.94,57.94,0,0,1,12.59,19.11,58.31,58.31,0,0,1-54.12,80.29Zm0,0A57.74,57.74,0,0,0,209,210.7a57.08,57.08,0,0,0,12.37-18.79,57.24,57.24,0,0,0-12.87-62.34A56.83,56.83,0,0,0,168.17,113c-1.85.08-3.72,0-5.57.29-.93.11-1.86.16-2.78.31l-2.75.47a55.51,55.51,0,0,0-10.69,3.21l-1.29.52c-.43.19-.84.4-1.27.6-.83.41-1.68.8-2.51,1.23-1.61.94-3.26,1.8-4.79,2.88s-3,2.17-4.51,3.3c-.72.59-1.41,1.23-2.11,1.84l-1.05.93-1,1A58,58,0,0,0,115.31,148a57.6,57.6,0,0,0-.34,43.92,50.65,50.65,0,0,0,2.41,5.11c.82,1.7,1.87,3.27,2.85,4.89a58.86,58.86,0,0,0,7.13,8.78,56.36,56.36,0,0,0,8.73,7.2l1.17.81,1.22.72c.81.47,1.61,1,2.45,1.43,1.69.84,3.36,1.74,5.12,2.42A58.28,58.28,0,0,0,168.17,227.76Z"/><path class="cls-2" d="M225.8,111.93l-3-2.72c-1-.88-2-1.85-3-2.66-2.06-1.72-4.24-3.29-6.46-4.8a81.45,81.45,0,0,0-103.21,10.53,81.38,81.38,0,0,0,.35,115,91.29,91.29,0,0,0,12.26,10.12,88.57,88.57,0,0,0,14,7.53A86.94,86.94,0,0,0,152,249.51a83.4,83.4,0,0,0,15.84,1.57,81.19,81.19,0,0,0,15.85-1.48,77.66,77.66,0,0,0,15.28-4.5A81.58,81.58,0,0,0,225.8,111.93Zm0,0a81.82,81.82,0,0,1,24.15,58,82.52,82.52,0,0,1-50.49,76.44A79.24,79.24,0,0,1,184,251.13a78.21,78.21,0,0,1-16.15,1.66,84.47,84.47,0,0,1-16.18-1.53A89.19,89.19,0,0,1,136,246.6,90.66,90.66,0,0,1,121.68,239a91.57,91.57,0,0,1-12.6-10.31,82.6,82.6,0,0,1,27.19-134.8,84.16,84.16,0,0,1,31.52-6.07,81.61,81.61,0,0,1,45.6,13.92c2.21,1.52,4.39,3.1,6.45,4.83,1.06.82,2,1.79,3,2.68Z"/><path class="cls-2" d="M172.45,227.6l-2.84.12-1.42.05-1.42,0-2.84-.1-2.83-.29-1.41-.16-1.4-.25c-.93-.17-1.87-.32-2.8-.51-1.83-.49-3.69-.87-5.47-1.53A58.46,58.46,0,0,1,110,174.19a58.62,58.62,0,0,1,2.58-22.66,51.34,51.34,0,0,1,2-5.38l1.19-2.61c.42-.87.91-1.7,1.36-2.54l.69-1.27.77-1.21c.52-.81,1-1.64,1.57-2.42a55.32,55.32,0,0,1,3.53-4.55c1.21-1.5,2.61-2.82,3.94-4.21s2.82-2.62,4.37-3.76a56.7,56.7,0,0,1,9.71-6.2,58,58,0,0,1,10.74-4.2l2.8-.71c.93-.25,1.89-.36,2.83-.55,1.89-.4,3.82-.52,5.73-.74a58.55,58.55,0,0,1,42.69,14.22,58.34,58.34,0,0,1,19.87,40.17A60.65,60.65,0,0,1,226,177a59.66,59.66,0,0,1-2.59,11.12,58.25,58.25,0,0,1-51,39.48Zm0,0a58.29,58.29,0,0,0,21.73-6.1,57.31,57.31,0,0,0,11.21-94.8A56.77,56.77,0,0,0,164,113.17c-1.85.2-3.72.3-5.54.68-.92.18-1.85.28-2.75.52L153,115a56.42,56.42,0,0,0-10.42,4,54.58,54.58,0,0,0-9.44,6c-1.52,1.09-2.85,2.4-4.26,3.62s-2.67,2.61-3.85,4.06-2.35,2.89-3.49,4.38c-.55.75-1,1.55-1.56,2.32l-.77,1.17-.69,1.22c-.45.82-.94,1.62-1.36,2.45l-1.21,2.53a48.74,48.74,0,0,0-2.08,5.21,57.29,57.29,0,0,0,36.22,72.81c1.78.66,3.63,1.05,5.46,1.55.92.2,1.86.35,2.79.53l1.39.26,1.41.16,2.82.32,2.84.11,1.42.06,1.42-.05Z"/><path class="cls-2" d="M217.23,120.5a70.21,70.21,0,0,0-22.7-15.09,69.37,69.37,0,0,0-75.47,113.25,76,76,0,0,0,10.43,8.6,67.78,67.78,0,0,0,11.9,6.39,69.31,69.31,0,0,0,26.4,5.33,75.41,75.41,0,0,0,13.49-1.25,69.58,69.58,0,0,0,13-3.83,71,71,0,0,0,12-6.32A71.74,71.74,0,0,0,216.87,219a69.52,69.52,0,0,0,.36-98.52Zm0,0a69.57,69.57,0,0,1,15.22,22.65,70.49,70.49,0,0,1-14.87,76.58A73.07,73.07,0,0,1,207,228.57a71.81,71.81,0,0,1-12.16,6.6,70.28,70.28,0,0,1-54.13.2,70,70,0,0,1-12.27-6.51,76.18,76.18,0,0,1-10.76-8.79A70.37,70.37,0,0,1,167.8,99.9a69.74,69.74,0,0,1,49.43,20.6Z"/><path class="cls-2" d="M214.71,204.3a58.07,58.07,0,0,1-38,22.95c-.94.17-1.88.26-2.83.36l-1.41.15-1.43.06-2.84.13-2.85-.07-1.43,0-1.42-.14-2.84-.29-2.81-.48c-.47-.09-.94-.16-1.41-.26l-1.38-.34a57.42,57.42,0,0,1-10.79-3.74,60.87,60.87,0,0,1-9.86-5.78,58.23,58.23,0,0,1-22.36-61.15A54.42,54.42,0,0,1,115,144.8c.76-1.77,1.77-3.42,2.68-5.12s2-3.28,3.21-4.8a58.81,58.81,0,0,1,38.63-23.08,60.52,60.52,0,0,1,11.49-.51,58.78,58.78,0,0,1,11.36,1.76,58.52,58.52,0,0,1,42.09,70.84,57.78,57.78,0,0,1-9.71,20.41Zm0,0a57.69,57.69,0,0,0,9.56-20.44,58.36,58.36,0,0,0,1-22.53,56.77,56.77,0,0,0-7.76-21.11,57.78,57.78,0,0,0-15.23-16.46A56.9,56.9,0,0,0,182,114.38a57.71,57.71,0,0,0-11.1-1.53,63.24,63.24,0,0,0-11.17.65,59.51,59.51,0,0,0-10.83,2.75,58.15,58.15,0,0,0-10.06,4.83,55.53,55.53,0,0,0-8.93,6.7,54.76,54.76,0,0,0-7.45,8.29c-1.17,1.46-2.11,3.07-3.14,4.62s-1.88,3.22-2.62,4.93a52.86,52.86,0,0,0-3.81,10.49A57.59,57.59,0,0,0,134.05,216a60.08,60.08,0,0,0,9.62,5.85,55.9,55.9,0,0,0,10.59,3.86l1.36.36c.46.11.93.19,1.39.28l2.78.53,2.81.33,1.4.16,1.42.06,2.83.12,2.83-.08,1.41,0,1.41-.13c.94-.09,1.89-.17,2.82-.34A57.88,57.88,0,0,0,214.71,204.3Z"/><path class="cls-3" d="M180.58,79.72l0,.07-4.32,8.55-5.92,11.73-6.1,12.07a57.89,57.89,0,0,0-49.3,35.06l-13.49.75-12.86.72-8.93.5h-.18c.36-1.57.77-3.12,1.22-4.65a86.89,86.89,0,0,1,2.85-8.33,91,91,0,0,1,75.9-56.91c2.85-.28,5.75-.42,8.68-.42,1.22,0,2.44,0,3.65.07Q176.21,79.12,180.58,79.72Z"/><path class="cls-3" d="M192.13,257.68a90.75,90.75,0,0,1-21.56,3.18c-.83,0-1.65,0-2.48,0-1.25,0-2.49,0-3.73-.08-2.81-.11-5.6-.35-8.34-.72q-3.09-.4-6.11-1A89.82,89.82,0,0,1,134,254.28a91.22,91.22,0,0,1-52.72-57h.18l8.81-.49,12.67-.71,13.24-.74a57.87,57.87,0,0,0,52,32.44c1.44,0,2.87,0,4.28-.16l7.33,11.21,7.14,10.91,5.17,7.89Z"/><path class="cls-3" d="M259.1,169.88q0,4.32-.39,8.53c-.16,1.69-.36,3.36-.61,5-.22,1.47-.48,2.94-.77,4.39s-.61,2.88-1,4.31c-.59,2.37-1.29,4.73-2.09,7.06q-.5,1.51-1.08,3-1,2.55-2.11,5.05-.51,1.13-1.05,2.25-1.08,2.23-2.3,4.44h0c-.27.47-.54.95-.8,1.43-.55.95-1.12,1.89-1.71,2.83q-1.25,2-2.56,3.87-1.74,2.5-3.68,4.89l-1,1.17h0q-2.13,2.56-4.46,5l-5.16-7.88-6.89-10.53-6.79-10.39a57.89,57.89,0,0,0-5.27-75l5.53-11,5.64-11.17,4.26-8.42a91.86,91.86,0,0,1,9.09,8.33c.3.31.6.63.89,1l.77.84c.42.46.83.92,1.22,1.38s.8.93,1.19,1.4c.23.28.46.55.68.83q.64.78,1.26,1.59c.64.8,1.25,1.61,1.83,2.44.34.46.67.92,1,1.39.23.32.45.65.68,1q.56.83,1.08,1.65t1.14,1.8c.08.12.15.24.22.36.27.44.53.87.78,1.31q.84,1.4,1.59,2.82c.22.41.44.83.65,1.25.54,1,1.06,2.1,1.55,3.16.25.53.49,1.06.73,1.6s.47,1.07.7,1.61c.38.86.73,1.73,1.06,2.61.17.44.33.87.49,1.31a84.1,84.1,0,0,1,3.54,12.1c.2.91.39,1.84.56,2.76s.33,1.85.47,2.77.26,1.78.38,2.68c.22,1.75.38,3.51.5,5.28,0,.71.08,1.43.11,2.14C259.07,167.35,259.1,168.61,259.1,169.88Z"/><path class="cls-4" d="M226.05,169.88a57.86,57.86,0,0,1-53.6,57.72c-1.41.11-2.84.16-4.28.16a57.88,57.88,0,0,1-4-115.62c1.31-.09,2.63-.14,4-.14a57.88,57.88,0,0,1,57.88,57.88Z"/><path class="cls-5" d="M185.55,80.62,197,12.53A159.49,159.49,0,0,0,174.47,10l-2.73,69A89.78,89.78,0,0,1,185.55,80.62Z"/><path class="cls-5" d="M149.93,259l-13.8,67.64q5.34,1.08,10.71,1.81L156,260Q153,259.6,149.93,259Z"/><path class="cls-5" d="M80.83,144.57l-66.93-17c-1.32,4.83-2.42,9.7-3.27,14.58l68,11.89A89.84,89.84,0,0,1,80.83,144.57Z"/><path class="cls-5" d="M91.12,121.57a90.76,90.76,0,0,1,68.3-42.2l-6.63-68.68A160.07,160.07,0,0,0,18.72,112.86l65,23.4A92.55,92.55,0,0,1,91.12,121.57Z"/><path class="cls-5" d="M119.86,246.92a90.79,90.79,0,0,1-42.36-70L8.71,182.33A160.2,160.2,0,0,0,108.2,318.17l25.84-64A91.21,91.21,0,0,1,119.86,246.92Z"/><path class="cls-5" d="M164.36,260.74l-2.87,68.95q5.46.22,10.91.08l-1.83-69C168.5,260.84,166.43,260.82,164.36,260.74Z"/><path class="cls-5" d="M307.93,92.08l-59.66,34.74A91,91,0,0,1,238,228.12l.06.11a89.84,89.84,0,0,1-17,15.68l40,56.15a160.07,160.07,0,0,0,46.8-208Z"/><path class="cls-6" d="M203.08,253.85l-.23.1c-.78.32-1.56.63-2.34.92-.62.24-1.24.46-1.86.69l-.24.08h0a91.31,91.31,0,0,1-27.84,5.14l1.83,69a160.5,160.5,0,0,0,88.73-29.71l-40-56.15A90.46,90.46,0,0,1,203.08,253.85Z"/><path class="cls-6" d="M156,260l-9.19,68.42q7.32,1,14.65,1.27l2.87-68.95Q160.19,260.56,156,260Z"/><path class="cls-6" d="M134,254.17l-25.84,64a158.8,158.8,0,0,0,27.93,8.44L149.93,259A89.74,89.74,0,0,1,134,254.17Z"/><path class="cls-6" d="M191.1,81.86l.13-.22a91.76,91.76,0,0,1,41.72,24l-.15.26a90.43,90.43,0,0,1,15.47,20.93l59.66-34.74A160.3,160.3,0,0,0,197,12.53L185.55,80.62C187.41,81,189.26,81.38,191.1,81.86Z"/><path class="cls-6" d="M171.74,79l2.73-69a159.93,159.93,0,0,0-21.68.65l6.63,68.68A90.38,90.38,0,0,1,171.74,79Z"/><path class="cls-6" d="M78.61,154l-68-11.89a159.68,159.68,0,0,0-1.92,40.2l68.79-5.46A90.46,90.46,0,0,1,78.61,154Z"/><path class="cls-6" d="M83.68,136.26l-65-23.4c-1.86,4.84-3.46,9.75-4.82,14.69l66.93,17Q82,140.37,83.68,136.26Z"/><circle class="cls-7" cx="168.5" cy="170.5" r="57.5"/><text class="cls-8" transform="translate(117.67 161.22)">1986<tspan x="0" y="48">1992</tspan></text></g></svg>