<svg xmlns="http://www.w3.org/2000/svg" viewBox="0 0 363 519"><defs><style>.cls-1{fill:none;stroke:#502c51;stroke-miterlimit:10;stroke-width:10px;}.cls-2{fill:#502c51;}.cls-3{fill:#6e4072;}.cls-4,.cls-6,.cls-7{fill:#eee7d3;}.cls-4{opacity:0.5;}.cls-5{fill:#da6f5b;}.cls-6{opacity:0.3;}.cls-7{opacity:0.4;}</style></defs><title>bobine-VA</title><g id="Calque_3" data-name="Calque 3"><path class="cls-1" d="M179.48,113.27c-61.57-.7-186.61,48-155,310C37,527,97,603,97,603"/><ellipse class="cls-2" cx="179.79" cy="185.94" rx="77.88" ry="77.84" transform="translate(-78.82 181.59) rotate(-45)"/><path class="cls-3" d="M128.38,134.52a72.75,72.75,0,0,1,51.41-21.44,73.21,73.21,0,1,1,0,146.42,73.16,73.16,0,0,1-51.41-125Zm0,0a72.2,72.2,0,0,0,51.41,123.27,72.21,72.21,0,0,0,0-144.42,72.54,72.54,0,0,0-51.41,21.15Z"/><path class="cls-3" d="M132,138.18a67.48,67.48,0,0,1,47.75-19.93,68,68,0,1,1,0,136.08A68,68,0,0,1,132,138.18Zm0,0A67,67,0,1,0,226.85,233a67,67,0,0,0-47.06-114.45A67.37,67.37,0,0,0,132,138.18Z"/><path class="cls-3" d="M135.69,141.84a62.36,62.36,0,0,1,44.1-18.42,62.87,62.87,0,1,1,0,125.74,62.82,62.82,0,0,1-44.1-107.32Zm0,0a62.26,62.26,0,0,0-18.12,44.1,61.87,61.87,0,1,0,62.22-62.23,62.26,62.26,0,0,0-44.1,18.13Z"/><path class="cls-3" d="M139.35,145.49a57.18,57.18,0,0,1,40.44-16.89,57.68,57.68,0,0,1,53.48,35.18,57.54,57.54,0,0,1,4.57,22.16,57.7,57.7,0,1,1-111-21.92A57.27,57.27,0,0,1,139.35,145.49Zm0,0a57,57,0,0,0-16.61,40.45,56.56,56.56,0,1,0,16.61-40.45Z"/><path class="cls-3" d="M143.46,149.6a51.88,51.88,0,0,1,73-.35,51.93,51.93,0,0,1-36.69,88.93A51.91,51.91,0,0,1,132,205.72a52.45,52.45,0,0,1-3.77-19.78,51.59,51.59,0,0,1,15.2-36.34Zm0,0a51.31,51.31,0,0,0-14.9,36.34,50.88,50.88,0,0,0,31.84,46.83,51.37,51.37,0,0,0,19.39,3.69,50.78,50.78,0,0,0,50.54-50.52,50.93,50.93,0,0,0-86.87-36.34Z"/><path class="cls-3" d="M148.12,154.27A44.89,44.89,0,0,1,179.79,141a45.29,45.29,0,1,1,0,90.58,45.25,45.25,0,0,1-31.67-77.31Zm0,0a44.84,44.84,0,0,0-13,31.67,44.32,44.32,0,0,0,27.77,40.74,44.79,44.79,0,0,0,16.87,3.19,44.17,44.17,0,0,0,43.94-43.93,44.33,44.33,0,0,0-75.61-31.67Z"/><path class="cls-3" d="M152.81,159a38.66,38.66,0,0,1,63.13,42A38.7,38.7,0,0,1,179.79,225a38.68,38.68,0,0,1-27-66Zm0,0a38.26,38.26,0,0,0-8.24,12.4,37.68,37.68,0,1,0,20.63-20.64A38.22,38.22,0,0,0,152.81,159Z"/><path class="cls-3" d="M158.29,164.43a30.91,30.91,0,0,1,50.49,33.51,30.85,30.85,0,0,1-17,17,30.91,30.91,0,0,1-33.51-50.49Zm0,0a30.05,30.05,0,0,0-8.77,21.51,30.12,30.12,0,0,0,9.13,21.15,29.7,29.7,0,0,0,9.77,6.3,29.9,29.9,0,1,0-10.13-49Z"/><path class="cls-3" d="M163,169.13a24.27,24.27,0,0,1,41.43,16.81,24.27,24.27,0,0,1-41.79,17.16,24.3,24.3,0,0,1,.36-34Zm0,0a23.87,23.87,0,0,0-5.12,7.73,23.27,23.27,0,1,0,21.92-14.55,23.58,23.58,0,0,0-9.08,1.7A23.93,23.93,0,0,0,163,169.13Z"/><path class="cls-4" d="M209.17,193.49l36.38,55.61a91,91,0,0,0-8.68-134.35L208,172l-43-21.7,27.57-54.56a92,92,0,0,0-12.49-.85,91,91,0,0,0-88.65,70.31l55.54-3.1,2.69,48-56.4,3.15a91.14,91.14,0,0,0,110.86,60.41L168.9,219.84Z"/><circle class="cls-5" cx="180.17" cy="185.88" r="57.88"/><path class="cls-6" d="M197.55,96.62,209,28.53A159.49,159.49,0,0,0,186.47,26l-2.73,69A89.78,89.78,0,0,1,197.55,96.62Z"/><path class="cls-6" d="M161.93,275l-13.8,67.64q5.34,1.08,10.71,1.81L168,276Q165,275.6,161.93,275Z"/><path class="cls-6" d="M92.83,160.57l-66.93-17c-1.32,4.83-2.42,9.7-3.27,14.58l68,11.89A89.84,89.84,0,0,1,92.83,160.57Z"/><path class="cls-6" d="M103.12,137.57a90.76,90.76,0,0,1,68.3-42.2l-6.63-68.68A160.07,160.07,0,0,0,30.72,128.86l65,23.4A92.55,92.55,0,0,1,103.12,137.57Z"/><path class="cls-6" d="M131.86,262.92A90.79,90.79,0,0,1,89.5,192.87l-68.79,5.46A160.2,160.2,0,0,0,120.2,334.17l25.84-64A91.21,91.21,0,0,1,131.86,262.92Z"/><path class="cls-6" d="M176.36,276.74l-2.87,68.95q5.46.22,10.91.08l-1.83-69C180.5,276.84,178.43,276.82,176.36,276.74Z"/><path class="cls-6" d="M319.93,108.08l-59.66,34.74A91,91,0,0,1,250,244.12l.06.11a89.84,89.84,0,0,1-17,15.68l40,56.15a160.07,160.07,0,0,0,46.8-208Z"/><path class="cls-7" d="M215.08,269.85l-.23.1c-.78.32-1.56.63-2.34.92l-1.86.69-.24.08h0a91.31,91.31,0,0,1-27.84,5.14l1.83,69a160.5,160.5,0,0,0,88.73-29.71l-40-56.15A90.46,90.46,0,0,1,215.08,269.85Z"/><path class="cls-7" d="M168,276l-9.19,68.42q7.32,1,14.65,1.27l2.87-68.95Q172.19,276.56,168,276Z"/><path class="cls-7" d="M146,270.17l-25.84,64a158.8,158.8,0,0,0,27.93,8.44L161.93,275A89.74,89.74,0,0,1,146,270.17Z"/><path class="cls-7" d="M203.1,97.86l.13-.22a91.76,91.76,0,0,1,41.72,24l-.15.26a90.43,90.43,0,0,1,15.47,20.93l59.66-34.74A160.3,160.3,0,0,0,209,28.53L197.55,96.62C199.41,97,201.26,97.38,203.1,97.86Z"/><path class="cls-7" d="M183.74,95l2.73-69a159.93,159.93,0,0,0-21.68.65l6.63,68.68A90.38,90.38,0,0,1,183.74,95Z"/><path class="cls-7" d="M90.61,170l-68-11.89a159.68,159.68,0,0,0-1.92,40.2l68.79-5.46A90.46,90.46,0,0,1,90.61,170Z"/><path class="cls-7" d="M95.68,152.26l-65-23.4c-1.86,4.84-3.46,9.75-4.82,14.69l66.93,17Q94,156.37,95.68,152.26Z"/></g></svg>