<svg id="Calque_1" data-name="Calque 1" xmlns="http://www.w3.org/2000/svg" xmlns:xlink="http://www.w3.org/1999/xlink" viewBox="0 0 582.14 486.47"><defs><style>.cls-1,.cls-13{fill:none;}.cls-2{fill:#f2b382;}.cls-3{fill:#b94a5b;}.cls-4{fill:#512c51;}.cls-5{fill:#745674;}.cls-6{fill:#2f1b30;}.cls-7{clip-path:url(#clip-path);}.cls-8{fill:#9fadb6;}.cls-9{opacity:0.66;}.cls-10{fill:#fff;}.cls-11{fill:#eee7d3;}.cls-12{fill:#da705b;}.cls-13{stroke:#da705b;stroke-miterlimit:10;}</style><clipPath id="clip-path" transform="translate(153.97 0)"><path class="cls-1" d="M59,24.81H301.76A2.29,2.29,0,0,1,304,27.1v178a0,0,0,0,1,0,0H56.76a0,0,0,0,1,0,0V27.1A2.29,2.29,0,0,1,59,24.81Z"/></clipPath></defs><title>dictaphone</title><path class="cls-2" d="M156.32,104.83H268a0,0,0,0,1,0,0v61.51a0,0,0,0,1,0,0H156.32a2.14,2.14,0,0,1-2.14-2.14V107A2.14,2.14,0,0,1,156.32,104.83Z"/><path class="cls-2" d="M156.32,25.29H268a0,0,0,0,1,0,0V86.8a0,0,0,0,1,0,0H156.32a2.14,2.14,0,0,1-2.14-2.14V27.44A2.14,2.14,0,0,1,156.32,25.29Z"/><path class="cls-3" d="M156.32,184.37H268a0,0,0,0,1,0,0v61.51a0,0,0,0,1,0,0H156.32a2.14,2.14,0,0,1-2.14-2.14V186.52A2.14,2.14,0,0,1,156.32,184.37Z"/><rect class="cls-4" x="187.9" width="297.87" height="444" rx="2.14"/><rect class="cls-5" x="210.73" y="259.46" width="247.29" height="159.29" rx="2.14"/><rect class="cls-6" x="225.48" y="391.09" width="15.46" height="15.46"/><rect class="cls-6" x="250.78" y="391.09" width="15.46" height="15.46"/><rect class="cls-6" x="276.07" y="391.09" width="15.46" height="15.46"/><rect class="cls-6" x="301.36" y="391.09" width="15.46" height="15.46"/><rect class="cls-6" x="326.65" y="391.09" width="15.46" height="15.46"/><rect class="cls-6" x="351.94" y="391.09" width="15.46" height="15.46"/><rect class="cls-6" x="377.23" y="391.09" width="15.46" height="15.46"/><rect class="cls-6" x="402.52" y="391.09" width="15.46" height="15.46"/><rect class="cls-6" x="427.81" y="391.09" width="15.46" height="15.46"/><rect class="cls-6" x="225.48" y="367.2" width="15.46" height="15.46"/><rect class="cls-6" x="250.78" y="367.2" width="15.46" height="15.46"/><rect class="cls-6" x="276.07" y="367.2" width="15.46" height="15.46"/><rect class="cls-6" x="301.36" y="367.2" width="15.46" height="15.46"/><rect class="cls-6" x="326.65" y="367.2" width="15.46" height="15.46"/><rect class="cls-6" x="351.94" y="367.2" width="15.46" height="15.46"/><rect class="cls-6" x="377.23" y="367.2" width="15.46" height="15.46"/><rect class="cls-6" x="402.52" y="367.2" width="15.46" height="15.46"/><rect class="cls-6" x="427.81" y="367.2" width="15.46" height="15.46"/><rect class="cls-6" x="225.48" y="343.32" width="15.46" height="15.46"/><rect class="cls-6" x="250.78" y="343.32" width="15.46" height="15.46"/><rect class="cls-6" x="276.07" y="343.32" width="15.46" height="15.46"/><rect class="cls-6" x="301.36" y="343.32" width="15.46" height="15.46"/><rect class="cls-6" x="326.65" y="343.32" width="15.46" height="15.46"/><rect class="cls-6" x="351.94" y="343.32" width="15.46" height="15.46"/><rect class="cls-6" x="377.23" y="343.32" width="15.46" height="15.46"/><rect class="cls-6" x="402.52" y="343.32" width="15.46" height="15.46"/><rect class="cls-6" x="427.81" y="343.32" width="15.46" height="15.46"/><rect class="cls-6" x="225.48" y="319.43" width="15.46" height="15.46"/><rect class="cls-6" x="250.78" y="319.43" width="15.46" height="15.46"/><rect class="cls-6" x="276.07" y="319.43" width="15.46" height="15.46"/><rect class="cls-6" x="301.36" y="319.43" width="15.46" height="15.46"/><rect class="cls-6" x="326.65" y="319.43" width="15.46" height="15.46"/><rect class="cls-6" x="351.94" y="319.43" width="15.46" height="15.46"/><rect class="cls-6" x="377.23" y="319.43" width="15.46" height="15.46"/><rect class="cls-6" x="402.52" y="319.43" width="15.46" height="15.46"/><rect class="cls-6" x="427.81" y="319.43" width="15.46" height="15.46"/><rect class="cls-6" x="225.48" y="295.54" width="15.46" height="15.46"/><rect class="cls-6" x="250.78" y="295.54" width="15.46" height="15.46"/><rect class="cls-6" x="276.07" y="295.54" width="15.46" height="15.46"/><rect class="cls-6" x="301.36" y="295.54" width="15.46" height="15.46"/><rect class="cls-6" x="326.65" y="295.54" width="15.46" height="15.46"/><rect class="cls-6" x="351.94" y="295.54" width="15.46" height="15.46"/><rect class="cls-6" x="377.23" y="295.54" width="15.46" height="15.46"/><rect class="cls-6" x="402.52" y="295.54" width="15.46" height="15.46"/><rect class="cls-6" x="427.81" y="295.54" width="15.46" height="15.46"/><rect class="cls-6" x="225.48" y="271.66" width="15.46" height="15.46"/><rect class="cls-6" x="250.78" y="271.66" width="15.46" height="15.46"/><rect class="cls-6" x="276.07" y="271.66" width="15.46" height="15.46"/><rect class="cls-6" x="301.36" y="271.66" width="15.46" height="15.46"/><rect class="cls-6" x="326.65" y="271.66" width="15.46" height="15.46"/><rect class="cls-6" x="351.94" y="271.66" width="15.46" height="15.46"/><rect class="cls-6" x="377.23" y="271.66" width="15.46" height="15.46"/><rect class="cls-6" x="402.52" y="271.66" width="15.46" height="15.46"/><rect class="cls-6" x="427.81" y="271.66" width="15.46" height="15.46"/><g class="cls-7"><rect class="cls-8" x="210.73" y="24.81" width="247.29" height="152.23"/><g class="cls-9"><path class="cls-10" d="M155.81,94.66l1,28.06c0,.23-.43.42-1,.43s-1-.18-1-.42h0Z" transform="translate(153.97 0)"/><path class="cls-10" d="M149.71,108l1,14.77c0,.23-.42.43-1,.43s-1-.17-1-.4v0Z" transform="translate(153.97 0)"/><path class="cls-10" d="M119.23,110.17l1,12.55c0,.23-.42.43-1,.43s-1-.17-1-.4v0Z" transform="translate(153.97 0)"/><path class="cls-10" d="M143.62,115.34l1,7.38c0,.23-.39.43-1,.44s-1-.16-1.06-.39v0Z" transform="translate(153.97 0)"/><path class="cls-10" d="M137.52,116.81l1,5.91c0,.23-.37.43-.93.45s-1-.16-1.07-.39v-.06Z" transform="translate(153.97 0)"/><path class="cls-10" d="M125.33,113.12l1,9.6c0,.23-.4.43-1,.44s-1-.17-1-.4v0Z" transform="translate(153.97 0)"/><path class="cls-10" d="M131.42,113.12l1,9.6c0,.23-.41.43-1,.44s-1-.17-1.05-.4v0Z" transform="translate(153.97 0)"/><path class="cls-10" d="M82.66,116.81l1,5.91c0,.23-.38.43-.93.45s-1-.16-1.08-.39v-.06Z" transform="translate(153.97 0)"/><path class="cls-10" d="M70.47,116.81l1,5.91c0,.23-.38.43-.93.45s-1-.16-1.08-.39v-.06Z" transform="translate(153.97 0)"/><path class="cls-10" d="M64.37,120.14l1,2.58c.09.23-.28.45-.84.49s-1.07-.12-1.16-.35a.17.17,0,0,1,0-.14Z" transform="translate(153.97 0)"/><path class="cls-10" d="M76.56,113.12l1,9.6c0,.23-.4.43-1,.44s-1-.17-1-.4v0Z" transform="translate(153.97 0)"/><path class="cls-10" d="M94.85,116.81l1,5.91c0,.23-.38.43-.93.45s-1-.16-1.07-.39a.06.06,0,0,1,0-.06Z" transform="translate(153.97 0)"/><path class="cls-10" d="M88.75,113.12l1,9.6c0,.23-.41.43-1,.44s-1-.17-1-.4v0Z" transform="translate(153.97 0)"/><path class="cls-10" d="M107,116.81l1,5.91c0,.23-.37.43-.93.45s-1-.16-1.07-.39v-.06Z" transform="translate(153.97 0)"/><path class="cls-10" d="M101,113.12l1,9.6c0,.23-.41.43-1,.44s-1-.17-1-.4v0Z" transform="translate(153.97 0)"/><path class="cls-10" d="M113.14,83.58l1,39.14c0,.23-.44.42-1,.43s-1-.19-1-.42h0Z" transform="translate(153.97 0)"/><path class="cls-10" d="M204.58,94.66l1,28.06c0,.23-.44.42-1,.43s-1-.18-1-.42h0Z" transform="translate(153.97 0)"/><path class="cls-10" d="M198.48,108l1,14.77c0,.23-.42.43-1,.43s-1-.17-1-.4v0Z" transform="translate(153.97 0)"/><path class="cls-10" d="M168,110.17l1,12.55c0,.23-.41.43-1,.43s-1-.17-1-.4v0Z" transform="translate(153.97 0)"/><path class="cls-10" d="M192.38,115.34l1,7.38c0,.23-.4.43-.95.44s-1-.16-1.06-.39v0Z" transform="translate(153.97 0)"/><path class="cls-10" d="M186.29,116.81l1,5.91c0,.23-.38.43-.93.45s-1-.16-1.07-.39a.06.06,0,0,1,0-.06Z" transform="translate(153.97 0)"/><path class="cls-10" d="M174.1,113.12l1,9.6c0,.23-.41.43-1,.44s-1-.17-1-.4v0Z" transform="translate(153.97 0)"/><path class="cls-10" d="M180.19,113.12l1,9.6c0,.23-.4.43-.95.44s-1-.17-1.05-.4v0Z" transform="translate(153.97 0)"/><path class="cls-10" d="M161.9,83.58l1,39.14c0,.23-.44.42-1,.43s-1-.19-1-.42h0Z" transform="translate(153.97 0)"/><path class="cls-10" d="M265.54,94.66l1,28.06c0,.23-.44.42-1,.43s-1-.18-1-.42h0Z" transform="translate(153.97 0)"/><path class="cls-10" d="M259.44,108l1,14.77c0,.23-.42.43-1,.43s-1-.17-1-.4v0Z" transform="translate(153.97 0)"/><path class="cls-10" d="M229,110.17l1,12.55c0,.23-.41.43-1,.43s-1-.17-1-.4v0Z" transform="translate(153.97 0)"/><path class="cls-10" d="M253.34,115.34l1,7.38c0,.23-.4.43-.95.44s-1-.16-1.06-.39v0Z" transform="translate(153.97 0)"/><path class="cls-10" d="M247.25,116.81l1,5.91c0,.23-.38.43-.93.45s-1-.16-1.07-.39a.06.06,0,0,1,0-.06Z" transform="translate(153.97 0)"/><path class="cls-10" d="M235.06,113.12l1,9.6c0,.23-.41.43-1,.44s-1-.17-1-.4v0Z" transform="translate(153.97 0)"/><path class="cls-10" d="M210.67,110.17l1,12.55c0,.23-.41.43-1,.43s-1-.17-1-.4v0Z" transform="translate(153.97 0)"/><path class="cls-10" d="M216.77,113.12l1,9.6c0,.23-.4.43-1,.44s-1-.17-1-.4a0,0,0,0,1,0,0Z" transform="translate(153.97 0)"/><path class="cls-10" d="M241.15,113.12l1,9.6c0,.23-.4.43-1,.44s-1-.17-1-.4v0Z" transform="translate(153.97 0)"/><path class="cls-10" d="M222.86,83.58l1,39.14c0,.23-.44.42-1,.43s-1-.19-1-.42h0Z" transform="translate(153.97 0)"/><path class="cls-10" d="M314.3,94.66l1,28.06c0,.23-.44.42-1,.43s-1-.18-1-.42h0Z" transform="translate(153.97 0)"/><path class="cls-10" d="M308.21,108l1,14.77c0,.23-.42.43-1,.43s-1-.17-1-.4a0,0,0,0,1,0,0Z" transform="translate(153.97 0)"/><path class="cls-10" d="M277.73,110.17l1,12.55c0,.23-.42.43-1,.43s-1-.17-1-.4a0,0,0,0,1,0,0Z" transform="translate(153.97 0)"/><path class="cls-10" d="M302.11,115.34l1,7.38c0,.23-.39.43-.94.44s-1-.16-1.06-.39v0Z" transform="translate(153.97 0)"/><path class="cls-10" d="M296,116.81l1,5.91c0,.23-.38.43-.93.45s-1-.16-1.08-.39v-.06Z" transform="translate(153.97 0)"/><path class="cls-10" d="M283.82,113.12l1,9.6c0,.23-.41.43-1,.44s-1-.17-1.05-.4v0Z" transform="translate(153.97 0)"/><path class="cls-10" d="M289.92,113.12l1,9.6c0,.23-.4.43-1,.44s-1-.17-1-.4v0Z" transform="translate(153.97 0)"/><path class="cls-10" d="M271.63,83.58l1,39.14c0,.23-.43.42-1,.43s-1-.19-1-.42h0Z" transform="translate(153.97 0)"/><path class="cls-10" d="M152.76,94.66l1,28.06c0,.23-.43.42-1,.43s-1-.18-1-.42h0Z" transform="translate(153.97 0)"/><path class="cls-10" d="M146.66,108l1,14.77c0,.23-.42.43-1,.43s-1-.17-1-.4v0Z" transform="translate(153.97 0)"/><path class="cls-10" d="M116.18,110.17l1,12.55c0,.23-.42.43-1,.43s-1-.17-1-.4v0Z" transform="translate(153.97 0)"/><path class="cls-10" d="M140.57,115.34l1,7.38c0,.23-.39.43-.94.44s-1-.16-1.06-.39a0,0,0,0,1,0,0Z" transform="translate(153.97 0)"/><path class="cls-10" d="M134.47,116.81l1,5.91c0,.23-.38.43-.94.45s-1-.16-1.07-.39v-.06Z" transform="translate(153.97 0)"/><path class="cls-10" d="M122.28,113.12l1,9.6c0,.23-.4.43-1,.44s-1-.17-1-.4v0Z" transform="translate(153.97 0)"/><path class="cls-10" d="M128.38,113.12l1,9.6c0,.23-.41.43-1,.44s-1-.17-1-.4v0Z" transform="translate(153.97 0)"/><path class="cls-10" d="M79.61,116.81l1,5.91c0,.23-.38.43-.93.45s-1-.16-1.07-.39a.06.06,0,0,1,0-.06Z" transform="translate(153.97 0)"/><path class="cls-10" d="M67.42,116.81l1,5.91c0,.23-.38.43-.93.45s-1-.16-1.07-.39a.06.06,0,0,1,0-.06Z" transform="translate(153.97 0)"/><path class="cls-10" d="M73.51,113.12l1,9.6c0,.23-.41.43-1,.44s-1-.17-1-.4v0Z" transform="translate(153.97 0)"/><path class="cls-10" d="M323.45,120.14l1,2.58c.09.23-.29.45-.84.49s-1.08-.12-1.16-.35a.17.17,0,0,1,0-.14Z" transform="translate(153.97 0)"/><path class="cls-10" d="M320.4,116.81l1,5.91c0,.23-.38.43-.93.45s-1-.16-1.07-.39a.06.06,0,0,1,0-.06Z" transform="translate(153.97 0)"/><path class="cls-10" d="M317.35,113.12l1,9.6c0,.23-.4.43-1,.44s-1-.17-1-.4v0Z" transform="translate(153.97 0)"/><path class="cls-10" d="M91.8,116.81l1,5.91c0,.23-.37.43-.93.45s-1-.16-1.07-.39v-.06Z" transform="translate(153.97 0)"/><path class="cls-10" d="M85.71,113.12l1,9.6c0,.23-.41.43-1,.44s-1-.17-1-.4v0Z" transform="translate(153.97 0)"/><path class="cls-10" d="M104,116.81l1,5.91c0,.23-.38.43-.94.45s-1-.16-1.07-.39v-.06Z" transform="translate(153.97 0)"/><path class="cls-10" d="M97.9,113.12l1,9.6c0,.23-.41.43-1,.44s-1-.17-1-.4v0Z" transform="translate(153.97 0)"/><path class="cls-10" d="M110.09,83.58l1,39.14c0,.23-.44.42-1,.43s-1-.19-1-.42h0Z" transform="translate(153.97 0)"/><path class="cls-10" d="M201.53,94.66l1,28.06c0,.23-.43.42-1,.43s-1-.18-1-.42h0Z" transform="translate(153.97 0)"/><path class="cls-10" d="M195.43,108l1,14.77c0,.23-.42.43-1,.43s-1-.17-1-.4v0Z" transform="translate(153.97 0)"/><path class="cls-10" d="M165,110.17l1,12.55c0,.23-.41.43-1,.43s-1-.17-1-.4v0Z" transform="translate(153.97 0)"/><path class="cls-10" d="M189.34,115.34l1,7.38c0,.23-.39.43-1,.44s-1-.16-1.06-.39v0Z" transform="translate(153.97 0)"/><path class="cls-10" d="M183.24,116.81l1,5.91c0,.23-.38.43-.93.45s-1-.16-1.07-.39c0,0,0,0,0-.06Z" transform="translate(153.97 0)"/><path class="cls-10" d="M171.05,113.12l1,9.6c0,.23-.4.43-1,.44s-1-.17-1-.4v0Z" transform="translate(153.97 0)"/><path class="cls-10" d="M177.14,113.12l1,9.6c0,.23-.41.43-1,.44s-1-.17-1.05-.4v0Z" transform="translate(153.97 0)"/><path class="cls-10" d="M158.86,83.58l1,39.14c0,.23-.44.42-1,.43s-1-.19-1-.42h0Z" transform="translate(153.97 0)"/><path class="cls-10" d="M262.49,94.66l1,28.06c0,.23-.43.42-1,.43s-1-.18-1-.42h0Z" transform="translate(153.97 0)"/><path class="cls-10" d="M256.39,108l1,14.77c0,.23-.42.43-1,.43s-1-.17-1-.4v0Z" transform="translate(153.97 0)"/><path class="cls-10" d="M225.91,110.17l1,12.55c0,.23-.41.43-1,.43s-1-.17-1-.4v0Z" transform="translate(153.97 0)"/><path class="cls-10" d="M250.3,115.34l1,7.38c0,.23-.39.43-1,.44s-1-.16-1.06-.39v0Z" transform="translate(153.97 0)"/><path class="cls-10" d="M244.2,116.81l1,5.91c0,.23-.38.43-.93.45s-1-.16-1.07-.39a.06.06,0,0,1,0-.06Z" transform="translate(153.97 0)"/><path class="cls-10" d="M232,113.12l1,9.6c0,.23-.4.43-1,.44s-1-.17-1-.4a0,0,0,0,1,0,0Z" transform="translate(153.97 0)"/><path class="cls-10" d="M207.62,110.17l1,12.55c0,.23-.42.43-1,.43s-1-.17-1-.4v0Z" transform="translate(153.97 0)"/><path class="cls-10" d="M213.72,113.12l1,9.6c0,.23-.4.43-1,.44s-1-.17-1-.4v0Z" transform="translate(153.97 0)"/><path class="cls-10" d="M238.1,113.12l1,9.6c0,.23-.41.43-1,.44s-1-.17-1.05-.4v0Z" transform="translate(153.97 0)"/><path class="cls-10" d="M219.82,83.58l1,39.14c0,.23-.44.42-1,.43s-1-.19-1-.42h0Z" transform="translate(153.97 0)"/><path class="cls-10" d="M311.26,94.66l1,28.06c0,.23-.44.42-1,.43s-1-.18-1-.42h0Z" transform="translate(153.97 0)"/><path class="cls-10" d="M305.16,108l1,14.77c0,.23-.42.43-1,.43s-1-.17-1-.4v0Z" transform="translate(153.97 0)"/><path class="cls-10" d="M274.68,110.17l1,12.55c0,.23-.41.43-1,.43s-1-.17-1-.4v0Z" transform="translate(153.97 0)"/><path class="cls-10" d="M299.06,115.34l1,7.38c0,.23-.4.43-.95.44s-1-.16-1.06-.39v0Z" transform="translate(153.97 0)"/><path class="cls-10" d="M293,116.81l1,5.91c0,.23-.38.43-.93.45s-1-.16-1.07-.39a.06.06,0,0,1,0-.06Z" transform="translate(153.97 0)"/><path class="cls-10" d="M280.78,113.12l1,9.6c0,.23-.41.43-1,.44s-1-.17-1.05-.4v0Z" transform="translate(153.97 0)"/><path class="cls-10" d="M286.87,113.12l1,9.6c0,.23-.4.43-.95.44s-1-.17-1.05-.4v0Z" transform="translate(153.97 0)"/><path class="cls-10" d="M268.58,83.58l1,39.14c0,.23-.44.42-1,.43s-1-.19-1-.42h0Z" transform="translate(153.97 0)"/><path class="cls-10" d="M155.81,150.78l-1-28.06c0-.23.43-.42,1-.42s1,.18,1,.41h0Z" transform="translate(153.97 0)"/><path class="cls-10" d="M149.71,137.49l-1-14.77c0-.23.42-.42,1-.43s1,.18,1,.41c0,0,0,0,0,0Z" transform="translate(153.97 0)"/><path class="cls-10" d="M119.23,135.28l-1-12.56c0-.23.42-.42,1-.43s1,.17,1,.4v0Z" transform="translate(153.97 0)"/><path class="cls-10" d="M143.62,130.11l-1-7.39c0-.23.4-.43.95-.44s1,.16,1.06.39v0Z" transform="translate(153.97 0)"/><path class="cls-10" d="M137.52,128.63l-1-5.91c0-.23.38-.43.93-.45s1,.16,1.07.39a.06.06,0,0,1,0,.06Z" transform="translate(153.97 0)"/><path class="cls-10" d="M125.33,132.32l-1-9.6c0-.23.4-.43,1-.44s1,.17,1,.41v0Z" transform="translate(153.97 0)"/><path class="cls-10" d="M131.42,132.32l-1-9.6c0-.23.41-.43,1-.44s1,.17,1.05.41v0Z" transform="translate(153.97 0)"/><path class="cls-10" d="M82.66,128.63l-1-5.91c0-.23.38-.43.94-.45s1,.16,1.07.39v.06Z" transform="translate(153.97 0)"/><path class="cls-10" d="M70.47,128.63l-1-5.91c0-.23.38-.43.93-.45s1,.16,1.08.39v.06Z" transform="translate(153.97 0)"/><path class="cls-10" d="M64.37,125.31l-1-2.59c-.09-.23.28-.45.84-.48s1.07.11,1.16.35a.15.15,0,0,1,0,.13Z" transform="translate(153.97 0)"/><path class="cls-10" d="M76.56,132.32l-1-9.6c0-.23.4-.43,1-.44s1,.17,1,.41v0Z" transform="translate(153.97 0)"/><path class="cls-10" d="M94.85,128.63l-1-5.91c0-.23.37-.43.93-.45s1,.16,1.07.39v.06Z" transform="translate(153.97 0)"/><path class="cls-10" d="M88.75,132.32l-1-9.6c0-.23.41-.43,1-.44s1,.17,1.05.41v0Z" transform="translate(153.97 0)"/><path class="cls-10" d="M107,128.63l-1-5.91c0-.23.38-.43.93-.45s1,.16,1.07.39a.06.06,0,0,1,0,.06Z" transform="translate(153.97 0)"/><path class="cls-10" d="M101,132.32l-1-9.6c0-.23.41-.43,1-.44s1,.17,1,.41v0Z" transform="translate(153.97 0)"/><path class="cls-10" d="M113.14,161.86l-1-39.14c0-.23.44-.42,1-.42s1,.18,1,.41h0Z" transform="translate(153.97 0)"/><path class="cls-10" d="M204.58,150.78l-1-28.06c0-.23.44-.42,1-.42s1,.18,1,.41h0Z" transform="translate(153.97 0)"/><path class="cls-10" d="M198.48,137.49l-1-14.77c0-.23.42-.42,1-.43s1,.18,1,.41v0Z" transform="translate(153.97 0)"/><path class="cls-10" d="M168,135.28l-1-12.56c0-.23.41-.42,1-.43s1,.17,1,.4v0Z" transform="translate(153.97 0)"/><path class="cls-10" d="M192.38,130.11l-1-7.39c0-.23.39-.43,1-.44s1,.16,1.06.39v0Z" transform="translate(153.97 0)"/><path class="cls-10" d="M186.29,128.63l-1-5.91c0-.23.37-.43.93-.45s1,.16,1.07.39v.06Z" transform="translate(153.97 0)"/><path class="cls-10" d="M174.1,132.32l-1-9.6c0-.23.41-.43,1-.44s1,.17,1,.41v0Z" transform="translate(153.97 0)"/><path class="cls-10" d="M180.19,132.32l-1-9.6c0-.23.41-.43,1-.44s1,.17,1,.41a0,0,0,0,1,0,0Z" transform="translate(153.97 0)"/><path class="cls-10" d="M161.9,161.86l-1-39.14c0-.23.44-.42,1-.42s1,.18,1,.41h0Z" transform="translate(153.97 0)"/><path class="cls-10" d="M265.54,150.78l-1-28.06c0-.23.44-.42,1-.42s1,.18,1,.41h0Z" transform="translate(153.97 0)"/><path class="cls-10" d="M259.44,137.49l-1-14.77c0-.23.42-.42,1-.43s1,.18,1,.41v0Z" transform="translate(153.97 0)"/><path class="cls-10" d="M229,135.28l-1-12.56c0-.23.41-.42,1-.43s1,.17,1,.4v0Z" transform="translate(153.97 0)"/><path class="cls-10" d="M253.34,130.11l-1-7.39c0-.23.39-.43.95-.44s1,.16,1.06.39v0Z" transform="translate(153.97 0)"/><path class="cls-10" d="M247.25,128.63l-1-5.91c0-.23.37-.43.93-.45s1,.16,1.07.39v.06Z" transform="translate(153.97 0)"/><path class="cls-10" d="M235.06,132.32l-1-9.6c0-.23.41-.43,1-.44s1,.17,1.05.41v0Z" transform="translate(153.97 0)"/><path class="cls-10" d="M210.67,135.28l-1-12.56c0-.23.42-.42,1-.43s1,.17,1,.4a0,0,0,0,1,0,0Z" transform="translate(153.97 0)"/><path class="cls-10" d="M216.77,132.32l-1-9.6c0-.23.4-.43.95-.44s1,.17,1.05.41v0Z" transform="translate(153.97 0)"/><path class="cls-10" d="M241.15,132.32l-1-9.6c0-.23.4-.43,1-.44s1,.17,1,.41a0,0,0,0,1,0,0Z" transform="translate(153.97 0)"/><path class="cls-10" d="M222.86,161.86l-1-39.14c0-.23.44-.42,1-.42s1,.18,1,.41h0Z" transform="translate(153.97 0)"/><path class="cls-10" d="M314.3,150.78l-1-28.06c0-.23.43-.42,1-.42s1,.18,1,.41h0Z" transform="translate(153.97 0)"/><path class="cls-10" d="M308.21,137.49l-1-14.77c0-.23.42-.42,1-.43s1,.18,1,.41v0Z" transform="translate(153.97 0)"/><path class="cls-10" d="M277.73,135.28l-1-12.56c0-.23.41-.42,1-.43s1,.17,1,.4v0Z" transform="translate(153.97 0)"/><path class="cls-10" d="M302.11,130.11l-1-7.39c0-.23.39-.43.94-.44s1,.16,1.06.39a0,0,0,0,1,0,0Z" transform="translate(153.97 0)"/><path class="cls-10" d="M296,128.63l-1-5.91c0-.23.38-.43.93-.45s1,.16,1.08.39v.06Z" transform="translate(153.97 0)"/><path class="cls-10" d="M283.82,132.32l-1-9.6c0-.23.41-.43,1-.44s1,.17,1.05.41v0Z" transform="translate(153.97 0)"/><path class="cls-10" d="M289.92,132.32l-1-9.6c0-.23.4-.43,1-.44s1,.17,1,.41v0Z" transform="translate(153.97 0)"/><path class="cls-10" d="M271.63,161.86l-1-39.14c0-.23.44-.42,1-.42s1,.18,1,.41h0Z" transform="translate(153.97 0)"/><path class="cls-10" d="M152.76,150.78l-1-28.06c0-.23.43-.42,1-.42s1,.18,1,.41h0Z" transform="translate(153.97 0)"/><path class="cls-10" d="M146.66,137.49l-1-14.77c0-.23.42-.42,1-.43s1,.18,1,.41v0Z" transform="translate(153.97 0)"/><path class="cls-10" d="M116.18,135.28l-1-12.56c0-.23.42-.42,1-.43s1,.17,1,.4v0Z" transform="translate(153.97 0)"/><path class="cls-10" d="M140.57,130.11l-1-7.39c0-.23.39-.43.94-.44s1,.16,1.06.39v0Z" transform="translate(153.97 0)"/><path class="cls-10" d="M134.47,128.63l-1-5.91c0-.23.38-.43.93-.45s1,.16,1.08.39v.06Z" transform="translate(153.97 0)"/><path class="cls-10" d="M122.28,132.32l-1-9.6c0-.23.4-.43,1-.44s1,.17,1,.41v0Z" transform="translate(153.97 0)"/><path class="cls-10" d="M128.38,132.32l-1-9.6c0-.23.41-.43,1-.44s1,.17,1,.41v0Z" transform="translate(153.97 0)"/><path class="cls-10" d="M79.61,128.63l-1-5.91c0-.23.37-.43.93-.45s1,.16,1.07.39v.06Z" transform="translate(153.97 0)"/><path class="cls-10" d="M67.42,128.63l-1-5.91c0-.23.37-.43.93-.45s1,.16,1.07.39v.06Z" transform="translate(153.97 0)"/><path class="cls-10" d="M73.51,132.32l-1-9.6c0-.23.41-.43,1-.44s1,.17,1,.41v0Z" transform="translate(153.97 0)"/><path class="cls-10" d="M323.45,125.31l-1-2.59c-.09-.23.28-.45.83-.48s1.08.11,1.17.35a.15.15,0,0,1,0,.13Z" transform="translate(153.97 0)"/><path class="cls-10" d="M320.4,128.63l-1-5.91c0-.23.37-.43.93-.45s1,.16,1.07.39v.06Z" transform="translate(153.97 0)"/><path class="cls-10" d="M317.35,132.32l-1-9.6c0-.23.4-.43,1-.44s1,.17,1,.41v0Z" transform="translate(153.97 0)"/><path class="cls-10" d="M91.8,128.63l-1-5.91c0-.23.38-.43.93-.45s1,.16,1.07.39a.06.06,0,0,1,0,.06Z" transform="translate(153.97 0)"/><path class="cls-10" d="M85.71,132.32l-1-9.6c0-.23.41-.43,1-.44s1,.17,1,.41v0Z" transform="translate(153.97 0)"/><path class="cls-10" d="M104,128.63l-1-5.91c0-.23.38-.43.93-.45s1,.16,1.08.39v.06Z" transform="translate(153.97 0)"/><path class="cls-10" d="M97.9,132.32l-1-9.6c0-.23.41-.43,1-.44s1,.17,1.05.41v0Z" transform="translate(153.97 0)"/><path class="cls-10" d="M110.09,161.86l-1-39.14c0-.23.43-.42,1-.42s1,.18,1,.41h0Z" transform="translate(153.97 0)"/><path class="cls-10" d="M201.53,150.78l-1-28.06c0-.23.43-.42,1-.42s1,.18,1,.41h0Z" transform="translate(153.97 0)"/><path class="cls-10" d="M195.43,137.49l-1-14.77c0-.23.42-.42,1-.43s1,.18,1,.41c0,0,0,0,0,0Z" transform="translate(153.97 0)"/><path class="cls-10" d="M165,135.28l-1-12.56c0-.23.42-.42,1-.43s1,.17,1,.4a0,0,0,0,1,0,0Z" transform="translate(153.97 0)"/><path class="cls-10" d="M189.34,130.11l-1-7.39c0-.23.4-.43.95-.44s1,.16,1.06.39v0Z" transform="translate(153.97 0)"/><path class="cls-10" d="M183.24,128.63l-1-5.91c0-.23.38-.43.93-.45s1,.16,1.07.39a.06.06,0,0,1,0,.06Z" transform="translate(153.97 0)"/><path class="cls-10" d="M171.05,132.32l-1-9.6c0-.23.4-.43.95-.44s1,.17,1.05.41v0Z" transform="translate(153.97 0)"/><path class="cls-10" d="M177.14,132.32l-1-9.6c0-.23.41-.43,1-.44s1,.17,1.05.41v0Z" transform="translate(153.97 0)"/><path class="cls-10" d="M158.86,161.86l-1-39.14c0-.23.44-.42,1-.42s1,.18,1,.41h0Z" transform="translate(153.97 0)"/><path class="cls-10" d="M262.49,150.78l-1-28.06c0-.23.43-.42,1-.42s1,.18,1,.41h0Z" transform="translate(153.97 0)"/><path class="cls-10" d="M256.39,137.49l-1-14.77c0-.23.42-.42,1-.43s1,.18,1,.41v0Z" transform="translate(153.97 0)"/><path class="cls-10" d="M225.91,135.28l-1-12.56c0-.23.42-.42,1-.43s1,.17,1,.4c0,0,0,0,0,0Z" transform="translate(153.97 0)"/><path class="cls-10" d="M250.3,130.11l-1-7.39c0-.23.4-.43,1-.44s1,.16,1.06.39v0Z" transform="translate(153.97 0)"/><path class="cls-10" d="M244.2,128.63l-1-5.91c0-.23.38-.43.93-.45s1,.16,1.07.39a.06.06,0,0,1,0,.06Z" transform="translate(153.97 0)"/><path class="cls-10" d="M232,132.32l-1-9.6c0-.23.4-.43,1-.44s1,.17,1,.41v0Z" transform="translate(153.97 0)"/><path class="cls-10" d="M207.62,135.28l-1-12.56c0-.23.42-.42,1-.43s1,.17,1,.4v0Z" transform="translate(153.97 0)"/><path class="cls-10" d="M213.72,132.32l-1-9.6c0-.23.4-.43,1-.44s1,.17,1,.41v0Z" transform="translate(153.97 0)"/><path class="cls-10" d="M238.1,132.32l-1-9.6c0-.23.41-.43,1-.44s1,.17,1.05.41v0Z" transform="translate(153.97 0)"/><path class="cls-10" d="M219.82,161.86l-1-39.14c0-.23.44-.42,1-.42s1,.18,1,.41h0Z" transform="translate(153.97 0)"/><path class="cls-10" d="M311.26,150.78l-1-28.06c0-.23.44-.42,1-.42s1,.18,1,.41h0Z" transform="translate(153.97 0)"/><path class="cls-10" d="M305.16,137.49l-1-14.77c0-.23.42-.42,1-.43s1,.18,1,.41v0Z" transform="translate(153.97 0)"/><path class="cls-10" d="M274.68,135.28l-1-12.56c0-.23.41-.42,1-.43s1,.17,1,.4v0Z" transform="translate(153.97 0)"/><path class="cls-10" d="M299.06,130.11l-1-7.39c0-.23.39-.43.95-.44s1,.16,1.06.39v0Z" transform="translate(153.97 0)"/><path class="cls-10" d="M293,128.63l-1-5.91c0-.23.37-.43.93-.45s1,.16,1.07.39v.06Z" transform="translate(153.97 0)"/><path class="cls-10" d="M280.78,132.32l-1-9.6c0-.23.41-.43,1-.44s1,.17,1,.41v0Z" transform="translate(153.97 0)"/><path class="cls-10" d="M286.87,132.32l-1-9.6c0-.23.4-.43,1-.44s1,.17,1,.41a0,0,0,0,1,0,0Z" transform="translate(153.97 0)"/><path class="cls-10" d="M268.58,161.86l-1-39.14c0-.23.44-.42,1-.42s1,.18,1,.41h0Z" transform="translate(153.97 0)"/><path class="cls-10" d="M331.72,123.14H41.82c-.56,0-1-.19-1-.42s.45-.42,1-.42h289.9c.55,0,1,.19,1,.42S332.27,123.14,331.72,123.14Z" transform="translate(153.97 0)"/><path class="cls-10" d="M414.89,94.66l1,28.06c0,.23-.43.42-1,.43s-1-.18-1-.42h0Z" transform="translate(153.97 0)"/><path class="cls-10" d="M408.79,108l1,14.77c0,.23-.42.43-1,.43s-1-.17-1-.4v0Z" transform="translate(153.97 0)"/><path class="cls-10" d="M378.31,110.17l1,12.55c0,.23-.42.43-1,.43s-1-.17-1-.4v0Z" transform="translate(153.97 0)"/><path class="cls-10" d="M402.7,115.34l1,7.38c0,.23-.39.43-.95.44s-1-.16-1.05-.39a0,0,0,0,1,0,0Z" transform="translate(153.97 0)"/><path class="cls-10" d="M396.6,116.81l1,5.91c0,.23-.37.43-.93.45s-1-.16-1.07-.39v-.06Z" transform="translate(153.97 0)"/><path class="cls-10" d="M384.41,113.12l1,9.6c0,.23-.4.43-1,.44s-1-.17-1-.4v0Z" transform="translate(153.97 0)"/><path class="cls-10" d="M390.51,113.12l1,9.6c0,.23-.41.43-1,.44s-1-.17-1.05-.4v0Z" transform="translate(153.97 0)"/><path class="cls-10" d="M341.74,116.81l1,5.91c0,.23-.38.43-.93.45s-1-.16-1.07-.39a.06.06,0,0,1,0-.06Z" transform="translate(153.97 0)"/><path class="cls-10" d="M329.55,116.81l1,5.91c0,.23-.38.43-.93.45s-1-.16-1.08-.39v-.06Z" transform="translate(153.97 0)"/><path class="cls-10" d="M335.64,113.12l1,9.6c0,.23-.4.43-.95.44s-1-.17-1.05-.4v0Z" transform="translate(153.97 0)"/><path class="cls-10" d="M353.93,116.81l1,5.91c0,.23-.38.43-.93.45s-1-.16-1.07-.39c0,0,0,0,0-.06Z" transform="translate(153.97 0)"/><path class="cls-10" d="M347.83,113.12l1,9.6c0,.23-.41.43-1,.44s-1-.17-1.05-.4v0Z" transform="translate(153.97 0)"/><path class="cls-10" d="M366.12,116.81l1,5.91c0,.23-.37.43-.93.45s-1-.16-1.07-.39v-.06Z" transform="translate(153.97 0)"/><path class="cls-10" d="M360,113.12l1,9.6c0,.23-.41.43-1,.44s-1-.17-1.05-.4v0Z" transform="translate(153.97 0)"/><path class="cls-10" d="M372.22,83.58l1,39.14c0,.23-.44.42-1,.43s-1-.19-1-.42h0Z" transform="translate(153.97 0)"/><path class="cls-10" d="M-119.44,419.23l1,28.06c0,.23-.44.42-1,.43s-1-.18-1-.42h0Z" transform="translate(153.97 0)"/><path class="cls-10" d="M-125.54,432.52l1,14.77c0,.23-.42.43-1,.43s-1-.17-1-.4v0Z" transform="translate(153.97 0)"/><path class="cls-10" d="M427.08,110.17l1,12.55c0,.23-.41.43-1,.43s-1-.17-1-.4v0Z" transform="translate(153.97 0)"/><path class="cls-10" d="M-131.64,439.91l1,7.38c0,.23-.4.43-1,.44s-1-.16-1.06-.39v0Z" transform="translate(153.97 0)"/><path class="cls-10" d="M-137.73,441.38l1,5.91c0,.23-.38.43-.93.45s-1-.16-1.07-.39a.06.06,0,0,1,0-.06Z" transform="translate(153.97 0)"/><path class="cls-10" d="M-149.92,437.69l1,9.6c0,.23-.41.43-1,.44s-1-.17-1.05-.4v0Z" transform="translate(153.97 0)"/><path class="cls-10" d="M-143.83,437.69l1,9.6c0,.23-.4.43-.95.44s-1-.17-1.05-.4v0Z" transform="translate(153.97 0)"/><path class="cls-10" d="M421,83.58l1,39.14c0,.23-.44.42-1,.43s-1-.19-1-.42h0Z" transform="translate(153.97 0)"/><path class="cls-10" d="M-58.48,419.23l1,28.06c0,.23-.44.42-1,.43s-1-.18-1-.42h0Z" transform="translate(153.97 0)"/><path class="cls-10" d="M-64.58,432.52l1,14.77c0,.23-.42.43-1,.43s-1-.17-1-.4v0Z" transform="translate(153.97 0)"/><path class="cls-10" d="M-95.06,434.74l1,12.55c0,.23-.41.43-1,.43s-1-.17-1-.4v0Z" transform="translate(153.97 0)"/><path class="cls-10" d="M-70.68,439.91l1,7.38c0,.23-.4.43-1,.44s-1-.16-1.06-.39v0Z" transform="translate(153.97 0)"/><path class="cls-10" d="M-76.77,441.38l1,5.91c0,.23-.38.43-.93.45s-1-.16-1.07-.39a.06.06,0,0,1,0-.06Z" transform="translate(153.97 0)"/><path class="cls-10" d="M-89,437.69l1,9.6c0,.23-.41.43-1,.44s-1-.17-1-.4v0Z" transform="translate(153.97 0)"/><path class="cls-10" d="M-113.35,434.74l1,12.55c0,.23-.41.43-1,.43s-1-.17-1-.4v0Z" transform="translate(153.97 0)"/><path class="cls-10" d="M-107.25,437.69l1,9.6c0,.23-.4.43-1,.44s-1-.17-1-.4a0,0,0,0,1,0,0Z" transform="translate(153.97 0)"/><path class="cls-10" d="M-82.87,437.69l1,9.6c0,.23-.4.43-.95.44s-1-.17-1.05-.4v0Z" transform="translate(153.97 0)"/><path class="cls-10" d="M-101.16,408.15l1,39.14c0,.23-.44.42-1,.42s-1-.18-1-.41h0Z" transform="translate(153.97 0)"/><path class="cls-10" d="M-9.72,419.23l1,28.06c0,.23-.44.42-1,.43s-1-.18-1-.42h0Z" transform="translate(153.97 0)"/><path class="cls-10" d="M-15.81,432.52l1,14.77c0,.23-.42.43-1,.43s-1-.17-1-.4a0,0,0,0,1,0,0Z" transform="translate(153.97 0)"/><path class="cls-10" d="M-46.29,434.74l1,12.55c0,.23-.42.43-1,.43s-1-.17-1-.4a0,0,0,0,1,0,0Z" transform="translate(153.97 0)"/><path class="cls-10" d="M-21.91,439.91l1,7.38c0,.23-.39.43-.94.44s-1-.16-1.06-.39v0Z" transform="translate(153.97 0)"/><path class="cls-10" d="M-28,441.38l1,5.91c0,.23-.38.43-.93.45s-1-.16-1.08-.39v-.06Z" transform="translate(153.97 0)"/><path class="cls-10" d="M-40.2,437.69l1,9.6c0,.23-.41.43-1,.44s-1-.17-1.05-.4v0Z" transform="translate(153.97 0)"/><path class="cls-10" d="M-34.1,437.69l1,9.6c0,.23-.4.43-1,.44s-1-.17-1-.4v0Z" transform="translate(153.97 0)"/><path class="cls-10" d="M-52.39,408.15l1,39.14c0,.23-.43.42-1,.42s-1-.18-1-.41h0Z" transform="translate(153.97 0)"/><path class="cls-10" d="M411.84,94.66l1,28.06c0,.23-.43.42-1,.43s-1-.18-1-.42h0Z" transform="translate(153.97 0)"/><path class="cls-10" d="M405.75,108l1,14.77c0,.23-.42.43-1,.43s-1-.17-1-.4v0Z" transform="translate(153.97 0)"/><path class="cls-10" d="M375.27,110.17l1,12.55c0,.23-.42.43-1,.43s-1-.17-1-.4v0Z" transform="translate(153.97 0)"/><path class="cls-10" d="M399.65,115.34l1,7.38c0,.23-.39.43-.94.44s-1-.16-1.06-.39v0Z" transform="translate(153.97 0)"/><path class="cls-10" d="M393.55,116.81l1,5.91c0,.23-.38.43-.93.45s-1-.16-1.08-.39v-.06Z" transform="translate(153.97 0)"/><path class="cls-10" d="M381.36,113.12l1,9.6c0,.23-.4.43-.95.44s-1-.17-1.05-.4v0Z" transform="translate(153.97 0)"/><path class="cls-10" d="M387.46,113.12l1,9.6c0,.23-.4.43-1,.44s-1-.17-1-.4a0,0,0,0,1,0,0Z" transform="translate(153.97 0)"/><path class="cls-10" d="M338.69,116.81l1,5.91c0,.23-.37.43-.93.45s-1-.16-1.07-.39v-.06Z" transform="translate(153.97 0)"/><path class="cls-10" d="M326.5,116.81l1,5.91c0,.23-.38.43-.93.45s-1-.16-1.07-.39a.06.06,0,0,1,0-.06Z" transform="translate(153.97 0)"/><path class="cls-10" d="M332.59,113.12l1,9.6c0,.23-.41.43-1,.44s-1-.17-1.05-.4v0Z" transform="translate(153.97 0)"/><path class="cls-10" d="M-.57,444.71l1,2.58c.09.23-.29.45-.84.49s-1.08-.12-1.16-.35a.17.17,0,0,1,0-.14Z" transform="translate(153.97 0)"/><path class="cls-10" d="M-3.62,441.38l1,5.91c0,.23-.38.43-.93.45s-1-.16-1.07-.39a.06.06,0,0,1,0-.06Z" transform="translate(153.97 0)"/><path class="cls-10" d="M-6.67,437.69l1,9.6c0,.23-.4.43-1,.44s-1-.17-1-.4v0Z" transform="translate(153.97 0)"/><path class="cls-10" d="M350.88,116.81l1,5.91c0,.23-.37.43-.93.45s-1-.16-1.07-.39v-.06Z" transform="translate(153.97 0)"/><path class="cls-10" d="M344.79,113.12l1,9.6c0,.23-.41.43-1,.44s-1-.17-1.05-.4v0Z" transform="translate(153.97 0)"/><path class="cls-10" d="M363.07,116.81l1,5.91c0,.23-.38.43-.93.45s-1-.16-1.08-.39v-.06Z" transform="translate(153.97 0)"/><path class="cls-10" d="M357,113.12l1,9.6c0,.23-.4.43-1,.44s-1-.17-1-.4a0,0,0,0,1,0,0Z" transform="translate(153.97 0)"/><path class="cls-10" d="M369.17,83.58l1,39.14c0,.23-.44.42-1,.43s-1-.19-1-.42h0Z" transform="translate(153.97 0)"/><path class="cls-10" d="M-122.49,419.23l1,28.06c0,.23-.43.42-1,.43s-1-.18-1-.42h0Z" transform="translate(153.97 0)"/><path class="cls-10" d="M-128.59,432.52l1,14.77c0,.23-.42.43-1,.43s-1-.17-1-.4v0Z" transform="translate(153.97 0)"/><path class="cls-10" d="M424,110.17l1,12.55c0,.23-.42.43-1,.43s-1-.17-1-.4v0Z" transform="translate(153.97 0)"/><path class="cls-10" d="M-134.68,439.91l1,7.38c0,.23-.39.43-.95.44s-1-.16-1.06-.39v0Z" transform="translate(153.97 0)"/><path class="cls-10" d="M-140.78,441.38l1,5.91c0,.23-.37.43-.93.45s-1-.16-1.07-.39v-.06Z" transform="translate(153.97 0)"/><path class="cls-10" d="M-153,437.69l1,9.6c0,.23-.4.43-1,.44s-1-.17-1-.4v0Z" transform="translate(153.97 0)"/><path class="cls-10" d="M-146.88,437.69l1,9.6c0,.23-.41.43-1,.44s-1-.17-1-.4v0Z" transform="translate(153.97 0)"/><path class="cls-10" d="M417.94,83.58l1,39.14c0,.23-.44.42-1,.43s-1-.19-1-.42h0Z" transform="translate(153.97 0)"/><path class="cls-10" d="M-61.53,419.23l1,28.06c0,.23-.43.42-1,.43s-1-.18-1-.42h0Z" transform="translate(153.97 0)"/><path class="cls-10" d="M-67.63,432.52l1,14.77c0,.23-.42.43-1,.43s-1-.17-1-.4v0Z" transform="translate(153.97 0)"/><path class="cls-10" d="M-98.11,434.74l1,12.55c0,.23-.41.43-1,.43s-1-.17-1-.4v0Z" transform="translate(153.97 0)"/><path class="cls-10" d="M-73.72,439.91l1,7.38c0,.23-.39.43-1,.44s-1-.16-1.06-.39v0Z" transform="translate(153.97 0)"/><path class="cls-10" d="M-79.82,441.38l1,5.91c0,.23-.38.43-.93.45s-1-.16-1.07-.39a.06.06,0,0,1,0-.06Z" transform="translate(153.97 0)"/><path class="cls-10" d="M-92,437.69l1,9.6c0,.23-.4.43-1,.44s-1-.17-1-.4a0,0,0,0,1,0,0Z" transform="translate(153.97 0)"/><path class="cls-10" d="M-116.4,434.74l1,12.55c0,.23-.42.43-1,.43s-1-.17-1-.4v0Z" transform="translate(153.97 0)"/><path class="cls-10" d="M-110.3,437.69l1,9.6c0,.23-.4.43-1,.44s-1-.17-1-.4v0Z" transform="translate(153.97 0)"/><path class="cls-10" d="M-85.92,437.69l1,9.6c0,.23-.41.43-1,.44s-1-.17-1-.4v0Z" transform="translate(153.97 0)"/><path class="cls-10" d="M-104.2,408.15l1,39.14c0,.23-.44.42-1,.42s-1-.18-1-.41h0Z" transform="translate(153.97 0)"/><path class="cls-10" d="M-12.76,419.23l1,28.06c0,.23-.44.42-1,.43s-1-.18-1-.42h0Z" transform="translate(153.97 0)"/><path class="cls-10" d="M-18.86,432.52l1,14.77c0,.23-.42.43-1,.43s-1-.17-1-.4v0Z" transform="translate(153.97 0)"/><path class="cls-10" d="M-49.34,434.74l1,12.55c0,.23-.41.43-1,.43s-1-.17-1-.4v0Z" transform="translate(153.97 0)"/><path class="cls-10" d="M-25,439.91l1,7.38c0,.23-.4.43-.95.44s-1-.16-1.06-.39v0Z" transform="translate(153.97 0)"/><path class="cls-10" d="M-31,441.38l1,5.91c0,.23-.38.43-.93.45s-1-.16-1.07-.39a.06.06,0,0,1,0-.06Z" transform="translate(153.97 0)"/><path class="cls-10" d="M-43.24,437.69l1,9.6c0,.23-.41.43-1,.44s-1-.17-1-.4v0Z" transform="translate(153.97 0)"/><path class="cls-10" d="M-37.15,437.69l1,9.6c0,.23-.4.43-1,.44s-1-.17-1-.4v0Z" transform="translate(153.97 0)"/><path class="cls-10" d="M-55.44,408.15l1,39.14c0,.23-.44.42-1,.42s-1-.18-1-.41h0Z" transform="translate(153.97 0)"/><path class="cls-10" d="M414.85,150.76,414,122.7c0-.23.44-.42,1-.42s1,.18,1,.41h0Z" transform="translate(153.97 0)"/><path class="cls-10" d="M408.81,137.47l-.94-14.77c0-.23.43-.42,1-.43s1,.18,1,.41v0Z" transform="translate(153.97 0)"/><path class="cls-10" d="M378.34,135.24l-.95-12.55c0-.24.42-.43,1-.44s1,.18,1,.41v0Z" transform="translate(153.97 0)"/><path class="cls-10" d="M402.75,130.08l-1-7.38c0-.23.39-.43,1-.44s1,.16,1,.39a0,0,0,0,1,0,0Z" transform="translate(153.97 0)"/><path class="cls-10" d="M396.66,128.6l-1-5.91c0-.23.38-.43.94-.44s1,.15,1.07.39v.06Z" transform="translate(153.97 0)"/><path class="cls-10" d="M384.45,132.29l-1-9.6c0-.23.41-.43,1-.44s1,.17,1.05.4v0Z" transform="translate(153.97 0)"/><path class="cls-10" d="M390.55,132.29l-1-9.6c0-.23.4-.43,1-.44s1,.17,1,.41v0Z" transform="translate(153.97 0)"/><path class="cls-10" d="M341.8,128.58l-1-5.91c0-.23.38-.43.93-.45s1,.16,1.07.39a.06.06,0,0,1,0,.06Z" transform="translate(153.97 0)"/><path class="cls-10" d="M329.6,128.57l-1-5.91c0-.23.38-.43.93-.45s1,.16,1.07.39c0,0,0,0,0,.06Z" transform="translate(153.97 0)"/><path class="cls-10" d="M335.68,132.27l-1-9.61c0-.23.41-.42,1-.43s1,.17,1.05.4v0Z" transform="translate(153.97 0)"/><path class="cls-10" d="M354,128.58l-1-5.91c0-.23.38-.43.93-.44s1,.15,1.08.39v0Z" transform="translate(153.97 0)"/><path class="cls-10" d="M347.88,132.27l-1-9.6c0-.23.4-.43,1-.44s1,.17,1,.41v0Z" transform="translate(153.97 0)"/><path class="cls-10" d="M366.18,128.59l-1-5.91c0-.23.38-.43.94-.45s1,.16,1.07.39v.06Z" transform="translate(153.97 0)"/><path class="cls-10" d="M360.07,132.28l-1-9.6c0-.24.4-.43,1-.44s1,.17,1,.4v0Z" transform="translate(153.97 0)"/><path class="cls-10" d="M372.14,161.82l-.84-39.14c0-.23.44-.42,1-.42s1,.18,1,.41h0Z" transform="translate(153.97 0)"/><path class="cls-10" d="M-119.48,475.36l-.88-28.06c0-.24.43-.43,1-.43s1,.18,1,.41v0Z" transform="translate(153.97 0)"/><path class="cls-10" d="M-125.52,462.06l-.94-14.77c0-.23.42-.42,1-.43s1,.18,1,.41v0Z" transform="translate(153.97 0)"/><path class="cls-10" d="M427.11,135.26l-.95-12.55c0-.23.42-.43,1-.43s1,.17,1,.4v0Z" transform="translate(153.97 0)"/><path class="cls-10" d="M-131.58,454.68l-1-7.39c0-.23.4-.43.95-.44s1,.16,1.06.39v.05Z" transform="translate(153.97 0)"/><path class="cls-10" d="M-137.67,453.2l-1-5.91c0-.23.38-.43.93-.45s1,.16,1.07.39a.06.06,0,0,1,0,.06Z" transform="translate(153.97 0)"/><path class="cls-10" d="M-149.88,456.88l-1-9.6c0-.23.4-.43,1-.44s1,.17,1,.41v0Z" transform="translate(153.97 0)"/><path class="cls-10" d="M-143.79,456.88l-1-9.6c0-.23.41-.42,1-.43s1,.17,1,.4v0Z" transform="translate(153.97 0)"/><path class="cls-10" d="M420.9,161.84l-.83-39.13c0-.24.44-.42,1-.43s1,.19,1,.42h0Z" transform="translate(153.97 0)"/><path class="cls-10" d="M-58.52,475.39l-.88-28.06c0-.24.43-.43,1-.43s1,.18,1,.41v0Z" transform="translate(153.97 0)"/><path class="cls-10" d="M-64.56,462.09l-.94-14.77c0-.23.42-.42,1-.43s1,.18,1,.41c0,0,0,0,0,0Z" transform="translate(153.97 0)"/><path class="cls-10" d="M-95,459.86l-1-12.55c0-.23.42-.43,1-.43s1,.17,1,.4v0Z" transform="translate(153.97 0)"/><path class="cls-10" d="M-70.62,454.7l-1-7.38c0-.23.4-.43.95-.44s1,.16,1.06.39v.05Z" transform="translate(153.97 0)"/><path class="cls-10" d="M-76.71,453.22l-1-5.9c0-.23.38-.44.93-.45s1,.16,1.07.39a.06.06,0,0,1,0,.06Z" transform="translate(153.97 0)"/><path class="cls-10" d="M-88.92,456.91l-1-9.6c0-.23.4-.43,1-.44s1,.17,1,.41v0Z" transform="translate(153.97 0)"/><path class="cls-10" d="M-113.32,459.85l-1-12.55c0-.23.42-.43,1-.43s1,.17,1,.4v0Z" transform="translate(153.97 0)"/><path class="cls-10" d="M-107.21,456.9l-1-9.6c0-.23.41-.42,1-.43s1,.17,1,.4v0Z" transform="translate(153.97 0)"/><path class="cls-10" d="M-82.83,456.91l-1-9.6c0-.23.41-.42,1-.43s1,.17,1,.4v0Z" transform="translate(153.97 0)"/><path class="cls-10" d="M-101.24,486.44l-.84-39.14c0-.23.44-.42,1-.42s1,.19,1,.42h0Z" transform="translate(153.97 0)"/><path class="cls-10" d="M-9.75,475.41l-.89-28.06c0-.23.44-.42,1-.43s1,.19,1,.42h0Z" transform="translate(153.97 0)"/><path class="cls-10" d="M-15.79,462.12l-.94-14.77c0-.24.42-.43,1-.43s1,.17,1,.4v0Z" transform="translate(153.97 0)"/><path class="cls-10" d="M-46.26,459.89l-1-12.56c0-.23.42-.42,1-.43s1,.17,1,.4v0Z" transform="translate(153.97 0)"/><path class="cls-10" d="M-21.86,454.73l-1-7.39c0-.23.4-.43.95-.44s1,.17,1.06.4v0Z" transform="translate(153.97 0)"/><path class="cls-10" d="M-27.95,453.25l-1-5.91c0-.23.38-.43.93-.45s1,.16,1.07.39v.06Z" transform="translate(153.97 0)"/><path class="cls-10" d="M-40.15,456.93l-1-9.6c0-.23.41-.42,1-.43s1,.17,1,.4v0Z" transform="translate(153.97 0)"/><path class="cls-10" d="M-34.06,456.94l-1-9.6c0-.23.41-.43,1-.44s1,.17,1,.4a0,0,0,0,1,0,0Z" transform="translate(153.97 0)"/><path class="cls-10" d="M-52.47,486.47l-.84-39.14c0-.23.44-.42,1-.42s1,.18,1,.41h0Z" transform="translate(153.97 0)"/><path class="cls-10" d="M411.81,150.76l-.89-28.06c0-.23.44-.42,1-.42s1,.18,1,.41h0Z" transform="translate(153.97 0)"/><path class="cls-10" d="M405.77,137.47l-.94-14.77c0-.23.42-.43,1-.43s1,.17,1,.41v0Z" transform="translate(153.97 0)"/><path class="cls-10" d="M375.3,135.24l-.95-12.56c0-.23.41-.42,1-.43s1,.18,1,.41v0Z" transform="translate(153.97 0)"/><path class="cls-10" d="M399.7,130.08l-1-7.38c0-.24.39-.43.95-.45s1,.17,1.06.4v0Z" transform="translate(153.97 0)"/><path class="cls-10" d="M393.61,128.6l-1-5.91c0-.23.38-.43.94-.45s1,.16,1.07.39v.06Z" transform="translate(153.97 0)"/><path class="cls-10" d="M381.4,132.29l-1-9.6c0-.23.41-.43,1-.44s1,.17,1.05.4v0Z" transform="translate(153.97 0)"/><path class="cls-10" d="M387.5,132.29l-1-9.6c0-.23.41-.43,1-.44s1,.17,1,.4v0Z" transform="translate(153.97 0)"/><path class="cls-10" d="M338.75,128.57l-1-5.9c0-.24.38-.44.93-.45s1,.16,1.08.39v.06Z" transform="translate(153.97 0)"/><path class="cls-10" d="M326.56,128.57l-1-5.91c0-.23.38-.43.93-.45s1,.16,1.07.39a.06.06,0,0,1,0,.06Z" transform="translate(153.97 0)"/><path class="cls-10" d="M332.64,132.26l-1-9.6c0-.23.4-.42,1-.43s1,.17,1,.4v0Z" transform="translate(153.97 0)"/><path class="cls-10" d="M-.5,449.94l-1-2.59c-.09-.23.29-.45.84-.48s1.07.12,1.16.35a.15.15,0,0,1,0,.13Z" transform="translate(153.97 0)"/><path class="cls-10" d="M-3.56,453.26l-1-5.91c0-.23.38-.43.93-.45s1,.16,1.07.39a.06.06,0,0,1,0,.06Z" transform="translate(153.97 0)"/><path class="cls-10" d="M-6.63,457l-1-9.6c0-.23.41-.43,1-.44s1,.17,1,.41v0Z" transform="translate(153.97 0)"/><path class="cls-10" d="M350.94,128.58l-1-5.91c0-.23.38-.43.94-.45s1,.16,1.07.39v.06Z" transform="translate(153.97 0)"/><path class="cls-10" d="M344.83,132.27l-1-9.6c0-.23.4-.43,1-.44s1,.17,1,.4v0Z" transform="translate(153.97 0)"/><path class="cls-10" d="M363.13,128.59l-1-5.91c0-.23.37-.43.93-.45s1,.16,1.07.39v.06Z" transform="translate(153.97 0)"/><path class="cls-10" d="M357,132.28l-1-9.61c0-.23.41-.42,1-.43s1,.17,1,.4v0Z" transform="translate(153.97 0)"/><path class="cls-10" d="M369.09,161.82l-.84-39.14c0-.23.44-.42,1-.42s1,.18,1,.41h0Z" transform="translate(153.97 0)"/><path class="cls-10" d="M-122.53,475.36l-.88-28.07c0-.23.43-.42,1-.42s1,.18,1,.41v0Z" transform="translate(153.97 0)"/><path class="cls-10" d="M-128.57,462.06l-.94-14.77c0-.23.43-.42,1-.43s1,.18,1,.41v0Z" transform="translate(153.97 0)"/><path class="cls-10" d="M424.06,135.26l-.95-12.55c0-.23.42-.43,1-.43s1,.17,1,.4v0Z" transform="translate(153.97 0)"/><path class="cls-10" d="M-134.63,454.67l-1-7.38c0-.23.39-.43.94-.44s1,.16,1.06.39v.05Z" transform="translate(153.97 0)"/><path class="cls-10" d="M-140.72,453.19l-1-5.9c0-.24.38-.44.93-.45s1,.16,1.08.39v.06Z" transform="translate(153.97 0)"/><path class="cls-10" d="M-152.93,456.88l-1-9.6c0-.23.41-.43,1-.44s1,.17,1,.4c0,0,0,0,0,0Z" transform="translate(153.97 0)"/><path class="cls-10" d="M-146.83,456.88l-1-9.6c0-.23.4-.42,1-.43s1,.17,1,.4v0Z" transform="translate(153.97 0)"/><path class="cls-10" d="M417.86,161.84,417,122.7c0-.23.44-.42,1-.42s1,.19,1,.42h0Z" transform="translate(153.97 0)"/><path class="cls-10" d="M-61.57,475.39l-.88-28.07c0-.23.43-.42,1-.42s1,.18,1,.41v0Z" transform="translate(153.97 0)"/><path class="cls-10" d="M-67.61,462.09l-.94-14.77c0-.23.42-.42,1-.43s1,.18,1,.41v0Z" transform="translate(153.97 0)"/><path class="cls-10" d="M-98.08,459.86l-1-12.55c0-.24.42-.43,1-.44s1,.18,1,.41v0Z" transform="translate(153.97 0)"/><path class="cls-10" d="M-73.67,454.7l-1-7.38c0-.23.39-.43.94-.44s1,.16,1.06.39v.05Z" transform="translate(153.97 0)"/><path class="cls-10" d="M-79.76,453.22l-1-5.91c0-.23.38-.43.93-.44s1,.16,1.08.39a.13.13,0,0,1,0,.06Z" transform="translate(153.97 0)"/><path class="cls-10" d="M-92,456.91l-1-9.6c0-.23.41-.43,1-.44s1,.17,1,.4v0Z" transform="translate(153.97 0)"/><path class="cls-10" d="M-116.37,459.85l-.95-12.55c0-.23.42-.43,1-.43s1,.17,1,.4v0Z" transform="translate(153.97 0)"/><path class="cls-10" d="M-110.26,456.9l-1-9.6c0-.23.41-.43,1-.44s1,.17,1.05.41v0Z" transform="translate(153.97 0)"/><path class="cls-10" d="M-85.87,456.91l-1-9.6c0-.23.41-.42,1-.43s1,.17,1,.4v0Z" transform="translate(153.97 0)"/><path class="cls-10" d="M-104.29,486.44l-.83-39.14c0-.23.44-.42,1-.42s1,.18,1,.42h0Z" transform="translate(153.97 0)"/><path class="cls-10" d="M-12.8,475.41l-.88-28.06c0-.23.43-.42,1-.43s1,.18,1,.42h0Z" transform="translate(153.97 0)"/><path class="cls-10" d="M-18.84,462.11l-.94-14.77c0-.23.42-.42,1-.43s1,.18,1,.41c0,0,0,0,0,0Z" transform="translate(153.97 0)"/><path class="cls-10" d="M-49.31,459.88l-.95-12.55c0-.23.42-.43,1-.43s1,.17,1,.4a0,0,0,0,1,0,0Z" transform="translate(153.97 0)"/><path class="cls-10" d="M-24.9,454.73l-1-7.39c0-.23.4-.43.95-.44s1,.16,1.06.4v0Z" transform="translate(153.97 0)"/><path class="cls-10" d="M-31,453.25l-1-5.91c0-.23.38-.43.93-.45s1,.16,1.07.39a.06.06,0,0,1,0,.06Z" transform="translate(153.97 0)"/><path class="cls-10" d="M-43.2,456.93l-1-9.6c0-.23.4-.42,1-.43s1,.17,1,.4v0Z" transform="translate(153.97 0)"/><path class="cls-10" d="M-37.11,456.94l-1-9.6c0-.24.41-.43,1-.44s1,.17,1,.4v0Z" transform="translate(153.97 0)"/><path class="cls-10" d="M-55.52,486.47l-.84-39.14c0-.23.44-.42,1-.43s1,.19,1,.42h0Z" transform="translate(153.97 0)"/></g></g><rect class="cls-11" x="305.13" y="194.25" width="57.26" height="49.18" rx="2.14"/><rect class="cls-3" x="323.09" y="207.95" width="21.78" height="21.78"/><rect class="cls-11" x="210.99" y="194.25" width="57.26" height="49.18" rx="2.14"/><polygon class="cls-12" points="235.53 209.56 226.42 218.67 235.53 227.78 235.53 209.56"/><polyline class="cls-12" points="244.45 227.63 244.45 209.41 235.34 218.52"/><polyline class="cls-12" points="253.22 227.63 253.22 209.41 244.1 218.52"/><line class="cls-13" x1="225.98" y1="209.85" x2="225.98" y2="227.28"/><rect class="cls-11" x="400.77" y="193.9" width="57.26" height="49.18" rx="2.14"/><polygon class="cls-12" points="433.91 227.63 443.02 218.52 433.91 209.41 433.91 227.63"/><polyline class="cls-12" points="424.99 209.56 424.99 227.78 434.11 218.67"/><polyline class="cls-12" points="416.23 209.56 416.23 227.78 425.34 218.67"/><line class="cls-13" x1="443.46" y1="227.34" x2="443.46" y2="209.91"/></svg>