<?xml version="1.0" encoding="utf-8"?>
<!-- Generator: Adobe Illustrator 23.0.1, SVG Export Plug-In . SVG Version: 6.00 Build 0)  -->
<svg version="1.1" id="Calque_1" xmlns="http://www.w3.org/2000/svg" xmlns:xlink="http://www.w3.org/1999/xlink" x="0px" y="0px"
	 viewBox="0 0 312 444" style="enable-background:new 0 0 312 444;" xml:space="preserve">
<style type="text/css">
	.st0{fill:#F2B382;}
	.st1{fill:#B94A5B;}
	.st2{fill:#512C51;}
	.st3{opacity:0.54;fill:#745674;}
	.st4{opacity:0.54;}
	.st5{fill:#2F1B30;}
	.st6{clip-path:url(#SVGID_2_);fill:#9FADB6;}
	.st7{opacity:0.66;clip-path:url(#SVGID_2_);}
	.st8{fill:#FFFFFF;}
	.st9{fill:#EEE7D3;}
	.st10{fill:#DA705B;}
	.st11{fill:none;stroke:#DA705B;stroke-miterlimit:10;}
</style>
<g>
	<g>
		<path class="st0" d="M94.01,166.34H2.14c-1.18,0-2.14-0.96-2.14-2.14v-57.22c0-1.18,0.96-2.14,2.14-2.14h91.87V166.34z"/>
		<path class="st0" d="M94.01,86.8H2.14C0.96,86.8,0,85.84,0,84.66V27.44c0-1.18,0.96-2.14,2.14-2.14h91.87V86.8z"/>
		<path class="st1" d="M94.01,245.89H2.14c-1.18,0-2.14-0.96-2.14-2.14v-57.22c0-1.18,0.96-2.14,2.14-2.14h91.87V245.89z"/>
	</g>
	<path class="st2" d="M309.65,444H16.07c-1.18,0-2.14-0.96-2.14-2.14V2.14c0-1.18,0.96-2.14,2.14-2.14h293.59
		c1.18,0,2.14,0.96,2.14,2.14v439.71C311.8,443.04,310.84,444,309.65,444z"/>
	<path class="st3" d="M281.9,418.75h-243c-1.18,0-2.14-0.96-2.14-2.14v-155c0-1.18,0.96-2.14,2.14-2.14h243
		c1.18,0,2.14,0.96,2.14,2.14v155C284.05,417.79,283.09,418.75,281.9,418.75z"/>
	<g class="st4">
		<g>
			<g>
				<path class="st5" d="M66.97,404.54c0,1.1-0.9,2-2,2H53.51c-1.1,0-2-0.9-2-2v-11.46c0-1.1,0.9-2,2-2h11.46c1.1,0,2,0.9,2,2
					V404.54z"/>
			</g>
			<g>
				<path class="st5" d="M92.26,404.54c0,1.1-0.9,2-2,2H78.8c-1.1,0-2-0.9-2-2v-11.46c0-1.1,0.9-2,2-2h11.46c1.1,0,2,0.9,2,2V404.54
					z"/>
			</g>
			<g>
				<path class="st5" d="M117.55,404.54c0,1.1-0.9,2-2,2h-11.46c-1.1,0-2-0.9-2-2v-11.46c0-1.1,0.9-2,2-2h11.46c1.1,0,2,0.9,2,2
					V404.54z"/>
			</g>
			<g>
				<path class="st5" d="M142.84,404.54c0,1.1-0.9,2-2,2h-11.46c-1.1,0-2-0.9-2-2v-11.46c0-1.1,0.9-2,2-2h11.46c1.1,0,2,0.9,2,2
					V404.54z"/>
			</g>
			<g>
				<path class="st5" d="M168.13,404.54c0,1.1-0.9,2-2,2h-11.46c-1.1,0-2-0.9-2-2v-11.46c0-1.1,0.9-2,2-2h11.46c1.1,0,2,0.9,2,2
					V404.54z"/>
			</g>
			<g>
				<path class="st5" d="M193.42,404.54c0,1.1-0.9,2-2,2h-11.46c-1.1,0-2-0.9-2-2v-11.46c0-1.1,0.9-2,2-2h11.46c1.1,0,2,0.9,2,2
					V404.54z"/>
			</g>
			<g>
				<path class="st5" d="M218.71,404.54c0,1.1-0.9,2-2,2h-11.46c-1.1,0-2-0.9-2-2v-11.46c0-1.1,0.9-2,2-2h11.46c1.1,0,2,0.9,2,2
					V404.54z"/>
			</g>
			<g>
				<path class="st5" d="M244,404.54c0,1.1-0.9,2-2,2h-11.46c-1.1,0-2-0.9-2-2v-11.46c0-1.1,0.9-2,2-2H242c1.1,0,2,0.9,2,2V404.54z"
					/>
			</g>
			<g>
				<path class="st5" d="M269.29,404.54c0,1.1-0.9,2-2,2h-11.46c-1.1,0-2-0.9-2-2v-11.46c0-1.1,0.9-2,2-2h11.46c1.1,0,2,0.9,2,2
					V404.54z"/>
			</g>
			<g>
				<path class="st5" d="M66.97,380.66c0,1.1-0.9,2-2,2H53.51c-1.1,0-2-0.9-2-2V369.2c0-1.1,0.9-2,2-2h11.46c1.1,0,2,0.9,2,2V380.66
					z"/>
			</g>
			<g>
				<path class="st5" d="M92.26,380.66c0,1.1-0.9,2-2,2H78.8c-1.1,0-2-0.9-2-2V369.2c0-1.1,0.9-2,2-2h11.46c1.1,0,2,0.9,2,2V380.66z
					"/>
			</g>
			<g>
				<path class="st5" d="M117.55,380.66c0,1.1-0.9,2-2,2h-11.46c-1.1,0-2-0.9-2-2V369.2c0-1.1,0.9-2,2-2h11.46c1.1,0,2,0.9,2,2
					V380.66z"/>
			</g>
			<g>
				<path class="st5" d="M142.84,380.66c0,1.1-0.9,2-2,2h-11.46c-1.1,0-2-0.9-2-2V369.2c0-1.1,0.9-2,2-2h11.46c1.1,0,2,0.9,2,2
					V380.66z"/>
			</g>
			<g>
				<path class="st5" d="M168.13,380.66c0,1.1-0.9,2-2,2h-11.46c-1.1,0-2-0.9-2-2V369.2c0-1.1,0.9-2,2-2h11.46c1.1,0,2,0.9,2,2
					V380.66z"/>
			</g>
			<g>
				<path class="st5" d="M193.42,380.66c0,1.1-0.9,2-2,2h-11.46c-1.1,0-2-0.9-2-2V369.2c0-1.1,0.9-2,2-2h11.46c1.1,0,2,0.9,2,2
					V380.66z"/>
			</g>
			<g>
				<path class="st5" d="M218.71,380.66c0,1.1-0.9,2-2,2h-11.46c-1.1,0-2-0.9-2-2V369.2c0-1.1,0.9-2,2-2h11.46c1.1,0,2,0.9,2,2
					V380.66z"/>
			</g>
			<g>
				<path class="st5" d="M244,380.66c0,1.1-0.9,2-2,2h-11.46c-1.1,0-2-0.9-2-2V369.2c0-1.1,0.9-2,2-2H242c1.1,0,2,0.9,2,2V380.66z"
					/>
			</g>
			<g>
				<path class="st5" d="M269.29,380.66c0,1.1-0.9,2-2,2h-11.46c-1.1,0-2-0.9-2-2V369.2c0-1.1,0.9-2,2-2h11.46c1.1,0,2,0.9,2,2
					V380.66z"/>
			</g>
			<g>
				<path class="st5" d="M66.97,356.77c0,1.1-0.9,2-2,2H53.51c-1.1,0-2-0.9-2-2v-11.46c0-1.1,0.9-2,2-2h11.46c1.1,0,2,0.9,2,2
					V356.77z"/>
			</g>
			<g>
				<path class="st5" d="M92.26,356.77c0,1.1-0.9,2-2,2H78.8c-1.1,0-2-0.9-2-2v-11.46c0-1.1,0.9-2,2-2h11.46c1.1,0,2,0.9,2,2V356.77
					z"/>
			</g>
			<g>
				<path class="st5" d="M117.55,356.77c0,1.1-0.9,2-2,2h-11.46c-1.1,0-2-0.9-2-2v-11.46c0-1.1,0.9-2,2-2h11.46c1.1,0,2,0.9,2,2
					V356.77z"/>
			</g>
			<g>
				<path class="st5" d="M142.84,356.77c0,1.1-0.9,2-2,2h-11.46c-1.1,0-2-0.9-2-2v-11.46c0-1.1,0.9-2,2-2h11.46c1.1,0,2,0.9,2,2
					V356.77z"/>
			</g>
			<g>
				<path class="st5" d="M168.13,356.77c0,1.1-0.9,2-2,2h-11.46c-1.1,0-2-0.9-2-2v-11.46c0-1.1,0.9-2,2-2h11.46c1.1,0,2,0.9,2,2
					V356.77z"/>
			</g>
			<g>
				<path class="st5" d="M193.42,356.77c0,1.1-0.9,2-2,2h-11.46c-1.1,0-2-0.9-2-2v-11.46c0-1.1,0.9-2,2-2h11.46c1.1,0,2,0.9,2,2
					V356.77z"/>
			</g>
			<g>
				<path class="st5" d="M218.71,356.77c0,1.1-0.9,2-2,2h-11.46c-1.1,0-2-0.9-2-2v-11.46c0-1.1,0.9-2,2-2h11.46c1.1,0,2,0.9,2,2
					V356.77z"/>
			</g>
			<g>
				<path class="st5" d="M244,356.77c0,1.1-0.9,2-2,2h-11.46c-1.1,0-2-0.9-2-2v-11.46c0-1.1,0.9-2,2-2H242c1.1,0,2,0.9,2,2V356.77z"
					/>
			</g>
			<g>
				<path class="st5" d="M269.29,356.77c0,1.1-0.9,2-2,2h-11.46c-1.1,0-2-0.9-2-2v-11.46c0-1.1,0.9-2,2-2h11.46c1.1,0,2,0.9,2,2
					V356.77z"/>
			</g>
			<g>
				<path class="st5" d="M66.97,332.89c0,1.1-0.9,2-2,2H53.51c-1.1,0-2-0.9-2-2v-11.46c0-1.1,0.9-2,2-2h11.46c1.1,0,2,0.9,2,2
					V332.89z"/>
			</g>
			<g>
				<path class="st5" d="M92.26,332.89c0,1.1-0.9,2-2,2H78.8c-1.1,0-2-0.9-2-2v-11.46c0-1.1,0.9-2,2-2h11.46c1.1,0,2,0.9,2,2V332.89
					z"/>
			</g>
			<g>
				<path class="st5" d="M117.55,332.89c0,1.1-0.9,2-2,2h-11.46c-1.1,0-2-0.9-2-2v-11.46c0-1.1,0.9-2,2-2h11.46c1.1,0,2,0.9,2,2
					V332.89z"/>
			</g>
			<g>
				<path class="st5" d="M142.84,332.89c0,1.1-0.9,2-2,2h-11.46c-1.1,0-2-0.9-2-2v-11.46c0-1.1,0.9-2,2-2h11.46c1.1,0,2,0.9,2,2
					V332.89z"/>
			</g>
			<g>
				<path class="st5" d="M168.13,332.89c0,1.1-0.9,2-2,2h-11.46c-1.1,0-2-0.9-2-2v-11.46c0-1.1,0.9-2,2-2h11.46c1.1,0,2,0.9,2,2
					V332.89z"/>
			</g>
			<g>
				<path class="st5" d="M193.42,332.89c0,1.1-0.9,2-2,2h-11.46c-1.1,0-2-0.9-2-2v-11.46c0-1.1,0.9-2,2-2h11.46c1.1,0,2,0.9,2,2
					V332.89z"/>
			</g>
			<g>
				<path class="st5" d="M218.71,332.89c0,1.1-0.9,2-2,2h-11.46c-1.1,0-2-0.9-2-2v-11.46c0-1.1,0.9-2,2-2h11.46c1.1,0,2,0.9,2,2
					V332.89z"/>
			</g>
			<g>
				<path class="st5" d="M244,332.89c0,1.1-0.9,2-2,2h-11.46c-1.1,0-2-0.9-2-2v-11.46c0-1.1,0.9-2,2-2H242c1.1,0,2,0.9,2,2V332.89z"
					/>
			</g>
			<g>
				<path class="st5" d="M269.29,332.89c0,1.1-0.9,2-2,2h-11.46c-1.1,0-2-0.9-2-2v-11.46c0-1.1,0.9-2,2-2h11.46c1.1,0,2,0.9,2,2
					V332.89z"/>
			</g>
			<g>
				<path class="st5" d="M66.97,309c0,1.1-0.9,2-2,2H53.51c-1.1,0-2-0.9-2-2v-11.46c0-1.1,0.9-2,2-2h11.46c1.1,0,2,0.9,2,2V309z"/>
			</g>
			<g>
				<path class="st5" d="M92.26,309c0,1.1-0.9,2-2,2H78.8c-1.1,0-2-0.9-2-2v-11.46c0-1.1,0.9-2,2-2h11.46c1.1,0,2,0.9,2,2V309z"/>
			</g>
			<g>
				<path class="st5" d="M117.55,309c0,1.1-0.9,2-2,2h-11.46c-1.1,0-2-0.9-2-2v-11.46c0-1.1,0.9-2,2-2h11.46c1.1,0,2,0.9,2,2V309z"
					/>
			</g>
			<g>
				<path class="st5" d="M142.84,309c0,1.1-0.9,2-2,2h-11.46c-1.1,0-2-0.9-2-2v-11.46c0-1.1,0.9-2,2-2h11.46c1.1,0,2,0.9,2,2V309z"
					/>
			</g>
			<g>
				<path class="st5" d="M168.13,309c0,1.1-0.9,2-2,2h-11.46c-1.1,0-2-0.9-2-2v-11.46c0-1.1,0.9-2,2-2h11.46c1.1,0,2,0.9,2,2V309z"
					/>
			</g>
			<g>
				<path class="st5" d="M193.42,309c0,1.1-0.9,2-2,2h-11.46c-1.1,0-2-0.9-2-2v-11.46c0-1.1,0.9-2,2-2h11.46c1.1,0,2,0.9,2,2V309z"
					/>
			</g>
			<g>
				<path class="st5" d="M218.71,309c0,1.1-0.9,2-2,2h-11.46c-1.1,0-2-0.9-2-2v-11.46c0-1.1,0.9-2,2-2h11.46c1.1,0,2,0.9,2,2V309z"
					/>
			</g>
			<g>
				<path class="st5" d="M244,309c0,1.1-0.9,2-2,2h-11.46c-1.1,0-2-0.9-2-2v-11.46c0-1.1,0.9-2,2-2H242c1.1,0,2,0.9,2,2V309z"/>
			</g>
			<g>
				<path class="st5" d="M269.29,309c0,1.1-0.9,2-2,2h-11.46c-1.1,0-2-0.9-2-2v-11.46c0-1.1,0.9-2,2-2h11.46c1.1,0,2,0.9,2,2V309z"
					/>
			</g>
			<g>
				<path class="st5" d="M66.97,285.11c0,1.1-0.9,2-2,2H53.51c-1.1,0-2-0.9-2-2v-11.46c0-1.1,0.9-2,2-2h11.46c1.1,0,2,0.9,2,2
					V285.11z"/>
			</g>
			<g>
				<path class="st5" d="M92.26,285.11c0,1.1-0.9,2-2,2H78.8c-1.1,0-2-0.9-2-2v-11.46c0-1.1,0.9-2,2-2h11.46c1.1,0,2,0.9,2,2V285.11
					z"/>
			</g>
			<g>
				<path class="st5" d="M117.55,285.11c0,1.1-0.9,2-2,2h-11.46c-1.1,0-2-0.9-2-2v-11.46c0-1.1,0.9-2,2-2h11.46c1.1,0,2,0.9,2,2
					V285.11z"/>
			</g>
			<g>
				<path class="st5" d="M142.84,285.11c0,1.1-0.9,2-2,2h-11.46c-1.1,0-2-0.9-2-2v-11.46c0-1.1,0.9-2,2-2h11.46c1.1,0,2,0.9,2,2
					V285.11z"/>
			</g>
			<g>
				<path class="st5" d="M168.13,285.11c0,1.1-0.9,2-2,2h-11.46c-1.1,0-2-0.9-2-2v-11.46c0-1.1,0.9-2,2-2h11.46c1.1,0,2,0.9,2,2
					V285.11z"/>
			</g>
			<g>
				<path class="st5" d="M193.42,285.11c0,1.1-0.9,2-2,2h-11.46c-1.1,0-2-0.9-2-2v-11.46c0-1.1,0.9-2,2-2h11.46c1.1,0,2,0.9,2,2
					V285.11z"/>
			</g>
			<g>
				<path class="st5" d="M218.71,285.11c0,1.1-0.9,2-2,2h-11.46c-1.1,0-2-0.9-2-2v-11.46c0-1.1,0.9-2,2-2h11.46c1.1,0,2,0.9,2,2
					V285.11z"/>
			</g>
			<g>
				<path class="st5" d="M244,285.11c0,1.1-0.9,2-2,2h-11.46c-1.1,0-2-0.9-2-2v-11.46c0-1.1,0.9-2,2-2H242c1.1,0,2,0.9,2,2V285.11z"
					/>
			</g>
			<g>
				<path class="st5" d="M269.29,285.11c0,1.1-0.9,2-2,2h-11.46c-1.1,0-2-0.9-2-2v-11.46c0-1.1,0.9-2,2-2h11.46c1.1,0,2,0.9,2,2
					V285.11z"/>
			</g>
		</g>
	</g>
	<g>
		<defs>
			<path id="SVGID_1_" d="M284.05,205.14H36.76V27.1c0-1.26,1.02-2.29,2.29-2.29h242.72c1.26,0,2.29,1.02,2.29,2.29V205.14z"/>
		</defs>
		<clipPath id="SVGID_2_">
			<use xlink:href="#SVGID_1_"  style="overflow:visible;"/>
		</clipPath>
		<rect x="36.76" y="24.81" class="st6" width="247.29" height="152.23"/>
		<g class="st7">
			<g>
				<g>
					<path class="st8" d="M135.81,94.66l1,28.06c0.01,0.23-0.43,0.42-0.99,0.43c-0.55,0-1.01-0.18-1.02-0.41c0,0,0-0.01,0-0.01
						L135.81,94.66z"/>
					<path class="st8" d="M129.71,107.95l1,14.77c0.02,0.23-0.42,0.42-0.97,0.43c-0.55,0.01-1.01-0.18-1.03-0.41
						c0-0.01,0-0.02,0-0.02L129.71,107.95z"/>
					<path class="st8" d="M99.23,110.17l1,12.55c0.02,0.23-0.42,0.43-0.97,0.43s-1.02-0.17-1.04-0.4c0-0.01,0-0.02,0-0.03
						L99.23,110.17z"/>
					<path class="st8" d="M123.62,115.34l1,7.38c0.03,0.23-0.39,0.43-0.95,0.44c-0.55,0.01-1.03-0.16-1.06-0.4c0-0.02,0-0.03,0-0.05
						L123.62,115.34z"/>
					<path class="st8" d="M117.52,116.81l1,5.91c0.04,0.23-0.38,0.43-0.93,0.45c-0.55,0.02-1.03-0.16-1.07-0.39
						c0-0.02,0-0.04,0-0.06L117.52,116.81z"/>
					<path class="st8" d="M105.33,113.12l1,9.6c0.02,0.23-0.41,0.43-0.96,0.44c-0.55,0.01-1.02-0.17-1.05-0.4c0-0.01,0-0.02,0-0.04
						L105.33,113.12z"/>
					<path class="st8" d="M111.42,113.12l1,9.6c0.02,0.23-0.41,0.43-0.96,0.44c-0.55,0.01-1.02-0.17-1.05-0.4c0-0.01,0-0.02,0-0.04
						L111.42,113.12z"/>
					<path class="st8" d="M62.66,116.81l1,5.91c0.04,0.23-0.38,0.43-0.93,0.45c-0.55,0.02-1.03-0.16-1.07-0.39c0-0.02,0-0.04,0-0.06
						L62.66,116.81z"/>
					<path class="st8" d="M50.47,116.81l1,5.91c0.04,0.23-0.38,0.43-0.93,0.45c-0.55,0.02-1.03-0.16-1.07-0.39c0-0.02,0-0.04,0-0.06
						L50.47,116.81z"/>
					<path class="st8" d="M44.37,120.14l1,2.58c0.09,0.23-0.29,0.45-0.84,0.49c-0.55,0.04-1.07-0.12-1.16-0.35
						c-0.02-0.05-0.02-0.09,0-0.14L44.37,120.14z"/>
					<path class="st8" d="M56.56,113.12l1,9.6c0.02,0.23-0.41,0.43-0.96,0.44c-0.55,0.01-1.02-0.17-1.05-0.4c0-0.01,0-0.02,0-0.04
						L56.56,113.12z"/>
					<path class="st8" d="M74.85,116.81l1,5.91c0.04,0.23-0.38,0.43-0.93,0.45c-0.55,0.02-1.03-0.16-1.07-0.39c0-0.02,0-0.04,0-0.06
						L74.85,116.81z"/>
					<path class="st8" d="M68.75,113.12l1,9.6c0.02,0.23-0.4,0.43-0.96,0.44c-0.55,0.01-1.02-0.17-1.05-0.4c0-0.01,0-0.02,0-0.04
						L68.75,113.12z"/>
					<path class="st8" d="M87.04,116.81l1,5.91c0.04,0.23-0.38,0.43-0.93,0.45c-0.55,0.02-1.03-0.16-1.07-0.39c0-0.02,0-0.04,0-0.06
						L87.04,116.81z"/>
					<path class="st8" d="M80.95,113.12l1,9.6c0.02,0.23-0.41,0.43-0.96,0.44c-0.55,0.01-1.02-0.17-1.05-0.4c0-0.01,0-0.02,0-0.04
						L80.95,113.12z"/>
					<path class="st8" d="M93.14,83.58l1,39.14c0.01,0.23-0.44,0.42-0.99,0.42c-0.55,0-1.01-0.18-1.01-0.41c0,0,0-0.01,0-0.01
						L93.14,83.58z"/>
					<path class="st8" d="M184.58,94.66l1,28.06c0.01,0.23-0.43,0.42-0.99,0.43c-0.55,0-1.01-0.18-1.02-0.41c0,0,0-0.01,0-0.01
						L184.58,94.66z"/>
					<path class="st8" d="M178.48,107.95l1,14.77c0.02,0.23-0.42,0.42-0.97,0.43c-0.55,0.01-1.01-0.18-1.03-0.41
						c0-0.01,0-0.02,0-0.02L178.48,107.95z"/>
					<path class="st8" d="M148,110.17l1,12.55c0.02,0.23-0.42,0.43-0.97,0.43c-0.55,0.01-1.02-0.17-1.04-0.4c0-0.01,0-0.02,0-0.03
						L148,110.17z"/>
					<path class="st8" d="M172.38,115.34l1,7.38c0.03,0.23-0.39,0.43-0.95,0.44c-0.55,0.01-1.03-0.16-1.06-0.4c0-0.02,0-0.03,0-0.05
						L172.38,115.34z"/>
					<path class="st8" d="M166.29,116.81l1,5.91c0.04,0.23-0.38,0.43-0.93,0.45c-0.55,0.02-1.03-0.16-1.07-0.39
						c0-0.02,0-0.04,0-0.06L166.29,116.81z"/>
					<path class="st8" d="M154.1,113.12l1,9.6c0.02,0.23-0.4,0.43-0.96,0.44c-0.55,0.01-1.02-0.17-1.05-0.4c0-0.01,0-0.02,0-0.04
						L154.1,113.12z"/>
					<path class="st8" d="M160.19,113.12l1,9.6c0.02,0.23-0.4,0.43-0.96,0.44c-0.55,0.01-1.02-0.17-1.05-0.4c0-0.01,0-0.02,0-0.04
						L160.19,113.12z"/>
					<path class="st8" d="M141.9,83.58l1,39.14c0.01,0.23-0.44,0.42-0.99,0.42c-0.55,0-1.01-0.18-1.01-0.41c0,0,0-0.01,0-0.01
						L141.9,83.58z"/>
					<path class="st8" d="M245.54,94.66l1,28.06c0.01,0.23-0.43,0.42-0.99,0.43c-0.55,0-1.01-0.18-1.02-0.41c0,0,0-0.01,0-0.01
						L245.54,94.66z"/>
					<path class="st8" d="M239.44,107.95l1,14.77c0.02,0.23-0.42,0.42-0.97,0.43c-0.55,0.01-1.01-0.18-1.03-0.41
						c0-0.01,0-0.02,0-0.02L239.44,107.95z"/>
					<path class="st8" d="M208.96,110.17l1,12.55c0.02,0.23-0.42,0.43-0.97,0.43c-0.55,0.01-1.02-0.17-1.04-0.4
						c0-0.01,0-0.02,0-0.03L208.96,110.17z"/>
					<path class="st8" d="M233.34,115.34l1,7.38c0.03,0.23-0.39,0.43-0.95,0.44c-0.55,0.01-1.03-0.16-1.06-0.4c0-0.02,0-0.03,0-0.05
						L233.34,115.34z"/>
					<path class="st8" d="M227.25,116.81l1,5.91c0.04,0.23-0.38,0.43-0.93,0.45c-0.55,0.02-1.03-0.16-1.07-0.39
						c0-0.02,0-0.04,0-0.06L227.25,116.81z"/>
					<path class="st8" d="M215.06,113.12l1,9.6c0.02,0.23-0.4,0.43-0.96,0.44c-0.55,0.01-1.02-0.17-1.05-0.4c0-0.01,0-0.02,0-0.04
						L215.06,113.12z"/>
					<path class="st8" d="M190.67,110.17l1,12.55c0.02,0.23-0.42,0.43-0.97,0.43c-0.55,0.01-1.02-0.17-1.04-0.4
						c0-0.01,0-0.02,0-0.03L190.67,110.17z"/>
					<path class="st8" d="M196.77,113.12l1,9.6c0.02,0.23-0.4,0.43-0.96,0.44c-0.55,0.01-1.02-0.17-1.05-0.4c0-0.01,0-0.02,0-0.04
						L196.77,113.12z"/>
					<path class="st8" d="M221.15,113.12l1,9.6c0.02,0.23-0.4,0.43-0.96,0.44c-0.55,0.01-1.02-0.17-1.05-0.4c0-0.01,0-0.02,0-0.04
						L221.15,113.12z"/>
					<path class="st8" d="M202.86,83.58l1,39.14c0.01,0.23-0.44,0.42-0.99,0.42c-0.55,0-1.01-0.18-1.01-0.41c0,0,0-0.01,0-0.01
						L202.86,83.58z"/>
					<path class="st8" d="M294.3,94.66l1,28.06c0.01,0.23-0.43,0.42-0.99,0.43c-0.55,0-1.01-0.18-1.02-0.41c0,0,0-0.01,0-0.01
						L294.3,94.66z"/>
					<path class="st8" d="M288.21,107.95l1,14.77c0.02,0.23-0.42,0.42-0.97,0.43c-0.55,0.01-1.01-0.18-1.03-0.41
						c0-0.01,0-0.02,0-0.02L288.21,107.95z"/>
					<path class="st8" d="M257.73,110.17l1,12.55c0.02,0.23-0.42,0.43-0.97,0.43s-1.02-0.17-1.04-0.4c0-0.01,0-0.02,0-0.03
						L257.73,110.17z"/>
					<path class="st8" d="M282.11,115.34l1,7.38c0.03,0.23-0.39,0.43-0.95,0.44c-0.55,0.01-1.03-0.16-1.06-0.4c0-0.02,0-0.03,0-0.05
						L282.11,115.34z"/>
					<path class="st8" d="M276.02,116.81l1,5.91c0.04,0.23-0.38,0.43-0.93,0.45c-0.55,0.02-1.03-0.16-1.07-0.39
						c0-0.02,0-0.04,0-0.06L276.02,116.81z"/>
					<path class="st8" d="M263.82,113.12l1,9.6c0.02,0.23-0.4,0.43-0.96,0.44c-0.55,0.01-1.02-0.17-1.05-0.4c0-0.01,0-0.02,0-0.04
						L263.82,113.12z"/>
					<path class="st8" d="M269.92,113.12l1,9.6c0.02,0.23-0.4,0.43-0.96,0.44c-0.55,0.01-1.02-0.17-1.05-0.4c0-0.01,0-0.02,0-0.04
						L269.92,113.12z"/>
					<path class="st8" d="M251.63,83.58l1,39.14c0.01,0.23-0.44,0.42-0.99,0.42c-0.55,0-1.01-0.18-1.01-0.41c0,0,0-0.01,0-0.01
						L251.63,83.58z"/>
					<path class="st8" d="M132.76,94.66l1,28.06c0.01,0.23-0.43,0.42-0.99,0.43c-0.55,0-1.01-0.18-1.02-0.41c0,0,0-0.01,0-0.01
						L132.76,94.66z"/>
					<path class="st8" d="M126.66,107.95l1,14.77c0.02,0.23-0.42,0.42-0.97,0.43c-0.55,0.01-1.01-0.18-1.03-0.41
						c0-0.01,0-0.02,0-0.02L126.66,107.95z"/>
					<path class="st8" d="M96.18,110.17l1,12.55c0.02,0.23-0.42,0.43-0.97,0.43s-1.02-0.17-1.04-0.4c0-0.01,0-0.02,0-0.03
						L96.18,110.17z"/>
					<path class="st8" d="M120.57,115.34l1,7.38c0.03,0.23-0.39,0.43-0.95,0.44c-0.55,0.01-1.03-0.16-1.06-0.4c0-0.02,0-0.03,0-0.05
						L120.57,115.34z"/>
					<path class="st8" d="M114.47,116.81l1,5.91c0.04,0.23-0.38,0.43-0.93,0.45c-0.55,0.02-1.03-0.16-1.07-0.39
						c0-0.02,0-0.04,0-0.06L114.47,116.81z"/>
					<path class="st8" d="M102.28,113.12l1,9.6c0.02,0.23-0.41,0.43-0.96,0.44c-0.55,0.01-1.02-0.17-1.05-0.4c0-0.01,0-0.02,0-0.04
						L102.28,113.12z"/>
					<path class="st8" d="M108.38,113.12l1,9.6c0.02,0.23-0.41,0.43-0.96,0.44c-0.55,0.01-1.02-0.17-1.05-0.4c0-0.01,0-0.02,0-0.04
						L108.38,113.12z"/>
					<path class="st8" d="M59.61,116.81l1,5.91c0.04,0.23-0.38,0.43-0.93,0.45c-0.55,0.02-1.03-0.16-1.07-0.39c0-0.02,0-0.04,0-0.06
						L59.61,116.81z"/>
					<path class="st8" d="M47.42,116.81l1,5.91c0.04,0.23-0.38,0.43-0.93,0.45c-0.55,0.02-1.03-0.16-1.07-0.39c0-0.02,0-0.04,0-0.06
						L47.42,116.81z"/>
					<path class="st8" d="M53.51,113.12l1,9.6c0.02,0.23-0.41,0.43-0.96,0.44c-0.55,0.01-1.02-0.17-1.05-0.4c0-0.01,0-0.02,0-0.04
						L53.51,113.12z"/>
					<path class="st8" d="M303.45,120.14l1,2.58c0.09,0.23-0.29,0.45-0.84,0.49c-0.55,0.04-1.07-0.12-1.16-0.35
						c-0.02-0.05-0.02-0.09,0-0.14L303.45,120.14z"/>
					<path class="st8" d="M300.4,116.81l1,5.91c0.04,0.23-0.38,0.43-0.93,0.45c-0.55,0.02-1.03-0.16-1.07-0.39c0-0.02,0-0.04,0-0.06
						L300.4,116.81z"/>
					<path class="st8" d="M297.35,113.12l1,9.6c0.02,0.23-0.4,0.43-0.96,0.44c-0.55,0.01-1.02-0.17-1.05-0.4c0-0.01,0-0.02,0-0.04
						L297.35,113.12z"/>
					<path class="st8" d="M71.8,116.81l1,5.91c0.04,0.23-0.38,0.43-0.93,0.45c-0.55,0.02-1.03-0.16-1.07-0.39c0-0.02,0-0.04,0-0.06
						L71.8,116.81z"/>
					<path class="st8" d="M65.71,113.12l1,9.6c0.02,0.23-0.4,0.43-0.96,0.44c-0.55,0.01-1.02-0.17-1.05-0.4c0-0.01,0-0.02,0-0.04
						L65.71,113.12z"/>
					<path class="st8" d="M83.99,116.81l1,5.91c0.04,0.23-0.38,0.43-0.93,0.45c-0.55,0.02-1.03-0.16-1.07-0.39c0-0.02,0-0.04,0-0.06
						L83.99,116.81z"/>
					<path class="st8" d="M77.9,113.12l1,9.6c0.02,0.23-0.4,0.43-0.96,0.44c-0.55,0.01-1.02-0.17-1.05-0.4c0-0.01,0-0.02,0-0.04
						L77.9,113.12z"/>
					<path class="st8" d="M90.09,83.58l1,39.14c0.01,0.23-0.44,0.42-0.99,0.42c-0.55,0-1.01-0.18-1.01-0.41c0,0,0-0.01,0-0.01
						L90.09,83.58z"/>
					<path class="st8" d="M181.53,94.66l1,28.06c0.01,0.23-0.43,0.42-0.99,0.43c-0.55,0-1.01-0.18-1.02-0.41c0,0,0-0.01,0-0.01
						L181.53,94.66z"/>
					<path class="st8" d="M175.43,107.95l1,14.77c0.02,0.23-0.42,0.42-0.97,0.43c-0.55,0.01-1.01-0.18-1.03-0.41
						c0-0.01,0-0.02,0-0.02L175.43,107.95z"/>
					<path class="st8" d="M144.95,110.17l1,12.55c0.02,0.23-0.42,0.43-0.97,0.43c-0.55,0.01-1.02-0.17-1.04-0.4
						c0-0.01,0-0.02,0-0.03L144.95,110.17z"/>
					<path class="st8" d="M169.34,115.34l1,7.38c0.03,0.23-0.39,0.43-0.95,0.44c-0.55,0.01-1.03-0.16-1.06-0.4c0-0.02,0-0.03,0-0.05
						L169.34,115.34z"/>
					<path class="st8" d="M163.24,116.81l1,5.91c0.04,0.23-0.38,0.43-0.93,0.45c-0.55,0.02-1.03-0.16-1.07-0.39
						c0-0.02,0-0.04,0-0.06L163.24,116.81z"/>
					<path class="st8" d="M151.05,113.12l1,9.6c0.02,0.23-0.4,0.43-0.96,0.44c-0.55,0.01-1.02-0.17-1.05-0.4c0-0.01,0-0.02,0-0.04
						L151.05,113.12z"/>
					<path class="st8" d="M157.14,113.12l1,9.6c0.02,0.23-0.4,0.43-0.96,0.44c-0.55,0.01-1.02-0.17-1.05-0.4c0-0.01,0-0.02,0-0.04
						L157.14,113.12z"/>
					<path class="st8" d="M138.86,83.58l1,39.14c0.01,0.23-0.44,0.42-0.99,0.42c-0.55,0-1.01-0.18-1.01-0.41c0,0,0-0.01,0-0.01
						L138.86,83.58z"/>
					<path class="st8" d="M242.49,94.66l1,28.06c0.01,0.23-0.43,0.42-0.99,0.43c-0.55,0-1.01-0.18-1.02-0.41c0,0,0-0.01,0-0.01
						L242.49,94.66z"/>
					<path class="st8" d="M236.39,107.95l1,14.77c0.02,0.23-0.42,0.42-0.97,0.43c-0.55,0.01-1.01-0.18-1.03-0.41
						c0-0.01,0-0.02,0-0.02L236.39,107.95z"/>
					<path class="st8" d="M205.91,110.17l1,12.55c0.02,0.23-0.42,0.43-0.97,0.43c-0.55,0.01-1.02-0.17-1.04-0.4
						c0-0.01,0-0.02,0-0.03L205.91,110.17z"/>
					<path class="st8" d="M230.3,115.34l1,7.38c0.03,0.23-0.39,0.43-0.95,0.44c-0.55,0.01-1.03-0.16-1.06-0.4c0-0.02,0-0.03,0-0.05
						L230.3,115.34z"/>
					<path class="st8" d="M224.2,116.81l1,5.91c0.04,0.23-0.38,0.43-0.93,0.45c-0.55,0.02-1.03-0.16-1.07-0.39c0-0.02,0-0.04,0-0.06
						L224.2,116.81z"/>
					<path class="st8" d="M212.01,113.12l1,9.6c0.02,0.23-0.4,0.43-0.96,0.44c-0.55,0.01-1.02-0.17-1.05-0.4c0-0.01,0-0.02,0-0.04
						L212.01,113.12z"/>
					<path class="st8" d="M187.62,110.17l1,12.55c0.02,0.23-0.42,0.43-0.97,0.43c-0.55,0.01-1.02-0.17-1.04-0.4
						c0-0.01,0-0.02,0-0.03L187.62,110.17z"/>
					<path class="st8" d="M193.72,113.12l1,9.6c0.02,0.23-0.4,0.43-0.96,0.44c-0.55,0.01-1.02-0.17-1.05-0.4c0-0.01,0-0.02,0-0.04
						L193.72,113.12z"/>
					<path class="st8" d="M218.1,113.12l1,9.6c0.02,0.23-0.4,0.43-0.96,0.44c-0.55,0.01-1.02-0.17-1.05-0.4c0-0.01,0-0.02,0-0.04
						L218.1,113.12z"/>
					<path class="st8" d="M199.82,83.58l1,39.14c0.01,0.23-0.44,0.42-0.99,0.42c-0.55,0-1.01-0.18-1.01-0.41c0,0,0-0.01,0-0.01
						L199.82,83.58z"/>
					<path class="st8" d="M291.26,94.66l1,28.06c0.01,0.23-0.43,0.42-0.99,0.43c-0.55,0-1.01-0.18-1.02-0.41c0,0,0-0.01,0-0.01
						L291.26,94.66z"/>
					<path class="st8" d="M285.16,107.95l1,14.77c0.02,0.23-0.42,0.42-0.97,0.43c-0.55,0.01-1.01-0.18-1.03-0.41
						c0-0.01,0-0.02,0-0.02L285.16,107.95z"/>
					<path class="st8" d="M254.68,110.17l1,12.55c0.02,0.23-0.42,0.43-0.97,0.43c-0.55,0.01-1.02-0.17-1.04-0.4
						c0-0.01,0-0.02,0-0.03L254.68,110.17z"/>
					<path class="st8" d="M279.06,115.34l1,7.38c0.03,0.23-0.39,0.43-0.95,0.44c-0.55,0.01-1.03-0.16-1.06-0.4c0-0.02,0-0.03,0-0.05
						L279.06,115.34z"/>
					<path class="st8" d="M272.97,116.81l1,5.91c0.04,0.23-0.38,0.43-0.93,0.45c-0.55,0.02-1.03-0.16-1.07-0.39
						c0-0.02,0-0.04,0-0.06L272.97,116.81z"/>
					<path class="st8" d="M260.78,113.12l1,9.6c0.02,0.23-0.4,0.43-0.96,0.44c-0.55,0.01-1.02-0.17-1.05-0.4c0-0.01,0-0.02,0-0.04
						L260.78,113.12z"/>
					<path class="st8" d="M266.87,113.12l1,9.6c0.02,0.23-0.4,0.43-0.96,0.44c-0.55,0.01-1.02-0.17-1.05-0.4c0-0.01,0-0.02,0-0.04
						L266.87,113.12z"/>
					<path class="st8" d="M248.58,83.58l1,39.14c0.01,0.23-0.44,0.42-0.99,0.42c-0.55,0-1.01-0.18-1.01-0.41c0,0,0-0.01,0-0.01
						L248.58,83.58z"/>
				</g>
				<g>
					<path class="st8" d="M135.81,150.78l-1-28.06c-0.01-0.23,0.43-0.42,0.99-0.43c0.55,0,1.01,0.18,1.02,0.41c0,0,0,0.01,0,0.01
						L135.81,150.78z"/>
					<path class="st8" d="M129.71,137.49l-1-14.77c-0.02-0.23,0.42-0.42,0.97-0.43c0.55-0.01,1.01,0.18,1.03,0.41
						c0,0.01,0,0.02,0,0.02L129.71,137.49z"/>
					<path class="st8" d="M99.23,135.28l-1-12.55c-0.02-0.23,0.42-0.43,0.97-0.43c0.55-0.01,1.02,0.17,1.04,0.4
						c0,0.01,0,0.02,0,0.03L99.23,135.28z"/>
					<path class="st8" d="M123.62,130.11l-1-7.38c-0.03-0.23,0.39-0.43,0.95-0.44c0.55-0.01,1.03,0.16,1.06,0.4
						c0,0.02,0,0.03,0,0.05L123.62,130.11z"/>
					<path class="st8" d="M117.52,128.63l-1-5.91c-0.04-0.23,0.38-0.43,0.93-0.45c0.55-0.02,1.03,0.16,1.07,0.39
						c0,0.02,0,0.04,0,0.06L117.52,128.63z"/>
					<path class="st8" d="M105.33,132.32l-1-9.6c-0.02-0.23,0.4-0.43,0.96-0.44c0.55-0.01,1.02,0.17,1.05,0.4c0,0.01,0,0.02,0,0.04
						L105.33,132.32z"/>
					<path class="st8" d="M111.42,132.32l-1-9.6c-0.02-0.23,0.4-0.43,0.96-0.44c0.55-0.01,1.02,0.17,1.05,0.4c0,0.01,0,0.02,0,0.04
						L111.42,132.32z"/>
					<path class="st8" d="M62.66,128.63l-1-5.91c-0.04-0.23,0.38-0.43,0.93-0.45c0.55-0.02,1.03,0.16,1.07,0.39
						c0,0.02,0,0.04,0,0.06L62.66,128.63z"/>
					<path class="st8" d="M50.47,128.63l-1-5.91c-0.04-0.23,0.38-0.43,0.93-0.45c0.55-0.02,1.03,0.16,1.07,0.39
						c0,0.02,0,0.04,0,0.06L50.47,128.63z"/>
					<path class="st8" d="M44.37,125.31l-1-2.58c-0.09-0.23,0.29-0.45,0.84-0.49c0.55-0.04,1.07,0.12,1.16,0.35
						c0.02,0.05,0.02,0.09,0,0.14L44.37,125.31z"/>
					<path class="st8" d="M56.56,132.32l-1-9.6c-0.02-0.23,0.4-0.43,0.96-0.44c0.55-0.01,1.02,0.17,1.05,0.4c0,0.01,0,0.02,0,0.04
						L56.56,132.32z"/>
					<path class="st8" d="M74.85,128.63l-1-5.91c-0.04-0.23,0.38-0.43,0.93-0.45c0.55-0.02,1.03,0.16,1.07,0.39
						c0,0.02,0,0.04,0,0.06L74.85,128.63z"/>
					<path class="st8" d="M68.75,132.32l-1-9.6c-0.02-0.23,0.41-0.43,0.96-0.44c0.55-0.01,1.02,0.17,1.05,0.4c0,0.01,0,0.02,0,0.04
						L68.75,132.32z"/>
					<path class="st8" d="M87.04,128.63l-1-5.91c-0.04-0.23,0.38-0.43,0.93-0.45c0.55-0.02,1.03,0.16,1.07,0.39
						c0,0.02,0,0.04,0,0.06L87.04,128.63z"/>
					<path class="st8" d="M80.95,132.32l-1-9.6c-0.02-0.23,0.4-0.43,0.96-0.44c0.55-0.01,1.02,0.17,1.05,0.4c0,0.01,0,0.02,0,0.04
						L80.95,132.32z"/>
					<path class="st8" d="M93.14,161.86l-1-39.14c-0.01-0.23,0.44-0.42,0.99-0.42c0.55,0,1.01,0.18,1.01,0.41c0,0,0,0.01,0,0.01
						L93.14,161.86z"/>
					<path class="st8" d="M184.58,150.78l-1-28.06c-0.01-0.23,0.43-0.42,0.99-0.43c0.55,0,1.01,0.18,1.02,0.41c0,0,0,0.01,0,0.01
						L184.58,150.78z"/>
					<path class="st8" d="M178.48,137.49l-1-14.77c-0.02-0.23,0.42-0.42,0.97-0.43c0.55-0.01,1.01,0.18,1.03,0.41
						c0,0.01,0,0.02,0,0.02L178.48,137.49z"/>
					<path class="st8" d="M148,135.28l-1-12.55c-0.02-0.23,0.42-0.43,0.97-0.43c0.55-0.01,1.02,0.17,1.04,0.4c0,0.01,0,0.02,0,0.03
						L148,135.28z"/>
					<path class="st8" d="M172.38,130.11l-1-7.38c-0.03-0.23,0.39-0.43,0.95-0.44c0.55-0.01,1.03,0.16,1.06,0.4
						c0,0.02,0,0.03,0,0.05L172.38,130.11z"/>
					<path class="st8" d="M166.29,128.63l-1-5.91c-0.04-0.23,0.38-0.43,0.93-0.45c0.55-0.02,1.03,0.16,1.07,0.39
						c0,0.02,0,0.04,0,0.06L166.29,128.63z"/>
					<path class="st8" d="M154.1,132.32l-1-9.6c-0.02-0.23,0.4-0.43,0.96-0.44c0.55-0.01,1.02,0.17,1.05,0.4c0,0.01,0,0.02,0,0.04
						L154.1,132.32z"/>
					<path class="st8" d="M160.19,132.32l-1-9.6c-0.02-0.23,0.4-0.43,0.96-0.44c0.55-0.01,1.02,0.17,1.05,0.4c0,0.01,0,0.02,0,0.04
						L160.19,132.32z"/>
					<path class="st8" d="M141.9,161.86l-1-39.14c-0.01-0.23,0.44-0.42,0.99-0.42c0.55,0,1.01,0.18,1.01,0.41c0,0,0,0.01,0,0.01
						L141.9,161.86z"/>
					<path class="st8" d="M245.54,150.78l-1-28.06c-0.01-0.23,0.43-0.42,0.99-0.43c0.55,0,1.01,0.18,1.02,0.41c0,0,0,0.01,0,0.01
						L245.54,150.78z"/>
					<path class="st8" d="M239.44,137.49l-1-14.77c-0.02-0.23,0.42-0.42,0.97-0.43c0.55-0.01,1.01,0.18,1.03,0.41
						c0,0.01,0,0.02,0,0.02L239.44,137.49z"/>
					<path class="st8" d="M208.96,135.28l-1-12.55c-0.02-0.23,0.42-0.43,0.97-0.43c0.55-0.01,1.02,0.17,1.04,0.4
						c0,0.01,0,0.02,0,0.03L208.96,135.28z"/>
					<path class="st8" d="M233.34,130.11l-1-7.38c-0.03-0.23,0.39-0.43,0.95-0.44c0.55-0.01,1.03,0.16,1.06,0.4
						c0,0.02,0,0.03,0,0.05L233.34,130.11z"/>
					<path class="st8" d="M227.25,128.63l-1-5.91c-0.04-0.23,0.38-0.43,0.93-0.45c0.55-0.02,1.03,0.16,1.07,0.39
						c0,0.02,0,0.04,0,0.06L227.25,128.63z"/>
					<path class="st8" d="M215.06,132.32l-1-9.6c-0.02-0.23,0.4-0.43,0.96-0.44c0.55-0.01,1.02,0.17,1.05,0.4c0,0.01,0,0.02,0,0.04
						L215.06,132.32z"/>
					<path class="st8" d="M190.67,135.28l-1-12.55c-0.02-0.23,0.42-0.43,0.97-0.43c0.55-0.01,1.02,0.17,1.04,0.4
						c0,0.01,0,0.02,0,0.03L190.67,135.28z"/>
					<path class="st8" d="M196.77,132.32l-1-9.6c-0.02-0.23,0.4-0.43,0.96-0.44c0.55-0.01,1.02,0.17,1.05,0.4c0,0.01,0,0.02,0,0.04
						L196.77,132.32z"/>
					<path class="st8" d="M221.15,132.32l-1-9.6c-0.02-0.23,0.4-0.43,0.96-0.44c0.55-0.01,1.02,0.17,1.05,0.4c0,0.01,0,0.02,0,0.04
						L221.15,132.32z"/>
					<path class="st8" d="M202.86,161.86l-1-39.14c-0.01-0.23,0.44-0.42,0.99-0.42c0.55,0,1.01,0.18,1.01,0.41c0,0,0,0.01,0,0.01
						L202.86,161.86z"/>
					<path class="st8" d="M294.3,150.78l-1-28.06c-0.01-0.23,0.43-0.42,0.99-0.43c0.55,0,1.01,0.18,1.02,0.41c0,0,0,0.01,0,0.01
						L294.3,150.78z"/>
					<path class="st8" d="M288.21,137.49l-1-14.77c-0.02-0.23,0.42-0.42,0.97-0.43c0.55-0.01,1.01,0.18,1.03,0.41
						c0,0.01,0,0.02,0,0.02L288.21,137.49z"/>
					<path class="st8" d="M257.73,135.28l-1-12.55c-0.02-0.23,0.42-0.43,0.97-0.43s1.02,0.17,1.04,0.4c0,0.01,0,0.02,0,0.03
						L257.73,135.28z"/>
					<path class="st8" d="M282.11,130.11l-1-7.38c-0.03-0.23,0.39-0.43,0.95-0.44c0.55-0.01,1.03,0.16,1.06,0.4
						c0,0.02,0,0.03,0,0.05L282.11,130.11z"/>
					<path class="st8" d="M276.02,128.63l-1-5.91c-0.04-0.23,0.38-0.43,0.93-0.45c0.55-0.02,1.03,0.16,1.07,0.39
						c0,0.02,0,0.04,0,0.06L276.02,128.63z"/>
					<path class="st8" d="M263.82,132.32l-1-9.6c-0.02-0.23,0.41-0.43,0.96-0.44c0.55-0.01,1.02,0.17,1.05,0.4c0,0.01,0,0.02,0,0.04
						L263.82,132.32z"/>
					<path class="st8" d="M269.92,132.32l-1-9.6c-0.02-0.23,0.41-0.43,0.96-0.44c0.55-0.01,1.02,0.17,1.05,0.4c0,0.01,0,0.02,0,0.04
						L269.92,132.32z"/>
					<path class="st8" d="M251.63,161.86l-1-39.14c-0.01-0.23,0.44-0.42,0.99-0.42c0.55,0,1.01,0.18,1.01,0.41c0,0,0,0.01,0,0.01
						L251.63,161.86z"/>
					<path class="st8" d="M132.76,150.78l-1-28.06c-0.01-0.23,0.43-0.42,0.99-0.43c0.55,0,1.01,0.18,1.02,0.41c0,0,0,0.01,0,0.01
						L132.76,150.78z"/>
					<path class="st8" d="M126.66,137.49l-1-14.77c-0.02-0.23,0.42-0.42,0.97-0.43c0.55-0.01,1.01,0.18,1.03,0.41
						c0,0.01,0,0.02,0,0.02L126.66,137.49z"/>
					<path class="st8" d="M96.18,135.28l-1-12.55c-0.02-0.23,0.42-0.43,0.97-0.43c0.55-0.01,1.02,0.17,1.04,0.4
						c0,0.01,0,0.02,0,0.03L96.18,135.28z"/>
					<path class="st8" d="M120.57,130.11l-1-7.38c-0.03-0.23,0.39-0.43,0.95-0.44c0.55-0.01,1.03,0.16,1.06,0.4
						c0,0.02,0,0.03,0,0.05L120.57,130.11z"/>
					<path class="st8" d="M114.47,128.63l-1-5.91c-0.04-0.23,0.38-0.43,0.93-0.45c0.55-0.02,1.03,0.16,1.07,0.39
						c0,0.02,0,0.04,0,0.06L114.47,128.63z"/>
					<path class="st8" d="M102.28,132.32l-1-9.6c-0.02-0.23,0.4-0.43,0.96-0.44c0.55-0.01,1.02,0.17,1.05,0.4c0,0.01,0,0.02,0,0.04
						L102.28,132.32z"/>
					<path class="st8" d="M108.38,132.32l-1-9.6c-0.02-0.23,0.4-0.43,0.96-0.44c0.55-0.01,1.02,0.17,1.05,0.4c0,0.01,0,0.02,0,0.04
						L108.38,132.32z"/>
					<path class="st8" d="M59.61,128.63l-1-5.91c-0.04-0.23,0.38-0.43,0.93-0.45c0.55-0.02,1.03,0.16,1.07,0.39
						c0,0.02,0,0.04,0,0.06L59.61,128.63z"/>
					<path class="st8" d="M47.42,128.63l-1-5.91c-0.04-0.23,0.38-0.43,0.93-0.45c0.55-0.02,1.03,0.16,1.07,0.39
						c0,0.02,0,0.04,0,0.06L47.42,128.63z"/>
					<path class="st8" d="M53.51,132.32l-1-9.6c-0.02-0.23,0.4-0.43,0.96-0.44c0.55-0.01,1.02,0.17,1.05,0.4c0,0.01,0,0.02,0,0.04
						L53.51,132.32z"/>
					<path class="st8" d="M303.45,125.31l-1-2.58c-0.09-0.23,0.29-0.45,0.84-0.49c0.55-0.04,1.07,0.12,1.16,0.35
						c0.02,0.05,0.02,0.09,0,0.14L303.45,125.31z"/>
					<path class="st8" d="M300.4,128.63l-1-5.91c-0.04-0.23,0.38-0.43,0.93-0.45c0.55-0.02,1.03,0.16,1.07,0.39
						c0,0.02,0,0.04,0,0.06L300.4,128.63z"/>
					<path class="st8" d="M297.35,132.32l-1-9.6c-0.02-0.23,0.4-0.43,0.96-0.44c0.55-0.01,1.02,0.17,1.05,0.4c0,0.01,0,0.02,0,0.04
						L297.35,132.32z"/>
					<path class="st8" d="M71.8,128.63l-1-5.91c-0.04-0.23,0.38-0.43,0.93-0.45c0.55-0.02,1.03,0.16,1.07,0.39c0,0.02,0,0.04,0,0.06
						L71.8,128.63z"/>
					<path class="st8" d="M65.71,132.32l-1-9.6c-0.02-0.23,0.41-0.43,0.96-0.44c0.55-0.01,1.02,0.17,1.05,0.4c0,0.01,0,0.02,0,0.04
						L65.71,132.32z"/>
					<path class="st8" d="M83.99,128.63l-1-5.91c-0.04-0.23,0.38-0.43,0.93-0.45c0.55-0.02,1.03,0.16,1.07,0.39
						c0,0.02,0,0.04,0,0.06L83.99,128.63z"/>
					<path class="st8" d="M77.9,132.32l-1-9.6c-0.02-0.23,0.41-0.43,0.96-0.44c0.55-0.01,1.02,0.17,1.05,0.4c0,0.01,0,0.02,0,0.04
						L77.9,132.32z"/>
					<path class="st8" d="M90.09,161.86l-1-39.14c-0.01-0.23,0.44-0.42,0.99-0.42c0.55,0,1.01,0.18,1.01,0.41c0,0,0,0.01,0,0.01
						L90.09,161.86z"/>
					<path class="st8" d="M181.53,150.78l-1-28.06c-0.01-0.23,0.43-0.42,0.99-0.43c0.55,0,1.01,0.18,1.02,0.41c0,0,0,0.01,0,0.01
						L181.53,150.78z"/>
					<path class="st8" d="M175.43,137.49l-1-14.77c-0.02-0.23,0.42-0.42,0.97-0.43c0.55-0.01,1.01,0.18,1.03,0.41
						c0,0.01,0,0.02,0,0.02L175.43,137.49z"/>
					<path class="st8" d="M144.95,135.28l-1-12.55c-0.02-0.23,0.42-0.43,0.97-0.43c0.55-0.01,1.02,0.17,1.04,0.4
						c0,0.01,0,0.02,0,0.03L144.95,135.28z"/>
					<path class="st8" d="M169.34,130.11l-1-7.38c-0.03-0.23,0.39-0.43,0.95-0.44c0.55-0.01,1.03,0.16,1.06,0.4
						c0,0.02,0,0.03,0,0.05L169.34,130.11z"/>
					<path class="st8" d="M163.24,128.63l-1-5.91c-0.04-0.23,0.38-0.43,0.93-0.45c0.55-0.02,1.03,0.16,1.07,0.39
						c0,0.02,0,0.04,0,0.06L163.24,128.63z"/>
					<path class="st8" d="M151.05,132.32l-1-9.6c-0.02-0.23,0.4-0.43,0.96-0.44c0.55-0.01,1.02,0.17,1.05,0.4c0,0.01,0,0.02,0,0.04
						L151.05,132.32z"/>
					<path class="st8" d="M157.14,132.32l-1-9.6c-0.02-0.23,0.4-0.43,0.96-0.44c0.55-0.01,1.02,0.17,1.05,0.4c0,0.01,0,0.02,0,0.04
						L157.14,132.32z"/>
					<path class="st8" d="M138.86,161.86l-1-39.14c-0.01-0.23,0.44-0.42,0.99-0.42c0.55,0,1.01,0.18,1.01,0.41c0,0,0,0.01,0,0.01
						L138.86,161.86z"/>
					<path class="st8" d="M242.49,150.78l-1-28.06c-0.01-0.23,0.43-0.42,0.99-0.43c0.55,0,1.01,0.18,1.02,0.41c0,0,0,0.01,0,0.01
						L242.49,150.78z"/>
					<path class="st8" d="M236.39,137.49l-1-14.77c-0.02-0.23,0.42-0.42,0.97-0.43c0.55-0.01,1.01,0.18,1.03,0.41
						c0,0.01,0,0.02,0,0.02L236.39,137.49z"/>
					<path class="st8" d="M205.91,135.28l-1-12.55c-0.02-0.23,0.42-0.43,0.97-0.43s1.02,0.17,1.04,0.4c0,0.01,0,0.02,0,0.03
						L205.91,135.28z"/>
					<path class="st8" d="M230.3,130.11l-1-7.38c-0.03-0.23,0.39-0.43,0.95-0.44c0.55-0.01,1.03,0.16,1.06,0.4c0,0.02,0,0.03,0,0.05
						L230.3,130.11z"/>
					<path class="st8" d="M224.2,128.63l-1-5.91c-0.04-0.23,0.38-0.43,0.93-0.45c0.55-0.02,1.03,0.16,1.07,0.39
						c0,0.02,0,0.04,0,0.06L224.2,128.63z"/>
					<path class="st8" d="M212.01,132.32l-1-9.6c-0.02-0.23,0.4-0.43,0.96-0.44c0.55-0.01,1.02,0.17,1.05,0.4c0,0.01,0,0.02,0,0.04
						L212.01,132.32z"/>
					<path class="st8" d="M187.62,135.28l-1-12.55c-0.02-0.23,0.42-0.43,0.97-0.43c0.55-0.01,1.02,0.17,1.04,0.4
						c0,0.01,0,0.02,0,0.03L187.62,135.28z"/>
					<path class="st8" d="M193.72,132.32l-1-9.6c-0.02-0.23,0.4-0.43,0.96-0.44c0.55-0.01,1.02,0.17,1.05,0.4c0,0.01,0,0.02,0,0.04
						L193.72,132.32z"/>
					<path class="st8" d="M218.1,132.32l-1-9.6c-0.02-0.23,0.4-0.43,0.96-0.44c0.55-0.01,1.02,0.17,1.05,0.4c0,0.01,0,0.02,0,0.04
						L218.1,132.32z"/>
					<path class="st8" d="M199.82,161.86l-1-39.14c-0.01-0.23,0.44-0.42,0.99-0.42c0.55,0,1.01,0.18,1.01,0.41c0,0,0,0.01,0,0.01
						L199.82,161.86z"/>
					<path class="st8" d="M291.26,150.78l-1-28.06c-0.01-0.23,0.43-0.42,0.99-0.43c0.55,0,1.01,0.18,1.02,0.41c0,0,0,0.01,0,0.01
						L291.26,150.78z"/>
					<path class="st8" d="M285.16,137.49l-1-14.77c-0.02-0.23,0.42-0.42,0.97-0.43c0.55-0.01,1.01,0.18,1.03,0.41
						c0,0.01,0,0.02,0,0.02L285.16,137.49z"/>
					<path class="st8" d="M254.68,135.28l-1-12.55c-0.02-0.23,0.42-0.43,0.97-0.43c0.55-0.01,1.02,0.17,1.04,0.4
						c0,0.01,0,0.02,0,0.03L254.68,135.28z"/>
					<path class="st8" d="M279.06,130.11l-1-7.38c-0.03-0.23,0.39-0.43,0.95-0.44c0.55-0.01,1.03,0.16,1.06,0.4
						c0,0.02,0,0.03,0,0.05L279.06,130.11z"/>
					<path class="st8" d="M272.97,128.63l-1-5.91c-0.04-0.23,0.38-0.43,0.93-0.45c0.55-0.02,1.03,0.16,1.07,0.39
						c0,0.02,0,0.04,0,0.06L272.97,128.63z"/>
					<path class="st8" d="M260.78,132.32l-1-9.6c-0.02-0.23,0.41-0.43,0.96-0.44c0.55-0.01,1.02,0.17,1.05,0.4c0,0.01,0,0.02,0,0.04
						L260.78,132.32z"/>
					<path class="st8" d="M266.87,132.32l-1-9.6c-0.02-0.23,0.41-0.43,0.96-0.44c0.55-0.01,1.02,0.17,1.05,0.4c0,0.01,0,0.02,0,0.04
						L266.87,132.32z"/>
					<path class="st8" d="M248.58,161.86l-1-39.14c-0.01-0.23,0.44-0.42,0.99-0.42c0.55,0,1.01,0.18,1.01,0.41c0,0,0,0.01,0,0.01
						L248.58,161.86z"/>
				</g>
				<path class="st8" d="M311.72,123.14H21.82c-0.55,0-1-0.19-1-0.42c0-0.23,0.45-0.42,1-0.42h289.9c0.55,0,1,0.19,1,0.42
					C312.72,122.95,312.27,123.14,311.72,123.14z"/>
			</g>
			<g>
				<g>
					<path class="st8" d="M394.89,94.66l1,28.06c0.01,0.23-0.43,0.42-0.99,0.43c-0.55,0-1.01-0.18-1.02-0.41c0,0,0-0.01,0-0.01
						L394.89,94.66z"/>
					<path class="st8" d="M388.79,107.95l1,14.77c0.02,0.23-0.42,0.42-0.97,0.43c-0.55,0.01-1.01-0.18-1.03-0.41
						c0-0.01,0-0.02,0-0.02L388.79,107.95z"/>
					<path class="st8" d="M358.31,110.17l1,12.55c0.02,0.23-0.42,0.43-0.97,0.43c-0.55,0.01-1.02-0.17-1.04-0.4
						c0-0.01,0-0.02,0-0.03L358.31,110.17z"/>
					<path class="st8" d="M382.7,115.34l1,7.38c0.03,0.23-0.39,0.43-0.95,0.44c-0.55,0.01-1.03-0.16-1.06-0.4c0-0.02,0-0.03,0-0.05
						L382.7,115.34z"/>
					<path class="st8" d="M376.6,116.81l1,5.91c0.04,0.23-0.38,0.43-0.93,0.45c-0.55,0.02-1.03-0.16-1.07-0.39c0-0.02,0-0.04,0-0.06
						L376.6,116.81z"/>
					<path class="st8" d="M364.41,113.12l1,9.6c0.02,0.23-0.41,0.43-0.96,0.44c-0.55,0.01-1.02-0.17-1.05-0.4c0-0.01,0-0.02,0-0.04
						L364.41,113.12z"/>
					<path class="st8" d="M370.51,113.12l1,9.6c0.02,0.23-0.4,0.43-0.96,0.44c-0.55,0.01-1.02-0.17-1.05-0.4c0-0.01,0-0.02,0-0.04
						L370.51,113.12z"/>
					<path class="st8" d="M321.74,116.81l1,5.91c0.04,0.23-0.38,0.43-0.93,0.45c-0.55,0.02-1.03-0.16-1.07-0.39
						c0-0.02,0-0.04,0-0.06L321.74,116.81z"/>
					<path class="st8" d="M309.55,116.81l1,5.91c0.04,0.23-0.38,0.43-0.93,0.45c-0.55,0.02-1.03-0.16-1.07-0.39
						c0-0.02,0-0.04,0-0.06L309.55,116.81z"/>
					<path class="st8" d="M315.64,113.12l1,9.6c0.02,0.23-0.4,0.43-0.96,0.44c-0.55,0.01-1.02-0.17-1.05-0.4c0-0.01,0-0.02,0-0.04
						L315.64,113.12z"/>
					<path class="st8" d="M333.93,116.81l1,5.91c0.04,0.23-0.38,0.43-0.93,0.45c-0.55,0.02-1.03-0.16-1.07-0.39
						c0-0.02,0-0.04,0-0.06L333.93,116.81z"/>
					<path class="st8" d="M327.83,113.12l1,9.6c0.02,0.23-0.41,0.43-0.96,0.44c-0.55,0.01-1.02-0.17-1.05-0.4c0-0.01,0-0.02,0-0.04
						L327.83,113.12z"/>
					<path class="st8" d="M346.12,116.81l1,5.91c0.04,0.23-0.38,0.43-0.93,0.45c-0.55,0.02-1.03-0.16-1.07-0.39
						c0-0.02,0-0.04,0-0.06L346.12,116.81z"/>
					<path class="st8" d="M340.03,113.12l1,9.6c0.02,0.23-0.41,0.43-0.96,0.44c-0.55,0.01-1.02-0.17-1.05-0.4c0-0.01,0-0.02,0-0.04
						L340.03,113.12z"/>
					<path class="st8" d="M352.22,83.58l1,39.14c0.01,0.23-0.44,0.42-0.99,0.42c-0.55,0-1.01-0.18-1.01-0.41c0,0,0-0.01,0-0.01
						L352.22,83.58z"/>
					<path class="st8" d="M-139.44,419.23l1,28.06c0.01,0.23-0.43,0.42-0.99,0.43c-0.55,0-1.01-0.18-1.02-0.41c0,0,0-0.01,0-0.01
						L-139.44,419.23z"/>
					<path class="st8" d="M-145.54,432.52l1,14.77c0.02,0.23-0.42,0.42-0.97,0.43c-0.55,0.01-1.01-0.18-1.03-0.41
						c0-0.01,0-0.02,0-0.02L-145.54,432.52z"/>
					<path class="st8" d="M407.08,110.17l1,12.55c0.02,0.23-0.42,0.43-0.97,0.43c-0.55,0.01-1.02-0.17-1.04-0.4
						c0-0.01,0-0.02,0-0.03L407.08,110.17z"/>
					<path class="st8" d="M-151.64,439.91l1,7.38c0.03,0.23-0.39,0.43-0.95,0.44c-0.55,0.01-1.03-0.16-1.06-0.4
						c0-0.02,0-0.03,0-0.05L-151.64,439.91z"/>
					<path class="st8" d="M-157.73,441.38l1,5.91c0.04,0.23-0.38,0.43-0.93,0.45c-0.55,0.02-1.03-0.16-1.07-0.39
						c0-0.02,0-0.04,0-0.06L-157.73,441.38z"/>
					<path class="st8" d="M-169.92,437.69l1,9.6c0.02,0.23-0.41,0.43-0.96,0.44c-0.55,0.01-1.02-0.17-1.05-0.4c0-0.01,0-0.02,0-0.04
						L-169.92,437.69z"/>
					<path class="st8" d="M-163.83,437.69l1,9.6c0.02,0.23-0.41,0.43-0.96,0.44c-0.55,0.01-1.02-0.17-1.05-0.4c0-0.01,0-0.02,0-0.04
						L-163.83,437.69z"/>
					<path class="st8" d="M400.99,83.58l1,39.14c0.01,0.23-0.44,0.42-0.99,0.42c-0.55,0-1.01-0.18-1.01-0.41c0,0,0-0.01,0-0.01
						L400.99,83.58z"/>
					<path class="st8" d="M-78.48,419.23l1,28.06c0.01,0.23-0.43,0.42-0.99,0.43c-0.55,0-1.01-0.18-1.02-0.41c0,0,0-0.01,0-0.01
						L-78.48,419.23z"/>
					<path class="st8" d="M-84.58,432.52l1,14.77c0.02,0.23-0.42,0.42-0.97,0.43c-0.55,0.01-1.01-0.18-1.03-0.41
						c0-0.01,0-0.02,0-0.02L-84.58,432.52z"/>
					<path class="st8" d="M-115.06,434.74l1,12.55c0.02,0.23-0.42,0.43-0.97,0.43c-0.55,0.01-1.02-0.17-1.04-0.4
						c0-0.01,0-0.02,0-0.03L-115.06,434.74z"/>
					<path class="st8" d="M-90.68,439.91l1,7.38c0.03,0.23-0.39,0.43-0.95,0.44c-0.55,0.01-1.03-0.16-1.06-0.4c0-0.02,0-0.03,0-0.05
						L-90.68,439.91z"/>
					<path class="st8" d="M-96.77,441.38l1,5.91c0.04,0.23-0.38,0.43-0.93,0.45c-0.55,0.02-1.03-0.16-1.07-0.39
						c0-0.02,0-0.04,0-0.06L-96.77,441.38z"/>
					<path class="st8" d="M-108.96,437.69l1,9.6c0.02,0.23-0.41,0.43-0.96,0.44c-0.55,0.01-1.02-0.17-1.05-0.4c0-0.01,0-0.02,0-0.04
						L-108.96,437.69z"/>
					<path class="st8" d="M-133.35,434.74l1,12.55c0.02,0.23-0.42,0.43-0.97,0.43c-0.55,0.01-1.02-0.17-1.04-0.4
						c0-0.01,0-0.02,0-0.03L-133.35,434.74z"/>
					<path class="st8" d="M-127.25,437.69l1,9.6c0.02,0.23-0.41,0.43-0.96,0.44c-0.55,0.01-1.02-0.17-1.05-0.4c0-0.01,0-0.02,0-0.04
						L-127.25,437.69z"/>
					<path class="st8" d="M-102.87,437.69l1,9.6c0.02,0.23-0.41,0.43-0.96,0.44c-0.55,0.01-1.02-0.17-1.05-0.4c0-0.01,0-0.02,0-0.04
						L-102.87,437.69z"/>
					<path class="st8" d="M-121.16,408.15l1,39.14c0.01,0.23-0.44,0.42-0.99,0.42c-0.55,0-1.01-0.18-1.01-0.41c0,0,0-0.01,0-0.01
						L-121.16,408.15z"/>
					<path class="st8" d="M-29.72,419.23l1,28.06c0.01,0.23-0.43,0.42-0.99,0.43c-0.55,0-1.01-0.18-1.02-0.41c0,0,0-0.01,0-0.01
						L-29.72,419.23z"/>
					<path class="st8" d="M-35.81,432.52l1,14.77c0.02,0.23-0.42,0.42-0.97,0.43c-0.55,0.01-1.01-0.18-1.03-0.41
						c0-0.01,0-0.02,0-0.02L-35.81,432.52z"/>
					<path class="st8" d="M-66.29,434.74l1,12.55c0.02,0.23-0.42,0.43-0.97,0.43c-0.55,0.01-1.02-0.17-1.04-0.4
						c0-0.01,0-0.02,0-0.03L-66.29,434.74z"/>
					<path class="st8" d="M-41.91,439.91l1,7.38c0.03,0.23-0.39,0.43-0.95,0.44c-0.55,0.01-1.03-0.16-1.06-0.4c0-0.02,0-0.03,0-0.05
						L-41.91,439.91z"/>
					<path class="st8" d="M-48,441.38l1,5.91c0.04,0.23-0.38,0.43-0.93,0.45c-0.55,0.02-1.03-0.16-1.07-0.39c0-0.02,0-0.04,0-0.06
						L-48,441.38z"/>
					<path class="st8" d="M-60.2,437.69l1,9.6c0.02,0.23-0.4,0.43-0.96,0.44c-0.55,0.01-1.02-0.17-1.05-0.4c0-0.01,0-0.02,0-0.04
						L-60.2,437.69z"/>
					<path class="st8" d="M-54.1,437.69l1,9.6c0.02,0.23-0.4,0.43-0.96,0.44c-0.55,0.01-1.02-0.17-1.05-0.4c0-0.01,0-0.02,0-0.04
						L-54.1,437.69z"/>
					<path class="st8" d="M-72.39,408.15l1,39.14c0.01,0.23-0.44,0.42-0.99,0.42c-0.55,0-1.01-0.18-1.01-0.41c0,0,0-0.01,0-0.01
						L-72.39,408.15z"/>
					<path class="st8" d="M391.84,94.66l1,28.06c0.01,0.23-0.43,0.42-0.99,0.43c-0.55,0-1.01-0.18-1.02-0.41c0,0,0-0.01,0-0.01
						L391.84,94.66z"/>
					<path class="st8" d="M385.75,107.95l1,14.77c0.02,0.23-0.42,0.42-0.97,0.43c-0.55,0.01-1.01-0.18-1.03-0.41
						c0-0.01,0-0.02,0-0.02L385.75,107.95z"/>
					<path class="st8" d="M355.27,110.17l1,12.55c0.02,0.23-0.42,0.43-0.97,0.43c-0.55,0.01-1.02-0.17-1.04-0.4
						c0-0.01,0-0.02,0-0.03L355.27,110.17z"/>
					<path class="st8" d="M379.65,115.34l1,7.38c0.03,0.23-0.39,0.43-0.95,0.44c-0.55,0.01-1.03-0.16-1.06-0.4c0-0.02,0-0.03,0-0.05
						L379.65,115.34z"/>
					<path class="st8" d="M373.55,116.81l1,5.91c0.04,0.23-0.38,0.43-0.93,0.45c-0.55,0.02-1.03-0.16-1.07-0.39
						c0-0.02,0-0.04,0-0.06L373.55,116.81z"/>
					<path class="st8" d="M361.36,113.12l1,9.6c0.02,0.23-0.41,0.43-0.96,0.44c-0.55,0.01-1.02-0.17-1.05-0.4c0-0.01,0-0.02,0-0.04
						L361.36,113.12z"/>
					<path class="st8" d="M367.46,113.12l1,9.6c0.02,0.23-0.41,0.43-0.96,0.44c-0.55,0.01-1.02-0.17-1.05-0.4c0-0.01,0-0.02,0-0.04
						L367.46,113.12z"/>
					<path class="st8" d="M318.69,116.81l1,5.91c0.04,0.23-0.38,0.43-0.93,0.45c-0.55,0.02-1.03-0.16-1.07-0.39
						c0-0.02,0-0.04,0-0.06L318.69,116.81z"/>
					<path class="st8" d="M306.5,116.81l1,5.91c0.04,0.23-0.38,0.43-0.93,0.45c-0.55,0.02-1.03-0.16-1.07-0.39c0-0.02,0-0.04,0-0.06
						L306.5,116.81z"/>
					<path class="st8" d="M312.59,113.12l1,9.6c0.02,0.23-0.4,0.43-0.96,0.44c-0.55,0.01-1.02-0.17-1.05-0.4c0-0.01,0-0.02,0-0.04
						L312.59,113.12z"/>
					<path class="st8" d="M-20.57,444.71l1,2.58c0.09,0.23-0.29,0.45-0.84,0.49s-1.07-0.12-1.16-0.35c-0.02-0.05-0.02-0.09,0-0.14
						L-20.57,444.71z"/>
					<path class="st8" d="M-23.62,441.38l1,5.91c0.04,0.23-0.38,0.43-0.93,0.45c-0.55,0.02-1.03-0.16-1.07-0.39
						c0-0.02,0-0.04,0-0.06L-23.62,441.38z"/>
					<path class="st8" d="M-26.67,437.69l1,9.6c0.02,0.23-0.4,0.43-0.96,0.44c-0.55,0.01-1.02-0.17-1.05-0.4c0-0.01,0-0.02,0-0.04
						L-26.67,437.69z"/>
					<path class="st8" d="M330.88,116.81l1,5.91c0.04,0.23-0.38,0.43-0.93,0.45c-0.55,0.02-1.03-0.16-1.07-0.39
						c0-0.02,0-0.04,0-0.06L330.88,116.81z"/>
					<path class="st8" d="M324.79,113.12l1,9.6c0.02,0.23-0.41,0.43-0.96,0.44c-0.55,0.01-1.02-0.17-1.05-0.4c0-0.01,0-0.02,0-0.04
						L324.79,113.12z"/>
					<path class="st8" d="M343.07,116.81l1,5.91c0.04,0.23-0.38,0.43-0.93,0.45c-0.55,0.02-1.03-0.16-1.07-0.39
						c0-0.02,0-0.04,0-0.06L343.07,116.81z"/>
					<path class="st8" d="M336.98,113.12l1,9.6c0.02,0.23-0.41,0.43-0.96,0.44c-0.55,0.01-1.02-0.17-1.05-0.4c0-0.01,0-0.02,0-0.04
						L336.98,113.12z"/>
					<path class="st8" d="M349.17,83.58l1,39.14c0.01,0.23-0.44,0.42-0.99,0.42c-0.55,0-1.01-0.18-1.01-0.41c0,0,0-0.01,0-0.01
						L349.17,83.58z"/>
					<path class="st8" d="M-142.49,419.23l1,28.06c0.01,0.23-0.43,0.42-0.99,0.43c-0.55,0-1.01-0.18-1.02-0.41c0,0,0-0.01,0-0.01
						L-142.49,419.23z"/>
					<path class="st8" d="M-148.59,432.52l1,14.77c0.02,0.23-0.42,0.42-0.97,0.43c-0.55,0.01-1.01-0.18-1.03-0.41
						c0-0.01,0-0.02,0-0.02L-148.59,432.52z"/>
					<path class="st8" d="M404.03,110.17l1,12.55c0.02,0.23-0.42,0.43-0.97,0.43c-0.55,0.01-1.02-0.17-1.04-0.4
						c0-0.01,0-0.02,0-0.03L404.03,110.17z"/>
					<path class="st8" d="M-154.68,439.91l1,7.38c0.03,0.23-0.39,0.43-0.95,0.44c-0.55,0.01-1.03-0.16-1.06-0.4
						c0-0.02,0-0.03,0-0.05L-154.68,439.91z"/>
					<path class="st8" d="M-160.78,441.38l1,5.91c0.04,0.23-0.38,0.43-0.93,0.45c-0.55,0.02-1.03-0.16-1.07-0.39
						c0-0.02,0-0.04,0-0.06L-160.78,441.38z"/>
					<path class="st8" d="M-172.97,437.69l1,9.6c0.02,0.23-0.41,0.43-0.96,0.44c-0.55,0.01-1.02-0.17-1.05-0.4c0-0.01,0-0.02,0-0.04
						L-172.97,437.69z"/>
					<path class="st8" d="M-166.88,437.69l1,9.6c0.02,0.23-0.41,0.43-0.96,0.44c-0.55,0.01-1.02-0.17-1.05-0.4c0-0.01,0-0.02,0-0.04
						L-166.88,437.69z"/>
					<path class="st8" d="M397.94,83.58l1,39.14c0.01,0.23-0.44,0.42-0.99,0.42c-0.55,0-1.01-0.18-1.01-0.41c0,0,0-0.01,0-0.01
						L397.94,83.58z"/>
					<path class="st8" d="M-81.53,419.23l1,28.06c0.01,0.23-0.43,0.42-0.99,0.43c-0.55,0-1.01-0.18-1.02-0.41c0,0,0-0.01,0-0.01
						L-81.53,419.23z"/>
					<path class="st8" d="M-87.63,432.52l1,14.77c0.02,0.23-0.42,0.42-0.97,0.43c-0.55,0.01-1.01-0.18-1.03-0.41
						c0-0.01,0-0.02,0-0.02L-87.63,432.52z"/>
					<path class="st8" d="M-118.11,434.74l1,12.55c0.02,0.23-0.42,0.43-0.97,0.43c-0.55,0.01-1.02-0.17-1.04-0.4
						c0-0.01,0-0.02,0-0.03L-118.11,434.74z"/>
					<path class="st8" d="M-93.72,439.91l1,7.38c0.03,0.23-0.39,0.43-0.95,0.44c-0.55,0.01-1.03-0.16-1.06-0.4c0-0.02,0-0.03,0-0.05
						L-93.72,439.91z"/>
					<path class="st8" d="M-99.82,441.38l1,5.91c0.04,0.23-0.38,0.43-0.93,0.45c-0.55,0.02-1.03-0.16-1.07-0.39
						c0-0.02,0-0.04,0-0.06L-99.82,441.38z"/>
					<path class="st8" d="M-112.01,437.69l1,9.6c0.02,0.23-0.41,0.43-0.96,0.44c-0.55,0.01-1.02-0.17-1.05-0.4c0-0.01,0-0.02,0-0.04
						L-112.01,437.69z"/>
					<path class="st8" d="M-136.4,434.74l1,12.55c0.02,0.23-0.42,0.43-0.97,0.43c-0.55,0.01-1.02-0.17-1.04-0.4
						c0-0.01,0-0.02,0-0.03L-136.4,434.74z"/>
					<path class="st8" d="M-130.3,437.69l1,9.6c0.02,0.23-0.41,0.43-0.96,0.44c-0.55,0.01-1.02-0.17-1.05-0.4c0-0.01,0-0.02,0-0.04
						L-130.3,437.69z"/>
					<path class="st8" d="M-105.92,437.69l1,9.6c0.02,0.23-0.41,0.43-0.96,0.44c-0.55,0.01-1.02-0.17-1.05-0.4c0-0.01,0-0.02,0-0.04
						L-105.92,437.69z"/>
					<path class="st8" d="M-124.2,408.15l1,39.14c0.01,0.23-0.44,0.42-0.99,0.42c-0.55,0-1.01-0.18-1.01-0.41c0,0,0-0.01,0-0.01
						L-124.2,408.15z"/>
					<path class="st8" d="M-32.76,419.23l1,28.06c0.01,0.23-0.43,0.42-0.99,0.43c-0.55,0-1.01-0.18-1.02-0.41c0,0,0-0.01,0-0.01
						L-32.76,419.23z"/>
					<path class="st8" d="M-38.86,432.52l1,14.77c0.02,0.23-0.42,0.42-0.97,0.43c-0.55,0.01-1.01-0.18-1.03-0.41
						c0-0.01,0-0.02,0-0.02L-38.86,432.52z"/>
					<path class="st8" d="M-69.34,434.74l1,12.55c0.02,0.23-0.42,0.43-0.97,0.43c-0.55,0.01-1.02-0.17-1.04-0.4
						c0-0.01,0-0.02,0-0.03L-69.34,434.74z"/>
					<path class="st8" d="M-44.96,439.91l1,7.38c0.03,0.23-0.39,0.43-0.95,0.44c-0.55,0.01-1.03-0.16-1.06-0.4c0-0.02,0-0.03,0-0.05
						L-44.96,439.91z"/>
					<path class="st8" d="M-51.05,441.38l1,5.91c0.04,0.23-0.38,0.43-0.93,0.45c-0.55,0.02-1.03-0.16-1.07-0.39
						c0-0.02,0-0.04,0-0.06L-51.05,441.38z"/>
					<path class="st8" d="M-63.24,437.69l1,9.6c0.02,0.23-0.4,0.43-0.96,0.44c-0.55,0.01-1.02-0.17-1.05-0.4c0-0.01,0-0.02,0-0.04
						L-63.24,437.69z"/>
					<path class="st8" d="M-57.15,437.69l1,9.6c0.02,0.23-0.4,0.43-0.96,0.44c-0.55,0.01-1.02-0.17-1.05-0.4c0-0.01,0-0.02,0-0.04
						L-57.15,437.69z"/>
					<path class="st8" d="M-75.44,408.15l1,39.14c0.01,0.23-0.44,0.42-0.99,0.42c-0.55,0-1.01-0.18-1.01-0.41c0,0,0-0.01,0-0.01
						L-75.44,408.15z"/>
				</g>
				<g>
					<path class="st8" d="M394.85,150.76l-0.88-28.06c-0.01-0.23,0.44-0.42,0.99-0.42c0.55,0,1.01,0.18,1.02,0.41c0,0,0,0.01,0,0.01
						L394.85,150.76z"/>
					<path class="st8" d="M388.81,137.47l-0.94-14.77c-0.01-0.23,0.42-0.42,0.98-0.43c0.55-0.01,1.01,0.18,1.03,0.41
						c0,0.01,0,0.02,0,0.02L388.81,137.47z"/>
					<path class="st8" d="M358.34,135.24l-0.95-12.55c-0.02-0.23,0.42-0.42,0.97-0.43c0.55-0.01,1.02,0.17,1.03,0.41
						c0,0.01,0,0.02,0,0.03L358.34,135.24z"/>
					<path class="st8" d="M382.75,130.08l-0.97-7.39c-0.03-0.23,0.39-0.43,0.95-0.44c0.55-0.01,1.03,0.16,1.06,0.4
						c0,0.02,0,0.03,0,0.05L382.75,130.08z"/>
					<path class="st8" d="M376.66,128.6l-0.98-5.91c-0.04-0.23,0.38-0.43,0.93-0.45c0.55-0.02,1.03,0.16,1.07,0.39
						c0,0.02,0,0.04,0,0.06L376.66,128.6z"/>
					<path class="st8" d="M364.45,132.29l-0.96-9.6c-0.02-0.23,0.41-0.43,0.96-0.44c0.55-0.01,1.02,0.17,1.04,0.4
						c0,0.01,0,0.02,0,0.04L364.45,132.29z"/>
					<path class="st8" d="M370.55,132.29l-0.96-9.6c-0.02-0.23,0.41-0.43,0.96-0.44c0.55-0.01,1.02,0.17,1.04,0.4
						c0,0.01,0,0.02,0,0.04L370.55,132.29z"/>
					<path class="st8" d="M321.8,128.58l-0.98-5.91c-0.04-0.23,0.38-0.43,0.93-0.45c0.55-0.02,1.03,0.16,1.07,0.39
						c0,0.02,0,0.04,0,0.06L321.8,128.58z"/>
					<path class="st8" d="M309.6,128.57l-0.98-5.91c-0.04-0.23,0.38-0.43,0.93-0.45c0.55-0.02,1.03,0.16,1.07,0.39
						c0,0.02,0,0.04,0,0.06L309.6,128.57z"/>
					<path class="st8" d="M315.68,132.27l-0.96-9.6c-0.02-0.23,0.41-0.43,0.96-0.44c0.55-0.01,1.02,0.17,1.04,0.4
						c0,0.01,0,0.02,0,0.04L315.68,132.27z"/>
					<path class="st8" d="M333.99,128.58l-0.98-5.91c-0.04-0.23,0.38-0.43,0.93-0.45c0.55-0.02,1.03,0.16,1.07,0.39
						c0,0.02,0,0.04,0,0.06L333.99,128.58z"/>
					<path class="st8" d="M327.88,132.27l-0.96-9.6c-0.02-0.23,0.41-0.43,0.96-0.44c0.55-0.01,1.02,0.17,1.04,0.4
						c0,0.01,0,0.02,0,0.04L327.88,132.27z"/>
					<path class="st8" d="M346.18,128.59l-0.98-5.91c-0.04-0.23,0.38-0.43,0.93-0.45c0.55-0.02,1.03,0.16,1.07,0.39
						c0,0.02,0,0.04,0,0.06L346.18,128.59z"/>
					<path class="st8" d="M340.07,132.28l-0.96-9.6c-0.02-0.23,0.41-0.43,0.96-0.44c0.55-0.01,1.02,0.17,1.04,0.4
						c0,0.01,0,0.02,0,0.04L340.07,132.28z"/>
					<path class="st8" d="M352.14,161.82l-0.84-39.14c0-0.23,0.44-0.42,0.99-0.42c0.55,0,1.01,0.18,1.01,0.42c0,0,0,0.01,0,0.01
						L352.14,161.82z"/>
					<path class="st8" d="M-139.48,475.36l-0.88-28.06c-0.01-0.23,0.44-0.42,0.99-0.42c0.55,0,1.01,0.18,1.02,0.41
						c0,0,0,0.01,0,0.01L-139.48,475.36z"/>
					<path class="st8" d="M-145.52,462.06l-0.94-14.77c-0.01-0.23,0.42-0.42,0.98-0.43c0.55-0.01,1.01,0.18,1.03,0.41
						c0,0.01,0,0.02,0,0.02L-145.52,462.06z"/>
					<path class="st8" d="M407.11,135.26l-0.95-12.55c-0.02-0.23,0.42-0.42,0.97-0.43c0.55-0.01,1.02,0.17,1.03,0.41
						c0,0.01,0,0.02,0,0.03L407.11,135.26z"/>
					<path class="st8" d="M-151.58,454.68l-0.97-7.39c-0.03-0.23,0.39-0.43,0.95-0.44c0.55-0.01,1.03,0.16,1.06,0.4
						c0,0.02,0,0.03,0,0.05L-151.58,454.68z"/>
					<path class="st8" d="M-157.67,453.2l-0.98-5.91c-0.04-0.23,0.38-0.43,0.93-0.45c0.55-0.02,1.03,0.16,1.07,0.39
						c0,0.02,0,0.04,0,0.06L-157.67,453.2z"/>
					<path class="st8" d="M-169.88,456.88l-0.96-9.6c-0.02-0.23,0.41-0.43,0.96-0.44c0.55-0.01,1.02,0.17,1.04,0.4
						c0,0.01,0,0.02,0,0.04L-169.88,456.88z"/>
					<path class="st8" d="M-163.79,456.88l-0.96-9.6c-0.02-0.23,0.41-0.43,0.96-0.44c0.55-0.01,1.02,0.17,1.04,0.4
						c0,0.01,0,0.02,0,0.04L-163.79,456.88z"/>
					<path class="st8" d="M400.9,161.84l-0.84-39.14c0-0.23,0.44-0.42,0.99-0.42c0.55,0,1.01,0.18,1.01,0.42c0,0,0,0.01,0,0.01
						L400.9,161.84z"/>
					<path class="st8" d="M-78.52,475.39l-0.88-28.06c-0.01-0.23,0.44-0.42,0.99-0.42c0.55,0,1.01,0.18,1.02,0.41c0,0,0,0.01,0,0.01
						L-78.52,475.39z"/>
					<path class="st8" d="M-84.56,462.09l-0.94-14.77c-0.01-0.23,0.42-0.42,0.98-0.43c0.55-0.01,1.01,0.18,1.03,0.41
						c0,0.01,0,0.02,0,0.02L-84.56,462.09z"/>
					<path class="st8" d="M-115.03,459.86l-0.95-12.55c-0.02-0.23,0.42-0.42,0.97-0.43c0.55-0.01,1.02,0.17,1.03,0.41
						c0,0.01,0,0.02,0,0.03L-115.03,459.86z"/>
					<path class="st8" d="M-90.62,454.7l-0.97-7.39c-0.03-0.23,0.39-0.43,0.95-0.44c0.55-0.01,1.03,0.16,1.06,0.4
						c0,0.02,0,0.03,0,0.05L-90.62,454.7z"/>
					<path class="st8" d="M-96.71,453.22l-0.98-5.91c-0.04-0.23,0.38-0.43,0.93-0.45s1.03,0.16,1.07,0.39c0,0.02,0,0.04,0,0.06
						L-96.71,453.22z"/>
					<path class="st8" d="M-108.92,456.91l-0.96-9.6c-0.02-0.23,0.41-0.43,0.96-0.44c0.55-0.01,1.02,0.17,1.04,0.4
						c0,0.01,0,0.02,0,0.04L-108.92,456.91z"/>
					<path class="st8" d="M-133.32,459.85l-0.95-12.55c-0.02-0.23,0.42-0.42,0.97-0.43c0.55-0.01,1.02,0.17,1.03,0.41
						c0,0.01,0,0.02,0,0.03L-133.32,459.85z"/>
					<path class="st8" d="M-127.21,456.9l-0.96-9.6c-0.02-0.23,0.41-0.43,0.96-0.44c0.55-0.01,1.02,0.17,1.04,0.4
						c0,0.01,0,0.02,0,0.04L-127.21,456.9z"/>
					<path class="st8" d="M-102.83,456.91l-0.96-9.6c-0.02-0.23,0.41-0.43,0.96-0.44c0.55-0.01,1.02,0.17,1.04,0.4
						c0,0.01,0,0.02,0,0.04L-102.83,456.91z"/>
					<path class="st8" d="M-121.24,486.44l-0.84-39.14c0-0.23,0.44-0.42,0.99-0.42c0.55,0,1.01,0.18,1.01,0.42c0,0,0,0.01,0,0.01
						L-121.24,486.44z"/>
					<path class="st8" d="M-29.75,475.41l-0.88-28.06c-0.01-0.23,0.44-0.42,0.99-0.42c0.55,0,1.01,0.18,1.02,0.41c0,0,0,0.01,0,0.01
						L-29.75,475.41z"/>
					<path class="st8" d="M-35.79,462.12l-0.94-14.77c-0.01-0.23,0.42-0.42,0.98-0.43c0.55-0.01,1.01,0.18,1.03,0.41
						c0,0.01,0,0.02,0,0.02L-35.79,462.12z"/>
					<path class="st8" d="M-66.26,459.89l-0.95-12.55c-0.02-0.23,0.42-0.42,0.97-0.43c0.55-0.01,1.02,0.17,1.03,0.41
						c0,0.01,0,0.02,0,0.03L-66.26,459.89z"/>
					<path class="st8" d="M-41.86,454.73l-0.97-7.39c-0.03-0.23,0.39-0.43,0.95-0.44c0.55-0.01,1.03,0.16,1.06,0.4
						c0,0.02,0,0.03,0,0.05L-41.86,454.73z"/>
					<path class="st8" d="M-47.95,453.25l-0.98-5.91c-0.04-0.23,0.38-0.43,0.93-0.45c0.55-0.02,1.03,0.16,1.07,0.39
						c0,0.02,0,0.04,0,0.06L-47.95,453.25z"/>
					<path class="st8" d="M-60.15,456.93l-0.96-9.6c-0.02-0.23,0.41-0.43,0.96-0.44c0.55-0.01,1.02,0.17,1.04,0.4
						c0,0.01,0,0.02,0,0.04L-60.15,456.93z"/>
					<path class="st8" d="M-54.06,456.94l-0.96-9.6c-0.02-0.23,0.41-0.43,0.96-0.44c0.55-0.01,1.02,0.17,1.04,0.4
						c0,0.01,0,0.02,0,0.04L-54.06,456.94z"/>
					<path class="st8" d="M-72.47,486.47l-0.84-39.14c0-0.23,0.44-0.42,0.99-0.42c0.55,0,1.01,0.18,1.01,0.42c0,0,0,0.01,0,0.01
						L-72.47,486.47z"/>
					<path class="st8" d="M391.81,150.76l-0.88-28.06c-0.01-0.23,0.44-0.42,0.99-0.42c0.55,0,1.01,0.18,1.02,0.41c0,0,0,0.01,0,0.01
						L391.81,150.76z"/>
					<path class="st8" d="M385.77,137.47l-0.94-14.77c-0.01-0.23,0.42-0.42,0.98-0.43c0.55-0.01,1.01,0.18,1.03,0.41
						c0,0.01,0,0.02,0,0.02L385.77,137.47z"/>
					<path class="st8" d="M355.3,135.24l-0.95-12.55c-0.02-0.23,0.42-0.42,0.97-0.43c0.55-0.01,1.02,0.17,1.03,0.41
						c0,0.01,0,0.02,0,0.03L355.3,135.24z"/>
					<path class="st8" d="M379.7,130.08l-0.97-7.39c-0.03-0.23,0.39-0.43,0.95-0.44c0.55-0.01,1.03,0.16,1.06,0.4
						c0,0.02,0,0.03,0,0.05L379.7,130.08z"/>
					<path class="st8" d="M373.61,128.6l-0.98-5.91c-0.04-0.23,0.38-0.43,0.93-0.45c0.55-0.02,1.03,0.16,1.07,0.39
						c0,0.02,0,0.04,0,0.06L373.61,128.6z"/>
					<path class="st8" d="M361.4,132.29l-0.96-9.6c-0.02-0.23,0.41-0.43,0.96-0.44c0.55-0.01,1.02,0.17,1.04,0.4
						c0,0.01,0,0.02,0,0.04L361.4,132.29z"/>
					<path class="st8" d="M367.5,132.29l-0.96-9.6c-0.02-0.23,0.41-0.43,0.96-0.44c0.55-0.01,1.02,0.17,1.04,0.4
						c0,0.01,0,0.02,0,0.04L367.5,132.29z"/>
					<path class="st8" d="M318.75,128.57l-0.98-5.91c-0.04-0.23,0.38-0.43,0.93-0.45c0.55-0.02,1.03,0.16,1.07,0.39
						c0,0.02,0,0.04,0,0.06L318.75,128.57z"/>
					<path class="st8" d="M306.56,128.57l-0.98-5.91c-0.04-0.23,0.38-0.43,0.93-0.45c0.55-0.02,1.03,0.16,1.07,0.39
						c0,0.02,0,0.04,0,0.06L306.56,128.57z"/>
					<path class="st8" d="M312.64,132.26l-0.96-9.6c-0.02-0.23,0.41-0.43,0.96-0.44c0.55-0.01,1.02,0.17,1.04,0.4
						c0,0.01,0,0.02,0,0.04L312.64,132.26z"/>
					<path class="st8" d="M-20.5,449.94l-0.99-2.59c-0.09-0.23,0.29-0.45,0.84-0.49c0.55-0.04,1.07,0.12,1.16,0.35
						c0.02,0.05,0.02,0.09,0,0.14L-20.5,449.94z"/>
					<path class="st8" d="M-23.56,453.26l-0.98-5.91c-0.04-0.23,0.38-0.43,0.93-0.45s1.03,0.16,1.07,0.39c0,0.02,0,0.04,0,0.06
						L-23.56,453.26z"/>
					<path class="st8" d="M-26.63,456.95l-0.96-9.6c-0.02-0.23,0.41-0.43,0.96-0.44c0.55-0.01,1.02,0.17,1.04,0.4
						c0,0.01,0,0.02,0,0.04L-26.63,456.95z"/>
					<path class="st8" d="M330.94,128.58l-0.98-5.91c-0.04-0.23,0.38-0.43,0.93-0.45c0.55-0.02,1.03,0.16,1.07,0.39
						c0,0.02,0,0.04,0,0.06L330.94,128.58z"/>
					<path class="st8" d="M324.83,132.27l-0.96-9.6c-0.02-0.23,0.41-0.43,0.96-0.44c0.55-0.01,1.02,0.17,1.04,0.4
						c0,0.01,0,0.02,0,0.04L324.83,132.27z"/>
					<path class="st8" d="M343.13,128.59l-0.98-5.91c-0.04-0.23,0.38-0.43,0.93-0.45c0.55-0.02,1.03,0.16,1.07,0.39
						c0,0.02,0,0.04,0,0.06L343.13,128.59z"/>
					<path class="st8" d="M337.02,132.28l-0.96-9.6c-0.02-0.23,0.41-0.43,0.96-0.44c0.55-0.01,1.02,0.17,1.04,0.4
						c0,0.01,0,0.02,0,0.04L337.02,132.28z"/>
					<path class="st8" d="M349.09,161.82l-0.84-39.14c0-0.23,0.44-0.42,0.99-0.42c0.55,0,1.01,0.18,1.01,0.42c0,0,0,0.01,0,0.01
						L349.09,161.82z"/>
					<path class="st8" d="M-142.53,475.36l-0.88-28.06c-0.01-0.23,0.44-0.42,0.99-0.42c0.55,0,1.01,0.18,1.02,0.41
						c0,0,0,0.01,0,0.01L-142.53,475.36z"/>
					<path class="st8" d="M-148.57,462.06l-0.94-14.77c-0.01-0.23,0.42-0.42,0.98-0.43c0.55-0.01,1.01,0.18,1.03,0.41
						c0,0.01,0,0.02,0,0.02L-148.57,462.06z"/>
					<path class="st8" d="M404.06,135.26l-0.95-12.55c-0.02-0.23,0.42-0.42,0.97-0.43c0.55-0.01,1.02,0.17,1.03,0.41
						c0,0.01,0,0.02,0,0.03L404.06,135.26z"/>
					<path class="st8" d="M-154.63,454.67l-0.97-7.39c-0.03-0.23,0.39-0.43,0.95-0.44c0.55-0.01,1.03,0.16,1.06,0.4
						c0,0.02,0,0.03,0,0.05L-154.63,454.67z"/>
					<path class="st8" d="M-160.72,453.19l-0.98-5.91c-0.04-0.23,0.38-0.43,0.93-0.45c0.55-0.02,1.03,0.16,1.07,0.39
						c0,0.02,0,0.04,0,0.06L-160.72,453.19z"/>
					<path class="st8" d="M-172.93,456.88l-0.96-9.6c-0.02-0.23,0.41-0.43,0.96-0.44c0.55-0.01,1.02,0.17,1.04,0.4
						c0,0.01,0,0.02,0,0.04L-172.93,456.88z"/>
					<path class="st8" d="M-166.83,456.88l-0.96-9.6c-0.02-0.23,0.41-0.43,0.96-0.44c0.55-0.01,1.02,0.17,1.04,0.4
						c0,0.01,0,0.02,0,0.04L-166.83,456.88z"/>
					<path class="st8" d="M397.86,161.84l-0.84-39.14c0-0.23,0.44-0.42,0.99-0.42c0.55,0,1.01,0.18,1.01,0.42c0,0,0,0.01,0,0.01
						L397.86,161.84z"/>
					<path class="st8" d="M-81.57,475.39l-0.88-28.06c-0.01-0.23,0.44-0.42,0.99-0.42c0.55,0,1.01,0.18,1.02,0.41c0,0,0,0.01,0,0.01
						L-81.57,475.39z"/>
					<path class="st8" d="M-87.61,462.09l-0.94-14.77c-0.01-0.23,0.42-0.42,0.98-0.43c0.55-0.01,1.01,0.18,1.03,0.41
						c0,0.01,0,0.02,0,0.02L-87.61,462.09z"/>
					<path class="st8" d="M-118.08,459.86l-0.95-12.55c-0.02-0.23,0.42-0.42,0.97-0.43c0.55-0.01,1.02,0.17,1.03,0.41
						c0,0.01,0,0.02,0,0.03L-118.08,459.86z"/>
					<path class="st8" d="M-93.67,454.7l-0.97-7.39c-0.03-0.23,0.39-0.43,0.95-0.44c0.55-0.01,1.03,0.16,1.06,0.4
						c0,0.02,0,0.03,0,0.05L-93.67,454.7z"/>
					<path class="st8" d="M-99.76,453.22l-0.98-5.91c-0.04-0.23,0.38-0.43,0.93-0.45s1.03,0.16,1.07,0.39c0,0.02,0,0.04,0,0.06
						L-99.76,453.22z"/>
					<path class="st8" d="M-111.97,456.91l-0.96-9.6c-0.02-0.23,0.41-0.43,0.96-0.44c0.55-0.01,1.02,0.17,1.04,0.4
						c0,0.01,0,0.02,0,0.04L-111.97,456.91z"/>
					<path class="st8" d="M-136.37,459.85l-0.95-12.55c-0.02-0.23,0.42-0.42,0.97-0.43c0.55-0.01,1.02,0.17,1.03,0.41
						c0,0.01,0,0.02,0,0.03L-136.37,459.85z"/>
					<path class="st8" d="M-130.26,456.9l-0.96-9.6c-0.02-0.23,0.41-0.43,0.96-0.44c0.55-0.01,1.02,0.17,1.04,0.4
						c0,0.01,0,0.02,0,0.04L-130.26,456.9z"/>
					<path class="st8" d="M-105.87,456.91l-0.96-9.6c-0.02-0.23,0.41-0.43,0.96-0.44s1.02,0.17,1.04,0.4c0,0.01,0,0.02,0,0.04
						L-105.87,456.91z"/>
					<path class="st8" d="M-124.29,486.44l-0.84-39.14c0-0.23,0.44-0.42,0.99-0.42c0.55,0,1.01,0.18,1.01,0.42c0,0,0,0.01,0,0.01
						L-124.29,486.44z"/>
					<path class="st8" d="M-32.8,475.41l-0.88-28.06c-0.01-0.23,0.44-0.42,0.99-0.42c0.55,0,1.01,0.18,1.02,0.41c0,0,0,0.01,0,0.01
						L-32.8,475.41z"/>
					<path class="st8" d="M-38.84,462.11l-0.94-14.77c-0.01-0.23,0.42-0.42,0.98-0.43c0.55-0.01,1.01,0.18,1.03,0.41
						c0,0.01,0,0.02,0,0.02L-38.84,462.11z"/>
					<path class="st8" d="M-69.31,459.88l-0.95-12.55c-0.02-0.23,0.42-0.42,0.97-0.43c0.55-0.01,1.02,0.17,1.03,0.41
						c0,0.01,0,0.02,0,0.03L-69.31,459.88z"/>
					<path class="st8" d="M-44.9,454.73l-0.97-7.39c-0.03-0.23,0.39-0.43,0.95-0.44c0.55-0.01,1.03,0.16,1.06,0.4
						c0,0.02,0,0.03,0,0.05L-44.9,454.73z"/>
					<path class="st8" d="M-50.99,453.25l-0.98-5.91c-0.04-0.23,0.38-0.43,0.93-0.45c0.55-0.02,1.03,0.16,1.07,0.39
						c0,0.02,0,0.04,0,0.06L-50.99,453.25z"/>
					<path class="st8" d="M-63.2,456.93l-0.96-9.6c-0.02-0.23,0.41-0.43,0.96-0.44c0.55-0.01,1.02,0.17,1.04,0.4
						c0,0.01,0,0.02,0,0.04L-63.2,456.93z"/>
					<path class="st8" d="M-57.11,456.94l-0.96-9.6c-0.02-0.23,0.41-0.43,0.96-0.44c0.55-0.01,1.02,0.17,1.04,0.4
						c0,0.01,0,0.02,0,0.04L-57.11,456.94z"/>
					<path class="st8" d="M-75.52,486.47l-0.84-39.14c0-0.23,0.44-0.42,0.99-0.42s1.01,0.18,1.01,0.42c0,0,0,0.01,0,0.01
						L-75.52,486.47z"/>
				</g>
			</g>
		</g>
	</g>
	<g>
		<path class="st9" d="M186.27,243.43H133.3c-1.18,0-2.14-0.96-2.14-2.14v-44.89c0-1.18,0.96-2.14,2.14-2.14h52.97
			c1.18,0,2.14,0.96,2.14,2.14v44.89C188.42,242.47,187.46,243.43,186.27,243.43z"/>
		<rect x="149.11" y="207.95" class="st1" width="21.78" height="21.78"/>
	</g>
	<g>
		<path class="st9" d="M92.13,243.43H39.16c-1.18,0-2.14-0.96-2.14-2.14v-44.89c0-1.18,0.96-2.14,2.14-2.14h52.97
			c1.18,0,2.14,0.96,2.14,2.14v44.89C94.28,242.47,93.32,243.43,92.13,243.43z"/>
		<g>
			<polygon class="st10" points="61.56,209.56 52.45,218.67 61.56,227.78 			"/>
			<polyline class="st10" points="70.48,227.64 70.48,209.41 61.36,218.52 			"/>
			<polyline class="st10" points="79.24,227.64 79.24,209.41 70.13,218.52 			"/>
			<line class="st11" x1="52.01" y1="209.85" x2="52.01" y2="227.28"/>
		</g>
	</g>
	<g>
		<path class="st9" d="M281.9,243.08h-52.97c-1.18,0-2.14-0.96-2.14-2.14v-44.89c0-1.18,0.96-2.14,2.14-2.14h52.97
			c1.18,0,2.14,0.96,2.14,2.14v44.89C284.05,242.12,283.09,243.08,281.9,243.08z"/>
		<polygon class="st10" points="259.93,227.64 269.05,218.52 259.93,209.41 		"/>
		<polyline class="st10" points="251.02,209.56 251.02,227.78 260.13,218.67 		"/>
		<polyline class="st10" points="242.25,209.56 242.25,227.78 251.37,218.67 		"/>
		<line class="st11" x1="269.49" y1="227.34" x2="269.49" y2="209.91"/>
	</g>
</g>
</svg>
