<svg id="Calque_2" data-name="Calque 2" xmlns="http://www.w3.org/2000/svg" viewBox="0 0 841.89 595.28"><defs><style>.cls-1{fill:#512c51;}.cls-2{fill:#5db77b;}.cls-3{fill:#eee7d4;}.cls-4{fill:#fff;}.cls-5{fill:#1d1d1b;}.cls-6{fill:#391c3a;}.cls-7{fill:none;stroke:#512c51;stroke-miterlimit:10;stroke-width:3.58px;}</style></defs><title>cassette-verte</title><rect class="cls-1" x="127.89" y="105.04" width="610.2" height="396.92" rx="7.23" ry="7.23"/><rect class="cls-2" x="159.36" y="230.96" width="549" height="160.85"/><path class="cls-3" d="M168.31,145.84h531.1a9,9,0,0,1,9,9V231a0,0,0,0,1,0,0h-549a0,0,0,0,1,0,0V154.79A9,9,0,0,1,168.31,145.84Z"/><rect class="cls-1" x="246.33" y="239.99" width="369.72" height="106.89" rx="14.93" ry="14.93"/><circle class="cls-4" cx="297.32" cy="293.43" r="32.61"/><circle class="cls-4" cx="563.8" cy="293.43" r="32.61"/><circle class="cls-5" cx="143.01" cy="127.21" r="11.28"/><circle class="cls-5" cx="719.23" cy="127.21" r="11.28"/><circle class="cls-5" cx="719.23" cy="485.11" r="11.28"/><circle class="cls-5" cx="143.01" cy="485.11" r="11.28"/><path class="cls-2" d="M417.56,249.79H363v46.1h61C424.68,280,423.15,264.21,417.56,249.79Z"/><polygon class="cls-6" points="623.78 410.25 238.25 410.25 216.39 502.54 645.64 502.54 623.78 410.25"/><polygon class="cls-1" points="620.36 415.4 241.67 415.4 220.19 502.54 641.83 502.54 620.36 415.4"/><path class="cls-4" d="M497.38,249.79H417.56c5.59,14.42,7.12,30.19,6.45,46.1h73.37Z"/><circle class="cls-4" cx="285.48" cy="473.83" r="11.28"/><circle class="cls-4" cx="578.96" cy="473.83" r="11.28"/><circle class="cls-4" cx="516.46" cy="468.6" r="9.63"/><circle class="cls-4" cx="344.67" cy="468.6" r="9.63"/><line class="cls-7" x1="204.06" y1="168.53" x2="653.22" y2="168.53"/><line class="cls-7" x1="204.06" y1="207.9" x2="653.22" y2="207.9"/><line class="cls-7" x1="204.06" y1="188.22" x2="653.22" y2="188.22"/><rect class="cls-1" x="730.51" y="364.89" width="14.18" height="113.33"/><rect class="cls-1" x="118.5" y="364.89" width="14.18" height="113.33"/><line class="cls-7" x1="264.71" y1="293.43" x2="274.88" y2="293.43"/><line class="cls-7" x1="319.76" y1="293.43" x2="329.93" y2="293.43"/><line class="cls-7" x1="297.32" y1="260.83" x2="297.32" y2="271"/><line class="cls-7" x1="297.32" y1="315.87" x2="297.32" y2="326.04"/><line class="cls-7" x1="320.38" y1="270.38" x2="313.19" y2="277.57"/><line class="cls-7" x1="281.46" y1="309.3" x2="274.26" y2="316.49"/><line class="cls-7" x1="274.26" y1="270.38" x2="281.46" y2="277.57"/><line class="cls-7" x1="313.19" y1="309.3" x2="320.38" y2="316.49"/><line class="cls-7" x1="531.19" y1="293.43" x2="541.36" y2="293.43"/><line class="cls-7" x1="586.23" y1="293.43" x2="596.4" y2="293.43"/><line class="cls-7" x1="563.8" y1="260.83" x2="563.8" y2="271"/><line class="cls-7" x1="563.8" y1="315.87" x2="563.8" y2="326.04"/><line class="cls-7" x1="586.85" y1="270.38" x2="579.66" y2="277.57"/><line class="cls-7" x1="547.93" y1="309.3" x2="540.74" y2="316.49"/><line class="cls-7" x1="540.74" y1="270.38" x2="547.93" y2="277.57"/><line class="cls-7" x1="579.66" y1="309.3" x2="586.85" y2="316.49"/><circle class="cls-5" cx="431.01" cy="432.32" r="10.88"/></svg>