<?xml version="1.0" encoding="UTF-8"?>
<svg width="221px" height="267px" viewBox="0 0 221 267" version="1.1" xmlns="http://www.w3.org/2000/svg" xmlns:xlink="http://www.w3.org/1999/xlink">
    <!-- Generator: sketchtool 46.2 (44496) - http://www.bohemiancoding.com/sketch -->
    <title>1D402810-1C0D-46CE-BC5A-BCD12C8CDA8B</title>
    <desc>Created with sketchtool.</desc>
    <defs>
        <polygon id="path-1" points="0 266.461 220.339 266.461 220.339 0 0 0"></polygon>
    </defs>
    <g id="Page-1" stroke="none" stroke-width="1" fill="none" fill-rule="evenodd">
        <g id="PAGE-5---OBJETS-DE-REUNION" transform="translate(-160.000000, -232.000000)">
            <g id="micro" transform="translate(160.000000, 232.000000)">
                <path d="M135.5554,166.1957 L84.2794,166.1957 C71.9854,166.1957 62.0184,156.2287 62.0184,143.9347 L62.0184,19.7937 C62.0184,12.6627 66.0154,10.4527 74.9834,6.8287 L85.8804,3.5677 C102.3004,-1.3463 119.8234,-1.1803 136.1474,4.0437 L144.8504,6.8287 C153.8234,10.4637 157.8164,12.6627 157.8164,19.7937 L157.8164,143.9347 C157.8164,156.2287 147.8494,166.1957 135.5554,166.1957 Z" id="Fill-1" fill="#EDE6D3"></path>
                <path d="M141.5182,145.3412 L141.5182,145.3412 C140.1372,145.3412 139.0182,144.2222 139.0182,142.8412 L139.0182,24.3412 C139.0182,22.9602 140.1372,21.8412 141.5182,21.8412 C142.8992,21.8412 144.0182,22.9602 144.0182,24.3412 L144.0182,142.8412 C144.0182,144.2222 142.8992,145.3412 141.5182,145.3412" id="Fill-3" fill="#FEFEFE"></path>
                <mask id="mask-2" fill="white">
                    <use xlink:href="#path-1"></use>
                </mask>
                <g id="Clip-6"></g>
                <polygon id="Fill-5" fill="#502C50" mask="url(#mask-2)" points="62.018 45.681 157.816 45.681 157.816 40.407 62.018 40.407"></polygon>
                <polygon id="Fill-7" fill="#502C50" mask="url(#mask-2)" points="62.018 58.399 157.816 58.399 157.816 53.125 62.018 53.125"></polygon>
                <polygon id="Fill-8" fill="#502C50" mask="url(#mask-2)" points="62.018 71.117 157.816 71.117 157.816 65.843 62.018 65.843"></polygon>
                <polygon id="Fill-9" fill="#502C50" mask="url(#mask-2)" points="62.018 83.835 157.816 83.835 157.816 78.561 62.018 78.561"></polygon>
                <polygon id="Fill-10" fill="#502C50" mask="url(#mask-2)" points="62.018 96.553 157.816 96.553 157.816 91.279 62.018 91.279"></polygon>
                <polygon id="Fill-11" fill="#502C50" mask="url(#mask-2)" points="62.018 109.271 157.816 109.271 157.816 103.997 62.018 103.997"></polygon>
                <polygon id="Fill-12" fill="#502C50" mask="url(#mask-2)" points="62.018 121.989 157.816 121.989 157.816 116.715 62.018 116.715"></polygon>
                <polygon id="Fill-13" fill="#502C50" mask="url(#mask-2)" points="62.018 134.707 157.816 134.707 157.816 129.433 62.018 129.433"></polygon>
                <polygon id="Fill-14" fill="#EDE6D3" mask="url(#mask-2)" points="104.018 141.341 115.351 141.341 115.351 32.008 104.018 32.008"></polygon>
                <polygon id="Fill-15" fill="#EDE6D3" mask="url(#mask-2)" points="109.6852 100.8412 95.5182 86.6742 109.6852 72.5082 123.8512 86.6742"></polygon>
                <path d="M111.4352,86.6747 C111.4352,87.6407 110.6512,88.4247 109.6852,88.4247 C108.7182,88.4247 107.9352,87.6407 107.9352,86.6747 C107.9352,85.7077 108.7182,84.9247 109.6852,84.9247 C110.6512,84.9247 111.4352,85.7077 111.4352,86.6747" id="Fill-16" fill="#502C50" mask="url(#mask-2)"></path>
                <path d="M90.8552,23.9887 L90.8552,2.5327 C90.8552,2.5327 92.8332,1.9947 93.4922,1.8467 C94.1512,1.6997 96.1282,1.3527 96.1282,1.3527 L96.1282,23.9887 C96.1282,25.4457 94.9482,26.6257 93.4922,26.6257 C92.0362,26.6257 90.8552,25.4457 90.8552,23.9887" id="Fill-17" fill="#502C50" mask="url(#mask-2)"></path>
                <path d="M102.0446,23.9887 L102.0446,0.4727 C102.0446,0.4727 104.0516,0.2147 104.7106,0.1687 C105.3696,0.1227 107.3176,0.0717 107.3176,0.0717 L107.3176,23.9887 C107.3176,25.4457 106.1376,26.6257 104.6816,26.6257 C103.2256,26.6257 102.0446,25.4457 102.0446,23.9887" id="Fill-18" fill="#502C50" mask="url(#mask-2)"></path>
                <path d="M113.2341,23.9887 L113.2341,0.0427 C113.2341,0.0427 115.2121,0.1207 115.8711,0.1737 C116.5301,0.2267 118.5071,0.3927 118.5071,0.3927 L118.5071,23.9887 C118.5071,25.4457 117.3271,26.6257 115.8711,26.6257 C114.4151,26.6257 113.2341,25.4457 113.2341,23.9887" id="Fill-19" fill="#502C50" mask="url(#mask-2)"></path>
                <path d="M124.4235,23.9887 L124.4235,1.2147 C124.4235,1.2147 126.4015,1.5897 127.0605,1.7297 C127.7195,1.8707 129.6965,2.3397 129.6965,2.3397 L129.6965,23.9887 C129.6965,25.4457 128.5165,26.6257 127.0605,26.6257 C125.6045,26.6257 124.4235,25.4457 124.4235,23.9887" id="Fill-20" fill="#502C50" mask="url(#mask-2)"></path>
                <path d="M130.8561,147.9779 C130.8561,146.5219 129.6751,145.3409 128.2191,145.3409 C126.7621,145.3409 125.5821,146.5219 125.5821,147.9779 L125.5821,166.1959 L130.8561,166.1959 L130.8561,147.9779 Z" id="Fill-21" fill="#502C50" mask="url(#mask-2)"></path>
                <path d="M119.6667,147.9779 C119.6667,146.5219 118.4857,145.3409 117.0297,145.3409 C115.5727,145.3409 114.3927,146.5219 114.3927,147.9779 L114.3927,166.1959 L119.6667,166.1959 L119.6667,147.9779 Z" id="Fill-22" fill="#502C50" mask="url(#mask-2)"></path>
                <path d="M108.4772,147.9779 C108.4772,146.5219 107.2962,145.3409 105.8402,145.3409 C104.3832,145.3409 103.2032,146.5219 103.2032,147.9779 L103.2032,166.1959 L108.4772,166.1959 L108.4772,147.9779 Z" id="Fill-23" fill="#502C50" mask="url(#mask-2)"></path>
                <path d="M97.2878,147.9779 C97.2878,146.5219 96.1068,145.3409 94.6508,145.3409 C93.1938,145.3409 92.0138,146.5219 92.0138,147.9779 L92.0138,166.1959 L97.2878,166.1959 L97.2878,147.9779 Z" id="Fill-24" fill="#502C50" mask="url(#mask-2)"></path>
                <path d="M165.6296,70.6532 C164.3316,70.7832 163.3936,71.9722 163.3936,73.2762 L163.3936,148.7542 C163.3936,161.0482 153.4266,171.0142 141.1326,171.0142 L79.2066,171.0142 C66.9126,171.0142 56.9456,161.0482 56.9456,148.7542 L56.9456,73.2762 C56.9456,71.9722 56.0076,70.7832 54.7096,70.6532 C53.2166,70.5042 51.9586,71.6722 51.9586,73.1342 L51.9586,153.7412 C51.9586,166.0352 61.9246,176.0022 74.2196,176.0022 L146.1196,176.0022 C158.4146,176.0022 168.3806,166.0352 168.3806,153.7412 L168.3806,73.1342 C168.3806,71.6722 167.1226,70.5042 165.6296,70.6532" id="Fill-25" fill="#EDE6D3" mask="url(#mask-2)"></path>
                <path d="M220.3395,237.6547 C220.3395,253.5637 171.0145,266.4617 110.1695,266.4617 C49.3245,266.4617 0.0005,253.5637 0.0005,237.6547 C0.0005,221.7457 49.3245,208.8477 110.1695,208.8477 C171.0145,208.8477 220.3395,221.7457 220.3395,237.6547" id="Fill-26" fill="#EDE6D3" mask="url(#mask-2)"></path>
                <polygon id="Fill-27" fill="#EDE6D3" mask="url(#mask-2)" points="99.408 252.977 119.963 252.977 119.963 172.579 99.408 172.579"></polygon>
                <path d="M115.7106,231.0072 L115.7106,231.0072 C114.9826,231.0072 114.3926,230.4172 114.3926,229.6892 L114.3926,177.3202 C114.3926,176.5922 114.9826,176.0022 115.7106,176.0022 C116.4396,176.0022 117.0296,176.5922 117.0296,177.3202 L117.0296,229.6892 C117.0296,230.4172 116.4396,231.0072 115.7106,231.0072" id="Fill-28" fill="#FEFEFE" mask="url(#mask-2)"></path>
            </g>
        </g>
    </g>
</svg>