<svg id="Calque_2" data-name="Calque 2" xmlns="http://www.w3.org/2000/svg" viewBox="0 0 252.31 303.3"><defs><style>.cls-1{fill:#73bad5;}.cls-2{fill:#fff;opacity:0.5;}.cls-3{fill:#512c51;}</style></defs><title>micro_bleu</title><path class="cls-1" d="M150.76,184H99.48A22.26,22.26,0,0,1,77.22,161.7V37.56c0-7.13,4-9.34,13-13l10.89-3.26a85,85,0,0,1,50.27.48l8.71,2.78c9,3.64,13,5.84,13,13V161.7A22.26,22.26,0,0,1,150.76,184Z"/><rect class="cls-2" x="154.22" y="39.6" width="5" height="123.5" rx="2.5" ry="2.5"/><rect class="cls-3" x="77.22" y="58.17" width="95.8" height="5.27"/><rect class="cls-3" x="77.22" y="70.89" width="95.8" height="5.27"/><rect class="cls-3" x="77.22" y="83.61" width="95.8" height="5.27"/><rect class="cls-3" x="77.22" y="96.32" width="95.8" height="5.27"/><rect class="cls-3" x="77.22" y="109.04" width="95.8" height="5.27"/><rect class="cls-3" x="77.22" y="121.76" width="95.8" height="5.27"/><rect class="cls-3" x="77.22" y="134.48" width="95.8" height="5.27"/><rect class="cls-3" x="77.22" y="147.2" width="95.8" height="5.27"/><rect class="cls-1" x="119.22" y="49.77" width="11.33" height="109.33"/><rect class="cls-1" x="114.87" y="94.42" width="20.03" height="20.03" transform="translate(110.43 -57.72) rotate(45)"/><circle class="cls-3" cx="124.89" cy="104.44" r="1.75"/><path class="cls-3" d="M106.06,41.75V20.3s2-.54,2.64-.69,2.63-.49,2.63-.49V41.75a2.64,2.64,0,0,1-2.63,2.64h0A2.64,2.64,0,0,1,106.06,41.75Z"/><path class="cls-3" d="M117.25,41.75V18.24s2-.26,2.67-.31,2.6-.1,2.6-.1V41.75a2.64,2.64,0,0,1-2.63,2.64h0A2.64,2.64,0,0,1,117.25,41.75Z"/><path class="cls-3" d="M128.44,41.75V17.81s2,.07,2.64.13l2.63.22V41.75a2.64,2.64,0,0,1-2.63,2.64h0A2.64,2.64,0,0,1,128.44,41.75Z"/><path class="cls-3" d="M139.63,41.75V19s2,.37,2.64.51,2.63.61,2.63.61V41.75a2.64,2.64,0,0,1-2.63,2.64h0A2.64,2.64,0,0,1,139.63,41.75Z"/><path class="cls-3" d="M146.06,165.74a2.64,2.64,0,0,0-2.64-2.64h0a2.64,2.64,0,0,0-2.63,2.64V184h5.27Z"/><path class="cls-3" d="M134.87,165.74a2.64,2.64,0,0,0-2.64-2.64h0a2.64,2.64,0,0,0-2.63,2.64V184h5.27Z"/><path class="cls-3" d="M123.68,165.74A2.64,2.64,0,0,0,121,163.1h0a2.64,2.64,0,0,0-2.63,2.64V184h5.27Z"/><path class="cls-3" d="M112.49,165.74a2.64,2.64,0,0,0-2.63-2.64h0a2.64,2.64,0,0,0-2.64,2.64V184h5.27Z"/><path class="cls-1" d="M180.83,88.42A2.59,2.59,0,0,0,178.6,91v75.48a22.26,22.26,0,0,1-22.26,22.26H94.41a22.26,22.26,0,0,1-22.26-22.26V91a2.59,2.59,0,0,0-2.24-2.62,2.49,2.49,0,0,0-2.75,2.48v80.6a22.26,22.26,0,0,0,22.26,22.26h71.91a22.26,22.26,0,0,0,22.26-22.26V90.9A2.49,2.49,0,0,0,180.83,88.42Z"/><ellipse class="cls-1" cx="125.37" cy="255.42" rx="110.17" ry="28.81"/><rect class="cls-1" x="114.61" y="190.34" width="20.55" height="80.4"/><rect class="cls-2" x="129.6" y="193.76" width="2.64" height="55.01" rx="1.32" ry="1.32"/></svg>