<svg id="Calque_1" data-name="Calque 1" xmlns="http://www.w3.org/2000/svg" viewBox="0 0 60 50"><defs><style>.cls-1{fill:none;stroke:#b94a5c;stroke-linecap:round;stroke-linejoin:round;stroke-width:1.03px;}</style></defs><title>picto-sciences-com</title><polyline class="cls-1" points="42.63 15.38 44.17 15.38 44.17 45.52 20.72 45.52 20.72 15.38 39.13 15.38"/><polyline class="cls-1" points="20.72 41.92 15.07 41.92 15.07 11.79 38.52 11.79 38.52 15.38"/><line class="cls-1" x1="25.16" y1="20.7" x2="37.63" y2="20.7"/><line class="cls-1" x1="38.52" y1="26" x2="39.9" y2="26"/><line class="cls-1" x1="25.16" y1="26" x2="36.88" y2="26"/><line class="cls-1" x1="25.16" y1="31.31" x2="39.9" y2="31.31"/><line class="cls-1" x1="25.16" y1="36.62" x2="39.9" y2="36.62"/><line class="cls-1" x1="25.16" y1="41.92" x2="39.9" y2="41.92"/><rect class="cls-1" x="43.63" y="5.95" width="0.44" height="2.67" transform="translate(22.9 46.49) rotate(-71.32)"/><path class="cls-1" d="M44.43,5.59a1.45,1.45,0,0,0-1.83.91L37.31,21.86h0a1.44,1.44,0,0,0-.07.54l-.46,3.42.45.15-.43,1.28a.21.21,0,0,0,.13.27.22.22,0,0,0,.27-.14l.43-1.27.42.14,1.72-3a1.44,1.44,0,0,0,.28-.48h0L45.34,7.43A1.45,1.45,0,0,0,44.43,5.59ZM45,7.93l-2.53-.86.14-.41,2.53.85Z"/></svg>