<svg id="Calque_1" data-name="Calque 1" xmlns="http://www.w3.org/2000/svg" viewBox="0 0 60 50"><defs><style>.cls-1{fill:none;stroke:#b94a5c;stroke-linecap:round;stroke-linejoin:round;stroke-width:1.03px;}.cls-2{fill:#b94a5c;}</style></defs><title>picto-polytech</title><rect class="cls-1" x="11.21" y="4.86" width="38.43" height="29.21"/><polygon class="cls-1" points="54.76 45.49 6.09 45.49 9.3 38.6 51.55 38.6 54.76 45.49"/><rect class="cls-1" x="28.16" y="34.07" width="4.53" height="4.53"/><path class="cls-2" d="M18.6,22.37l-1.91-1.45v-.27l1.9-1.49v.74l-1.12.87,1.13.87Z"/><path class="cls-2" d="M22.25,22.46H21.12V22a1.09,1.09,0,0,1-.34.4,1,1,0,0,1-.58.17,1,1,0,0,1-.84-.37,1.45,1.45,0,0,1-.31-1,1.77,1.77,0,0,1,.3-1,1,1,0,0,1,.9-.42,1,1,0,0,1,.54.13,1,1,0,0,1,.33.34V18.92h-.54v-.59h1.31v3.55h.36Zm-1.13-1.37V21a.73.73,0,0,0-.18-.52.56.56,0,0,0-.44-.19.61.61,0,0,0-.45.19.83.83,0,0,0-.2.61.85.85,0,0,0,.18.59.54.54,0,0,0,.43.21.56.56,0,0,0,.48-.26A1,1,0,0,0,21.12,21.09Z"/><path class="cls-2" d="M24,22.46H22.53v-.58h.36V20.34H22.5v-.59h1.16v2.13H24Zm-1.16-3.19v-.8h.77v.8Z"/><path class="cls-2" d="M27.17,20.33H26.9l-1,2.13h-.56l-1-2.13h-.29v-.58h1.38v.58h-.25l.52,1.14h0l.4-1.14h-.21v-.58h1.23Z"/><path class="cls-2" d="M29.44,20.92l-1.91,1.45v-.73l1.13-.87-1.13-.87v-.74l1.91,1.49Z"/><path class="cls-2" d="M31.65,22.37l-1.91-1.45v-.27l1.9-1.49v.74l-1.12.87,1.13.87Z"/><path class="cls-2" d="M34.13,18.33,33,22.46H32.2l1.17-4.13Z"/><path class="cls-2" d="M37.29,22.46H36.16V22a1.09,1.09,0,0,1-.34.4,1,1,0,0,1-.59.17,1,1,0,0,1-.84-.37,1.5,1.5,0,0,1-.31-1,1.85,1.85,0,0,1,.3-1,1.05,1.05,0,0,1,.91-.42.92.92,0,0,1,.87.47V18.92h-.54v-.59h1.31v3.55h.36Zm-1.13-1.37V21A.73.73,0,0,0,36,20.5a.58.58,0,0,0-.44-.19.63.63,0,0,0-.46.19.83.83,0,0,0-.19.61.85.85,0,0,0,.18.59.54.54,0,0,0,.43.21.56.56,0,0,0,.48-.26A1,1,0,0,0,36.16,21.09Z"/><path class="cls-2" d="M39.06,22.46H37.57v-.58h.35V20.34h-.38v-.59H38.7v2.13h.36ZM37.9,19.27v-.8h.77v.8Z"/><path class="cls-2" d="M42.21,20.33h-.28l-1,2.13h-.56l-1-2.13H39.1v-.58h1.38v.58h-.26l.53,1.14h0l.4-1.14H41v-.58h1.24Z"/><path class="cls-2" d="M44.48,20.92l-1.92,1.45v-.73l1.13-.87-1.12-.87v-.74l1.91,1.49Z"/></svg>