<svg id="Calque_1" data-name="Calque 1" xmlns="http://www.w3.org/2000/svg" viewBox="0 0 60 50"><defs><style>.cls-1{fill:none;stroke:#b94a5c;stroke-linecap:round;stroke-linejoin:round;stroke-width:1.03px;}</style></defs><title>picto-agr</title><rect class="cls-1" x="51.72" y="1.78" width="0.38" height="2.35" transform="translate(32.48 51.19) rotate(-71.32)"/><path class="cls-1" d="M52.43,1.47a1.26,1.26,0,0,0-1.61.8L46.15,15.8h0a1.29,1.29,0,0,0-.06.47l-.4,3,.4.13-.38,1.12a.18.18,0,0,0,.12.24.18.18,0,0,0,.23-.12l.38-1.12.37.13L48.32,17a1.27,1.27,0,0,0,.25-.42h0L53.23,3.08A1.26,1.26,0,0,0,52.43,1.47ZM53,3.52l-2.23-.75.12-.37,2.23.76Z"/><polyline class="cls-1" points="50.77 10.59 54.24 10.59 54.24 42.3 22.36 42.3"/><polyline class="cls-1" points="13.89 42.3 8.04 42.3 8.04 10.59 47.58 10.59"/><polyline class="cls-1" points="15.14 15.66 18.39 27.55 23.51 26.45 25.13 34.7"/><polygon class="cls-1" points="34.41 26.14 36.4 14.91 42.15 18.39 34.41 26.14"/><rect class="cls-1" x="13.87" y="34.22" width="8.46" height="14.62" rx="4.23" ry="4.23" transform="translate(-1.2 0.54) rotate(-1.66)"/><line class="cls-1" x1="17.89" y1="34.22" x2="18.1" y2="41.53"/><rect class="cls-1" x="35.59" y="30.39" width="15.25" height="9.05"/></svg>