<svg id="Calque_7" data-name="Calque 7" xmlns="http://www.w3.org/2000/svg" viewBox="0 0 1920 1080"><defs><style>.cls-1{fill:#6daf33;}.cls-2{fill:#004600;}.cls-3,.cls-5{fill:none;stroke-linecap:round;stroke-linejoin:round;stroke-width:4.2px;}.cls-3{stroke:#004600;}.cls-4{fill:#6daf32;}.cls-5{stroke:#fff;}</style></defs><title>PAYSAGE 3 FORET</title><path class="cls-1" d="M1654.6,1009.11c-1.35-2.6,22.24-20.34,24.26-21.8,17.76-12.85,37.7-21.12,58.24-28.29,7.63-2.67,15.27-5.77,21.53-10.89,6.59-5.39,11.65-13.45,10.85-22.23-.76-8.45-8.39-15.62-15.73-19.15-22.34-10.77-48.29,3.46-65.24,18a176.51,176.51,0,0,0-29.38,31.38c-5,7.06-18.87,25.39-14,34.79Z"/><path class="cls-2" d="M1796.13,420.89c-1.75-12-2.68-24.36-1.33-36.43S1802,354.34,1818,358c12.21,2.75,10.86,18.22,8,27.31a54,54,0,0,1-8.65,16.23,75.83,75.83,0,0,1-8.93,9.77C1807.1,412.46,1796,420.15,1796.13,420.89Z"/><path class="cls-2" d="M1795.78,450.67s-8-57.81-41.34-51.5c0,0-15.41,7.71-3.5,25.92C1750.94,425.09,1764.6,440.51,1795.78,450.67Z"/><path class="cls-2" d="M1801,481.5s9.46-74.27,40.64-61c0,0,16.46,12.26,0,35.38C1841.68,455.92,1824.16,475.19,1801,481.5Z"/><path class="cls-2" d="M1812.6,520S1779,464.33,1752,486.4c0,0-9.46,14.37,11.21,24.53C1763.2,510.93,1782.82,521.09,1812.6,520Z"/><path class="cls-2" d="M1827.31,549.81s12.62-87.93,43.09-66.21c8.78,6.25,8.22,17.57,4.63,26.6-4.4,11-12.59,18.07-22.17,24.65q-5.67,3.9-11.6,7.41C1839.49,543.31,1827.51,548.4,1827.31,549.81Z"/><path class="cls-2" d="M1854.64,611.82c1.61-.26,7.22-20.28,8-22.2,5.12-12.78,10.81-26.08,19.35-37,3.06-3.91,7-8.48,12.08-9.76,7.43-1.89,16.94,4.1,20.29,10.6,7,13.47-8.44,27-17.17,35.11C1885.29,599.64,1870.94,609.13,1854.64,611.82Z"/><path class="cls-2" d="M1880.21,676.64s22.78-43.45,42-41.34v33.63S1900.18,690.3,1880.21,676.64Z"/><path class="cls-3" d="M1796.13,420.89s1.58,56.23,11.56,84.08c0,0,18.4,46.25,26.81,64.64,0,0,66.73,119.29,68.31,161.33"/><g id="Feuillage"><path class="cls-4" d="M1648.64,589.05s18.92-155.55,32.23-168.86c0,0,182.88,126.82,243.14,333.52v361.55H1766.35S1637.43,750.91,1648.64,589.05Z"/><path class="cls-5" d="M1688.58,445.41s195.84,482.07,212.65,654.44"/><line class="cls-5" x1="1668.43" y1="531.77" x2="1733.34" y2="559.62"/><line class="cls-5" x1="1770.91" y1="520.21" x2="1743.58" y2="583.01"/><line class="cls-5" x1="1831.08" y1="595.09" x2="1776.43" y2="672.34"/><line class="cls-5" x1="1884.16" y1="699.67" x2="1813.54" y2="779.02"/><line class="cls-5" x1="1795.43" y1="850.4" x2="1841.33" y2="865.82"/><line class="cls-5" x1="1686.48" y1="625.49" x2="1766.35" y2="651.06"/></g><g id="Feuillage_vert_foncé" data-name="Feuillage vert foncé"><path class="cls-2" d="M1650,1051.5c-18.73-15.74-58.26-54.5-39.78-81.33,7.24-10.53,22.35-13,32.73-19.53,18.41-11.53,20.87-33.24,9.7-50.63-5.57-8.68-11.61-17.18-19.26-24.1-17.56-15.86-40.94-23.49-57.84-40.33-14.09-14.05-22.86-34.69-14.12-54,8.13-18,23.14-20.85,40.16-24.49,8.91-1.9,18.72-6,24.74-13.07,8.25-9.74,4.11-22.49-.85-33-10.25-21.66-29.37-40-34.62-63.76-5.45-24.7,6.74-51.51,28.86-64,28.45-16.1,58.5.2,74.36,25.58,7.62,12.19,12.12,25.63,17.26,38.95,4.78,12.4,10.48,26.19,12,39.51,1.39,12.81,4.2,26.19,10,37.75,4.09,8.1,12.33,10.57,20.51,6.68,5-2.37,9-6.23,13.65-9.24,16.8-11,44.49-11.68,52.89,10.06,5.6,14.48.57,32.84-1.2,47.85-3.7,31.37-12.91,65.09-8.21,96.75,1.1,7.4,4.84,15.62,13.48,15.62,0,0,6.57,1.06,15.5-2.88,9.25-4.08,20.79-3.94,29.72.94,12.24,6.69,13.29,19.53,15.36,32,8.42,51.13,9.84,111.15-21.17,155.4H1662.13Z"/><path class="cls-5" d="M1647.24,639.5s139.43,330.72,147.14,452.64"/><path class="cls-5" d="M1622.72,799.25s94.59,31.18,99.84,36.09"/><line class="cls-5" x1="1779.67" y1="772.98" x2="1742.62" y2="887.98"/><line class="cls-5" x1="1633.05" y1="688.72" x2="1674.92" y2="708.52"/><line class="cls-5" x1="1720.81" y1="1029.43" x2="1791.23" y2="1070.07"/><line class="cls-5" x1="1830.82" y1="946.75" x2="1775.51" y2="995.23"/></g></svg>