<svg xmlns="http://www.w3.org/2000/svg" viewBox="0 0 1267.29 622.03"><defs><style>.cls-1{fill:none;stroke:#fff;stroke-miterlimit:10;}</style></defs><title>Fichier 10</title><g id="Calque_2" data-name="Calque 2"><g id="Calque_1-2" data-name="Calque 1"><path class="cls-1" d="M1137,525.38c30.56,32.07,2,64.85-27.32,85.12-11.65,8.07-26.68,15-40.94,14.33-18.39-.85-38.67-8.33-56-12.77-33.06-8.48-69.31-16.77-102.56-28.94-19.72-7.21-45.78-15.38-58.9-32.13-12.39-15.79,31.11-23.31,40.1-27.56,29.45-13.94,62.63-19.74,92-34.5,8.65-4.34,20.14-11.2,23.33-21,2-6.1-1.73-10.84,6.73-14.13,9.89-3.85,23.45-3.4,34.16-2.55,11.14.89,23.64,3.65,31.77,10.69C1099.78,479.61,1115.69,505.83,1137,525.38Z" transform="translate(-340.54 -222.69)"/><path class="cls-1" d="M1161.19,521.88c39.08,36.16,3.42,77.62-30.5,101.22-14.29,9.94-31.86,18.72-49.69,18.41-22.53-.39-47.24-9-68.36-14-40.13-9.61-83.87-19.54-124-35.07-23.19-9-55-19.69-69.8-40.48-14.23-20.06,38.57-27.34,49.22-32.28,35.3-16.35,76.44-21.45,110-39.62,10.15-5.49,23.67-12.68,27.58-24.84,2.34-7.28-1.79-12.93,7.89-16.81,10.84-4.33,28.13-4.09,39.88-2.64,13.18,1.63,26.33,4.13,37.12,12.7,10.47,8.32,18.29,20.08,26.82,30.37C1130.43,494.56,1145.92,508.3,1161.19,521.88Z" transform="translate(-340.54 -222.69)"/><path class="cls-1" d="M1236.38,506.41c68.71,44.07,9.82,113.82-36.57,147.68-22.46,16.4-49.21,32.06-78.09,33.69-35.36,2-76.29-8.46-109.38-14.83-63.25-12.19-131.64-27.88-193.53-54.62-33.82-14.62-83.21-35.25-102.35-70-18.83-34.2,63.32-37.6,80-44.13,23.22-9.11,50-13.56,74.62-20,30.83-8.1,63-16.69,91.14-31.16,14.43-7.41,36.16-18,40.24-35.65,2.1-9.06.3-21,11.25-24.51,14.87-4.83,39.38-4,56-2.15,18.61,2,38.32,7.38,53.69,18.48,15.74,11.38,28.37,28.07,42,41.83C1186.62,472.32,1211.37,489.78,1236.38,506.41Z" transform="translate(-340.54 -222.69)"/><path class="cls-1" d="M1278.75,494.85c28.75,19.68,49.58,41.78,40.87,77-9.61,38.93-48.75,73.67-79.53,97.48-26.17,20.24-57.76,40.24-92,43.48-43.92,4.15-93-6.14-135.84-13.24-78.89-13.06-160.13-32.39-233.77-66.9-39.18-18.36-102.05-53.11-122-90.6-11-20.62,19.09-32.55,33-35.56,22.23-4.79,46.09-7.84,67.36-13.84,28.32-8,59.89-14.25,89.43-21.23,36.3-8.57,74.32-17.91,107.64-34.77,16.67-8.44,42.12-21,47-41.67,2.28-9.75,1.51-25.14,12.93-28.91,14.67-4.85,46.52-3.58,63.84-1.25,21.89,2.94,44.15,9,62.37,22,18.85,13.4,34.17,32.14,51.13,47.73C1217.32,458.64,1247.78,477.5,1278.75,494.85Z" transform="translate(-340.54 -222.69)"/><path class="cls-1" d="M1352.22,469.51c37.71,18.21,70.32,41.33,62.07,86.28-9.48,51.69-59.15,99.66-97.4,132.5-34.45,29.59-75.11,57.71-121.52,65.58-58.93,10-125.46,0-183.38-7.56-105.42-13.76-213.75-40.25-309.52-90.55-38-20-75.1-43.07-107-72.4-17.18-15.81-36.2-37.54-43.4-58.86-10.2-30.19,26.76-41,48.63-44.19,29.15-4.25,60.69-5.78,88.63-12.06,36.48-8.21,77.51-14,115.53-21.28,45.82-8.78,93.69-19.09,135.69-39.45,21.25-10.3,51.56-26.81,57.94-51.65,3.21-12.47.37-31.08,15.52-36.42,18.17-6.4,54.5-2.27,75.46,1.46,26.69,4.75,54,12.92,76.52,28.28,24,16.38,44.78,38.27,67.75,56.41C1269.14,433.53,1310.47,453.12,1352.22,469.51Z" transform="translate(-340.54 -222.69)"/><path class="cls-1" d="M1495,398.91c53.1,8.18,115.09,20.19,112.26,84.91-1.59,36.43-21.48,72.74-40.08,103.59a655.07,655.07,0,0,1-83.74,110c-50,53-110.46,103.31-182.37,124.86C1210,849.57,1104,846.14,1011.54,839.69,847.62,828.24,677.48,784.64,536.8,692.6c-55.21-36.13-107.38-78.66-148-131.25C367,533.21,342.12,496,341.07,459.46c-1.47-51.18,47.81-56.82,88.32-56.8,43.71,0,88.68,3,133,.22C618,399.37,674.06,395,729,389c63.29-6.91,132.14-15.4,190.66-42.36,30.7-14.15,65.5-35,74.5-70.07,3.85-15,1.71-44.22,20.31-50.5,25.68-8.67,64.36,4.27,90,11.38,35.52,9.83,72.56,23.7,103.55,42.23,34,20.32,65.2,48.48,101.05,67.9C1365.89,378.34,1431.76,389.14,1495,398.91Z" transform="translate(-340.54 -222.69)"/></g></g></svg>