<svg xmlns="http://www.w3.org/2000/svg" viewBox="0 0 712.1 791.62"><defs><style>.cls-1{fill:none;stroke:#fff;stroke-miterlimit:10;}</style></defs><title>Fichier 13</title><g id="Calque_2" data-name="Calque 2"><g id="Calque_1-2" data-name="Calque 1"><path class="cls-1" d="M378.51,386.27c-1,2.78,4.67,5.68,1,12-1.94,3.06-6.73,6.83-14.12,10.88-7.06,4-16.72,8.35-20.85,11.91-6.19,3.56-6.37,6-8.06,6.56-1.37.62-4.25-.6-8.41-3.7-8.69-6-20.49-20.09-17.53-36.08s-.3-29.44,3.27-35.45c2-3.08,6.23-4.47,12.77-4.25,6.23.2,14.73,2,18,4.92,5.22,2.92,4.78,6.62,6.07,10.26,1,3.66,3.69,7.25,7.84,10.3C367.15,379.93,379.53,383.51,378.51,386.27Z" transform="translate(0 0)"/><path class="cls-1" d="M386.51,386.08c-1.28,3.44,5.76,7,1.2,14.82-2.4,3.78-8.32,8.43-17.45,13.44-8.72,5-20.65,10.31-25.75,14.71-7.65,4.4-7.87,7.38-10,8.11-1.69.75-5.25-.75-10.38-4.58-10.74-7.39-25.31-24.81-21.66-44.57s-.37-36.37,4-43.78c2.41-3.81,7.69-5.53,15.77-5.26,7.7.25,18.2,2.47,22.19,6.08,6.44,3.61,5.9,8.18,7.5,12.68,1.21,4.52,4.55,8.95,9.68,12.72C372.47,378.26,387.77,382.67,386.51,386.08Z" transform="translate(0 0)"/><path class="cls-1" d="M394.51,385.9c-1.52,4.09,6.86,8.35,1.43,17.63-2.85,4.51-9.91,10.05-20.77,16-10.39,5.92-24.58,12.27-30.66,17.51-9.11,5.24-9.37,8.79-11.86,9.65-2,.9-6.24-.88-12.36-5.45-12.78-8.79-30.13-29.53-25.78-53.05s-.44-43.3,4.81-52.13c2.87-4.54,9.16-6.57,18.78-6.26,9.16.3,21.65,2.95,26.41,7.24,7.67,4.29,7,9.74,8.93,15.09,1.44,5.38,5.42,10.67,11.53,15.15C377.8,376.59,396,381.84,394.51,385.9Z" transform="translate(0 0)"/><path class="cls-1" d="M401.51,385.74c-1.74,4.67,7.82,9.52,1.63,20.1-3.25,5.14-11.29,11.45-23.68,18.25-11.84,6.75-28,14-34.95,20-10.39,6-10.68,10-13.52,11-2.29,1-7.12-1-14.09-6.21-14.57-10-34.35-33.67-29.39-60.48S287,339,293,328.94c3.27-5.18,10.44-7.5,21.41-7.14,10.45.33,24.69,3.35,30.11,8.25,8.74,4.89,8,11.1,10.18,17.21,1.64,6.13,6.18,12.15,13.14,17.27C382.46,375.12,403.22,381.11,401.51,385.74Z" transform="translate(0 0)"/><path class="cls-1" d="M408.51,385.58c-1.95,5.24,8.78,10.69,1.83,22.57-3.65,5.77-12.68,12.85-26.59,20.48-13.29,7.59-31.46,15.71-39.24,22.42-11.66,6.71-12,11.25-15.18,12.35-2.57,1.16-8-1.13-15.82-7-16.36-11.26-38.57-37.8-33-67.91s-.57-55.43,6.16-66.72c3.66-5.81,11.72-8.42,24-8,11.73.37,27.72,3.76,33.81,9.26,9.82,5.49,9,12.47,11.43,19.32,1.84,6.88,6.94,13.65,14.75,19.39C387.12,373.66,410.42,380.38,408.51,385.58Z" transform="translate(0 0)"/><path class="cls-1" d="M415.51,385.42c-2.17,5.81,9.74,11.86,2,25-4.05,6.4-14.07,14.26-29.5,22.72-14.74,8.41-34.9,17.43-43.53,24.87-12.94,7.44-13.31,12.48-16.84,13.71-2.85,1.28-8.87-1.26-17.55-7.74-18.15-12.49-42.79-41.94-36.61-75.34s-.63-61.49,6.83-74c4.07-6.44,13-9.34,26.66-8.89,13,.42,30.75,4.18,37.51,10.28,10.89,6.1,10,13.83,12.68,21.43,2,7.64,7.7,15.14,16.37,21.52C391.78,372.19,417.63,379.65,415.51,385.42Z" transform="translate(0 0)"/><path class="cls-1" d="M421.51,385.28c-2.35,6.3,10.56,12.86,2.2,27.15-4.39,6.95-15.25,15.47-32,24.65-16,9.12-37.85,18.9-47.21,27-14,8.07-14.43,13.54-18.26,14.86-3.1,1.39-9.62-1.36-19-8.39-19.68-13.54-46.4-45.48-39.7-81.7s-.68-66.69,7.41-80.28c4.41-7,14.1-10.12,28.91-9.63,14.11.45,33.35,4.53,40.68,11.14,11.81,6.61,10.82,15,13.75,23.24,2.21,8.29,8.35,16.42,17.75,23.34C395.77,370.94,423.81,379,421.51,385.28Z" transform="translate(0 0)"/><path class="cls-1" d="M426.51,385.16c-2.51,6.72,11.25,13.71,2.34,28.92-4.68,7.4-16.24,16.47-34.06,26.25-17,9.71-40.32,20.13-50.28,28.72-14.95,8.59-15.37,14.42-19.45,15.83-3.3,1.48-10.24-1.45-20.27-8.94-21-14.42-49.42-48.43-42.28-87s-.73-71,7.89-85.48c4.7-7.45,15-10.79,30.79-10.27,15,.48,35.52,4.83,43.32,11.87,12.58,7,11.52,16,14.64,24.75,2.36,8.82,8.89,17.49,18.91,24.85C399.1,369.89,429,378.51,426.51,385.16Z" transform="translate(0 0)"/><path class="cls-1" d="M431.51,385.05c-2.66,7.12,11.93,14.54,2.49,30.68-5,7.84-17.24,17.48-36.15,27.85-18.07,10.3-42.77,21.35-53.34,30.47-15.86,9.12-16.31,15.29-20.63,16.8-3.5,1.56-10.87-1.55-21.51-9.48-22.24-15.31-52.43-51.4-44.86-92.32s-.77-75.35,8.37-90.7c5-7.9,15.93-11.44,32.67-10.89,15.94.51,37.68,5.12,46,12.59,13.34,7.47,12.22,16.95,15.53,26.26,2.5,9.36,9.44,18.56,20.06,26.36C402.43,368.85,434.11,378,431.51,385.05Z" transform="translate(0 0)"/><path class="cls-1" d="M436.51,384.93c-2.81,7.54,12.62,15.38,2.63,32.45-5.25,8.29-18.23,18.48-38.22,29.45-19.11,10.9-45.23,22.58-56.41,32.22-16.77,9.64-17.25,16.17-21.82,17.76-3.7,1.66-11.5-1.63-22.75-10-23.51-16.19-55.44-54.35-47.43-97.63s-.82-79.67,8.85-95.91c5.27-8.35,16.85-12.1,34.55-11.52,16.86.55,39.84,5.42,48.6,13.32,14.11,7.9,12.92,17.92,16.42,27.77,2.65,9.9,10,19.62,21.22,27.88C405.76,367.8,439.26,377.47,436.51,384.93Z" transform="translate(0 0)"/><path class="cls-1" d="M442.51,384.79c-3,8,13.44,16.38,2.8,34.57-5.59,8.83-19.42,19.68-40.71,31.37-20.36,11.61-48.18,24-60.09,34.32-17.86,10.27-18.37,17.23-23.24,18.92-3.94,1.76-12.25-1.74-24.23-10.68C272,476.05,238,435.4,246.51,389.3s-.87-84.87,9.42-102.17c5.62-8.89,17.95-12.89,36.81-12.26,18,.57,42.44,5.76,51.77,14.18,15,8.41,13.77,19.09,17.49,29.58,2.82,10.54,10.63,20.9,22.6,29.7C409.75,366.54,445.44,376.84,442.51,384.79Z" transform="translate(0 0)"/><path class="cls-1" d="M448.51,384.66c-3.18,8.51,14.27,17.38,3,36.68-5.93,9.37-20.6,20.89-43.2,33.29-21.6,12.31-51.13,25.52-63.77,36.42-19,10.9-19.5,18.28-24.66,20.08-4.19,1.87-13-1.85-25.72-11.34-26.58-18.29-62.67-61.43-53.62-110.35s-.93-90.07,10-108.42c6-9.44,19.05-13.68,39.06-13,19.06.61,45,6.12,54.94,15.05,15.95,8.93,14.61,20.26,18.57,31.4,3,11.18,11.27,22.17,24,31.51C413.74,365.29,451.62,376.22,448.51,384.66Z" transform="translate(0 0)"/><path class="cls-1" d="M456.78,384.47c-3.43,9,15.4,18.43,3.21,38.91-6.41,9.94-22.26,22.15-46.66,35.31-23.33,13.07-55.22,27.08-68.86,38.64-20.48,11.56-21.06,19.39-26.64,21.3-4.52,2-14-2-27.77-12-28.71-19.4-67.68-65.16-57.9-117.06s-1-95.54,10.79-115c6.44-10,20.57-14.51,42.18-13.81,20.58.65,48.65,6.49,59.34,16,17.22,9.48,15.77,21.49,20,33.31,3.23,11.86,12.18,23.52,25.9,33.43C419.23,363.92,460.13,375.51,456.78,384.47Z" transform="translate(0 0)"/><path class="cls-1" d="M483.21,383.87c-4.25,11.16,19,22.77,4,48.06-7.92,12.29-27.49,27.38-57.64,43.63-28.82,16.14-68.21,33.44-85.06,47.72-25.3,14.29-26,24-32.91,26.31-5.58,2.46-17.34-2.41-34.52-14.79-16.67-12.28-38.78-32.07-53.56-57.26-15.08-25.1-22.83-55.62-17.75-87.4A544.79,544.79,0,0,0,211.58,304c.19-24.53-.92-43.64,7.49-55.94,8-12.37,25.4-17.92,52.1-17.06,25.42.8,60.09,8,73.3,19.72,21.27,11.71,19.48,26.55,24.76,41.15,4,14.65,15,29.06,32.22,41.35,16.68,12.37,39.49,22.62,55.86,30.7C474,372.08,484.26,378.07,483.21,383.87Z" transform="translate(0 0)"/><path class="cls-1" d="M509.63,383.27c1.82,6.93,2.11,13.33,6.34,22.26,3.1,8.84,10.15,20.2-.76,35-8.57,14.62-35.07,32.62-70.17,51.95-34.31,19.22-77.21,39.77-100.57,56.81-26.83,17-31.67,28.52-39.86,31.32-7.45,2.91-18.24-2.85-39.55-17.59-19-14.61-48.52-38.21-65.32-68.19-18-29.89-23.19-66.17-20.44-104,5.82-37.9,7.17-73.45,7-102.55.22-29.2-1.1-52,8.91-66.59,9.47-14.73,30.25-21.34,62-20.31,30.28,1,71.54,9.55,87.27,23.48,25.32,13.93,23.19,31.6,29.48,49,4.75,17.45,17.91,34.6,38.35,49.23,19.86,14.73,47,26.93,66.51,36.55C498.68,369.24,510.89,376.37,509.63,383.27Z" transform="translate(0 0)"/><path class="cls-1" d="M532.76,382.75c2.07,7.89,2.39,15.19,7.22,25.37,3.54,10.08,11.57,23-.87,39.85-9.76,16.66-40,37.18-80,59.22C420,529.1,371.09,552.53,344.47,572c-30.58,19.42-36.1,32.5-45.45,35.69-8.48,3.33-20.78-3.24-45.08-20-21.64-16.65-55.31-43.55-74.46-77.73C159,475.79,153,434.44,156.18,391.26s8.92-83.73,8.69-116.9c1.11-33.29-3.86-59.24,8.48-75.92,9.86-16.79,37-24.32,72.38-23.15,34.52,1.09,77.25,10.87,98.74,26.76,25.3,15.89,27.2,36,34.35,55.84,6.27,19.89,17.81,39.44,42.05,56.12,21.7,16.79,56.13,30.7,77.49,41.66C521,366.75,530.62,374.89,532.76,382.75Z" transform="translate(0 0)"/><path class="cls-1" d="M555.88,382.23c2.32,8.86,2.69,17.06,8.11,28.49,4,11.31,13,25.86-1,44.73-11,18.71-44.89,41.75-89.81,66.5-43.92,24.6-98.84,50.91-128.73,72.72-34.34,21.81-40.54,36.5-51,40.08-9.52,3.73-23.33-3.64-50.62-22.51-24.3-18.71-62.1-48.91-83.6-87.28-23-38.26-29.69-84.7-26.16-133.18s10-94,9.75-131.26c1.25-37.38-4.33-66.51,9.53-85.24,11.07-18.85,41.56-27.31,81.27-26,38.76,1.22,86.74,12.21,110.86,30.05C372.88,197.18,375,219.79,383,242c7,22.33,20,44.29,47.21,63,24.37,18.84,63,34.46,87,46.77C542.71,364.26,553.48,373.4,555.88,382.23Z" transform="translate(0 0)"/><path class="cls-1" d="M579,381.71c2.58,9.83,3,18.92,9,31.6,4.41,12.55,14.42,28.69-1.08,49.63-12.16,20.76-49.8,46.31-99.64,73.77C438.55,564,377.63,593.19,344.47,617.38c-38.09,24.2-45,40.49-56.61,44.47-10.56,4.14-25.89-4-56.15-25-27-20.75-68.89-54.25-92.75-96.82-25.51-42.45-32.94-94-29-147.75S121.05,288,120.76,246.69c1.38-41.47-4.82-73.79,10.56-94.57,12.28-20.91,46.11-30.29,90.16-28.83,43,1.35,96.23,13.54,123,33.34,31.51,19.79,33.88,44.87,42.79,69.54,7.81,24.78,22.18,49.14,52.37,69.91,27,20.91,69.92,38.24,96.53,51.9C564.39,361.78,576.34,371.91,579,381.71Z" transform="translate(0 0)"/><path class="cls-1" d="M598.82,381.26c2.8,10.66,3.24,20.52,9.76,34.27,4.78,13.62,15.63,31.12-1.18,53.83-13.18,22.51-54,50.23-108,80-52.84,29.6-118.91,61.25-154.88,87.49-41.31,26.24-48.77,43.91-61.39,48.22-11.46,4.49-28.08-4.38-60.9-27.08-29.24-22.5-74.72-58.84-100.59-105-27.66-46-35.72-101.9-31.48-160.23s12-113.11,11.74-157.92c1.5-45-5.22-80,11.46-102.56,13.32-22.68,50-32.85,97.78-31.27,46.63,1.47,104.36,14.69,133.38,36.16,34.18,21.46,36.74,48.67,46.4,75.42,8.48,26.87,24.06,53.29,56.8,75.82,29.32,22.67,75.83,41.46,104.69,56.28C583,359.64,595.94,370.63,598.82,381.26Z" transform="translate(0 0)"/><path class="cls-1" d="M615.34,380.88c3,11.36,3.45,21.86,10.39,36.51,5.09,14.49,16.65,33.13-1.25,57.32-14,24-57.52,53.48-115.07,85.19-56.28,31.52-126.64,65.23-164.94,93.18-44,27.94-51.94,46.76-65.38,51.35-12.2,4.78-29.9-4.67-64.86-28.85-31.13-24-79.56-62.65-107.11-111.82-29.46-49-38.05-108.52-33.52-170.64S86.43,272.67,86.1,225c1.59-47.89-5.56-85.22,12.2-109.22,14.18-24.15,53.25-35,104.13-33.3,49.66,1.56,111.13,15.65,142,38.5,36.4,22.86,39.13,51.83,49.42,80.33,9,28.61,25.61,56.74,60.48,80.74,31.23,24.14,80.76,44.15,111.49,59.93C598.47,357.87,612.27,369.57,615.34,380.88Z" transform="translate(0 0)"/><path class="cls-1" d="M631.86,380.51c3.15,12.05,3.65,23.19,11,38.73,5.4,15.38,17.66,35.15-1.33,60.81-14.9,25.43-61,56.75-122.09,90.4-59.7,33.44-134.35,69.2-175,98.85-46.68,29.65-55.11,49.61-69.36,54.48-12.95,5.08-31.73-4.95-68.82-30.6-33-25.42-84.41-66.48-113.64-118.65-31.26-52-40.37-115.13-35.57-181S70.7,265.7,70.35,215.07c1.68-50.81-5.9-90.41,12.94-115.88,15-25.63,56.49-37.12,110.48-35.33,52.68,1.66,117.91,16.6,150.7,40.85,38.62,24.25,41.51,55,52.43,85.22,9.58,30.36,27.18,60.21,64.18,85.66,33.12,25.62,85.67,46.85,118.28,63.59C614,356.09,628.6,368.51,631.86,380.51Z" transform="translate(0 0)"/><path class="cls-1" d="M648.37,380.14c3.62,6.38,2.8,12.48,4,19.09.89,6.59,3.82,13.68,7.54,21.86,7.65,16.24,17,37.2-1.29,64.31-15.76,26.89-64.53,60-129.11,95.59-63.14,35.36-142.08,73.18-185,104.53-49.36,31.36-58.28,52.47-73.32,57.62-13.66,5.36-33.43-5.23-72.5-32.36C161.7,683.87,111,640.5,78.1,585.32a257.42,257.42,0,0,1-33.18-90.21c-5.6-32.27-4.94-66.41-4.36-101.24,5-69.74,14.4-135.14,14-188.69,1.79-53.73-6.24-95.6,13.69-122.53C84.19,55.55,128,43.4,185.1,45.29,240.82,47,309.79,62.84,344.47,88.49c40.84,25.64,43.9,58.15,55.44,90.11,10.13,32.11,28.74,63.67,67.87,90.59,35,27.09,90.6,49.54,125.08,67.24C629.44,354.31,644.93,367.44,648.37,380.14Z" transform="translate(0 0)"/><path class="cls-1" d="M668.19,379.69c3.86,6.8,3,13.3,4.27,20.33.95,7,4.07,14.58,8,23.3,8.15,17.29,18.14,39.62-1.38,68.5-16.78,28.64-68.73,63.92-137.52,101.82-67.26,37.67-151.34,78-197.12,111.35-52.57,33.4-62.08,55.89-78.1,61.38-14.55,5.71-35.61-5.58-77.23-34.48C149.78,703.23,95.75,657,60.73,598.25a274.22,274.22,0,0,1-35.35-96.09c-6-34.37-5.25-70.74-4.64-107.84s6.33-73.15,9.77-107a849.19,849.19,0,0,0,5.29-94C35.71,136.1,30.86,91.48,50.27,62.8,67.22,33.93,113.9,21,174.71,23c59.35,1.87,132.82,18.7,169.76,46,43.5,27.32,46.77,61.94,59,96,10.75,34.2,30.49,67.82,72,96.5,39.38,28.86,94.87,52.77,133.61,71.63,19.34,9.48,34.09,17.79,42.89,25.35C661.16,366.06,664.34,372.89,668.19,379.69Z" transform="translate(0 0)"/><path class="cls-1" d="M688,379.24c4.09,7.22,3.16,14.12,4.53,21.58,1,7.45,4.32,15.47,8.53,24.72,8.64,18.36,19.24,42-1.47,72.7-17.81,30.4-72.94,67.83-145.94,108-71.38,40-160.61,82.73-209.19,118.17-55.79,35.44-65.88,59.31-82.89,65.13-15.43,6.07-37.78-5.91-81.95-36.58-41.77-30.42-99.11-79.45-136.27-141.82a291.09,291.09,0,0,1-37.52-102C-.48,472.73.27,434.14.92,394.77s6.71-77.63,10.37-113.53a903.91,903.91,0,0,0,5.62-99.77C16.81,120.74,11.66,73.39,32.25,43,50.24,12.32,99.79-1.42,164.32.72c63,2,141,19.84,180.15,48.83,46.16,29,49.63,65.73,62.64,101.87,11.41,36.29,32.36,72,76.43,102.4,41.8,30.63,100.68,56,141.79,76,20.52,10.07,36.18,18.88,45.52,26.91C680.55,364.78,683.92,372,688,379.24Z" transform="translate(0 0)"/></g></g></svg>