<svg xmlns="http://www.w3.org/2000/svg" viewBox="0 0 1416.11 753.12"><defs><style>.cls-1{fill:none;stroke:#fff;stroke-miterlimit:10;}</style></defs><title>Fichier 2</title><g id="Calque_2" data-name="Calque 2"><g id="Calque_1-2" data-name="Calque 1"><path class="cls-1" d="M1120.6,545.83c11.47,24.87-19.39,48.16-37.32,58.79-9.66,5.73-20.26,11.2-31.23,13.65-11.58,2.58-24.31,1-35.86-.41-19.74-2.4-40.57-5.61-59.92-11.13-13.55-3.87-29-8.14-39.34-17.8-10.91-10.19-2.42-24.32,1.8-35.51,6.55-17.34,42-26.92,56.53-34.31a149.66,149.66,0,0,0,25.93-16.28c6.08-4.92,9.93-8.84,22.27-11.67,13-3,27.12-3.55,40.49-3,10.74.43,22.81,2,31.69,8.16C1110.18,506.37,1113.75,530.45,1120.6,545.83Z" transform="translate(-259.24 -177.13)"/><path class="cls-1" d="M1145.21,542.2c17.26,30-24.26,60.37-44.93,73.55-12,7.65-25.59,14.33-39.39,17.67-14.6,3.52-31,1.68-45.59,0-25.11-2.88-51.41-6.93-75.91-14-17-4.9-35.77-10.89-49.17-23.07-13.86-12.59-1.19-31.82,3.72-44.71,8.38-22,52.11-32.38,71.14-41.81,11.11-5.5,22.39-11.8,32.06-19.95,8.13-6.85,16.82-12.1,27.22-14.29a184.87,184.87,0,0,1,49.19-3.56c13.32.95,27.79,2.17,38.86,9.85C1130.16,494.2,1136.23,523,1145.21,542.2Z" transform="translate(-259.24 -177.13)"/><path class="cls-1" d="M1173.25,537.34c21.53,36.92-27,73.87-52.88,90.54-14.79,9.54-31.58,18.38-48.94,22.58-18.58,4.5-38.83,2.54-57.16.74-31.21-3.06-64.22-8.32-94.78-17.34-20.57-6.07-48.23-13.76-60.5-29.55-14.19-18.26-1.36-35,6.66-55.39C876,522.57,930.43,510.36,953.82,499c13.52-6.58,27.1-14.21,38.94-24,9.86-8.14,20.36-14.53,32.62-17.17,17.85-3.85,39.78-5.25,58.54-4.07,15.54,1,33.53,2.5,46.78,11.65C1153,480.84,1161,514.06,1173.25,537.34Z" transform="translate(-259.24 -177.13)"/><path class="cls-1" d="M1192.46,533.55c25.67,40.88-29,83.86-57.88,102.29C1117.66,646.65,1098.92,657,1079,662c-21.24,5.32-44.33,3.34-65.38,1.41-35.65-3.26-73.29-9.26-108.15-19.71-23.43-7-54.31-15.92-68.32-34.29-16.12-21.15-.44-40.09,9.14-62.84,12.33-29.32,73.66-42.63,100.07-55.21,15.08-7.18,30.64-15.8,43.61-26.7,10.78-9.06,22.48-16.23,36.16-19.09,19.81-4.13,43.7-5.21,64.6-4.33,17.4.73,37.62,3.17,52,12.82C1167.76,470.82,1177.61,507.64,1192.46,533.55Z" transform="translate(-259.24 -177.13)"/><path class="cls-1" d="M1217.27,528c31.5,45.15-32.37,95.34-64,115.85-19.71,12.76-41.28,24.68-64.35,30.7-24.61,6.42-51.56,4.55-76.19,2.52-41.4-3.4-85.18-10-125.75-22.48-27.32-8.39-62.67-19-78.53-40.25-18-24.14,1.15-44.81,12.54-71.36,7.07-16.5,29.75-24.69,44.85-31.31,23.35-10.25,48-18.71,70.72-29.15,17.14-7.86,34.86-17.47,49.59-29.55,12.41-10.18,24.8-17.7,40.68-21.13,22.46-4.86,48.8-5.71,72.32-4.64,19.76.89,42.22,3.26,58.83,13.83C1186.67,459.33,1199.08,499.6,1217.27,528Z" transform="translate(-259.24 -177.13)"/><path class="cls-1" d="M1308.15,502.45c57.17,59.56-36.77,141.11-80.66,172.33-29.77,21.18-62.72,40.85-98.28,51.49-38.59,11.55-80.93,10.62-119.83,8.52-64.86-3.51-133.18-14-196-35C773,686.32,719.07,667.2,696.76,632c-25.47-40.22,12.09-71.08,31.83-107.51,12.75-23.54,47.31-33.87,71.21-42.62,34.77-12.74,70.84-23.48,104.44-37.71,24.73-10.48,49.7-23.84,70.66-40.9,17-13.86,33.44-24.55,55.22-29.09,29.77-6.19,64.76-6.43,95.88-4.58,27.33,1.62,57.38,4.8,81.49,18.41C1251.1,412.58,1275.27,465.9,1308.15,502.45Z" transform="translate(-259.24 -177.13)"/><path class="cls-1" d="M1347.27,488.63c70.55,64.06-36.78,161.33-85.2,197.21-34.33,25.43-72.38,49-113.71,62-45.14,14.24-94.63,14.18-140.44,12.19-75.71-3.29-155.77-15.29-229-41-46.4-16.31-108.72-39.87-133.4-81.87-27.87-47.41,18.48-82.86,43.1-123.44,16.13-26.6,55.8-37.28,83.76-46.72,39.77-13.43,80.84-24.8,119.15-40.47,27.86-11.4,56-26.24,79.39-45.42,19.18-15.71,35.8-26.57,60.63-32.2,32.92-7.47,70.41-6.23,104.14-4,30.25,2,63,6.2,90.18,20.27,23.22,12,41.15,31.82,57.73,51.66C1304.05,441.3,1325,465.65,1347.27,488.63Z" transform="translate(-259.24 -177.13)"/><path class="cls-1" d="M1385.93,473.2c85,67.11-35.16,181.22-88.07,222.1-39,30.15-82.24,57.51-129.44,73.45-51.68,17.45-109.07,18.28-162,16.53-87.31-2.9-179.41-16.92-263.35-47.49-53.26-19.39-123.24-48-150.21-97.14-30.22-55,26.61-94,56.12-139.29,19.39-29.74,65.13-40.44,96.89-50.28,44.73-13.84,90.73-25.39,133.84-42.64,30.83-12.33,62.33-28.51,87.8-49.68,19.86-16.51,40-30,65.47-35.11,33.5-6.67,75.75-5.48,111.18-2.94,33.18,2.39,68.38,7.41,98.61,22.08,26.43,12.83,47.19,33.93,67,54.94C1334.2,423.57,1359.23,449.35,1385.93,473.2Z" transform="translate(-259.24 -177.13)"/><path class="cls-1" d="M1456.31,440.29c41,29.59,49,68,33.25,114.2-20.9,61.1-73.89,113.17-122.2,154-47.08,39.8-100.79,75.47-159.35,97.23-64.67,24-137.18,27.43-204.23,26.41-110-1.67-226.16-19.6-330.86-60.77-65.22-25.65-151.68-65.15-181.37-129-32.88-70.73,44.28-118.53,85-168.25,27.41-33.45,81.65-44.68,122.58-55.27C753,405,808.26,393.66,860.29,373.75c36.45-13.95,72.84-32.13,102.53-57,22.26-18.65,44.22-34.61,72.9-40,36.31-6.77,82.76-3.57,121.09.15,38.06,3.7,77.63,9.95,112.94,25.52,32.12,14.15,59,36.55,85.28,59.08C1387.34,389.23,1420.86,416.19,1456.31,440.29Z" transform="translate(-259.24 -177.13)"/><path class="cls-1" d="M1482.84,426.17c40,31.42,56.33,68.45,41.39,117.72-20.33,67.08-80,124.62-131.1,169-49.14,42.71-105.29,82.05-167.38,105.93-70.56,27.13-148.69,31.89-223,31.37-120-.83-244.29-20.69-356.42-66.14C578.06,756.38,482,713.1,450,640.74c-17.58-39.68-2.52-69.13,22.87-99.56,22.94-27.51,51.28-54.71,76.26-79,32.5-31.56,88.74-45.95,133.07-56.59,57.32-13.75,116.15-24.88,171.46-45.58,38.41-14.38,76.76-33.36,107.89-59.65,22.9-19.35,45.56-36.31,75.21-41.65,37.15-6.69,84.68-2.57,123.81,1.79,39.91,4.44,80.86,11.48,118,26.9,34.05,14.13,63.9,37.33,92.62,60C1406.84,375.49,1443.84,402.43,1482.84,426.17Z" transform="translate(-259.24 -177.13)"/><path class="cls-1" d="M1509,411.22c44,30.92,63.2,68.81,48.76,121.41-19.78,72.1-82.87,134.86-136.56,183-52.09,46.7-112.33,90.13-178.89,116.35-76.06,30-160.26,36.27-240.65,36.26-129.53,0-263.8-21.84-384.23-72-49.89-20.78-98.68-46-141.43-79.8-26.25-20.73-54-46.23-67-77.87-17.8-43.49-.31-74.54,28.06-106.36,25.77-28.91,54.19-58.06,84.85-82.74,40.23-32.38,92.87-46.66,142.84-58,61.36-13.88,124.92-23.29,183.79-45,40.31-14.89,78.15-35.25,111.22-62.68,23.47-19.46,47.38-37.88,78-43.07,39.47-6.7,84.93-1.33,125.26,3.7,41.75,5.21,86,12.94,124.55,28.11,35.52,14,67.35,38.91,98.3,61.11C1424.84,361.57,1468.4,384.79,1509,411.22Z" transform="translate(-259.24 -177.13)"/><path class="cls-1" d="M1595.41,354.3c57.46,26.39,88.71,65.27,77,129.76-16.35,90-90,172.15-152,233.93-62.54,62.3-136,119.49-218.43,155.76-95.1,41.81-201.61,53.88-303.81,55.78-163.39,3-334-25.23-484.07-94.39C452.24,806.62,392.42,772,341.42,726.2c-31.15-28-63.49-62.85-76.26-103.38-17.7-56.19,10.33-93.72,49.23-129.29,36.09-33,75.72-66.2,117.42-93.59,53.33-35,118.83-48.36,181.29-58.55,72.7-11.86,148.73-19.34,218.3-43.36,46.31-16,90-39,127.33-70.88,24.84-21.21,49.25-42.82,82.59-47.75,40.6-6,87.58,4.59,128.2,12.25,46.8,8.83,95.32,18.65,139.74,33.76,43.34,14.74,84.19,38.84,124.84,60C1485.55,312.11,1541.64,331.4,1595.41,354.3Z" transform="translate(-259.24 -177.13)"/></g></g></svg>