<svg xmlns="http://www.w3.org/2000/svg" viewBox="0 0 1737.16 789.22"><defs><style>.cls-1{fill:none;stroke:#fff;stroke-miterlimit:10;}</style></defs><title>Fichier 4</title><g id="Calque_2" data-name="Calque 2"><g id="Calque_1-2" data-name="Calque 1"><path class="cls-1" d="M1000.09,596c4.77,6.2,21.54,16.68,16.72,22.86-5.13,6.57-21.2,7.74-31.24,9.29-16.46,2.56-33.92,3.44-50.37,4.2-15.16.69-18,.89-22.49-.39-3.92-1.1-10.32-4.12-18.06-9-10.12-6.31-36.4-22.42-22.69-37.33,8.16-8.88,13.5-21.61,21.9-28.93,9-7.86,30.93-5.94,42.83-3.2,6.45,1.48,4.23,3.34,5,5.9.77,2.36,5,6.49,12.52,10.52C968.24,577.45,990,582.88,1000.09,596Z" transform="translate(-204.82 -199.18)"/><path class="cls-1" d="M1015.19,596.09c5.4,7.15,27.46,20.65,21.38,28.1-6.79,8.32-25.94,10-38.68,12.06-20.59,3.29-42.32,4.45-62.86,5.36-8.84.39-19.5,1.63-28.15-.67-4.82-1.28-12.67-5.44-22.48-11.29-10.57-6.3-45.21-30.2-27.45-46.31,10.49-9.51,16.9-26,27.18-35.26,4.12-3.69,12.46-5.56,23.79-5.89,9.51-.28,19.74-.14,29,2.08,7.73,1.86,5.15,4.1,6.16,7.25,1,2.93,6.1,8,15.36,12.93C974.84,573.2,1003.32,580.34,1015.19,596.09Z" transform="translate(-204.82 -199.18)"/><path class="cls-1" d="M1030.27,596c5.38,8.06,34.74,23.76,26.33,33.26-9.39,10.61-31.54,12.62-46.13,15.06-24.8,4.14-50.93,5.6-75.62,6.59-10.65.42-23.6,2-33.93-1-9.33-2.72-18.53-8.58-27-13.72-13.1-8-53.93-36.7-32-55.35,12.85-10.92,20.35-30.75,33-41.33,7.11-5.94,19-6.36,28.07-6.87,10.86-.61,23.18-.18,34,2.42,9.08,2.18,6.06,4.85,7.25,8.6,1.12,3.49,7.19,9.49,18.15,15.3C982.49,569.52,1016,576.91,1030.27,596Z" transform="translate(-204.82 -199.18)"/><path class="cls-1" d="M1043.46,595.66c5.39,7.64,40.43,26.84,30.89,37.72-11,12.59-36.4,15-52.68,17.88-28.51,5.06-58.6,6.71-87,7.73-12.17.43-27.22,2.2-39.1-1.4-10.77-3.27-21.3-10-31-15.93-16-9.81-60.93-41.76-35.77-63.31,15-12.84,23.76-34.7,38.29-46.47,8-6.44,21.14-7.49,31.77-7.69,12.49-.22,26.09-.21,38.26,2.7,10.21,2.44,6.81,5.5,8.17,9.77,1.27,4,8.12,10.8,20.56,17.35C989.3,566.32,1026.27,574.06,1043.46,595.66Z" transform="translate(-204.82 -199.18)"/><path class="cls-1" d="M1056.65,595.19c6.51,9.23,46.92,29.67,35.66,42.11-12.87,14.2-40.56,17.42-59.24,20.86-32.33,6-66.38,7.92-98.52,8.94-13.71.44-30.94,2.44-44.38-1.84-12.25-3.9-24-11.18-35-18.21-17.57-11.27-69.09-47.06-39.38-71.31,17.35-14.17,27.11-38.34,43.71-51.44,9.33-7.36,23.44-7.94,35.41-8.48,13.63-.61,28.93-.26,42.41,2.95,11.32,2.7,6.88,6.09,9.08,10.94,4.1,9,14.09,14.8,22.94,19.38C994.7,562.21,1039.05,571.23,1056.65,595.19Z" transform="translate(-204.82 -199.18)"/><path class="cls-1" d="M1069.82,594.53c7.44,10.24,52.85,32.12,40.64,46.43-14,16.35-45,20.11-65.81,24-36.16,6.83-74.27,9.18-110.26,10.21-15.47.44-34.63,2.6-49.75-2.33-13.77-4.5-26.78-12.74-39-20.57-16.35-10.45-76.68-55.39-42.83-79.37,19.43-13.77,30.65-41.92,49.29-56.23,9.9-7.6,26.15-9,39-9.23,14.86-.3,32-.35,46.44,3.18,12.28,3,7.79,6.54,10,12.1,4,10.2,16.55,16.55,25.29,21.38C999.7,559,1050.19,568.17,1069.82,594.53Z" transform="translate(-204.82 -199.18)"/><path class="cls-1" d="M1081.1,593.83c8.62,11.61,57.85,33.75,45.09,50.07-14.28,18.25-49.14,22.55-71.46,26.9-39.51,7.71-81.14,10.35-120.47,11.36-17,.44-38,2.55-54.44-2.81-15-4.87-29.19-14-42.56-22.64-18.34-11.84-82.86-60.65-45.64-86.3,21.39-14.74,33.84-44.8,54.19-60.21,10.73-8.13,28.18-9.59,42-9.87,15.76-.3,34.65-.48,49.81,3.38,13,3.31,8.36,7.06,10.7,13.08,4.28,11,17.83,17.91,27.27,23.09,18.95,10.38,40.57,18.3,60.93,27.3C1051.1,573.62,1071.07,580.52,1081.1,593.83Z" transform="translate(-204.82 -199.18)"/><path class="cls-1" d="M1090.49,593.14c9.08,12,62.22,35.83,48.91,53.06-15.28,19.77-52.36,24.62-76.16,29.4-42.3,8.5-86.93,11.39-129.09,12.36-18.18.41-40.56,2.52-58.4-3.24-16.15-5.22-31.3-15.16-45.52-24.43-21-13.69-88.41-63.83-47.89-92.1,23.33-16.28,36.73-47.07,58.35-63.43,11.76-8.88,29.36-9.68,44.5-10.36,16.69-.75,36.56-.55,52.55,3.52,13.7,3.48,8.83,7.48,11.3,13.89,4.52,11.72,18.89,19,28.9,24.49,20.14,11,43.15,19.33,64.82,28.76C1058.36,571.85,1079.65,579.05,1090.49,593.14Z" transform="translate(-204.82 -199.18)"/><path class="cls-1" d="M1099.87,592.36c9.83,12.69,66.73,37.62,52.84,56-15.84,21-55.85,26.84-80.87,32-45.17,9.3-92.78,12.47-137.8,13.39-19.43.4-43.3,2.61-62.41-3.7-17.26-5.69-33.38-16.28-48.51-26.24-22.11-14.56-93.63-68.43-50-97.93,24.9-16.85,39-49.5,62.58-66.55,12.8-9.27,31-10.15,47-10.86,17.54-.78,38.43-.61,55.23,3.65,14.39,3.65,9.25,7.9,11.89,14.71,4.74,12.19,20,20.2,30.52,25.89C1001.74,544.31,1026,553,1049,562.9,1066,570.22,1088.13,577.26,1099.87,592.36Z" transform="translate(-204.82 -199.18)"/><path class="cls-1" d="M1109.24,591.5c9.24,12.9,72.19,39.18,56.88,58.91-17.57,22.66-59.07,29.06-85.57,34.68-48,10.17-98.71,13.6-146.62,14.45-20.74.38-46.08,2.56-66.48-4.19-18.21-6-35.54-17.33-51.5-28.1-23-15.48-97.8-72.64-52.12-103.77,14.67-10,29.88-23.85,41.2-39.07,7.87-10.57,14.66-23.11,25.69-30.51,14-9.39,32.8-10.95,49.38-11.35,18.12-.44,40.61-.7,57.86,3.78,14.95,3.87,9.8,8.37,12.47,15.51,4.72,12.61,21.27,21.44,32.12,27.28,22.64,12.19,48.26,21.33,72.57,31.56C1073,568.19,1096.77,575.63,1109.24,591.5Z" transform="translate(-204.82 -199.18)"/><path class="cls-1" d="M1120.48,590.34c10.14,13.92,77.88,40.17,61.87,62.33-18,25-63.92,32.07-91.23,38-51.5,11.24-105.91,15-157.32,15.8-22.16.33-49.59,2.52-71.42-4.83-19.66-6.61-38-18.87-55.14-30.39-24.42-16.4-103.88-78.26-54.49-110.8,15.81-10.41,32.27-24.76,44.5-40.93,8.44-11.17,16-24.41,27.66-32.18,15.12-10,34.52-11.21,52.26-11.9,19-.75,42.77-.79,60.92,3.91,15.73,4.06,10.32,8.88,13.15,16.47,5,13.4,22.5,22.74,34,28.93,24.07,12.92,51.35,22.44,77.23,33.17C1081.55,565.85,1107.05,573.56,1120.48,590.34Z" transform="translate(-204.82 -199.18)"/><path class="cls-1" d="M1131.7,589.05c11,14.75,83.61,41.74,67,65.68-18.67,26.94-67.92,35-96.88,41.53-55,12.46-113.23,16.53-168.16,17.19-23.87.29-53,2.48-76.44-5.5-21-7.16-40.53-20.33-58.8-32.74-26.69-18.12-110-84.11-56.73-117.86a199.41,199.41,0,0,0,47.85-42.71c9.09-11.39,17.42-25.73,29.67-33.79,15.57-10.23,37-11.75,55.1-12.45,19.89-.78,44.89-.88,63.91,4,16.48,4.25,10.83,9.39,13.8,17.44,5.25,14.18,23.72,24,35.9,30.56,25.44,13.6,54.34,23.62,81.8,34.72C1090.3,563.46,1116.84,571.52,1131.7,589.05Z" transform="translate(-204.82 -199.18)"/><path class="cls-1" d="M1147.14,587.1c12.27,15.12,91.22,43.65,73.93,68.84-20.22,29.45-72.73,38.53-104.67,46-59.85,13.93-123.16,18.42-183,18.8-26,.17-57.77,2.19-83.27-6.59-22.83-7.86-43.93-22.09-63.79-35.65-29.27-20-118.47-90.45-60-125.84,18.71-11.32,37.52-26.4,52.31-44,10-11.87,19-26.92,32.37-35.19,17-10.48,39.56-12.27,59.06-12.69,22-.46,47.07-.76,68.16,4.3,17.86,4.29,11.38,9.84,14.75,18.45,6.09,15.56,25,25.24,38.54,32.28,27.56,14.3,58.58,24.69,88.22,36.14C1102.09,560.52,1130.83,568.61,1147.14,587.1Z" transform="translate(-204.82 -199.18)"/><path class="cls-1" d="M1196.24,579.12c17.11,18.93,43.52,27.82,65.75,39,15,7.5,45,21.89,33.34,42.87-21.41,38.59-90.48,53.63-129.46,63.84-75.87,19.88-156.64,26.4-233,26-33.47-.17-74,1.52-106.55-10.43-28.85-10.6-55.43-29-80.36-47-32.78-23.58-144.76-119.85-67.68-157,23.92-11.52,48.6-29.56,68.08-49.93,13.36-14,24.69-31.22,41.74-41.37,21-12.52,47.1-13.93,70.87-14.68,25.52-.81,56.19-.6,79.91,4.52,14.88,3.21,13.76,10.61,17.4,22.5,5.86,19.13,30.67,30.79,46.8,39.14,34,17.6,71.8,29.1,108.17,41.87C1139.53,548.41,1174,557.75,1196.24,579.12Z" transform="translate(-204.82 -199.18)"/><path class="cls-1" d="M1244.89,568.63a605.44,605.44,0,0,0,80.93,43.58c14.8,6.6,61.33,23.8,48.16,48.86-8.88,16.9-30.68,31.61-47.78,41.32-34.48,19.56-72.2,33-110,44.06-91.56,26.9-189.4,36.21-284,34.42-42.92-.82-91.81-.2-132.95-15.7-34.3-12.92-65.68-36.81-94.1-58.48-37.82-28.85-85.9-65.72-104.72-110.61-14.78-35.23-.57-61.75,30.29-78.46,27.56-14.92,60.67-30.6,84.93-54,16.44-15.83,31.42-35.41,51.71-46.66,24.71-13.71,54.34-15.55,81.92-16.48,28.59-1,64.38-.07,90.07,4.36,17,2.93,16,13.58,19.75,26.44,6.26,21.53,35.95,36.32,54.24,45.72,40.08,20.6,84.74,33,127.75,46.67C1175.7,534.68,1216.56,544.67,1244.89,568.63Z" transform="translate(-204.82 -199.18)"/><path class="cls-1" d="M1287,557.4a661.75,661.75,0,0,0,96.44,46.32c18.5,7.15,73.11,24,59.77,53.93-8.92,20-33.85,38.73-53,50.66-39.26,24.52-82.8,41.69-126.53,55.78-106.44,34.31-221.2,46.15-331.93,43.1-50.48-1.4-107.82-1.78-155.92-20.83-39.82-15.76-76.16-44.24-108.79-70.26C623.86,681.62,570,637.83,550,584.9c-15.32-40.44,3-67.25,39.95-85.85,33.16-16.69,72.78-30.81,101.52-55.46,19.26-16.51,36.17-39.73,58.67-51.31,27.1-13.95,62.57-16.27,93.06-17.44,31.06-1.19,67.7-1.59,96.77,3.73,16.61,3,18.1,16.29,22.49,29.8,8.18,25.22,36.14,40.13,58.1,51.31,45.87,23.38,97.83,35.37,147,49.86C1208.72,521.69,1249.62,535.66,1287,557.4Z" transform="translate(-204.82 -199.18)"/><path class="cls-1" d="M1328.62,544.27a713.91,713.91,0,0,0,112.87,48c20.29,6.67,85.79,24.85,72.52,58.21-8.87,22.32-36.82,46.57-57.78,60.95-43.87,30.12-93.19,51.49-143.06,69.09-121.69,43-254.4,57.57-381.88,53-58.27-2.08-124.77-3.65-179.9-26.75-45.61-19.1-86.69-52.11-123.73-83.06C579.56,683.52,519.57,631.65,499,570.57c-15.73-46.64,8.16-74.34,50.74-92.08,38.93-16.23,83.59-29.45,117.8-55.68,22.73-17.43,43.06-42.12,68.06-54.66,28.84-14.46,69.07-17.26,101.75-18.74s72.9-2.76,103.12,2.84c17.8,3.3,19.6,18.6,24.1,33.06,8.66,27.77,39.55,44.62,63.65,56.74,50.94,25.61,109,37.84,163.65,52.53C1238.59,507.14,1285.42,521.47,1328.62,544.27Z" transform="translate(-204.82 -199.18)"/><path class="cls-1" d="M1369.68,529.24a765.49,765.49,0,0,0,130.16,48.39c31.59,8.64,95.42,16.31,86.41,61.62-6,30-39.28,55.13-62,72.17-48.34,36.33-103.61,62.67-159.7,84.09-137.22,52.41-288.51,70.74-433.81,64.31-66.63-2.94-142.32-6.15-204.88-33.48-51.46-22.47-97.66-60.77-138.88-96.89C534.89,683.76,467.81,623.05,447.66,553c-15.39-53.49,14.48-81,62.57-97.06,44.79-15,95.11-27.07,134.66-54.26,26-17.89,50-44.42,77.85-57.27,31.61-14.6,74.28-18.09,109.9-20,34.19-1.87,75.77-5.29,108.3,1.56,20.34,4.28,20.3,19.85,25.47,36.25,9.56,30.33,42.23,48.81,68.84,62,55.86,27.67,119.69,40.1,179.9,54.55C1267.76,491.34,1320.45,505.79,1369.68,529.24Z" transform="translate(-204.82 -199.18)"/><path class="cls-1" d="M1404.38,514.85A806.5,806.5,0,0,0,1550,562.57c34.8,7.92,106.83,13.63,99.18,63.74-5.08,33.29-40.54,62.69-65,82.55-52,42.22-112.45,73.22-174,98.36-150.81,61.63-318.84,83.3-479.88,75.16-74-3.74-157.8-8.65-227.07-39.92-56.69-25.59-107.24-68.78-152-109.62-56.46-51.52-128.1-120.09-147.74-197.53-14.87-58.65,20.56-86,73.51-100.28,49.75-13.41,105.11-24,149.47-51.68,29.07-18.13,56.06-45.58,86.54-58.93,33.95-14.88,78.46-18.71,116.47-21.17,35.15-2.27,78.38-6.76,111.83.12,21.24,4.36,21.16,21.85,26.44,38.91,10.07,32.58,44.37,52.32,73,66.39,59.92,29.47,128.82,41.73,193.51,55.77C1291.91,476.94,1349.85,491.18,1404.38,514.85Z" transform="translate(-204.82 -199.18)"/><path class="cls-1" d="M1432.91,501.8a841.27,841.27,0,0,0,159,46.4c37.47,7.11,116.94,10.66,110.41,64.88-4.35,36.15-41.23,69.32-67.18,91.75-54.9,47.46-119.64,82.74-185.77,111.28C1287,886.18,1104.59,910.8,930,901.18c-80.48-4.43-171.22-11-246.11-45.78-61-28.38-115.27-75.8-163-120.84-59.69-56.35-135.33-131.88-154.11-215.9-14.16-63.37,26.26-89.89,83.11-102.18C503.82,404.83,563.52,395.72,612,368c31.83-18.25,60.7-45.94,94-59.9,36.29-15.24,81.61-19.24,121.68-22.14,35.7-2.6,80.08-8.45,114.13-1.34,21.84,4.56,21.72,23.55,27.1,41.09,10.48,34.21,46,55.23,76.25,70,63.28,30.82,136.2,42.91,204.59,56.45C1311.46,464.31,1374,478.07,1432.91,501.8Z" transform="translate(-204.82 -199.18)"/><path class="cls-1" d="M1461.07,487.78c27.59,8.25,54.69,18.8,82.1,26.68,29.39,8.46,60,13.66,90.37,17.78,35.71,4.83,128.91,10,122.39,65.29-4.4,37.31-42,76.58-69,101.47-57.7,53-126.62,92.94-197.44,125.16C1315.52,903.29,1118.2,931.29,929.64,920c-87-5.21-185-13.42-265.56-52.05C598.77,836.6,541.72,785,490.68,735.64,425.57,672.69,349.26,590,330,500.14c-5.4-25.13-6.7-55.43,15.65-74.19,20.92-17.56,52.64-24,77.62-29,55.63-11.2,122.09-16.71,174.79-44.48,34.49-18.17,66-46.24,101.57-60.47,38.11-15.25,84.86-19.63,126.64-23.17,36-3.05,81.45-10.05,115.86-3,22.41,4.57,22.24,25.32,27.63,43.22,10.82,36,47.68,58,79.31,73.48,65.87,32.29,143.81,44,215.45,56.83C1330.55,451.16,1397.5,464.34,1461.07,487.78Z" transform="translate(-204.82 -199.18)"/><path class="cls-1" d="M1488.83,472.81c29.82,7.93,59.15,18.36,88.83,25.87,31.88,8.05,64.94,12.53,97.68,15.75,38.11,3.75,139.2,5.58,134.67,65.15-3.06,40.21-42.32,84.17-70.44,111.69-60.31,59-133.52,103.88-209.07,140.07-185.58,88.88-398.29,120.56-601.21,107.44C835.5,932.72,730.06,922.63,643.72,880,573.9,845.47,513.26,789.32,459.3,735.32,391.06,667,311,576.43,293.36,479.93c-4.86-26.61-5.2-58.74,19.54-77.24,23.23-17.37,57.36-22.35,84.16-26.36,59.87-9,130.5-12,187.66-39.47,37.2-17.86,71.45-46.22,109.33-60.65,39.82-15.17,88-20,131.37-24.26,36.09-3.56,82.44-11.85,117-5,22.9,4.55,22.81,27.23,28,45.32,10.79,37.33,49.44,61,82.19,76.92,68.95,33.57,151,44.85,226.06,56.94C1349.17,437.48,1420.52,450,1488.83,472.81Z" transform="translate(-204.82 -199.18)"/><path class="cls-1" d="M1521.58,453.59c32.56,7.45,64.72,17.56,97.14,24.41,34.93,7.39,71,10.76,106.66,12.72,47.83,2.62,148.08-5,150,64,1.31,46.52-42.17,93.6-71.65,124.66-63.25,66.66-141.45,118-222.75,159.3C1381.4,940.27,1149.57,976.81,928.86,961.34c-102.17-7.16-216.78-19.79-310.2-67.54C543.39,855.32,478.37,793.38,421,733.52c-71.89-75-155.83-175.34-171.33-280.26-4.2-28.44-2.86-62.77,24.57-80.61,26.16-17,62.92-19.77,92.12-22.38,64.58-5.77,141.1-5.4,203.22-32.18,40.31-17.38,78.08-45.73,118.82-60.32,41.9-15,91.6-20.36,136.78-25.7,35.9-4.23,82.45-15.28,117.67-7.66,24,5.19,22.88,28.93,28.36,47.79,11.32,39,50.82,64.22,85.38,81,72.55,35.17,159.4,45.7,238.47,56.69C1370.76,420.39,1447.58,431.72,1521.58,453.59Z" transform="translate(-204.82 -199.18)"/><path class="cls-1" d="M1553.68,433c35.38,6.77,70.39,16.4,105.68,22.43,38.1,6.51,77.24,8.54,115.84,9,52.11.57,160.53-12.43,166.06,61.86,3.72,50-41.62,103.71-72.16,138.39-65.9,74.83-149.06,133-236.21,180.1C1419.18,960.2,1167.26,1001.83,928.43,983.9c-110.71-8.31-234.89-23.64-335.5-77-80.84-42.84-150.22-110.77-210.84-176.8C306.6,647.91,218.83,537.24,206.4,423.91c-3.32-30.21-.44-66.69,30-83.65,29.15-16.24,67.75-15.57,100.11-17.52,40.1-2.4,81.31.37,121.25-2.72,33.12-2.57,66.68-8.53,97.76-20.66,43.57-17,84.49-44,128.37-59.5,44.3-15.61,95-20.66,141.89-27.26,35.38-5,82.57-18.06,117.52-10.75,24.3,5.09,23.11,31.24,28.46,50.2,11.51,40.82,51.09,67.72,88,85,77.68,36.44,166.74,46.67,251,56,43.75,4.83,87.77,9,131.14,16.68C1479.34,416.38,1516.27,425.81,1553.68,433Z" transform="translate(-204.82 -199.18)"/></g></g></svg>