<svg xmlns="http://www.w3.org/2000/svg" xmlns:xlink="http://www.w3.org/1999/xlink" viewBox="0 0 250.66 250.66"><defs><style>.cls-1{fill:#5028b5;}.cls-2{fill:#ff9db0;}.cls-3{fill:#fff;}.cls-4{fill:#00ccab;}.cls-5{fill:url(#Dégradé_sans_nom_31);}.cls-6{fill:#14114a;}.cls-10,.cls-7{fill:none;stroke-miterlimit:10;stroke-width:6px;}.cls-7{stroke:#ff9db0;}.cls-8{fill:#252088;}.cls-9{fill:#2d71e5;}.cls-10{stroke:#14114a;}</style><linearGradient id="Dégradé_sans_nom_31" x1="112.42" y1="150.1" x2="112.42" y2="98.46" gradientUnits="userSpaceOnUse"><stop offset="0" stop-color="#0094be"/><stop offset="1" stop-color="#00ccab"/></linearGradient></defs><title>Fichier 5</title><g id="Calque_2" data-name="Calque 2"><g id="Calque_1-2" data-name="Calque 1"><path class="cls-1" d="M250.66,125.33a124.83,124.83,0,0,1-8.46,45.35H8.47c-.82-2.11-1.59-4.26-2.3-6.43a125.34,125.34,0,1,1,244.49-38.92Z"/><path class="cls-2" d="M169.93,149.27a6.41,6.41,0,0,1,6.41-6.41v-15a21.41,21.41,0,1,0,0,42.81v-15A6.41,6.41,0,0,1,169.93,149.27Z"/><path class="cls-3" d="M176.34,127.87v15a6.42,6.42,0,0,1,0,12.83v15a21.41,21.41,0,0,0,0-42.81Z"/><path class="cls-2" d="M67.93,149.27a6.41,6.41,0,0,1,6.41-6.41v-15a21.41,21.41,0,1,0,0,42.81v-15A6.41,6.41,0,0,1,67.93,149.27Z"/><path class="cls-3" d="M74.34,127.87v15a6.42,6.42,0,0,1,0,12.83v15a21.41,21.41,0,0,0,0-42.81Z"/><polygon class="cls-4" points="74.34 107.87 74.34 107.87 74.34 107.87 74.34 107.87"/><path class="cls-5" d="M167.35,98.46H140.26a8,8,0,0,0-7.29,4.71,8,8,0,0,1-7.28,4.7H74.34a41.15,41.15,0,0,0-21.42,6v12.47a31.38,31.38,0,0,1,52.82,22.93c0,.28,0,.55,0,.83H145c0-.28,0-.55,0-.83a31.45,31.45,0,0,1,21.16-29.68,30.52,30.52,0,0,1,5.82-1.41Z"/><path class="cls-2" d="M102.23,98.46H79.71a5.37,5.37,0,0,0-5.37,5.37v4h35.5l-2.69-6.18A5.36,5.36,0,0,0,102.23,98.46Z"/><rect class="cls-6" x="74.34" y="147.1" width="70.61" height="6"/><polygon class="cls-6" points="179.25 149.8 173.41 151.16 166.09 119.59 161.19 98.46 158.29 85.98 145.43 85.98 145.43 79.98 163.06 79.98 167.34 98.46 171.91 118.18 179.25 149.8"/><path class="cls-6" d="M169.93,149.27a6.41,6.41,0,0,0,6.41,6.42V142.86A6.41,6.41,0,0,0,169.93,149.27Z"/><path class="cls-6" d="M182.75,149.27a6.41,6.41,0,0,0-6.41-6.41v12.83A6.41,6.41,0,0,0,182.75,149.27Z"/><path class="cls-3" d="M169.93,104.88a6.41,6.41,0,0,0,6.41,6.41V98.46A6.42,6.42,0,0,0,169.93,104.88Z"/><path class="cls-6" d="M67.93,149.27a6.41,6.41,0,0,0,6.41,6.42V142.86A6.41,6.41,0,0,0,67.93,149.27Z"/><path class="cls-6" d="M80.75,149.27a6.41,6.41,0,0,0-6.41-6.41v12.83A6.41,6.41,0,0,0,80.75,149.27Z"/><line class="cls-7" x1="133.96" y1="150.1" x2="119.8" y2="150.1"/><path class="cls-8" d="M242.2,170.68a125.4,125.4,0,0,1-233.73,0Z"/><circle class="cls-9" cx="127.27" cy="202.2" r="5.47"/><circle class="cls-9" cx="88.07" cy="213.1" r="2.24"/><circle class="cls-9" cx="163.07" cy="210.36" r="1.76"/><line class="cls-10" x1="133.96" y1="135.11" x2="113.27" y2="135.11"/><line class="cls-10" x1="133.96" y1="120.12" x2="113.27" y2="120.12"/></g></g></svg>