<svg xmlns="http://www.w3.org/2000/svg" xmlns:xlink="http://www.w3.org/1999/xlink" viewBox="0 0 250.67 250.67"><defs><style>.cls-1{fill:#5028b5;}.cls-2{fill:#fff;}.cls-3{fill:url(#Dégradé_sans_nom_31);}.cls-4{fill:none;stroke:#14114a;stroke-miterlimit:10;stroke-width:6px;}.cls-5{fill:#ff9db0;}.cls-6{fill:#14114a;}.cls-7{fill:#252088;}.cls-8{fill:#2d71e5;}</style><linearGradient id="Dégradé_sans_nom_31" x1="125.38" y1="155.39" x2="125.38" y2="110.12" gradientUnits="userSpaceOnUse"><stop offset="0" stop-color="#0094be"/><stop offset="1" stop-color="#00ccab"/></linearGradient></defs><title>Fichier 7</title><g id="Calque_2" data-name="Calque 2"><g id="Calque_1-2" data-name="Calque 1"><path class="cls-1" d="M222.73,46.46a125.33,125.33,0,1,0,27.94,78.87A125.09,125.09,0,0,0,222.73,46.46Z"/><path class="cls-2" d="M208.44,83.83a5,5,0,0,0-5-5H47.32a5,5,0,0,0-5,5V128H208.44Z"/><path class="cls-3" d="M42.32,110.12v40.27a5,5,0,0,0,5,5H203.44a5,5,0,0,0,5-5V110.12Z"/><line class="cls-4" x1="77.82" y1="128.04" x2="208.45" y2="128.04"/><path class="cls-2" d="M75.44,142v7.9a6.42,6.42,0,0,1,0,12.83v7.9a14.32,14.32,0,0,0,0-28.63Z"/><path class="cls-5" d="M69,156.35a6.41,6.41,0,0,1,6.41-6.42V142a14.32,14.32,0,0,0,0,28.63v-7.9A6.41,6.41,0,0,1,69,156.35Z"/><path class="cls-6" d="M69,156.35a6.41,6.41,0,0,0,6.41,6.41V149.93A6.41,6.41,0,0,0,69,156.35Z"/><path class="cls-6" d="M81.85,156.35a6.41,6.41,0,0,0-6.41-6.42v12.83A6.41,6.41,0,0,0,81.85,156.35Z"/><path class="cls-5" d="M160.18,156.35a14.31,14.31,0,0,0,14.31,14.31V142A14.32,14.32,0,0,0,160.18,156.35Z"/><path class="cls-2" d="M174.49,142v28.63a14.32,14.32,0,0,0,0-28.63Z"/><path class="cls-6" d="M168.08,156.35a6.41,6.41,0,0,0,6.41,6.41V149.93A6.41,6.41,0,0,0,168.08,156.35Z"/><path class="cls-6" d="M180.9,156.35a6.41,6.41,0,0,0-6.41-6.42v12.83A6.41,6.41,0,0,0,180.9,156.35Z"/><line class="cls-4" x1="70.39" y1="128.04" x2="61.39" y2="128.04"/><rect class="cls-7" x="124.02" y="88.82" width="21.3" height="21.3"/><rect class="cls-7" x="92.71" y="88.82" width="21.3" height="21.3"/><rect class="cls-7" x="61.4" y="88.82" width="21.3" height="21.3"/><rect class="cls-7" x="155.33" y="88.82" width="21.3" height="21.3"/><rect class="cls-7" x="197.82" y="88.82" width="10.65" height="21.3"/><path class="cls-7" d="M242.2,170.69a125.4,125.4,0,0,1-233.73,0Z"/><circle class="cls-8" cx="127.28" cy="202.2" r="5.47"/><circle class="cls-8" cx="88.08" cy="213.11" r="2.24"/><circle class="cls-8" cx="163.08" cy="210.37" r="1.76"/></g></g></svg>