<svg xmlns="http://www.w3.org/2000/svg" xmlns:xlink="http://www.w3.org/1999/xlink" viewBox="0 0 250.67 250.67"><defs><style>.cls-1{fill:#5028b5;}.cls-2,.cls-4,.cls-5{fill:none;stroke-miterlimit:10;stroke-width:6px;}.cls-2{stroke:#ff9db0;}.cls-3{fill:url(#Dégradé_sans_nom_31);}.cls-4{stroke:#00ccab;}.cls-5{stroke:#fff;}.cls-6{fill:#ff9db0;}.cls-7{fill:#fff;}.cls-8{fill:#14114a;}.cls-9{fill:#252088;}.cls-10{fill:#2d71e5;}</style><linearGradient id="Dégradé_sans_nom_31" x1="134.91" y1="170.69" x2="134.91" y2="125.43" gradientUnits="userSpaceOnUse"><stop offset="0" stop-color="#0094be"/><stop offset="1" stop-color="#00ccab"/></linearGradient></defs><title>Fichier 9</title><g id="Calque_2" data-name="Calque 2"><g id="Calque_1-2" data-name="Calque 1"><path class="cls-1" d="M222.73,46.46a125.33,125.33,0,1,0,27.94,78.87A125.09,125.09,0,0,0,222.73,46.46Z"/><line class="cls-2" x1="74.58" y1="135.55" x2="74.58" y2="119.06"/><path class="cls-3" d="M202.41,165.69h-135V135.55a10.12,10.12,0,0,1,10.12-10.12c0,5.95,10.7,10.77,23.9,10.77s23.9-4.82,23.9-10.77h4.81l44,7.08a33.61,33.61,0,0,1,28.26,33.18Z"/><line class="cls-4" x1="129.95" y1="128.36" x2="123.84" y2="114.67"/><line class="cls-5" x1="148.33" y1="128.36" x2="146.88" y2="137.4"/><line class="cls-5" x1="158.82" y1="130.03" x2="157.37" y2="139.07"/><line class="cls-5" x1="169.4" y1="131.67" x2="167.95" y2="140.72"/><path class="cls-6" d="M67.41,165.69a5,5,0,0,0,5,5h62.5v-5Z"/><path class="cls-7" d="M134.91,165.69v5h62.5a5,5,0,0,0,5-5Z"/><path class="cls-8" d="M202.41,159.75v5.94a33.31,33.31,0,0,0-.53-5.94Z"/><path class="cls-8" d="M202.41,165.69v.06h-135v-6H201.88A33.31,33.31,0,0,1,202.41,165.69Z"/><path class="cls-9" d="M242.2,170.69a125.4,125.4,0,0,1-233.73,0Z"/><circle class="cls-10" cx="127.28" cy="202.2" r="5.47"/><circle class="cls-10" cx="88.08" cy="213.11" r="2.24"/><circle class="cls-10" cx="163.08" cy="210.37" r="1.76"/></g></g></svg>