<svg xmlns="http://www.w3.org/2000/svg" xmlns:xlink="http://www.w3.org/1999/xlink" viewBox="0 0 313.31 250.66"><defs><style>.cls-1{fill:#5028b5;}.cls-2{fill:#ff9db0;}.cls-3{fill:#252088;}.cls-4{fill:#2d71e5;}.cls-5{fill:url(#Dégradé_sans_nom_31);}.cls-6{fill:url(#Dégradé_sans_nom_31-2);}.cls-7{fill:#fff;}.cls-8{fill:none;stroke:#14114a;stroke-miterlimit:10;stroke-width:6px;}.cls-9{fill:#14114a;}</style><linearGradient id="Dégradé_sans_nom_31" x1="18.13" y1="192.26" x2="18.13" y2="95.58" gradientTransform="translate(-95.58 183.55) rotate(-90)" gradientUnits="userSpaceOnUse"><stop offset="0" stop-color="#0094be"/><stop offset="1" stop-color="#00ccab"/></linearGradient><linearGradient id="Dégradé_sans_nom_31-2" x1="197.24" y1="182.67" x2="197.24" y2="137.41" gradientTransform="matrix(1, 0, 0, 1, 0, 0)" xlink:href="#Dégradé_sans_nom_31"/></defs><title>Fichier 3</title><g id="Calque_2" data-name="Calque 2"><g id="Calque_1-2" data-name="Calque 1"><path class="cls-1" d="M313.31,125.33A124.8,124.8,0,0,1,290.08,198H85.9a125.81,125.81,0,0,1-13-23q-2.3-5.28-4.1-10.81c-1-3.22-2-6.5-2.76-9.83a125.34,125.34,0,1,1,247.26-29.09Z"/><rect class="cls-2" x="104.5" y="160.33" width="9.67" height="9.67"/><path class="cls-3" d="M188,250.66A125.18,125.18,0,0,0,290.08,198H85.9A125.13,125.13,0,0,0,188,250.66Z"/><circle class="cls-4" cx="193.17" cy="217.97" r="5.47"/><circle class="cls-4" cx="153.97" cy="228.87" r="2.24"/><circle class="cls-4" cx="228.97" cy="226.13" r="1.76"/><path class="cls-5" d="M41.14,154.44a11.09,11.09,0,0,0-9.54,3.21,6.71,6.71,0,0,1-2.47,1.58h0a11.23,11.23,0,0,1-11.78-2.38,8.35,8.35,0,0,0-4.6-2.41,11.1,11.1,0,1,0-1.63,22.08c2.27,0,5-1.13,7.55-2.55a17.6,17.6,0,0,1,8.54-2.3,6.75,6.75,0,0,1,4.69,1.8,11,11,0,0,0,7.63,3.05c2.27,0,5-1.13,7.55-2.55a17.81,17.81,0,0,1,7.2-2.24,8.2,8.2,0,0,1,6,2.1,11,11,0,0,0,7.23,2.69c2.37,0,5.24-1.22,7.87-2.73a15.52,15.52,0,0,1,12.46-1.54,5.45,5.45,0,0,0,1.73.28,7.11,7.11,0,1,0,0-14.21,12.51,12.51,0,0,0-4,.91,11.19,11.19,0,0,1-11.77-2.38A8.54,8.54,0,0,0,69,154.42a11.06,11.06,0,0,0-9.78,3.64,9.91,9.91,0,0,1-3.14,2c-3.67,1.44-7.18-.19-10.33-3.24A8.41,8.41,0,0,0,41.14,154.44Z"/><path class="cls-6" d="M114.2,177.67V157.41a20,20,0,0,1,20-20H260.27a20,20,0,0,1,20,20v20.26a5,5,0,0,1-5,5H119.2A5,5,0,0,1,114.2,177.67Z"/><polygon class="cls-7" points="158.95 106.13 135.57 137.41 196.74 137.41 196.74 106.13 158.95 106.13"/><polygon class="cls-7" points="211.72 106.13 196.74 106.13 196.74 137.41 237.46 137.41 211.72 106.13"/><line class="cls-8" x1="148" y1="155.33" x2="280.27" y2="155.33"/><path class="cls-9" d="M148.08,70.6a6.47,6.47,0,1,1,12.93,0Z"/><path class="cls-9" d="M143.76,70.6H75.19a125.55,125.55,0,0,1,20-29.51,27.06,27.06,0,0,1,1.36,4.4,17.43,17.43,0,0,1,28.39,13.56,17.08,17.08,0,0,1-.21,2.59,11.63,11.63,0,0,1,19,9Z"/><path class="cls-7" d="M147.34,169.33v7.9a6.41,6.41,0,1,1,0,12.82V198a14.31,14.31,0,1,0,0-28.62Z"/><path class="cls-2" d="M140.93,183.64a6.41,6.41,0,0,1,6.41-6.41v-7.9a14.31,14.31,0,0,0,0,28.62v-7.9A6.41,6.41,0,0,1,140.93,183.64Z"/><path class="cls-9" d="M140.93,183.64a6.41,6.41,0,0,0,6.41,6.41V177.23A6.41,6.41,0,0,0,140.93,183.64Z"/><path class="cls-9" d="M153.75,183.64a6.41,6.41,0,0,0-6.41-6.41v12.82A6.41,6.41,0,0,0,153.75,183.64Z"/><path class="cls-2" d="M232.08,183.64A14.31,14.31,0,0,0,246.39,198V169.33A14.31,14.31,0,0,0,232.08,183.64Z"/><path class="cls-7" d="M246.39,169.33V198a14.31,14.31,0,1,0,0-28.62Z"/><path class="cls-9" d="M240,183.64a6.41,6.41,0,0,0,6.41,6.41V177.23A6.41,6.41,0,0,0,240,183.64Z"/><path class="cls-9" d="M252.81,183.64a6.41,6.41,0,0,0-6.42-6.41v12.82A6.41,6.41,0,0,0,252.81,183.64Z"/><polygon class="cls-3" points="148.17 137.41 163.96 116.13 185.92 116.13 185.92 137.41 148.17 137.41"/><polygon class="cls-3" points="195.89 137.41 195.89 116.13 207 116.13 224.19 137.41 195.89 137.41"/><line class="cls-8" x1="140.57" y1="155.33" x2="131.57" y2="155.33"/></g></g></svg>