<svg xmlns="http://www.w3.org/2000/svg" xmlns:xlink="http://www.w3.org/1999/xlink" viewBox="0 0 250.67 250.67"><defs><style>.cls-1{fill:#5028b5;}.cls-2{fill:#ff9db0;}.cls-3{fill:#fff;}.cls-4{fill:#00ccab;}.cls-5{fill:url(#Dégradé_sans_nom_31);}.cls-6{fill:#14114a;}.cls-7{fill:#252088;}.cls-8{fill:#2d71e5;}</style><linearGradient id="Dégradé_sans_nom_31" x1="130.13" y1="153.11" x2="130.13" y2="85.67" gradientUnits="userSpaceOnUse"><stop offset="0" stop-color="#0094be"/><stop offset="1" stop-color="#00ccab"/></linearGradient></defs><title>Fichier 8</title><g id="Calque_2" data-name="Calque 2"><g id="Calque_1-2" data-name="Calque 1"><path class="cls-1" d="M222.73,46.46a125.33,125.33,0,1,0,27.94,78.87A125.09,125.09,0,0,0,222.73,46.46Z"/><path class="cls-2" d="M163.89,149.28a6.41,6.41,0,0,1,6.41-6.41v-15a21.41,21.41,0,0,0,0,42.81v-15A6.41,6.41,0,0,1,163.89,149.28Z"/><path class="cls-3" d="M170.3,127.88v15a6.41,6.41,0,0,1,0,12.82v15a21.41,21.41,0,0,0,0-42.81Z"/><path class="cls-2" d="M74,149.28a6.41,6.41,0,0,1,6.42-6.41v-15a21.41,21.41,0,1,0,0,42.81v-15A6.41,6.41,0,0,1,74,149.28Z"/><path class="cls-3" d="M80.37,127.88v15a6.41,6.41,0,0,1,0,12.82v15a21.41,21.41,0,0,0,0-42.81Z"/><polygon class="cls-4" points="68.3 107.88 68.3 107.88 68.3 107.88 68.3 107.88"/><path class="cls-5" d="M170.3,104.84v6a12.59,12.59,0,0,0,0-25.17H152.18l.07.3,1.32,5.7,3.06,13.17H105.8L98.49,87.51,93,89.84l7.51,17.82-22.72,41a3,3,0,0,0,2.62,4.46h41.25a3,3,0,0,0,2.22-1l34.87-38.29,8.67,37.33,5.84-1.36L159.73,91.67H170.3a6.59,6.59,0,0,1,0,13.17ZM85.46,147.11l18-32.42,13.66,32.42Zm37.1-2.49-14.24-33.78h45Z"/><path class="cls-6" d="M163.89,149.28a6.41,6.41,0,0,0,6.41,6.41V142.87A6.41,6.41,0,0,0,163.89,149.28Z"/><path class="cls-6" d="M176.71,149.28a6.41,6.41,0,0,0-6.41-6.41v12.82A6.41,6.41,0,0,0,176.71,149.28Z"/><polygon class="cls-2" points="132.62 164.84 124.64 164.84 118.86 151.28 124.38 148.93 128.6 158.84 132.62 158.84 132.62 164.84"/><path class="cls-2" d="M115.21,149.28a6.41,6.41,0,0,0,6.41,6.41V142.87A6.41,6.41,0,0,0,115.21,149.28Z"/><path class="cls-2" d="M128,149.28a6.41,6.41,0,0,0-6.41-6.41v12.82A6.41,6.41,0,0,0,128,149.28Z"/><rect class="cls-6" x="119.09" y="104.88" width="17.88" height="6"/><rect class="cls-2" x="87.45" y="85.67" width="20.76" height="6"/><path class="cls-2" d="M182.88,98.26a12.59,12.59,0,0,1-12.58,12.58v-6a6.59,6.59,0,0,0,0-13.17H153.57L152.25,86v-.3H170.3A12.6,12.6,0,0,1,182.88,98.26Z"/><path class="cls-6" d="M74,149.28a6.41,6.41,0,0,0,6.42,6.41V142.87A6.41,6.41,0,0,0,74,149.28Z"/><path class="cls-6" d="M86.78,149.28a6.41,6.41,0,0,0-6.41-6.41v12.82A6.41,6.41,0,0,0,86.78,149.28Z"/><path class="cls-7" d="M242.2,170.69a125.4,125.4,0,0,1-233.73,0Z"/><circle class="cls-8" cx="127.28" cy="202.2" r="5.47"/><circle class="cls-8" cx="88.08" cy="213.11" r="2.24"/><circle class="cls-8" cx="163.08" cy="210.37" r="1.76"/></g></g></svg>