<?xml version="1.0" encoding="UTF-8"?>
<svg width="92px" height="292px" viewBox="0 0 92 292" version="1.1" xmlns="http://www.w3.org/2000/svg" xmlns:xlink="http://www.w3.org/1999/xlink">
    <!-- Generator: sketchtool 46.2 (44496) - http://www.bohemiancoding.com/sketch -->
    <title>12DD99B7-408D-483B-B916-9940599DDC23</title>
    <desc>Created with sketchtool.</desc>
    <defs></defs>
    <g id="Page-1" stroke="none" stroke-width="1" fill="none" fill-rule="evenodd">
        <g id="ECRAN-3" transform="translate(-528.000000, -339.000000)">
            <g id="ECRAN_QUESTION_SKETCH" transform="translate(-1.000000, -18.000000)">
                <g id="arbre_3_2_" transform="translate(529.000000, 358.000000)">
                    <g id="arbre_3_1_">
                        <g id="arbre_3">
                            <g id="Arbre_2_forme_2">
                                <path d="M46.1,0.5 C46.1,0.6 46,0.8 45.9,0.9 L45.9,248.9 L46.2,248.9 C149,248.9 46.1,0.5 46.1,0.5 Z" id="Shape" fill="#E1F131" fill-rule="nonzero"></path>
                                <path d="M46,0.9 C26.9,57.1 10.7,111.2 17.5,138.5 C24,164.8 41.1,195.1 32.5,247.1 C36.9,248.3 41.5,248.9 46,248.9 L46,0.9 Z" id="Shape" fill="#E1F131" fill-rule="nonzero"></path>
                                <path d="M17.4,138.5 C10.6,111.2 26.8,57.1 45.9,0.9 C41.9,10.7 -44.7,225.3 32.4,247.2 C41,195.1 23.9,164.8 17.4,138.5 Z" id="Shape" fill="#9AB81D" fill-rule="nonzero"></path>
                                <path d="M46.3,289.7 L46.3,0.5" id="Shape" stroke="#F5EFC1" stroke-width="1.5" stroke-linecap="round"></path>
                            </g>
                        </g>
                    </g>
                </g>
            </g>
        </g>
    </g>
</svg>