<?xml version="1.0" encoding="UTF-8"?>
<svg width="59px" height="118px" viewBox="0 0 59 118" version="1.1" xmlns="http://www.w3.org/2000/svg" xmlns:xlink="http://www.w3.org/1999/xlink">
    <!-- Generator: sketchtool 46.2 (44496) - http://www.bohemiancoding.com/sketch -->
    <title>0F69287D-B237-474A-BA17-EFD5FD094164</title>
    <desc>Created with sketchtool.</desc>
    <defs></defs>
    <g id="Page-1" stroke="none" stroke-width="1" fill="none" fill-rule="evenodd">
        <g id="ECRAN-3" transform="translate(-597.000000, -519.000000)">
            <g id="ECRAN_QUESTION_SKETCH" transform="translate(-1.000000, -18.000000)">
                <g id="arbre_4_2_" transform="translate(598.000000, 537.000000)">
                    <g id="arbre_4_3_">
                        <g id="arbre_2_3_">
                            <g id="Arbre_1_forme1_1_">
                                <path d="M51.4,56.3 C53,54 53.8,51.2 53.8,48.5 C53.8,43.4 51.1,38.7 46.6,36.2 C52.1,31.7 52.9,23.7 48.5,18.2 C46.4,15.6 43.2,13.9 39.9,13.5 C40,13 40,12.4 40,11.9 C40,11.1 39.9,10.4 39.8,9.6 C37.9,6.6 34.6,4.7 31.1,4.7 L31,4.7 C25.3,4.7 20.6,9.3 20.6,15.1 C20.6,16.6 20.9,18 21.5,19.4 C15.1,20.1 10.5,25.9 11.2,32.3 C11.5,35.5 13.2,38.4 15.7,40.3 C9.4,43.7 7.1,51.6 10.4,57.9 C10.7,58.4 11,58.9 11.4,59.4 C7.2,62.3 4.7,67 4.7,72.1 C4.7,84.7 12.6,88.6 18,88.6 C20.9,88.8 23.8,88.4 26.7,87.6 C28.3,86.4 29.7,85 30.8,83.4 L31,83 C38,89 48.6,88.2 54.7,81.2 C60.7,74.2 59.9,63.6 52.9,57.5 C52.3,57 51.8,56.6 51.4,56.3 Z" id="Shape" fill="#E1F131" fill-rule="nonzero"></path>
                                <path d="M30.1,68.5 L37.9,27.7" id="Shape" stroke="#F5EFC1" stroke-width="1.5" stroke-linecap="round"></path>
                                <path d="M30.3,75.8 L19.4,51.2" id="Shape" stroke="#F5EFC1" stroke-width="1.5" stroke-linecap="round"></path>
                                <polyline id="Shape" stroke="#F5EFC1" stroke-width="1.5" stroke-linecap="round" points="30.5 117.2 30.5 82.7 28.5 11.8"></polyline>
                                <path d="M8.1,73.5 C6.9,67.2 7.2,62 11.3,59.2 C7.1,53.4 8.4,45.3 14.2,41.1 C14.6,40.8 15.1,40.5 15.6,40.2 C10.5,36.3 9.5,28.9 13.5,23.8 C15.4,21.3 18.3,19.7 21.5,19.3 C19.2,14.1 21.5,7.9 26.8,5.6 C28.1,5 29.6,4.7 31.1,4.7 L31.2,4.7 C34.8,4.7 38,6.6 39.9,9.6 C38.8,4.3 34.3,0.5 28.9,0.4 L28.8,0.4 C22.5,0.4 17.4,5.5 17.4,11.7 C17.4,13.3 17.7,14.9 18.4,16.4 C11.4,17.3 6.4,23.7 7.3,30.7 C7.7,34 9.4,37.1 12.1,39.2 C5.2,42.9 2.7,51.5 6.4,58.4 L6.4,58.4 C6.7,58.9 7,59.4 7.4,59.9 C-0.3,65.1 -2.3,75.5 2.9,83.2 C8.1,90.9 18.5,92.9 26.2,87.7 L26.2,87.7 L26.8,87.2 C24,88.3 10.5,84.3 8.1,73.5 Z" id="Shape" fill="#9AB81D" fill-rule="nonzero"></path>
                            </g>
                        </g>
                    </g>
                </g>
            </g>
        </g>
    </g>
</svg>