<?xml version="1.0" encoding="UTF-8"?>
<svg width="92px" height="217px" viewBox="0 0 92 217" version="1.1" xmlns="http://www.w3.org/2000/svg" xmlns:xlink="http://www.w3.org/1999/xlink">
    <!-- Generator: Sketch 46.2 (44496) - http://www.bohemiancoding.com/sketch -->
    <title>arbre_1_2_</title>
    <desc>Created with Sketch.</desc>
    <defs></defs>
    <g id="Page-1" stroke="none" stroke-width="1" fill="none" fill-rule="evenodd">
        <g id="ECRAN-3-Copy" transform="translate(-602.000000, -436.000000)">
            <g id="ECRAN_QUESTION_SKETCH" transform="translate(-1.000000, 0.000000)">
                <g id="arbre_1_2_" transform="translate(603.000000, 436.000000)">
                    <g id="arbre_1_1_">
                        <g id="arbre_6">
                            <path d="M44.5,0.9 C20.2,2.5 0.8,37.3 0.8,61 C0.8,84.3 42.8,85.8 46,110.2 C44.7,80.1 36.5,79.7 26.4,57 C16.5,34.8 27.7,16.3 44.5,0.9 Z" id="Shape" fill="#510F22" fill-rule="nonzero"></path>
                            <path d="M46.2,0.8 C45.6,0.8 45.1,0.8 44.5,0.9 C27.6,16.3 16.5,34.9 26.3,57 C36.5,79.7 44.6,80.1 45.9,110.2 C46,111.2 46.1,112.1 46.1,113.1 C46.1,85.9 91.4,85.2 91.4,61 C91.4,36.8 71.3,0.8 46.2,0.8 Z" id="Shape" fill="#AC0759" fill-rule="nonzero"></path>
                            <polyline id="Shape" stroke="#FFFFFF" stroke-width="1.5" stroke-linecap="round" points="46.2 169.2 46.2 79.1 46.2 25.8"></polyline>
                            <path d="M46.2,65.6 L24.1,44.1" id="Shape" stroke="#FFFFFF" stroke-width="1.5" stroke-linecap="round"></path>
                            <path d="M85.4,54.6 L46.2,85.8" id="Shape" stroke="#FFFFFF" stroke-width="1.5" stroke-linecap="round"></path>
                            <polyline id="Shape" stroke="#F5EFC1" stroke-width="1.5" stroke-linecap="round" points="46.2 216 46.2 79.1 46.2 25.8"></polyline>
                            <path d="M46.2,65.6 L24.1,44.1" id="Shape" stroke="#F5EFC1" stroke-width="1.5" stroke-linecap="round"></path>
                            <path d="M85.4,54.6 L46.2,85.8" id="Shape" stroke="#F5EFC1" stroke-width="1.5" stroke-linecap="round"></path>
                        </g>
                    </g>
                </g>
            </g>
        </g>
    </g>
</svg>