<?xml version="1.0" encoding="UTF-8"?>
<svg width="222px" height="420px" viewBox="0 0 222 420" version="1.1" xmlns="http://www.w3.org/2000/svg" xmlns:xlink="http://www.w3.org/1999/xlink">
    <!-- Generator: Sketch 46.2 (44496) - http://www.bohemiancoding.com/sketch -->
    <title>ARBRE</title>
    <desc>Created with Sketch.</desc>
    <defs></defs>
    <g id="Page-1" stroke="none" stroke-width="1" fill="none" fill-rule="evenodd">
        <g id="ECRAN-12-BIS" transform="translate(-804.000000, -188.000000)">
            <g id="PICTOS" transform="translate(74.000000, 188.000000)">
                <g id="ARBRE" transform="translate(730.000000, 0.000000)">
                    <rect id="Rectangle-path" fill="#B9DFE1" fill-rule="nonzero" x="0.45" y="0" width="220.6" height="420" rx="110.3"></rect>
                    <ellipse id="Oval" fill="#D5EBEC" fill-rule="nonzero" opacity="0.97" cx="110.75" cy="149.82" rx="71.81" ry="11.04"></ellipse>
                    <polyline id="Shape" stroke="#F5EFC1" stroke-width="0.92" stroke-linecap="round" points="102.31 151.99 102.31 108.71 102.31 70.47"></polyline>
                    <path d="M102.31,99.25 L86.81,83.74" id="Shape" stroke="#F5EFC1" stroke-width="0.92" stroke-linecap="round"></path>
                    <path d="M129.71,91.34 L102.31,113.87" id="Shape" stroke="#F5EFC1" stroke-width="0.92" stroke-linecap="round"></path>
                    <path d="M102.31,52.4 C101.92,52.4 101.52,52.4 101.13,52.4 C84.13,53.52 70.57,78.71 70.57,95.84 C70.57,112.72 100,113.84 102.18,131.45 C102.264633,132.150179 102.308041,132.854727 102.31,133.56 C102.31,113.86 134.05,113.37 134.05,95.84 C134.05,78.31 119.84,52.4 102.31,52.4 Z" id="Shape" stroke="#1C4649" stroke-width="1.31" stroke-linecap="round" stroke-linejoin="round"></path>
                    <polyline id="Shape" stroke="#1C4649" stroke-width="1.31" stroke-linecap="round" stroke-linejoin="round" points="102.31 151.99 102.31 108.71 102.31 70.47"></polyline>
                    <path d="M102.31,99.25 L86.81,83.74" id="Shape" stroke="#1C4649" stroke-width="1.31" stroke-linecap="round" stroke-linejoin="round"></path>
                    <path d="M129.71,91.34 L102.31,113.87" id="Shape" stroke="#1C4649" stroke-width="1.31" stroke-linecap="round" stroke-linejoin="round"></path>
                    <path d="M133.57,81.07 L133.57,81.14 C132.05,83.14 99.24,126.68 128.44,131.14 C130.138734,131.386795 131.853447,131.507126 133.57,131.5 L133.69,131.5 C172.57,131.48 133.57,81.07 133.57,81.07 Z" id="Shape" fill="#DADC37" fill-rule="nonzero"></path>
                    <path d="M133.65,151.99 L133.65,81.07" id="Shape" stroke="#F5EFC1" stroke-width="0.92" stroke-linecap="round"></path>
                    <path d="M133.57,81.07 L133.57,81.14 C132.05,83.14 99.24,126.68 128.44,131.14 C130.138734,131.386795 131.853447,131.507126 133.57,131.5 L133.69,131.5 C172.57,131.48 133.57,81.07 133.57,81.07 Z" id="Shape" stroke="#1C4649" stroke-width="1.14" stroke-linecap="round"></path>
                    <path d="M133.65,151.99 L133.65,81.07" id="Shape" stroke="#1C4649" stroke-width="1.14" stroke-linecap="round"></path>
                </g>
            </g>
        </g>
    </g>
</svg>