<?xml version="1.0" encoding="UTF-8"?>
<svg width="221px" height="420px" viewBox="0 0 221 420" version="1.1" xmlns="http://www.w3.org/2000/svg" xmlns:xlink="http://www.w3.org/1999/xlink">
    <!-- Generator: Sketch 46.2 (44496) - http://www.bohemiancoding.com/sketch -->
    <title>FRAGILE</title>
    <desc>Created with Sketch.</desc>
    <defs></defs>
    <g id="Page-1" stroke="none" stroke-width="1" fill="none" fill-rule="evenodd">
        <g id="ECRAN-12-BIS" transform="translate(-561.000000, -190.000000)">
            <g id="PICTOS" transform="translate(74.000000, 188.000000)">
                <g id="FRAGILE" transform="translate(487.000000, 2.000000)">
                    <rect id="Rectangle-path" fill="#B9DFE1" fill-rule="nonzero" x="0.18" y="0" width="220.6" height="420" rx="110.3"></rect>
                    <ellipse id="Oval" fill="#D5EBEC" fill-rule="nonzero" opacity="0.97" cx="110.14" cy="147.82" rx="71.81" ry="11.04"></ellipse>
                    <path d="M149.38,117.77 C149.38,117.77 149.38,114.16 153.56,114.16 C157.74,114.16 157.37,119.16 157.37,119.16 L157.37,148.16" id="Shape" stroke="#DADC37" stroke-width="2.65" stroke-linecap="round"></path>
                    <path d="M106.24,102.16 C102.374007,102.16 99.24,99.0259932 99.24,95.16 C99.24,91.2940068 102.374007,88.16 106.24,88.16 C110.105993,88.16 113.24,91.2940068 113.24,95.16 C113.24,99.0259932 110.105993,102.16 106.24,102.16 Z M106.24,89.43 C103.091977,89.43 100.54,91.9819769 100.54,95.13 C100.54,98.2780231 103.091977,100.83 106.24,100.83 C109.388023,100.83 111.94,98.2780231 111.94,95.13 C111.934496,91.9842597 109.38574,89.4355044 106.24,89.43 L106.24,89.43 Z" id="Shape" fill="#1C4649" fill-rule="nonzero"></path>
                    <path d="M110.52,149.41 C108.493115,149.41 106.85,147.766885 106.85,145.74 L106.85,130.66 L105.7,130.66 L105.7,145.74 C105.597973,147.695222 103.982882,149.228232 102.025,149.228232 C100.067118,149.228232 98.452027,147.695222 98.35,145.74 L98.35,111.94 C97.8216972,111.71789 97.3525708,111.375462 96.98,110.94 L89.11,101.22 C87.9017959,99.6420782 88.1691135,97.3891301 89.7130206,96.1377527 C91.2569277,94.8863754 93.5164065,95.0912885 94.81,96.6 L101.32,104.6 L111.32,104.6 L117.83,96.6 C119.112597,95.0307303 121.420807,94.7896407 123,96.06 L123,96.06 C124.56805,97.3390051 124.809278,99.6440653 123.54,101.22 L115.66,110.94 C115.27802,111.416776 114.778215,111.785598 114.21,112.01 L114.21,145.74 C114.210015,146.71682 113.820611,147.653342 113.12802,148.342179 C112.43543,149.031015 111.496805,149.415323 110.52,149.41 Z M105.04,129.34 L107.52,129.34 C107.884508,129.34 108.18,129.635492 108.18,130 L108.18,145.74 C108.18,147.037869 109.232131,148.09 110.53,148.09 C111.827869,148.09 112.88,147.037869 112.88,145.74 L112.88,111.55 C112.880659,111.224602 113.078347,110.932024 113.38,110.81 C113.867589,110.692785 114.303221,110.418758 114.62,110.03 L122.5,100.31 C123.312641,99.3014971 123.156107,97.8256054 122.15,97.01 L122.15,97.01 C121.144128,96.1950143 119.668569,96.3470416 118.85,97.35 L112.14,105.63 C112.014426,105.782219 111.82733,105.870264 111.63,105.87 L100.98,105.87 C100.780083,105.869109 100.59038,105.781554 100.46,105.63 L93.76,97.35 C93.2241016,96.6979903 92.3810681,96.3814069 91.5484619,96.5195036 C90.7158557,96.6576004 90.0201697,97.2293972 89.7234619,98.0195036 C89.4267541,98.8096101 89.5741016,99.6979903 90.11,100.35 L97.98,110.07 C98.2852545,110.446055 98.7018844,110.715639 99.17,110.84 C99.4537817,110.923918 99.6488973,111.184072 99.65,111.48 L99.65,145.78 C99.5928734,146.654336 100.026915,147.487844 100.77602,147.942342 C101.525126,148.39684 102.464874,148.39684 103.21398,147.942342 C103.963085,147.487844 104.397127,146.654336 104.34,145.78 L104.34,130 C104.345465,129.63388 104.64384,129.339959 105.01,129.34 L105.04,129.34 Z" id="Shape" fill="#1C4649" fill-rule="nonzero"></path>
                    <path d="M158.24,118.64 C158.33,114.33 156.24,114.7 156.24,114.7 C157.313349,113.547928 157.313349,111.762072 156.24,110.61 C149.05,101.49 149.4,86.27 149.4,86.27 C149.403928,84.9555949 148.697005,83.7417495 147.55184,83.0965569 C146.406675,82.4513643 145.002192,82.4756314 143.88,83.16 L140.3,85.16 C119.67,97.9 132.15,118.68 132.15,118.68 L132.15,118.68 C132.042517,119.023287 131.985257,119.380318 131.98,119.74 C133.451141,128.096381 133.055005,136.674763 130.82,144.86 C130.26,146.86 132.48,148.58 134.53,148.58 C136.58,148.58 137.53,146.8 138.24,144.86 C142.01,133.86 139.4,119.74 139.4,119.74 C139.401258,118.70761 138.965257,117.722974 138.2,117.03 L138.2,117.03 L144.87,97.67 C144.87,101.67 151.22,113.56 151.22,113.56 C147.99,114.56 148.36,118.5 148.36,118.5 C148.36,118.5 148.6,119.27 149.84,119.27 C151.08,119.27 151.13,118.32 151.13,118.32 C150.99786,117.659459 151.175622,116.974785 151.612406,116.461954 C152.049189,115.949123 152.696848,115.664665 153.37,115.69 C155.98,115.69 155.37,118.69 155.37,118.69 L155.37,148.14 C155.34371,148.508294 155.482915,148.869145 155.749737,149.124366 C156.016558,149.379587 156.383238,149.502624 156.75,149.46 C158.22,149.46 158.22,147.87 158.22,147.87 C158.22,147.87 158.15,122.94 158.24,118.64 Z" id="Shape" stroke="#1C4649" stroke-width="1.32" stroke-linecap="round" stroke-linejoin="round"></path>
                    <circle id="Oval" stroke="#1C4649" stroke-width="1.32" stroke-linecap="round" stroke-linejoin="round" cx="154.61" cy="77.39" r="6.97"></circle>
                    <circle id="Oval" stroke="#1C4649" stroke-width="1.32" stroke-linecap="round" stroke-linejoin="round" cx="72.37" cy="77.39" r="6.97"></circle>
                    <path d="M84.28,128.94 L81.83,95.46 C81.23,87.14 73.99,87.62 73.99,87.62 C73.99,87.62 67.65,87.21 65.61,95.5 C65.61,95.5 57.48,95.16 54.13,104.03 C51.26,111.66 56.76,117.89 56.76,117.89 L54.52,124.33 L84.28,128.94 Z" id="Shape" stroke="#1C4649" stroke-width="1.32" fill="#DADC37" fill-rule="nonzero" stroke-linecap="round" stroke-linejoin="round"></path>
                    <path d="M78.87,102.78 L78.82,102.78 L77.51,94.58 C77.1724837,92.4872245 75.2029902,91.0638179 73.11,91.4 L73.11,91.4 C72.1057831,91.5596959 71.206289,92.1121733 70.6097777,92.935659 C70.0132664,93.7591447 69.7687057,94.7860385 69.93,95.79 L71.24,103.99 L66.03,104.82 C63.9362881,105.157725 62.5099688,107.125062 62.84,109.22 L62.84,109.22 C63.1777247,111.313712 65.1450616,112.740031 67.24,112.41 L76.24,110.96 C77.2462475,110.800412 78.1474417,110.246479 78.7442276,109.420737 C79.3410134,108.594996 79.5842031,107.565505 79.42,106.56 L78.87,102.78 Z" id="Shape" stroke="#1C4649" stroke-width="1.24" fill="#B9DFE1" fill-rule="nonzero" stroke-linecap="round" stroke-linejoin="round"></path>
                    <path d="M70.21,148.17 L70.21,148.17 C68.3598461,148.17 66.86,146.670154 66.86,144.82 L66.86,126.38 L73.56,127.38 L73.56,144.79 C73.5680033,145.683662 73.2185941,146.543475 72.5894777,147.178225 C71.9603613,147.812975 71.1036976,148.170036 70.21,148.17 L70.21,148.17 Z" id="Shape" stroke="#1C4649" stroke-width="1.32" stroke-linecap="round" stroke-linejoin="round"></path>
                </g>
            </g>
        </g>
    </g>
</svg>