<?xml version="1.0" encoding="UTF-8"?>
<svg width="203px" height="74px" viewBox="0 0 203 74" version="1.1" xmlns="http://www.w3.org/2000/svg" xmlns:xlink="http://www.w3.org/1999/xlink">
    <!-- Generator: Sketch 46.2 (44496) - http://www.bohemiancoding.com/sketch -->
    <title>infos_fenetre</title>
    <desc>Created with Sketch.</desc>
    <defs></defs>
    <g id="Page-1" stroke="none" stroke-width="1" fill="none" fill-rule="evenodd">
        <g id="ECRAN-9" transform="translate(-865.000000, -594.000000)">
            <g id="infos_fenetre" transform="translate(865.000000, 594.000000)">
                <path d="M8,0.96 L195,0.96 L195,0.96 C199.418278,0.96 203,4.541722 203,8.96 L203,57.5464969 L203,57.5464969 C203,61.9647749 199.418278,65.5464969 195,65.5464969 L6.27855041,65.5464969 L0,73.1473985 L0,65.5464969 L0,8.96 L0,8.96 C-5.41083001e-16,4.541722 3.581722,0.96 8,0.96 Z" id="Rectangle" fill="#AC0759" transform="translate(101.500000, 37.053699) scale(-1, 1) translate(-101.500000, -37.053699) "></path>
                <text id="Ces-valeurs-provienn" font-family="Sarabun-Bold, Sarabun" font-size="8" font-weight="bold" letter-spacing="1" fill="#FFFFFF">
                    <tspan x="9" y="13">Ces valeurs proviennent de la station </tspan>
                    <tspan x="9" y="24">de mesure Bouteillerie à Nantes </tspan>
                    <tspan x="9" y="35">et sont calculées en moyenne horaire </tspan>
                    <tspan x="9" y="46">sur la période de novembre 2018 </tspan>
                    <tspan x="9" y="57">à janvier 2019.</tspan>
                </text>
            </g>
        </g>
    </g>
</svg>