<?xml version="1.0" encoding="UTF-8"?>
<svg width="206px" height="230px" viewBox="0 0 206 230" version="1.1" xmlns="http://www.w3.org/2000/svg" xmlns:xlink="http://www.w3.org/1999/xlink">
    <!-- Generator: sketchtool 46.2 (44496) - http://www.bohemiancoding.com/sketch -->
    <title>B23837A0-6C14-4CB9-B811-C6FAE4E22E78@2x</title>
    <desc>Created with sketchtool.</desc>
    <defs>
        <linearGradient x1="49.7718933%" y1="-1.34880492%" x2="50.218189%" y2="100.104136%" id="linearGradient-1">
            <stop stop-color="#B9E0E1" offset="27%"></stop>
            <stop stop-color="#D5EBEC" offset="83%"></stop>
        </linearGradient>
    </defs>
    <g id="Page-1" stroke="none" stroke-width="1" fill="none" fill-rule="evenodd">
        <g id="Desktop-Copy-8" transform="translate(-183.000000, -238.000000)">
            <g id="differente_typos_ecrann" transform="translate(183.000000, 224.000000)">
                <g id="RURAL" transform="translate(0.000000, 14.000000)">
                    <circle id="Oval" fill="url(#linearGradient-1)" fill-rule="nonzero" cx="104.71" cy="128.81" r="100.83"></circle>
                    <polygon id="Shape" fill="#0C9E92" fill-rule="nonzero" points="159.87 87.46 85.42 87.46 86.53 144.36"></polygon>
                    <polygon id="Shape" fill="#0C9E92" fill-rule="nonzero" points="183.88 115 168.14 87.46 159.15 87.46 158.01 88.35 183.88 133.61"></polygon>
                    <path d="M184.99,189.68 L184.99,134.38 L159.13,89.17 L86.53,145.63 L86.53,228.16 C92.5370434,229.100818 98.6097968,229.55895 104.69,229.53 C136.221022,229.557915 165.942949,214.807992 184.99,189.68 L184.99,189.68 Z" id="Shape" fill="#126969" fill-rule="nonzero"></path>
                    <polygon id="Shape" fill="#0C9E92" fill-rule="nonzero" points="183.88 87.46 168.14 87.46 183.88 115"></polygon>
                    <path d="M92,154.85 L71.82,154.85 L71.82,224.56 C78.3827761,226.670323 85.1449079,228.101161 92,228.83 L92,154.85 Z" id="Shape" fill="#0C9E92" fill-rule="nonzero"></path>
                    <path d="M71.82,154.85 L51.63,154.85 L51.63,215.23 C57.9587147,219.143582 64.7380608,222.276386 71.82,224.56 L71.82,154.85 Z" id="Shape" fill="#0D6F73" fill-rule="nonzero"></path>
                    <path d="M144.3,109.42 C143.811432,104.287438 139.500763,100.367615 134.345,100.367615 C129.189237,100.367615 124.878568,104.287438 124.39,109.42 L124.39,147.32 L144.3,147.32 L144.3,109.42 Z" id="Shape" stroke="#F5EFC1" stroke-width="1.5" fill="#B9E0E1" fill-rule="nonzero"></path>
                    <path d="M134.35,99.47 L134.35,147.32" id="Shape" stroke="#F5EFC1" stroke-width="1.5"></path>
                    <path d="M124.4,111.09 L144.3,111.09" id="Shape" stroke="#F5EFC1" stroke-width="1.5"></path>
                    <path d="M124.4,122.12 L144.3,122.12" id="Shape" stroke="#F5EFC1" stroke-width="1.5"></path>
                    <path d="M124.4,133.14 L144.3,133.14" id="Shape" stroke="#F5EFC1" stroke-width="1.5"></path>
                    <rect id="Rectangle-path" stroke="#F5EFC1" stroke-width="1.5" fill="#B9E0E1" fill-rule="nonzero" x="70.27" y="165.96" width="3.11" height="13.52"></rect>
                    <rect id="Rectangle-path" stroke="#F5EFC1" stroke-width="1.5" fill="#B9E0E1" fill-rule="nonzero" x="70.27" y="188.67" width="3.11" height="13.52"></rect>
                    <path d="M159.15,91.56 L159.15,91.56 L128.81,144.64 L129.18,144.64 L129.18,226.53 C139.823787,223.866866 149.958435,219.475185 159.18,213.53 L159.15,91.56 Z" id="Shape" fill="#0D6F73" fill-rule="nonzero"></path>
                    <path d="M189.48,183.29 L189.48,143.42 L159.15,90.34 L159.15,213.57 C171.300362,205.750971 181.640935,195.427445 189.48,183.29 Z" id="Shape" fill="#0C9E92" fill-rule="nonzero"></path>
                    <polyline id="Shape" stroke="#AD115B" stroke-width="3.32" points="189.49 143.42 159.15 90.34 129.18 143.42"></polyline>
                    <circle id="Oval" fill="#B9E0E1" fill-rule="nonzero" cx="159.15" cy="122.32" r="8.77"></circle>
                    <path d="M167.91,159.61 C167.75036,154.884414 163.873281,151.1361 159.145,151.1361 C154.416719,151.1361 150.53964,154.884414 150.38,159.61 L150.38,192.99 L167.91,192.99 L167.91,159.61 Z" id="Shape" stroke="#F5EFC1" stroke-width="1.5" fill="#B9E0E1" fill-rule="nonzero"></path>
                    <path d="M159.15,150.85 L159.15,192.99" id="Shape" stroke="#F5EFC1" stroke-width="1.5"></path>
                    <path d="M150.38,161.09 L167.92,161.09" id="Shape" stroke="#F5EFC1" stroke-width="1.5"></path>
                    <path d="M150.38,170.79 L167.92,170.79" id="Shape" stroke="#F5EFC1" stroke-width="1.5"></path>
                    <path d="M150.38,180.5 L167.92,180.5" id="Shape" stroke="#F5EFC1" stroke-width="1.5"></path>
                    <polygon id="Shape" fill="#AD115B" fill-rule="nonzero" points="168.47 87.46 184.21 87.46 134.68 0.79 85.15 87.46 140.94 87.46"></polygon>
                    <path d="M66.2,54.54 L66.08,54.66 L66.08,144 L66.32,144 C145.58,144 66.2,54.54 66.2,54.54 Z" id="Shape" fill="#DADC38" fill-rule="nonzero"></path>
                    <path d="M55.69,143.32 C59.1571671,143.742495 62.6471991,143.949559 66.14,143.94 L66.08,54.66 C51.3,74.94 38.81,94.42 44.08,104.25 C49.08,113.71 62.31,124.65 55.69,143.32 Z" id="Shape" fill="#DADC38" fill-rule="nonzero"></path>
                    <path d="M55.57,143.32 C62.24,124.65 49.08,113.71 44.01,104.25 C38.81,94.42 51.3,74.94 66.01,54.66 C62.92,58.17 -3.91,135.47 55.57,143.32 Z" id="Shape" fill="#9BB81F" fill-rule="nonzero"></path>
                    <path d="M66.33,175.47 L66.33,54.67" id="Shape" stroke="#F5EFC1" stroke-width="1.5" stroke-linecap="round"></path>
                    <polygon id="Shape" fill="#AD115B" fill-rule="nonzero" points="71.7 119.31 51.39 154.85 92.01 154.85"></polygon>
                    <path d="M27.27,184.89 C26.47,166.09 21.54,165.89 15.4,151.68 C9.4,137.88 16.17,126.3 26.4,116.68 C11.75,117.68 0.04,139.38 0.04,154.16 C-1.17961196e-16,168.73 25.38,169.66 27.27,184.89 Z" id="Shape" fill="#9BB81F" fill-rule="nonzero"></path>
                    <path d="M27.27,184.89 C27.3427175,185.497297 27.3794484,186.108365 27.38,186.72 C27.38,169.72 54.76,169.3 54.76,154.17 C54.76,139.04 42.5,116.65 27.38,116.65 C27.04,116.65 26.7,116.65 26.38,116.65 C16.19,126.26 9.45,137.84 15.38,151.65 C21.54,165.85 26.47,166.09 27.27,184.89 Z" id="Shape" fill="#DADC38" fill-rule="nonzero"></path>
                    <polyline id="Shape" stroke="#F5EFC1" stroke-width="1.5" stroke-linecap="round" points="27.38 192.8 27.38 165.52 27.38 132.24"></polyline>
                    <path d="M27.38,157.06 L14.01,143.69" id="Shape" stroke="#F5EFC1" stroke-width="1.5" stroke-linecap="round"></path>
                    <path d="M51.02,150.25 L27.38,169.68" id="Shape" stroke="#F5EFC1" stroke-width="1.5" stroke-linecap="round"></path>
                    <path d="M39.92,179.53 C36.24,179.53 44.74,192.28 41.54,192.28 C38.34,192.28 47.76,204.39 47.76,204.39 C47.76,183.64 39.56,183.26 42.27,180.1 C44.98,176.94 39.96,170.1 42.27,168.26 C44.58,166.42 41.84,154.4 43.86,153.67 C45.88,152.94 43.86,144 47.76,141.06 C38.33,141.06 46.03,152.34 41.23,152.33 C36.43,152.32 43.35,167.51 39.44,167.51 C35.53,167.51 43.6,179.53 39.92,179.53 Z" id="Shape" fill="#511123" fill-rule="nonzero"></path>
                    <path d="M42.27,180.1 C39.56,183.26 47.76,183.64 47.76,204.39 C47.76,204.39 57.19,192.28 53.99,192.28 C50.79,192.28 59.28,179.53 55.6,179.53 C51.92,179.53 59.99,167.53 56.08,167.53 C52.17,167.53 59.08,152.34 54.29,152.35 C49.5,152.36 57.19,141.08 47.76,141.08 C43.86,144.02 45.88,152.97 43.86,153.69 C41.84,154.41 44.58,166.4 42.27,168.28 C39.96,170.16 44.98,176.93 42.27,180.1 Z" id="Shape" fill="#AD115B" fill-rule="nonzero"></path>
                    <path d="M47.77,211.92 L47.77,141.06" id="Shape" stroke="#F5EFC1" stroke-width="1.27" stroke-linecap="round"></path>
                </g>
            </g>
        </g>
    </g>
</svg>