<?xml version="1.0" encoding="UTF-8"?>
<svg width="222px" height="420px" viewBox="0 0 222 420" version="1.1" xmlns="http://www.w3.org/2000/svg" xmlns:xlink="http://www.w3.org/1999/xlink">
    <!-- Generator: Sketch 46.2 (44496) - http://www.bohemiancoding.com/sketch -->
    <title>T._COMMUN</title>
    <desc>Created with Sketch.</desc>
    <defs></defs>
    <g id="Page-1" stroke="none" stroke-width="1" fill="none" fill-rule="evenodd">
        <g id="ECRAN-12-BIS" transform="translate(-319.000000, -188.000000)">
            <g id="PICTOS" transform="translate(74.000000, 188.000000)">
                <g id="T._COMMUN" transform="translate(245.000000, 0.000000)">
                    <rect id="Rectangle-path" fill="#B9DFE1" fill-rule="nonzero" x="0.45" y="0" width="220.6" height="420" rx="110.3"></rect>
                    <ellipse id="Oval" fill="#D5EBEC" fill-rule="nonzero" opacity="0.97" cx="111.68" cy="149.82" rx="71.81" ry="11.04"></ellipse>
                    <circle id="Oval" fill="#EB5E61" fill-rule="nonzero" cx="83.27" cy="125.03" r="5.72"></circle>
                    <circle id="Oval" fill="#EB5E61" fill-rule="nonzero" cx="138.37" cy="125.03" r="5.72"></circle>
                    <circle id="Oval" stroke="#1C4649" stroke-width="1.32" fill="#DADC36" fill-rule="nonzero" stroke-linecap="round" stroke-linejoin="round" cx="83.27" cy="125.03" r="5.72"></circle>
                    <path d="M88.98,145.83 C88.9799996,148.989069 86.4190685,151.549999 83.26,151.549999 C80.1009315,151.549999 77.5400004,148.989069 77.54,145.83 L77.54,138.94 L88.98,138.94 L88.98,145.83 Z" id="Shape" stroke="#1C4649" stroke-width="1.32" stroke-linecap="round" stroke-linejoin="round"></path>
                    <path d="M144.08,145.83 C144.08,148.989069 141.519069,151.55 138.36,151.55 C135.200931,151.55 132.64,148.989069 132.64,145.83 L132.64,138.94 L144.08,138.94 L144.08,145.83 Z" id="Shape" stroke="#1C4649" stroke-width="1.32" stroke-linecap="round" stroke-linejoin="round"></path>
                    <circle id="Oval" stroke="#1C4649" stroke-width="1.32" fill="#DADC36" fill-rule="nonzero" stroke-linecap="round" stroke-linejoin="round" cx="138.37" cy="125.03" r="5.72"></circle>
                    <rect id="Rectangle-path" stroke="#1C4649" stroke-width="1.32" stroke-linecap="round" stroke-linejoin="round" x="72.8" y="64.79" width="75.9" height="74.15"></rect>
                    <rect id="Rectangle-path" stroke="#1C4649" stroke-width="1.32" stroke-linecap="round" stroke-linejoin="round" x="79.27" y="70.07" width="64.82" height="32.72"></rect>
                    <path d="M84.28,53.37 L137.28,53.37 C140.304278,53.3620332 143.207565,54.5571568 145.349808,56.6918969 C147.492052,58.826637 148.697355,61.7257124 148.7,64.75 L148.7,64.75 L72.89,64.75 L72.89,64.75 C72.89,58.4594767 77.9894767,53.36 84.28,53.36 L84.28,53.37 Z" id="Shape" stroke="#1C4649" stroke-width="1.32" stroke-linecap="round" stroke-linejoin="round"></path>
                    <path d="M103.79,120 L117.7,120" id="Shape" stroke="#1C4649" stroke-width="1.32" stroke-linecap="round" stroke-linejoin="round"></path>
                    <path d="M103.79,124.41 L117.7,124.41" id="Shape" stroke="#1C4649" stroke-width="1.32" stroke-linecap="round" stroke-linejoin="round"></path>
                    <path d="M103.79,128.82 L117.7,128.82" id="Shape" stroke="#1C4649" stroke-width="1.32" stroke-linecap="round" stroke-linejoin="round"></path>
                    <polyline id="Shape" stroke="#1C4649" stroke-width="1.32" stroke-linecap="round" stroke-linejoin="round" points="132.67 74.44 139.68 74.44 139.68 81.61"></polyline>
                    <path d="M99.51,57.3 L123.84,57.3" id="Shape" stroke="#1C4649" stroke-width="1.32" stroke-linecap="round" stroke-linejoin="round"></path>
                </g>
            </g>
        </g>
    </g>
</svg>