<?xml version="1.0" encoding="UTF-8"?>
<svg width="207px" height="205px" viewBox="0 0 207 205" version="1.1" xmlns="http://www.w3.org/2000/svg" xmlns:xlink="http://www.w3.org/1999/xlink">
    <!-- Generator: sketchtool 46.2 (44496) - http://www.bohemiancoding.com/sketch -->
    <title>1F7BCDFB-FE76-46C8-AE5B-36BFCCDEE81F@2x</title>
    <desc>Created with sketchtool.</desc>
    <defs>
        <linearGradient x1="62460%" y1="3898%" x2="62551%" y2="24357%" id="linearGradient-1">
            <stop stop-color="#B9E0E1" offset="27%"></stop>
            <stop stop-color="#D5EBEC" offset="83%"></stop>
        </linearGradient>
    </defs>
    <g id="Page-1" stroke="none" stroke-width="1" fill="none" fill-rule="evenodd">
        <g id="Desktop-Copy-8" transform="translate(-707.000000, -263.000000)">
            <g id="differente_typos_ecrann" transform="translate(183.000000, 224.000000)">
                <g id="TRAFIC" transform="translate(524.000000, 39.000000)">
                    <circle id="Oval" fill="url(#linearGradient-1)" fill-rule="nonzero" cx="101.06" cy="103.53" r="100.83"></circle>
                    <g id="pont" transform="translate(57.000000, 105.000000)" fill-rule="nonzero">
                        <path d="M134.2,13.94 C131.32,17.27 128.42,20.59 125.29,23.94 L125.29,57.94 C128.675427,53.2795397 131.656278,48.3382189 134.2,43.17 L134.2,13.94 Z" id="Shape" fill="#1C4649"></path>
                        <path d="M134.2,0.35 L125.29,0.35 L125.29,23.92 C128.42,20.59 131.29,17.27 134.2,13.92 L134.2,0.35 Z" id="Shape" fill="#15343A"></path>
                        <path d="M9.83,34.61 L0.92,34.61 L0.92,55.43 C3.79,52.6 6.72,49.83 9.83,47.25 L9.83,34.61 Z" id="Shape" fill="#15343A"></path>
                        <path d="M9.83,47.25 C6.72,49.83 3.83,52.6 0.92,55.43 L0.92,90.04 C3.82,91.39 6.79,92.62 9.83,93.7 L9.83,47.25 Z" id="Shape" fill="#1C4649"></path>
                    </g>
                    <path d="M27.99,161.94 C70.0636669,142.054668 114.204483,126.876022 159.61,116.68 C173.49,113.56 187.49,110.793333 201.61,108.38 C201.876618,104.204252 201.876618,100.015748 201.61,95.84 C187.24,97.95 172.18,100.64 156.82,104.09 C110.475667,114.501799 65.4226779,129.999035 22.48,150.3 L13.64,154.55 C15.836331,158.304636 18.2748233,161.912269 20.94,165.35 L27.99,161.94 Z" id="Shape" fill="#1C4649" fill-rule="nonzero"></path>
                    <path d="M113.54,164.17 C106.54,148 114.44,134.43 126.38,123.17 C109.21,124.31 95.49,149.77 95.49,167.09 C95.49,183.47 122.9,185.14 127.03,201.04 L127.33,200.96 C126.11,181.02 120.49,180.22 113.54,164.17 Z" id="Shape" fill="#0C7073" fill-rule="nonzero"></path>
                    <path d="M159.69,167.09 C159.69,149.37 145.32,123.09 127.6,123.09 C127.2,123.09 126.81,123.09 126.41,123.09 C114.47,134.35 106.57,147.92 113.57,164.09 C120.57,180.26 126.14,180.94 127.36,200.88 L128.23,200.64 C132.61,185.11 159.69,183.36 159.69,167.09 Z" id="Shape" fill="#059E92" fill-rule="nonzero"></path>
                    <polyline id="Shape" stroke="#F5EFC1" stroke-width="1.5" stroke-linecap="round" points="127.58 200.09 127.58 180.04 127.58 141.39"></polyline>
                    <path d="M127.58,170.48 L111.91,154.81" id="Shape" stroke="#F5EFC1" stroke-width="1.5" stroke-linecap="round"></path>
                    <path d="M155.27,162.49 L127.58,185.26" id="Shape" stroke="#F5EFC1" stroke-width="1.5" stroke-linecap="round"></path>
                    <path d="M136.15,105 L171.74,99.81" id="Shape" stroke="#F5EFC1" stroke-width="1.5" stroke-linecap="round"></path>
                    <rect id="Rectangle-path" fill="#400C2C" fill-rule="nonzero" transform="translate(155.802116, 97.422049) rotate(-8.310000) translate(-155.802116, -97.422049) " x="152.957116" y="96.0820487" width="5.69" height="2.68"></rect>
                    <path d="M183.89,56.17 C183.736142,56.1883474 183.599483,56.2769907 183.52,56.41 L182.76,57.66 L193.69,62.96 C192.57,60.41 191.31,57.84 189.87,55.28 L183.89,56.17 Z" id="Shape" fill="#019E92" fill-rule="nonzero"></path>
                    <path d="M182.76,57.64 L182.04,58.82 C181.936222,58.9936393 181.942561,59.2117044 182.056251,59.3790218 C182.169941,59.5463392 182.370346,59.6325391 182.57,59.6 C182.759154,59.5653754 182.951975,59.6379661 183.071334,59.7887356 C183.190693,59.9395051 183.217103,60.1438377 183.14,60.32 L175.9,77.17 C175.82443,77.3359218 175.670236,77.4525071 175.49,77.48 L170.49,78.21 C170.336142,78.2283474 170.199483,78.3169907 170.12,78.45 L169.62,79.27 C169.561836,79.3795116 169.460164,79.4593971 169.34,79.49 L153.16,84.67 C152.9204,84.7498029 152.772777,84.990218 152.81,85.24 L154.97,100.05 C154.989626,100.186028 155.063322,100.308377 155.17439,100.389325 C155.285459,100.470273 155.424496,100.502967 155.56,100.48 L161.14,99.67 L170.75,98.27 C171.021739,98.2239769 171.210371,97.9739306 171.18,97.7 C170.641304,92.5318088 174.275016,87.8586462 179.416594,87.1072674 C184.558172,86.3558886 189.377217,89.793784 190.34,94.9 C190.390781,95.1720255 190.64571,95.3566291 190.92,95.32 L201.42,93.79 C200.548985,83.1593724 197.937548,72.7440302 193.69,62.96 L182.76,57.64 Z" id="Shape" fill="#0C6F73" fill-rule="nonzero"></path>
                    <path d="M202.82,76.1 L206.76,75.52" id="Shape" stroke="#FFFFFF" stroke-width="0.7" stroke-linecap="round"></path>
                    <polygon id="Shape" fill="#F2FAFE" fill-rule="nonzero" points="184.59 59.28 182.53 59.64 171.31 78.08 176.86 77.27"></polygon>
                    <path d="M191.18,58.32 L183.79,76.26 L197.79,74.26 C196.191924,68.7617452 194.082725,63.4251372 191.49,58.32 L191.18,58.32 Z" id="Shape" fill="#F2FAFE" fill-rule="nonzero"></path>
                    <path d="M157.09,86.43 C156.85,84.77 154.89,83.69 151.66,84.17 L152.53,90.17 C155.76,89.67 157.33,88.08 157.09,86.43 Z" id="Shape" stroke="#F5EFC1" stroke-width="1.5" stroke-linecap="round"></path>
                    <circle id="Oval" fill="#15353B" fill-rule="nonzero" transform="translate(182.496000, 99.072000) rotate(-53.130102) translate(-182.496000, -99.072000) " cx="182.496" cy="99.072" r="8.06"></circle>
                    <path d="M181.69,102.42 C184.797638,101.962191 186.946411,99.0727275 186.49045,95.9648174 C186.034488,92.8569073 183.146303,90.7064167 180.038123,91.1605304 C176.929942,91.6146441 174.777734,94.5015499 175.23,97.61 C175.68816,100.720617 178.578596,102.872784 181.69,102.42 L181.69,102.42 Z" id="Shape" stroke="#F5EFC1" stroke-width="1.5"></path>
                    <path d="M179.28,98.86 L182.37,94.71" id="Shape" stroke="#F5EFC1" stroke-width="0.75" stroke-linecap="round" stroke-linejoin="round"></path>
                    <path d="M178.75,95.24 L182.9,98.33" id="Shape" stroke="#F5EFC1" stroke-width="0.75" stroke-linecap="round" stroke-linejoin="round"></path>
                    <circle id="Oval" stroke="#F5EFC1" stroke-width="0.75" fill="#173D42" fill-rule="nonzero" stroke-linecap="round" stroke-linejoin="round" cx="180.83" cy="96.78" r="1.57"></circle>
                    <path d="M149.147119,5.40026347 L167.527119,5.40026347 L167.527119,5.40026347 C167.527119,7.38848857 165.915344,9.00026347 163.927119,9.00026347 L152.747119,9.00026347 C150.758894,9.00026347 149.147119,7.38848857 149.147119,5.40026347 L149.147119,5.40026347 L149.147119,5.40026347 Z" id="Shape" fill="#DBDD42" fill-rule="nonzero" transform="translate(158.337119, 7.200263) rotate(-9.180000) translate(-158.337119, -7.200263) "></path>
                    <rect id="Rectangle-path" fill="#14353B" fill-rule="nonzero" transform="translate(158.080404, 5.572620) rotate(-9.180000) translate(-158.080404, -5.572620) " x="148.890404" y="3.77262" width="18.38" height="3.6"></rect>
                    <polygon id="Shape" fill="#1D4649" fill-rule="nonzero" points="163.24 1.06 151.22 3.16 150.16 4.93 165.22 2.5"></polygon>
                    <path d="M118.6,12.25 L118.6,15.8 C118.6,15.8 126.83,10.04 149.06,7.34 L148.69,5.17 C148.69,5.17 125.63,8.4 118.57,12.17" id="Shape" fill="#1D4649" fill-rule="nonzero"></path>
                    <rect id="Rectangle-path" fill="#14353B" fill-rule="nonzero" x="114.35" y="0.72" width="4.26" height="111.33"></rect>
                    <rect id="Rectangle-path" fill="#1D4649" fill-rule="nonzero" x="114.35" y="9.56" width="4.26" height="9.17"></rect>
                    <rect id="Rectangle-path" fill="#1D4649" fill-rule="nonzero" x="113.04" y="40.34" width="6.88" height="2.29"></rect>
                    <rect id="Rectangle-path" x="113.04" y="80.62" width="6.88" height="1.96"></rect>
                    <polygon id="Shape" fill="#1D4649" fill-rule="nonzero" points="118.56 112.06 114.39 112.06 113.04 117.62 119.91 117.62"></polygon>
                    <rect id="Rectangle-path" fill="#1D4649" fill-rule="nonzero" x="113.04" y="80.46" width="6.88" height="2.29"></rect>
                    <path d="M91.23,129.28 L91.17,129.36 L91.17,185.17 L91.31,185.17 C134.44,185.17 91.23,129.28 91.23,129.28 Z" id="Shape" fill="#DADC38" fill-rule="nonzero"></path>
                    <path d="M85.49,184.73 C87.3707811,185.005186 89.269195,185.142219 91.17,185.14 L91.17,129.36 C83.17,142.01 76.34,154.18 79.17,160.36 C81.91,166.23 89.09,173.04 85.49,184.73 Z" id="Shape" fill="#DADC38" fill-rule="nonzero"></path>
                    <path d="M85.49,184.73 C89.09,173.04 81.91,166.23 79.18,160.32 C76.34,154.18 83.18,142.01 91.18,129.32 C89.48,131.57 53.13,179.82 85.49,184.73 Z" id="Shape" fill="#9BB81F" fill-rule="nonzero"></path>
                    <path d="M91.31,203.18 L91.31,129.28" id="Shape" stroke="#F5EFC1" stroke-width="1.5" stroke-linecap="round"></path>
                    <path d="M63.95,86.45 L51.22,80.74" id="Shape" stroke="#F5EFC1" stroke-width="1.5" stroke-linecap="round"></path>
                    <path d="M52.83,134.91 L94.86,118.91" id="Shape" stroke="#F5EFC1" stroke-width="1.5" stroke-linecap="round"></path>
                    <rect id="Rectangle-path" fill="#400C2C" fill-rule="nonzero" transform="translate(16.792350, 138.515800) rotate(-21.161260) translate(-16.792350, -138.515800) " x="13.9551845" y="137.17949" width="5.67433093" height="2.67261984"></rect>
                    <path d="M100.35,104.77 C105.178648,102.913454 110.613654,105.18171 112.69,109.92 C112.803925,110.170545 113.09067,110.292195 113.35,110.2 L131.13,103.43 C131.397484,103.327432 131.531628,103.027842 131.43,102.76 L129.64,98.06 L126.34,89.37 C126.248406,89.1380599 126.005053,89.003796 125.76,89.05 L117.9,90.48 L102.69,93.25 L102.37,93.09 L89.69,97.93 C89.4568255,98.0206665 89.1921397,97.9324379 89.06,97.72 L83.06,87.82 L80.83,84.12 C80.7487551,83.9863415 80.7319904,83.8232117 80.7843523,83.6758225 C80.8367143,83.5284334 80.9526399,83.4124436 81.1,83.36 L81.49,83.22 C81.6860616,83.155519 81.8239309,82.979225 81.8392581,82.7734022 C81.8545853,82.5675794 81.7443485,82.3728094 81.56,82.28 L78.95,80.92 C78.8155122,80.8644408 78.6644878,80.8644408 78.53,80.92 L37.22,96.64 C37.0738901,96.6947547 36.9600898,96.8122259 36.91,96.96 L36.44,98.34 L94.24,112.17 C94.8245965,108.796334 97.1479279,105.98248 100.35,104.77 Z" id="Shape" fill="#AD115B" fill-rule="nonzero"></path>
                    <path d="M18.49,145.74 C18.5967198,146.003517 18.8923517,146.13589 19.16,146.04 L24.44,144.04 L33.51,140.59 C33.76333,140.483811 33.8935485,140.201671 33.81,139.94 C32.2034189,135.024972 34.7391651,129.714445 39.5714706,127.873948 C44.4037762,126.033452 49.829825,128.311542 51.9,133.05 C52.0064202,133.308225 52.2978194,133.436264 52.56,133.34 L94.27,117.46 C94.5308161,117.361711 94.6644172,117.072242 94.57,116.81 C94.0844858,115.313148 93.9712155,113.720498 94.24,112.17 L36.43,98.33 L35.99,99.64 C35.9262446,99.830929 35.978409,100.041504 36.1239179,100.180594 C36.2694267,100.319683 36.4821399,100.3623 36.67,100.29 C36.8451376,100.218017 37.0455601,100.246924 37.1932173,100.365466 C37.3408745,100.484008 37.4124231,100.673443 37.38,100.86 L33.97,118.86 C33.9340487,119.037936 33.809531,119.185093 33.64,119.25 L28.9,121.06 C28.7590683,121.113871 28.6492223,121.227378 28.6,121.37 L28.29,122.28 C28.2458303,122.395866 28.1650819,122.494169 28.06,122.56 L13.39,131.17 C13.1703918,131.296228 13.0767075,131.564505 13.17,131.8 L18.49,145.74 Z" id="Shape" fill="#511123" fill-rule="nonzero"></path>
                    <polyline id="Shape" stroke="#F5EFC1" stroke-width="1.5" stroke-linecap="round" points="58.8 91.89 70.75 123.29 54.51 129.47"></polyline>
                    <path d="M77.33,84.78 L86.26,99.23" id="Shape" stroke="#F5EFC1" stroke-width="1.5" stroke-linecap="round"></path>
                    <path d="M80.37,104.24 L84.09,102.82" id="Shape" stroke="#F5EFC1" stroke-width="0.75" stroke-linecap="round"></path>
                    <path d="M60.02,111.99 L63.74,110.57" id="Shape" stroke="#F5EFC1" stroke-width="0.75" stroke-linecap="round"></path>
                    <polygon id="Shape" fill="#F2FAFE" fill-rule="nonzero" points="87.4 98.79 100.54 93.79 80.76 83.53 78.64 84.28 81.2 88.53"></polygon>
                    <polygon id="Shape" fill="#F2FAFE" fill-rule="nonzero" points="38.58 99.53 36.64 100.32 29.69 120.76 34.93 118.76"></polygon>
                    <polygon id="Shape" fill="#F2FAFE" fill-rule="nonzero" points="56.93 92.54 44.8 97.16 41.49 116.27 62.87 108.13"></polygon>
                    <polygon id="Shape" fill="#F2FAFE" fill-rule="nonzero" points="82.89 100.51 74.59 85.82 61.37 90.85 67.3 106.44"></polygon>
                    <path d="M17.62,131.99 C17.03,130.43 14.88,129.8 11.83,130.99 L13.98,136.64 C17.03,135.45 18.22,133.55 17.62,131.99 Z" id="Shape" stroke="#F5EFC1" stroke-width="1.5" stroke-linecap="round"></path>
                    <path d="M131.04,94.9 L128.33,87.78 C124.48,89.25 122.99,91.64 123.73,93.6 C124.47,95.56 127.19,96.36 131.04,94.9 Z" id="Shape" stroke="#F5EFC1" stroke-width="1.5" stroke-linecap="round"></path>
                    <path d="M106.69,121.36 C109.096472,120.438431 110.919953,118.425545 111.6,115.94 L95.9,112.35 C95.370242,115.213628 96.4264377,118.140322 98.6628153,120.005697 C100.899193,121.871072 103.967903,122.384985 106.69,121.35 L106.69,121.36 Z" id="Shape" fill="#15353B" fill-rule="nonzero"></path>
                    <path d="M111.33,110.96 C110.047342,107.581251 106.672451,105.469338 103.072948,105.792968 C99.4734452,106.116597 96.529396,108.796642 95.87,112.35 L111.57,115.94 C112.022524,114.296816 111.938439,112.552054 111.33,110.96 Z" id="Shape" fill="#1D4649" fill-rule="nonzero"></path>
                    <circle id="Oval" stroke="#F5EFC1" stroke-width="1.5" transform="translate(103.762663, 113.792953) rotate(-65.840000) translate(-103.762663, -113.792953) " cx="103.762663" cy="113.792953" r="5.7"></circle>
                    <path d="M102.74,116.18 L104.86,111.47" id="Shape" stroke="#F5EFC1" stroke-width="0.75" stroke-linecap="round"></path>
                    <path d="M101.44,112.77 L106.16,114.89" id="Shape" stroke="#F5EFC1" stroke-width="0.75" stroke-linecap="round"></path>
                    <path d="M104.35,115.29 C104.949696,115.072399 105.358094,114.513551 105.383263,113.876094 C105.408432,113.238636 105.045367,112.649329 104.464694,112.385123 C103.884021,112.120916 103.20121,112.23435 102.737153,112.672114 C102.273096,113.109877 102.120074,113.78492 102.35,114.38 C102.653716,115.181029 103.546557,115.587271 104.35,115.29 L104.35,115.29 Z" id="Shape" stroke="#F5EFC1" stroke-width="0.75" fill="#03292C" fill-rule="nonzero"></path>
                    <circle id="Oval" fill="#15353B" fill-rule="nonzero" transform="translate(43.037769, 136.936984) rotate(-11.300000) translate(-43.037769, -136.936984) " cx="43.0377694" cy="136.936984" r="8.06"></circle>
                    <circle id="Oval" stroke="#F5EFC1" stroke-width="1.5" transform="translate(43.036422, 136.919442) rotate(-13.850000) translate(-43.036422, -136.919442) " cx="43.0364222" cy="136.919442" r="5.7"></circle>
                    <path d="M41.98,139.31 L44.09,134.6" id="Shape" stroke="#F5EFC1" stroke-width="0.75" stroke-linecap="round"></path>
                    <path d="M40.68,135.9 L45.39,138.01" id="Shape" stroke="#F5EFC1" stroke-width="0.75" stroke-linecap="round"></path>
                    <path d="M43.59,138.42 C44.1896963,138.202399 44.598094,137.643551 44.623263,137.006094 C44.648432,136.368636 44.2853672,135.779329 43.7046942,135.515123 C43.1240213,135.250916 42.4412096,135.36435 41.9771527,135.802114 C41.5130958,136.239877 41.3600735,136.91492 41.59,137.51 C41.8979593,138.307039 42.7867778,138.711451 43.59,138.42 Z" id="Shape" stroke="#F5EFC1" stroke-width="0.75" fill="#03292C" fill-rule="nonzero"></path>
                    <path d="M41.23,48.87 L51.11,47.28 C51.9562995,47.1426114 52.7132523,46.6743839 53.2140745,45.9784849 C53.7148967,45.2825858 53.9184917,44.4161197 53.78,43.57 L53.78,43.57 L37.52,46.17 C37.6502781,47.0217957 38.115514,47.7862226 38.81224,48.2932739 C39.5089661,48.8003252 40.3794147,49.0079597 41.23,48.87 L41.23,48.87 Z" id="Shape" fill="#DADC38" fill-rule="nonzero"></path>
                    <rect id="Rectangle-path" fill="#14353B" fill-rule="nonzero" transform="translate(45.675984, 45.074480) rotate(-9.180000) translate(-45.675984, -45.074480) " x="37.4409842" y="43.4594804" width="16.47" height="3.23"></rect>
                    <polygon id="Shape" fill="#1D4649" fill-rule="nonzero" points="50.3 41.02 39.53 42.9 38.58 44.5 52.08 42.31"></polygon>
                    <path d="M37.29,44.74 C37.29,44.74 16.63,47.64 10.29,51.05 L10.29,54.24 C10.29,54.24 17.66,49.07 37.59,46.65 L37.29,44.74 Z" id="Shape" fill="#14353B" fill-rule="nonzero"></path>
                    <path d="M10.3,40.72 L6.49,40.72 L6.49,139.72 C7.62,142.72 8.9,145.59 10.3,148.42 L10.3,40.72 Z" id="Shape" fill="#14353B" fill-rule="nonzero"></path>
                    <rect id="Rectangle-path" fill="#1D4649" fill-rule="nonzero" x="6.49" y="48.64" width="3.81" height="8.22"></rect>
                    <rect id="Rectangle-path" fill="#1D4649" fill-rule="nonzero" x="5.32" y="76.22" width="6.16" height="2.05"></rect>
                    <rect id="Rectangle-path" fill="#DADC38" fill-rule="nonzero" x="5.32" y="112.31" width="6.16" height="1.76"></rect>
                    <rect id="Rectangle-path" fill="#1D4649" fill-rule="nonzero" x="5.32" y="112.16" width="6.16" height="2.05"></rect>
                </g>
            </g>
        </g>
    </g>
</svg>