<?xml version="1.0" encoding="UTF-8"?>
<svg width="221px" height="420px" viewBox="0 0 221 420" version="1.1" xmlns="http://www.w3.org/2000/svg" xmlns:xlink="http://www.w3.org/1999/xlink">
    <!-- Generator: Sketch 46.2 (44496) - http://www.bohemiancoding.com/sketch -->
    <title>VELO</title>
    <desc>Created with Sketch.</desc>
    <defs></defs>
    <g id="Page-1" stroke="none" stroke-width="1" fill="none" fill-rule="evenodd">
        <g id="ECRAN-12-BIS" transform="translate(-74.000000, -188.000000)">
            <g id="PICTOS" transform="translate(74.000000, 188.000000)">
                <g id="VELO">
                    <rect id="Rectangle-path" fill="#B9DFE1" fill-rule="nonzero" x="0" y="0" width="220.6" height="420" rx="110.3"></rect>
                    <ellipse id="Ombre-pictos" fill="#D4EAEC" fill-rule="nonzero" opacity="0.97" cx="110.97" cy="149.82" rx="71.81" ry="11.04"></ellipse>
                    <circle id="Oval" fill="#EB5F62" fill-rule="nonzero" cx="148.41" cy="131.86" r="6.29"></circle>
                    <circle id="Oval" fill="#AD115B" fill-rule="nonzero" cx="148.41" cy="131.86" r="5.72"></circle>
                    <circle id="Oval" fill="#EB5E61" fill-rule="nonzero" cx="75.98" cy="131.86" r="5.72"></circle>
                    <circle id="Oval" stroke="#1C4649" stroke-width="1.32" stroke-linecap="round" cx="148.41" cy="131.86" r="19.68"></circle>
                    <circle id="Oval" stroke="#1C4649" stroke-width="1.32" fill="#DADC36" fill-rule="nonzero" stroke-linecap="round" cx="148.41" cy="131.86" r="5.72"></circle>
                    <circle id="Oval" stroke="#1C4649" stroke-width="1.32" stroke-linecap="round" cx="75.98" cy="131.86" r="19.68"></circle>
                    <circle id="Oval" stroke="#1C4649" stroke-width="1.32" fill="#DADC36" fill-rule="nonzero" stroke-linecap="round" cx="75.98" cy="131.86" r="5.72"></circle>
                    <circle id="Oval" stroke="#1C4649" stroke-width="1.32" stroke-linecap="round" cx="116.54" cy="136.5" r="5.58"></circle>
                    <path d="M79.52,98.53 C74.6626556,98.53 70.725,94.5923444 70.725,89.735 C70.725,84.8776556 74.6626556,80.94 79.52,80.94 L94.52,80.94 L85.74,119.62 L79.74,127.49" id="Shape" stroke="#1C4649" stroke-width="1.32" stroke-linecap="round"></path>
                    <polyline id="Shape" stroke="#1C4649" stroke-width="1.32" stroke-linecap="round" points="90.77 97.31 128.72 97.31 145.94 126.7"></polyline>
                    <path d="M89.72,101.91 L113.45,131.86" id="Shape" stroke="#1C4649" stroke-width="1.32" stroke-linecap="round"></path>
                    <path d="M118.35,130.93 L134.11,80.97" id="Shape" stroke="#1C4649" stroke-width="1.32" stroke-linecap="round"></path>
                    <path d="M124.85,80.97 L142.69,80.97" id="Shape" stroke="#1C4649" stroke-width="1.32" stroke-linecap="round"></path>
                    <path d="M122.12,135.32 L142.69,131.86" id="Shape" stroke="#1C4649" stroke-width="1.32" stroke-linecap="round"></path>
                    <path d="M116.54,142.08 L116.54,147.82" id="Shape" stroke="#1C4649" stroke-width="1.32" stroke-linecap="round"></path>
                    <path d="M112.86,147.82 L120.13,147.82" id="Shape" stroke="#1C4649" stroke-width="1.32" stroke-linecap="round"></path>
                </g>
            </g>
        </g>
    </g>
</svg>