<?xml version="1.0" encoding="UTF-8"?>
<svg width="213px" height="244px" viewBox="0 0 213 244" version="1.1" xmlns="http://www.w3.org/2000/svg" xmlns:xlink="http://www.w3.org/1999/xlink">
    <!-- Generator: sketchtool 46.2 (44496) - http://www.bohemiancoding.com/sketch -->
    <title>8CEAE5C1-4F17-4836-B52A-825F9568AB3E@2x</title>
    <desc>Created with sketchtool.</desc>
    <defs>
        <linearGradient x1="36450%" y1="3911%" x2="36541%" y2="24370%" id="linearGradient-1">
            <stop stop-color="#B9E0E1" offset="27%"></stop>
            <stop stop-color="#D5EBEC" offset="83%"></stop>
        </linearGradient>
    </defs>
    <g id="Page-1" stroke="none" stroke-width="1" fill="none" fill-rule="evenodd">
        <g id="Desktop-Copy-8" transform="translate(-447.000000, -224.000000)">
            <g id="differente_typos_ecrann" transform="translate(183.000000, 224.000000)">
                <g id="VILLE" transform="translate(264.000000, 0.000000)">
                    <circle id="Oval" fill="url(#linearGradient-1)" fill-rule="nonzero" cx="100.96" cy="142.66" r="100.83"></circle>
                    <rect id="Rectangle-path" fill="#0D6F73" fill-rule="nonzero" x="72.62" y="0" width="16.7" height="45.23"></rect>
                    <rect id="Rectangle-path" stroke="#0C9E92" stroke-width="0.75" fill="#0D6F73" fill-rule="nonzero" x="73.02" y="45.23" width="16.3" height="2.87"></rect>
                    <rect id="Rectangle-path" fill="#0C9E92" fill-rule="nonzero" x="89.32" y="45.23" width="16.3" height="3.01"></rect>
                    <rect id="Rectangle-path" fill="#0C9E92" fill-rule="nonzero" x="89.32" y="0" width="16.3" height="45.23"></rect>
                    <rect id="Rectangle-path" fill="#183D42" fill-rule="nonzero" x="105.62" y="24.25" width="36.97" height="20.98"></rect>
                    <rect id="Rectangle-path" fill="#0D6F73" fill-rule="nonzero" x="105.62" y="45.23" width="36.97" height="2.87"></rect>
                    <rect id="Rectangle-path" fill="#183D42" fill-rule="nonzero" x="58.83" y="24.25" width="13.78" height="20.98"></rect>
                    <rect id="Rectangle-path" fill="#0D6F73" fill-rule="nonzero" x="58.83" y="45.23" width="13.78" height="2.87"></rect>
                    <rect id="Rectangle-path" fill="#0C9E92" fill-rule="nonzero" x="59.16" y="37.85" width="83.6" height="7.38"></rect>
                    <rect id="Rectangle-path" fill="#183D42" fill-rule="nonzero" x="59.16" y="45.23" width="83.6" height="2.87"></rect>
                    <path d="M151.49,229.81 L151.49,48.06 L50.43,48.06 L50.43,230.36 C63.1,237.79 79.62,243.53 100.69,243.53 C118.542341,243.557234 136.078703,238.821036 151.49,229.81 Z" id="Shape" fill="#0D6F73" fill-rule="nonzero"></path>
                    <path d="M151.49,229.81 L151.49,48.06 L50.43,48.06 L50.43,230.36 C63.1,237.79 79.62,243.53 100.69,243.53 C118.542341,243.557234 136.078703,238.821036 151.49,229.81 Z" id="Shape" fill="#0C9E92" fill-rule="nonzero"></path>
                    <path d="M98.76,48.06 L50.43,48.06 L50.43,230.36 C62.7,237.56 78.62,243.15 98.76,243.49 L98.76,48.06 Z" id="Shape" fill="#0D6F73" fill-rule="nonzero"></path>
                    <rect id="Rectangle-path" fill="#35B9EB" fill-rule="nonzero" x="116.04" y="51.84" width="9.44" height="9.44"></rect>
                    <rect id="Rectangle-path" stroke="#F5EFC1" stroke-width="0.71" fill="#D5EBEC" fill-rule="nonzero" x="116.04" y="51.84" width="9.44" height="9.44"></rect>
                    <rect id="Rectangle-path" fill="#35B9EB" fill-rule="nonzero" x="102.74" y="51.84" width="9.44" height="9.44"></rect>
                    <rect id="Rectangle-path" stroke="#F5EFC1" stroke-width="0.71" fill="#D5EBEC" fill-rule="nonzero" x="102.74" y="51.84" width="9.44" height="9.44"></rect>
                    <rect id="Rectangle-path" fill="#15353B" fill-rule="nonzero" x="89.44" y="51.84" width="9.44" height="9.44"></rect>
                    <rect id="Rectangle-path" fill="#15353B" fill-rule="nonzero" x="76.14" y="51.84" width="9.44" height="9.44"></rect>
                    <rect id="Rectangle-path" fill="#35B9EB" fill-rule="nonzero" x="62.84" y="51.84" width="9.44" height="9.44"></rect>
                    <rect id="Rectangle-path" fill="#15353B" fill-rule="nonzero" x="62.84" y="51.84" width="9.44" height="9.44"></rect>
                    <rect id="Rectangle-path" stroke="#F5EFC1" stroke-width="0.71" fill="#D5EBEC" fill-rule="nonzero" x="129.34" y="51.84" width="9.44" height="9.44"></rect>
                    <rect id="Rectangle-path" fill="#35B9EB" fill-rule="nonzero" x="116.04" y="66.82" width="9.44" height="9.44"></rect>
                    <rect id="Rectangle-path" stroke="#F5EFC1" stroke-width="0.71" fill="#D5EBEC" fill-rule="nonzero" x="116.04" y="66.82" width="9.44" height="9.44"></rect>
                    <rect id="Rectangle-path" fill="#35B9EB" fill-rule="nonzero" x="102.74" y="66.82" width="9.44" height="9.44"></rect>
                    <rect id="Rectangle-path" stroke="#F5EFC1" stroke-width="0.71" fill="#D5EBEC" fill-rule="nonzero" x="102.74" y="66.82" width="9.44" height="9.44"></rect>
                    <rect id="Rectangle-path" fill="#15353B" fill-rule="nonzero" x="89.44" y="66.82" width="9.44" height="9.44"></rect>
                    <rect id="Rectangle-path" fill="#35B9EB" fill-rule="nonzero" x="76.14" y="66.82" width="9.44" height="9.44"></rect>
                    <rect id="Rectangle-path" fill="#15353B" fill-rule="nonzero" x="76.14" y="66.82" width="9.44" height="9.44"></rect>
                    <rect id="Rectangle-path" fill="#35B9EB" fill-rule="nonzero" x="62.84" y="66.82" width="9.44" height="9.44"></rect>
                    <rect id="Rectangle-path" fill="#15353B" fill-rule="nonzero" x="62.84" y="66.82" width="9.44" height="9.44"></rect>
                    <rect id="Rectangle-path" stroke="#F5EFC1" stroke-width="0.71" fill="#D5EBEC" fill-rule="nonzero" x="129.34" y="66.82" width="9.44" height="9.44"></rect>
                    <rect id="Rectangle-path" stroke="#F5EFC1" stroke-width="0.71" fill="#D5EBEC" fill-rule="nonzero" x="116.04" y="81.8" width="9.44" height="9.44"></rect>
                    <rect id="Rectangle-path" fill="#0C9E92" fill-rule="nonzero" x="102.74" y="81.8" width="9.44" height="9.44"></rect>
                    <rect id="Rectangle-path" stroke="#F5EFC1" stroke-width="0.71" fill="#D5EBEC" fill-rule="nonzero" x="102.74" y="81.8" width="9.44" height="9.44"></rect>
                    <rect id="Rectangle-path" fill="#15353B" fill-rule="nonzero" x="89.44" y="81.8" width="9.44" height="9.44"></rect>
                    <rect id="Rectangle-path" fill="#15353B" fill-rule="nonzero" x="76.14" y="81.8" width="9.44" height="9.44"></rect>
                    <rect id="Rectangle-path" fill="#15353B" fill-rule="nonzero" x="62.84" y="81.8" width="9.44" height="9.44"></rect>
                    <rect id="Rectangle-path" stroke="#F5EFC1" stroke-width="0.71" fill="#D5EBEC" fill-rule="nonzero" x="129.34" y="81.8" width="9.44" height="9.44"></rect>
                    <rect id="Rectangle-path" fill="#35B9EB" fill-rule="nonzero" x="102.62" y="96.78" width="9.44" height="9.44"></rect>
                    <rect id="Rectangle-path" stroke="#F5EFC1" stroke-width="0.71" fill="#D5EBEC" fill-rule="nonzero" x="102.62" y="96.78" width="9.44" height="9.44"></rect>
                    <rect id="Rectangle-path" fill="#15353B" fill-rule="nonzero" x="89.32" y="96.78" width="9.44" height="9.44"></rect>
                    <rect id="Rectangle-path" fill="#35B9EB" fill-rule="nonzero" x="76.02" y="96.78" width="9.44" height="9.44"></rect>
                    <rect id="Rectangle-path" fill="#15353B" fill-rule="nonzero" x="76.02" y="96.78" width="9.44" height="9.44"></rect>
                    <rect id="Rectangle-path" fill="#35B9EB" fill-rule="nonzero" x="62.72" y="96.78" width="9.44" height="9.44"></rect>
                    <rect id="Rectangle-path" fill="#15353B" fill-rule="nonzero" x="62.72" y="96.78" width="9.44" height="9.44"></rect>
                    <rect id="Rectangle-path" stroke="#F5EFC1" stroke-width="0.71" fill="#D5EBEC" fill-rule="nonzero" x="129.76" y="96.78" width="9.44" height="9.44"></rect>
                    <rect id="Rectangle-path" stroke="#F5EFC1" stroke-width="0.71" fill="#D5EBEC" fill-rule="nonzero" x="115.92" y="96.78" width="9.44" height="9.44"></rect>
                    <rect id="Rectangle-path" fill="#35B9EB" fill-rule="nonzero" x="102.62" y="111.76" width="9.44" height="9.44"></rect>
                    <rect id="Rectangle-path" stroke="#F5EFC1" stroke-width="0.71" fill="#D5EBEC" fill-rule="nonzero" x="102.62" y="111.76" width="9.44" height="9.44"></rect>
                    <rect id="Rectangle-path" fill="#35B9EB" fill-rule="nonzero" x="89.32" y="111.76" width="9.44" height="9.44"></rect>
                    <rect id="Rectangle-path" fill="#15353B" fill-rule="nonzero" x="89.32" y="111.76" width="9.44" height="9.44"></rect>
                    <rect id="Rectangle-path" fill="#15353B" fill-rule="nonzero" x="76.02" y="111.76" width="9.44" height="9.44"></rect>
                    <rect id="Rectangle-path" fill="#35B9EB" fill-rule="nonzero" x="62.72" y="111.76" width="9.44" height="9.44"></rect>
                    <rect id="Rectangle-path" fill="#15353B" fill-rule="nonzero" x="62.72" y="111.76" width="9.44" height="9.44"></rect>
                    <rect id="Rectangle-path" stroke="#F5EFC1" stroke-width="0.71" fill="#D5EBEC" fill-rule="nonzero" x="129.76" y="111.76" width="9.44" height="9.44"></rect>
                    <rect id="Rectangle-path" fill="#D5EBEC" fill-rule="nonzero" x="115.92" y="111.76" width="9.44" height="9.44"></rect>
                    <rect id="Rectangle-path" fill="#35B9EB" fill-rule="nonzero" x="102.62" y="126.74" width="9.44" height="9.44"></rect>
                    <rect id="Rectangle-path" stroke="#F5EFC1" stroke-width="0.71" fill="#D5EBEC" fill-rule="nonzero" x="102.62" y="126.74" width="9.44" height="9.44"></rect>
                    <rect id="Rectangle-path" fill="#15353B" fill-rule="nonzero" x="89.32" y="126.74" width="9.44" height="9.44"></rect>
                    <rect id="Rectangle-path" fill="#15353B" fill-rule="nonzero" x="76.02" y="126.74" width="9.44" height="9.44"></rect>
                    <rect id="Rectangle-path" fill="#35B9EB" fill-rule="nonzero" x="62.72" y="126.74" width="9.44" height="9.44"></rect>
                    <rect id="Rectangle-path" fill="#15353B" fill-rule="nonzero" x="62.72" y="126.74" width="9.44" height="9.44"></rect>
                    <rect id="Rectangle-path" stroke="#F5EFC1" stroke-width="0.71" fill="#D5EBEC" fill-rule="nonzero" x="129.76" y="126.74" width="9.44" height="9.44"></rect>
                    <rect id="Rectangle-path" stroke="#F5EFC1" stroke-width="0.71" fill="#D5EBEC" fill-rule="nonzero" x="115.92" y="126.74" width="9.44" height="9.44"></rect>
                    <rect id="Rectangle-path" stroke="#F5EFC1" stroke-width="0.71" fill="#D5EBEC" fill-rule="nonzero" x="116.04" y="141.72" width="9.44" height="9.44"></rect>
                    <rect id="Rectangle-path" stroke="#F5EFC1" stroke-width="0.71" fill="#D5EBEC" fill-rule="nonzero" x="102.74" y="141.72" width="9.44" height="9.44"></rect>
                    <rect id="Rectangle-path" fill="#15353B" fill-rule="nonzero" x="89.44" y="141.72" width="9.44" height="9.44"></rect>
                    <rect id="Rectangle-path" fill="#15353B" fill-rule="nonzero" x="76.14" y="141.72" width="9.44" height="9.44"></rect>
                    <rect id="Rectangle-path" fill="#15353B" fill-rule="nonzero" x="62.84" y="141.72" width="9.44" height="9.44"></rect>
                    <rect id="Rectangle-path" stroke="#F5EFC1" stroke-width="0.71" fill="#D5EBEC" fill-rule="nonzero" x="129.34" y="141.72" width="9.44" height="9.44"></rect>
                    <rect id="Rectangle-path" stroke="#F5EFC1" stroke-width="0.71" fill="#D5EBEC" fill-rule="nonzero" x="116.04" y="171.68" width="9.44" height="9.44"></rect>
                    <rect id="Rectangle-path" fill="#35B9EB" fill-rule="nonzero" x="102.74" y="171.68" width="9.44" height="9.44"></rect>
                    <rect id="Rectangle-path" stroke="#F5EFC1" stroke-width="0.71" fill="#D5EBEC" fill-rule="nonzero" x="102.74" y="171.68" width="9.44" height="9.44"></rect>
                    <rect id="Rectangle-path" fill="#35B9EB" fill-rule="nonzero" x="89.44" y="171.68" width="9.44" height="9.44"></rect>
                    <rect id="Rectangle-path" fill="#15353B" fill-rule="nonzero" x="89.44" y="171.68" width="9.44" height="9.44"></rect>
                    <rect id="Rectangle-path" fill="#15353B" fill-rule="nonzero" x="76.14" y="171.68" width="9.44" height="9.44"></rect>
                    <rect id="Rectangle-path" fill="#15353B" fill-rule="nonzero" x="62.84" y="171.68" width="9.44" height="9.44"></rect>
                    <rect id="Rectangle-path" stroke="#F5EFC1" stroke-width="0.71" fill="#D5EBEC" fill-rule="nonzero" x="129.34" y="171.68" width="9.44" height="9.44"></rect>
                    <rect id="Rectangle-path" fill="#35B9EB" fill-rule="nonzero" x="116.04" y="186.67" width="9.44" height="9.44"></rect>
                    <rect id="Rectangle-path" stroke="#F5EFC1" stroke-width="0.71" fill="#D5EBEC" fill-rule="nonzero" x="116.04" y="186.67" width="9.44" height="9.44"></rect>
                    <rect id="Rectangle-path" fill="#35B9EB" fill-rule="nonzero" x="102.74" y="186.67" width="9.44" height="9.44"></rect>
                    <rect id="Rectangle-path" stroke="#F5EFC1" stroke-width="0.71" fill="#D5EBEC" fill-rule="nonzero" x="102.74" y="186.67" width="9.44" height="9.44"></rect>
                    <rect id="Rectangle-path" fill="#35B9EB" fill-rule="nonzero" x="89.44" y="186.67" width="9.44" height="9.44"></rect>
                    <rect id="Rectangle-path" fill="#15353B" fill-rule="nonzero" x="89.44" y="186.67" width="9.44" height="9.44"></rect>
                    <rect id="Rectangle-path" fill="#35B9EB" fill-rule="nonzero" x="76.14" y="186.67" width="9.44" height="9.44"></rect>
                    <rect id="Rectangle-path" fill="#15353B" fill-rule="nonzero" x="76.14" y="186.67" width="9.44" height="9.44"></rect>
                    <rect id="Rectangle-path" fill="#15353B" fill-rule="nonzero" x="62.84" y="186.67" width="9.44" height="9.44"></rect>
                    <rect id="Rectangle-path" stroke="#F5EFC1" stroke-width="1.13" fill="#0C9E92" fill-rule="nonzero" x="129.34" y="186.67" width="9.44" height="9.44"></rect>
                    <rect id="Rectangle-path" stroke="#F5EFC1" stroke-width="1.13" fill="#D5EBEC" fill-rule="nonzero" x="129.34" y="186.67" width="9.44" height="9.44"></rect>
                    <rect id="Rectangle-path" stroke="#F5EFC1" stroke-width="0.71" fill="#D5EBEC" fill-rule="nonzero" x="116.04" y="201.65" width="9.44" height="9.44"></rect>
                    <rect id="Rectangle-path" stroke="#F5EFC1" stroke-width="0.71" fill="#D5EBEC" fill-rule="nonzero" x="102.74" y="201.65" width="9.44" height="9.44"></rect>
                    <rect id="Rectangle-path" fill="#15353B" fill-rule="nonzero" x="89.44" y="201.65" width="9.44" height="9.44"></rect>
                    <rect id="Rectangle-path" fill="#15353B" fill-rule="nonzero" x="76.14" y="201.65" width="9.44" height="9.44"></rect>
                    <rect id="Rectangle-path" fill="#15353B" fill-rule="nonzero" x="62.84" y="201.65" width="9.44" height="9.44"></rect>
                    <rect id="Rectangle-path" stroke="#F5EFC1" stroke-width="1.13" fill="#0C9E92" fill-rule="nonzero" x="129.34" y="201.65" width="9.44" height="9.44"></rect>
                    <rect id="Rectangle-path" stroke="#F5EFC1" stroke-width="1.13" fill="#D5EBEC" fill-rule="nonzero" x="129.34" y="201.65" width="9.44" height="9.44"></rect>
                    <rect id="Rectangle-path" stroke="#F5EFC1" stroke-width="1.13" fill="#D5EBEC" fill-rule="nonzero" x="129.35" y="216.63" width="9.44" height="9.44"></rect>
                    <rect id="Rectangle-path" fill="#35B9EB" fill-rule="nonzero" x="116.05" y="216.63" width="9.44" height="9.44"></rect>
                    <rect id="Rectangle-path" stroke="#F5EFC1" stroke-width="0.71" fill="#D5EBEC" fill-rule="nonzero" x="116.05" y="216.63" width="9.44" height="9.44"></rect>
                    <rect id="Rectangle-path" fill="#35B9EB" fill-rule="nonzero" x="102.75" y="216.63" width="9.44" height="9.44"></rect>
                    <rect id="Rectangle-path" stroke="#F5EFC1" stroke-width="0.71" fill="#D5EBEC" fill-rule="nonzero" x="102.75" y="216.63" width="9.44" height="9.44"></rect>
                    <rect id="Rectangle-path" fill="#35B9EB" fill-rule="nonzero" x="89.45" y="216.63" width="9.44" height="9.44"></rect>
                    <rect id="Rectangle-path" fill="#15353B" fill-rule="nonzero" x="89.45" y="216.63" width="9.44" height="9.44"></rect>
                    <rect id="Rectangle-path" fill="#15353B" fill-rule="nonzero" x="76.15" y="216.63" width="9.44" height="9.44"></rect>
                    <rect id="Rectangle-path" fill="#15353B" fill-rule="nonzero" x="63.13" y="216.63" width="9.44" height="9.44"></rect>
                    <path d="M138.79,231.61 L129.34,231.61 L129.34,239.39 C132.544133,238.443901 135.698189,237.33581 138.79,236.07 L138.79,231.61 Z" id="Shape" fill="#35B9EB" fill-rule="nonzero"></path>
                    <path d="M138.79,231.61 L129.34,231.61 L129.34,239.39 C132.544133,238.443901 135.698189,237.33581 138.79,236.07 L138.79,231.61 Z" id="Shape" stroke="#F5EFC1" stroke-width="1.13" fill="#D5EBEC" fill-rule="nonzero"></path>
                    <path d="M125.49,231.61 L116.04,231.61 L116.04,241.05 L122.97,241.05 C123.81,240.863333 124.65,240.663333 125.49,240.45 L125.49,231.61 Z" id="Shape" stroke="#F5EFC1" stroke-width="0.71" fill="#D5EBEC" fill-rule="nonzero"></path>
                    <rect id="Rectangle-path" stroke="#F5EFC1" stroke-width="0.71" fill="#D5EBEC" fill-rule="nonzero" x="102.75" y="231.61" width="9.44" height="9.44"></rect>
                    <rect id="Rectangle-path" fill="#15353B" fill-rule="nonzero" x="89.45" y="231.61" width="9.44" height="9.44"></rect>
                    <polygon id="Shape" fill="#15353B" fill-rule="nonzero" points="85.59 241.05 85.59 231.61 76.14 231.61 76.14 240.68 77.68 241.05"></polygon>
                    <path d="M72.57,231.66 L63.13,231.66 L63.13,236.57 C66.2182964,237.795976 69.3693797,238.857464 72.57,239.75 L72.57,231.66 Z" id="Shape" fill="#15353B" fill-rule="nonzero"></path>
                    <rect id="Rectangle-path" fill="#35B9EB" fill-rule="nonzero" x="116.04" y="156.7" width="9.44" height="9.44"></rect>
                    <rect id="Rectangle-path" stroke="#F5EFC1" stroke-width="0.71" fill="#D5EBEC" fill-rule="nonzero" x="116.04" y="156.7" width="9.44" height="9.44"></rect>
                    <rect id="Rectangle-path" fill="#35B9EB" fill-rule="nonzero" x="102.74" y="156.7" width="9.44" height="9.44"></rect>
                    <rect id="Rectangle-path" stroke="#F5EFC1" stroke-width="0.71" fill="#D5EBEC" fill-rule="nonzero" x="102.74" y="156.7" width="9.44" height="9.44"></rect>
                    <rect id="Rectangle-path" fill="#35B9EB" fill-rule="nonzero" x="89.44" y="156.7" width="9.44" height="9.44"></rect>
                    <rect id="Rectangle-path" fill="#15353B" fill-rule="nonzero" x="89.44" y="156.7" width="9.44" height="9.44"></rect>
                    <rect id="Rectangle-path" fill="#35B9EB" fill-rule="nonzero" x="76.14" y="156.7" width="9.44" height="9.44"></rect>
                    <rect id="Rectangle-path" fill="#15353B" fill-rule="nonzero" x="76.14" y="156.7" width="9.44" height="9.44"></rect>
                    <rect id="Rectangle-path" fill="#15353B" fill-rule="nonzero" x="62.84" y="156.7" width="9.44" height="9.44"></rect>
                    <rect id="Rectangle-path" stroke="#F5EFC1" stroke-width="0.71" fill="#D5EBEC" fill-rule="nonzero" x="129.34" y="156.7" width="9.44" height="9.44"></rect>
                    <path d="M201.69,153.31 L210.21,151.94 C211.720058,151.684617 212.744759,150.263401 212.51,148.75 L198.51,151.01 C198.62542,151.737319 199.025708,152.38874 199.622412,152.820318 C200.219115,153.251896 200.963112,153.428102 201.69,153.31 L201.69,153.31 Z" id="Shape" fill="#DBDD42" fill-rule="nonzero"></path>
                    <rect id="Rectangle-path" fill="#14353B" fill-rule="nonzero" transform="translate(205.479708, 150.019243) rotate(-9.180000) translate(-205.479708, -150.019243) " x="198.389708" y="148.629243" width="14.18" height="2.78"></rect>
                    <polygon id="Shape" fill="#1D4649" fill-rule="nonzero" points="209.47 146.55 200.2 148.17 199.37 149.54 211 147.66"></polygon>
                    <path d="M198.26,149.75 C198.26,149.75 180.47,152.25 175.02,155.18 L175.02,157.93 C175.02,157.93 181.37,153.49 198.53,151.4 L198.26,149.75 Z" id="Shape" fill="#1D4649" fill-rule="nonzero"></path>
                    <path d="M175.02,146.29 L171.74,146.29 L171.74,214.23 C172.86,213.12 173.96,211.97 175.02,210.81 L175.02,146.29 Z" id="Shape" fill="#14353B" fill-rule="nonzero"></path>
                    <rect id="Rectangle-path" fill="#1D4649" fill-rule="nonzero" x="171.74" y="153.11" width="3.28" height="7.07"></rect>
                    <rect id="Rectangle-path" fill="#1D4649" fill-rule="nonzero" x="170.73" y="176.86" width="5.31" height="1.77"></rect>
                    <rect id="Rectangle-path" x="170.73" y="207.94" width="5.31" height="1.52"></rect>
                    <rect id="Rectangle-path" fill="#1D4649" fill-rule="nonzero" x="170.73" y="207.81" width="5.31" height="1.77"></rect>
                    <g id="arbre_8" transform="translate(136.000000, 171.000000)">
                        <g id="arbre8">
                            <path d="M8.8,25.77 C9.42048512,25.944885 10.051865,26.0785104 10.69,26.17 C11.7857533,30.6132719 15.7736125,33.7342052 20.35,33.73 L21.17,33.73 C21.3546382,33.7443065 21.5399821,33.7134159 21.71,33.64 C24.0743807,33.3156044 26.2431264,32.1513677 27.82,30.36 C26.4958378,30.9326311 25.1238875,31.3877171 23.72,31.72 C23.5604751,31.8369656 23.3678108,31.9000193 23.17,31.9 L22.44,31.9 C18.4070366,31.8956152 14.8870998,29.1651969 13.88,25.26 C11.5549274,25.0309426 9.41835067,23.8805241 7.9472023,22.0655441 C6.47605393,20.2505641 5.79281501,17.9221296 6.05,15.6 C6.52757575,11.1226674 10.2874097,7.71558674 14.79,7.68 C15.6240188,7.66700778 16.4546774,7.78856757 17.25,8.04 C18.4394121,5.40083766 20.8039842,3.47730645 23.63,2.85 C24.2004178,2.74036485 24.7792302,2.6801416 25.36,2.67 C28.3199927,2.65238749 31.0900729,4.12575441 32.73,6.59 C31.1052117,3.01561728 27.556168,0.706788895 23.63,0.67 C22.9865952,0.685317475 22.3450405,0.745463229 21.71,0.85 C18.4641262,1.46026859 15.7348453,3.64594274 14.43,6.68 C10.9179141,5.33185783 6.94637841,6.0688487 4.15181048,8.58730548 C1.35724256,11.1057623 0.212542323,14.9795089 1.18936805,18.6124204 C2.16619378,22.2453319 5.09924594,25.0226429 8.78,25.8 L8.8,25.77 Z" id="Shape" fill="#94B635" fill-rule="nonzero"></path>
                            <path d="M13.81,25.32 C14.7911241,29.2436439 18.3255956,31.9894658 22.37,31.97 L23.1,31.97 C23.2568212,31.9854292 23.4144732,31.9503955 23.55,31.87 C24.952114,31.5314903 26.3235382,31.0765788 27.65,30.51 C27.857741,30.2860536 28.0420332,30.0414476 28.2,29.78 C33.2397351,31.8434308 39.0015086,29.4674535 41.1218885,24.4514127 C43.2422683,19.4353719 40.931703,13.647057 35.94,11.47 C35.1703076,11.0831608 34.3368039,10.8392085 33.48,10.75 C33.47482,9.34312038 33.196326,7.95065042 32.66,6.65 C31.0474116,4.15578563 28.2595612,2.672967 25.29,2.73 C24.7065523,2.74993689 24.1251735,2.81007952 23.55,2.91 C20.6974618,3.4767771 18.3114346,5.42080871 17.18,8.1 C16.3752647,7.89221839 15.5505289,7.77152536 14.72,7.74 C9.84561018,7.7455109 5.8955109,11.6956102 5.89,16.57 C5.86009141,21.0997125 9.29971975,24.899807 13.81,25.32 Z" id="Shape" fill="#D9DB3A" fill-rule="nonzero"></path>
                            <polyline id="Shape" stroke="#F5EFC0" stroke-width="1.5" points="21.65 55.05 21.65 28.69 21.65 9.93"></polyline>
                            <path d="M21.65,23.86 L14.09,16.39" id="Shape" stroke="#F5EFC0" stroke-width="1.5"></path>
                            <path d="M34.94,20.04 L21.65,31.06" id="Shape" stroke="#F5EFC0" stroke-width="1.5"></path>
                        </g>
                    </g>
                    <g id="arbre" transform="translate(5.000000, 112.000000)">
                        <g id="Arbre-3">
                            <path d="M15.69,0.85 C15.6867277,0.899252768 15.6653572,0.945555638 15.63,0.98 L15.63,86.11 L15.69,86.11 C50.97,86.11 15.69,0.85 15.69,0.85 Z" id="Shape" fill="#AC125B" fill-rule="nonzero"></path>
                            <path d="M15.61,86.11 C15.67,72.11 0.21,59.9 6.39,35.29 C11.28,16 14.18,9.7 15.17,2.03 C11.09,12.29 -17.04,85.92 15.61,86.11 Z" id="Shape" fill="#511123" fill-rule="nonzero"></path>
                            <path d="M15.61,0.98 C15.54,1.16 15.36,1.53 15.17,2.03 C14.17,9.7 11.28,16.03 6.39,35.29 C0.21,59.9 15.61,72.07 15.61,86.05 L15.61,0.98 Z" id="Shape" fill="#AC125B" fill-rule="nonzero"></path>
                            <path d="M15.61,93.47 L15.61,0.98" id="Shape" stroke="#F5EFC0" stroke-width="1.5"></path>
                        </g>
                    </g>
                    <path d="M30.11,189.91 C25.51,189.91 36.11,205.86 32.11,205.86 C28.11,205.86 39.91,221.02 39.91,221.02 C39.91,195.02 29.64,194.57 33.03,190.61 C36.42,186.65 30.14,178.14 33.03,175.79 C35.92,173.44 32.49,158.44 35.03,157.54 C37.57,156.64 35.03,145.43 39.92,141.75 C28.11,141.75 37.74,155.87 31.74,155.85 C25.74,155.83 34.39,174.85 29.5,174.85 C24.61,174.85 34.69,189.91 30.11,189.91 Z" id="Shape" fill="#94B635" fill-rule="nonzero"></path>
                    <path d="M33.05,190.61 C29.66,194.61 39.93,195.04 39.93,221.02 C39.93,221.02 51.73,205.86 47.72,205.86 C43.71,205.86 54.35,189.91 49.72,189.91 C45.09,189.91 55.22,174.85 50.32,174.85 C45.42,174.85 54.08,155.85 48.08,155.85 C42.08,155.85 51.71,141.75 39.91,141.75 C35.02,145.43 37.55,156.63 35.02,157.54 C32.49,158.45 35.92,173.44 33.02,175.79 C30.12,178.14 36.45,186.64 33.05,190.61 Z" id="Shape" fill="#D9DB3A" fill-rule="nonzero"></path>
                    <path d="M39.93,223.16 L39.93,141.75" id="Shape" stroke="#F5EFC1" stroke-width="1.5" stroke-linecap="round"></path>
                </g>
            </g>
        </g>
    </g>
</svg>