<?xml version="1.0" encoding="UTF-8"?>
<svg width="605px" height="193px" viewBox="0 0 605 193" version="1.1" xmlns="http://www.w3.org/2000/svg" xmlns:xlink="http://www.w3.org/1999/xlink">
    <!-- Generator: Sketch 46.2 (44496) - http://www.bohemiancoding.com/sketch -->
    <title>Bulle 2</title>
    <desc>Created with Sketch.</desc>
    <defs></defs>
    <g id="Page-1" stroke="none" stroke-width="1" fill="none" fill-rule="evenodd">
        <g id="Ecran-2-bis" transform="translate(-921.000000, -342.000000)">
            <g id="Bulle-2" transform="translate(921.000000, 342.000000)">
                <path d="M23.4146341,138.47133 C23.4146341,139.531228 23.5414634,162.940749 23.5414634,162.940749 C23.5414634,175.784938 13.8985366,186.83663 0,191.974 C18.1521951,191.712466 35.084878,187.564641 49.5180488,180.547596 C61.1356098,187.714525 75.777561,192 91.7073171,192 C129.42439,192 160,168.033765 160,138.469801 C160,108.905837 129.42439,88 91.7073171,88 C53.9902439,88 23.4146341,108.907366 23.4146341,138.47133 Z" id="Bulle" fill="#54778B"></path>
                <rect id="Rectangle-arrondi" fill="#54778B" x="24" y="0" width="581" height="193" rx="17"></rect>
                <text id="Et-si-on-lâchait-les" font-family="Lato-Bold, Lato" font-size="24" font-weight="bold" line-spacing="22" fill="#FFFFFF">
                    <tspan x="165.498" y="57.6119385">Et si on lâchait les freins ?</tspan>
                    <tspan x="316.5" y="86"></tspan>
                    <tspan x="45.98" y="108" font-size="16">Rien de plus simple, il vous suffit de sélectionner la longueur idéale que vous </tspan>
                    <tspan x="136.924" y="130" font-size="16">souhaitez parcourir et le thème qui vous fait envie. </tspan>
                    <tspan x="255.48" y="152" font-size="16">Vous êtes prêts ?</tspan>
                </text>
            </g>
        </g>
    </g>
</svg>