<svg xmlns="http://www.w3.org/2000/svg" xmlns:xlink="http://www.w3.org/1999/xlink" viewBox="0 0 1920 1080"><defs><style>.cls-1{fill:none;}.cls-2{fill:#4e687f;}.cls-3{clip-path:url(#clip-path);}.cls-4{fill:#5e7e96;}.cls-5{fill:#f9ca9e;}.cls-6{fill:#fff;}</style><clipPath id="clip-path"><rect class="cls-1" width="1920" height="1080"/></clipPath></defs><title>Fond image</title><g id="Fond"><rect class="cls-2" width="1920" height="1080"/></g><g id="CARTE"><g class="cls-3"><path class="cls-4" d="M304.16-131.56s18,64.7-67.71,90.28h-97.8s-82.76,3-82.76,72.22V218.69c0,13.31.23,27-5.22,39.39-7.54,17.19-23.73,34.45-40,43.78-2.15,1.23-27,10.59-27,8.94V568.09H793.16v695.14h164s19.56-139.93,96.3-167c0,0,33.1-21.06,127.89-18h123.38s22.57,1.5,24.07-18.06c0,0,0-19.56,24.08-19.56,0,0,34.6,6,34.6-27.08V893.09s3-57.18,60.19-57.18h100.81s52.66-4.51,52.66-57.17V726.08s12-54.17,75.23-54.17h103.82s58.68-9,58.68-61.69V456.75s-4.2-54.25,95.8-47.75l54.66-9.42V-157.13H304.16Z"/><path class="cls-5" d="M1277.74,1090.25c-3.75,3.75-10.56-23.48-15.86-23.26-13.36.53-20.55,6.44-31.59,12.55-10.14,5.6-21.91,4.38-31.83-1-5.94-3.19-11.13-7.87-17.52-10-14.48-4.91-23.46,5.52-35.2,11.47a32,32,0,0,1-23.19,1.94c-7.71-2.23-11.16-7.7-17.53-11.6-6.22-3.81-15.21-3.17-22.22-3.49-67.71-3-108.34,46.65-108.34,46.65-33.1,28.58-37.61,117.36-37.61,117.36H77.71V1087.94c0-19.56,22.57-27.08,22.57-27.08h21.06c31,1.62,36.83-32.47,36.59-56.28l-.48-46.9c-.12-11.46-2.61-25.09,3.85-35.31,4.71-7.46,23-16.75,32.7-15.37l28.15,3.39c25.68-11.67,21.07-48.4,21.07-70.71C243.22,815.6,264,811,264,811a32,32,0,0,1,9.88-1.42c18.15,0,36.42,2.12,46-16.72,6-11.79,6.07-25.82,6.07-38.75v-104c0-9-3.8-18.21-11.83-22.81-5.08-2.9-11-4-16.77-4.8-16-2.05-32.07-1.33-48.11-1.27-15,.06-29.9-.26-44.9,1-3.47.3-32.61,2.36-32.61,9.82v53.41c-2.71,12.86-10.16,23.37-23.23,27-16,4.39-35.24,1.71-51.7,1.71-6.2,0-12.5,0-18.41-1.88-9.91-3.13-16.07-12.56-18.36-22.33-3-13,.7-26.11-1.15-39.06-1.74-12.18-8.36-22.91-20.52-26.85-15-4.83-34.52-1.74-50.19-1.74V334.88c0,2,25.89,1.12,29,.78a82.65,82.65,0,0,0,61.17-38.74c12.53-20.61,21-50.5,9-73-3.85-7.2-9.4-12.65-11-21-3.46-17.7,7.87-27.89,14.35-42.83a26.94,26.94,0,0,0-1.43-23.42c-7-12.78-16.9-19.27-12.27-35.71,2.6-9.24,8.67-16.59,12.81-25.06,7.65-15.66,5.71-34.12,14.31-49.45,36-64.14,122-33.65,179.35-51.76,28.17-8.89,50.62-23.23,59.41-53.27a130,130,0,0,0,4.86-29.64c.1-1.94,1.6-11.26.06-12.82-.56-.58-.75-35.36-.75-35.36H1985.57V382.88c0,7.1-3.2,9.51-10.4,9.22-24.83-1-.33-3.06-34.67-3.06-20.77,0-83.59-4.69-102.3,6.75-15.44,9.44-42.92,33.91-24.16,52.69a25.3,25.3,0,0,1,6,10.53c2.69,10.76,2.74,22.67-4.06,32-2.56,3.5-5.88,6.44-8,10.2-8.41,14.59,6,26.9,12.11,39.08,1.71,7.67,2.14,16.13.1,23.81s-8.21,13-11.79,20c-5.06,9.91-2.81,21.42-6.49,31.78A58.74,58.74,0,0,1,1786,639.38c-14.14,12.92-33.67,19.91-52.74,19.87l-62.12-.13c-14.84,0-30.33-1.3-45.13,0-25.62,2.26-46.46,20.08-55,44-8.73,24.36-1,48.55-5.88,73-1.93,9.72-8.29,19.62-15,26.71-14,14.82-34.49,21.08-54.52,20.36-24.8-.9-49.83-.14-74.67-.15-9.29,0-18.75,0-27.65,2.68-29.29,8.75-39.92,38.42-39.77,66.07l.35,64.86.18,32.42c0,8.28,1.37,17.26-2.57,24.92a21.74,21.74,0,0,1-8.59,8.68c-13.85,8-48.15-6.73-48.15,14v52.51S1278.49,1089.5,1277.74,1090.25Z"/><path class="cls-6" d="M359.85-104.47a106.57,106.57,0,0,1-1,18.73C355.89-66.89,347.44-50.13,334.77-36c-28.61,31.86-80.08,24.84-118.28,24.5-26.24-.23-52.45,1.27-74.62,16.89-23.23,16.37-36.08,41.35-36.15,69.47q-.12,53.57-.15,107.13c0,33.64,4.55,71.11-5.61,103.63-9.24,29.55-33.06,49.28-63,55.94-18,4-36.67,3.44-54.89.89,2.72.39.07,115.7.07,123.83V611.73c17-.9,35.07-1.9,52,0,26.63,3,30.15,24.67,30.71,47.34.21,8.52.68,17.18,3.55,25.21,4.94,13.85,15.32,20.76,29.65,20.79l42.9.06c6.31,0,12.81,0,18.67-2.38,10.08-4.08,12.31-14.19,12.22-24.08-.09-10.49-1-21.08.74-31.43,2.68-15.66,14.2-28.93,29.84-32.68,6.06-1.46,12.36-1.45,18.59-1.43,27.82.07,55.54-1.92,83.29,1.24,6.34.72,12.82,1.73,18.38,4.86,13.71,7.74,11.5,25.17,11.5,38.54v101c0,12.36-1.23,24-9.51,33.84-15.89,18.93-38,10.72-58.56,17.33a24.35,24.35,0,0,0-8.74,4.47c-5.82,5.09-5.18,14.84-4.91,21.8.38,9.73.69,19.44.66,29.2A42.68,42.68,0,0,1,237.85,898c-12.65,10.34-27.49,8.24-42.77,8.53-14.36.27-29.35,6.15-29.35,22.67v92.43c0,17.1-11.35,29.19-27.52,33.52-12.35,3.3-25.36.95-37.29,6-12.72,5.37-16.44,19.43-16.44,32.07v117.36H925.56s-4.51-91.83,78.24-126.44c0,0,33.11,4.46,67.71,6L1278,1096s-.36-35.25-.36-60c0,0-1.5-22.57,21.07-22.57,8.2,0,17.37,1.67,25.42-1.3a21.13,21.13,0,0,0,13.7-19.77V867.51s6-57.17,55.67-57.17h99.3c12.31,0,25.33-5.55,34.81-13.05,27.85-22,22.2-54.62,24.54-86.16,3-40.63,30.91-66.3,71.56-66.3H1732c19.29,0,41.15-13.72,50.69-29.83,11.52-19.46,7.75-44,7.83-65.57q.11-34.09.14-68.18,0-17.28,0-34.56c0-18.94,4.6-35.67,16.89-50.32S1837.77,374,1856.92,374h111.34V-130H358.32C358.82-121.58,359.66-113,359.85-104.47Z"/></g></g></svg>