<svg xmlns="http://www.w3.org/2000/svg" xmlns:xlink="http://www.w3.org/1999/xlink" viewBox="0 0 1920 1080"><defs><style>.cls-1{mask:url(#mask);filter:url(#luminosity-noclip-6);}.cls-10,.cls-14,.cls-2,.cls-24,.cls-4,.cls-6,.cls-8{mix-blend-mode:multiply;}.cls-2{fill:url(#_ÂÁ_Ï_ÌÌ_È_ËÂÌÚ_10);}.cls-3{mask:url(#mask-2);filter:url(#luminosity-noclip-7);}.cls-4{fill:url(#_ÂÁ_Ï_ÌÌ_È_ËÂÌÚ_10-2);}.cls-5{mask:url(#mask-3);filter:url(#luminosity-noclip-8);}.cls-6{fill:url(#_ÂÁ_Ï_ÌÌ_È_ËÂÌÚ_10-3);}.cls-7{mask:url(#mask-4);filter:url(#luminosity-noclip-9);}.cls-8{fill:url(#_ÂÁ_Ï_ÌÌ_È_ËÂÌÚ_10-4);}.cls-9{mask:url(#mask-5);filter:url(#luminosity-noclip-10);}.cls-10{fill:url(#_ÂÁ_Ï_ÌÌ_È_ËÂÌÚ_10-5);}.cls-11{isolation:isolate;}.cls-12{fill:#9b5f48;}.cls-13{fill:#803100;}.cls-14{fill:#ad522f;opacity:0.3;}.cls-15{mask:url(#mask-6);}.cls-16{fill:#eeb27a;}.cls-17{mask:url(#mask-7);}.cls-18{opacity:0.6;fill:url(#_ÂÁ_Ï_ÌÌ_È_ËÂÌÚ_76);}.cls-18,.cls-23,.cls-27,.cls-30{mix-blend-mode:overlay;}.cls-19{fill:#7c3549;}.cls-20{fill:url(#_ÂÁ_Ï_ÌÌ_È_ËÂÌÚ_2);}.cls-21{fill:#164759;}.cls-22{mask:url(#mask-8);}.cls-23,.cls-27,.cls-30{opacity:0.7;}.cls-23{fill:url(#_ÂÁ_Ï_ÌÌ_È_ËÂÌÚ_76-2);}.cls-24{fill:#1d4078;opacity:0.2;}.cls-25{fill:url(#_ÂÁ_Ï_ÌÌ_È_ËÂÌÚ_2-2);}.cls-26{mask:url(#mask-9);}.cls-27{fill:url(#_ÂÁ_Ï_ÌÌ_È_ËÂÌÚ_76-3);}.cls-28{fill:url(#_ÂÁ_Ï_ÌÌ_È_ËÂÌÚ_2-3);}.cls-29{mask:url(#mask-10);}.cls-30{fill:url(#_ÂÁ_Ï_ÌÌ_È_ËÂÌÚ_76-4);}.cls-31{filter:url(#luminosity-noclip-5);}.cls-32{filter:url(#luminosity-noclip-4);}.cls-33{filter:url(#luminosity-noclip-3);}.cls-34{filter:url(#luminosity-noclip-2);}.cls-35{filter:url(#luminosity-noclip);}</style><filter id="luminosity-noclip" x="834.32" y="-8890.1" width="334.44" height="32766" filterUnits="userSpaceOnUse" color-interpolation-filters="sRGB"><feFlood flood-color="#fff" result="bg"/><feBlend in="SourceGraphic" in2="bg"/></filter><mask id="mask" x="834.32" y="-8890.1" width="334.44" height="32766" maskUnits="userSpaceOnUse"><g class="cls-35"/></mask><linearGradient id="_ÂÁ_Ï_ÌÌ_È_ËÂÌÚ_10" x1="800.46" y1="911.28" x2="1132.11" y2="916.13" gradientUnits="userSpaceOnUse"><stop offset="0" stop-color="#fff"/><stop offset="0.11" stop-color="#fafafa"/><stop offset="0.24" stop-color="#ececec"/><stop offset="0.38" stop-color="#d4d4d4"/><stop offset="0.53" stop-color="#b2b2b2"/><stop offset="0.69" stop-color="#878787"/><stop offset="0.85" stop-color="#545454"/><stop offset="1" stop-color="#1a1a1a"/></linearGradient><filter id="luminosity-noclip-2" x="805.82" y="-8890.1" width="358.98" height="32766" filterUnits="userSpaceOnUse" color-interpolation-filters="sRGB"><feFlood flood-color="#fff" result="bg"/><feBlend in="SourceGraphic" in2="bg"/></filter><mask id="mask-2" x="805.82" y="-8890.1" width="358.98" height="32766" maskUnits="userSpaceOnUse"><g class="cls-34"/></mask><linearGradient id="_ÂÁ_Ï_ÌÌ_È_ËÂÌÚ_10-2" x1="769.82" y1="1004.6" x2="1125.81" y2="1009.81" xlink:href="#_ÂÁ_Ï_ÌÌ_È_ËÂÌÚ_10"/><filter id="luminosity-noclip-3" x="734.42" y="-8890.1" width="26.77" height="32766" filterUnits="userSpaceOnUse" color-interpolation-filters="sRGB"><feFlood flood-color="#fff" result="bg"/><feBlend in="SourceGraphic" in2="bg"/></filter><mask id="mask-3" x="734.42" y="-8890.1" width="26.77" height="32766" maskUnits="userSpaceOnUse"><g class="cls-33"/></mask><linearGradient id="_ÂÁ_Ï_ÌÌ_È_ËÂÌÚ_10-3" x1="724.89" y1="784.58" x2="759.05" y2="819.31" xlink:href="#_ÂÁ_Ï_ÌÌ_È_ËÂÌÚ_10"/><filter id="luminosity-noclip-4" x="1358.33" y="-8890.1" width="26.77" height="32766" filterUnits="userSpaceOnUse" color-interpolation-filters="sRGB"><feFlood flood-color="#fff" result="bg"/><feBlend in="SourceGraphic" in2="bg"/></filter><mask id="mask-4" x="1358.33" y="-8890.1" width="26.77" height="32766" maskUnits="userSpaceOnUse"><g class="cls-32"/></mask><linearGradient id="_ÂÁ_Ï_ÌÌ_È_ËÂÌÚ_10-4" x1="1348.8" y1="784.58" x2="1382.96" y2="819.31" xlink:href="#_ÂÁ_Ï_ÌÌ_È_ËÂÌÚ_10"/><filter id="luminosity-noclip-5" x="1803.19" y="-8890.1" width="26.77" height="32766" filterUnits="userSpaceOnUse" color-interpolation-filters="sRGB"><feFlood flood-color="#fff" result="bg"/><feBlend in="SourceGraphic" in2="bg"/></filter><mask id="mask-5" x="1803.19" y="-8890.1" width="26.77" height="32766" maskUnits="userSpaceOnUse"><g class="cls-31"/></mask><linearGradient id="_ÂÁ_Ï_ÌÌ_È_ËÂÌÚ_10-5" x1="1793.67" y1="784.58" x2="1827.83" y2="819.31" xlink:href="#_ÂÁ_Ï_ÌÌ_È_ËÂÌÚ_10"/><filter id="luminosity-noclip-6" x="834.32" y="906.23" width="334.44" height="16" filterUnits="userSpaceOnUse" color-interpolation-filters="sRGB"><feFlood flood-color="#fff" result="bg"/><feBlend in="SourceGraphic" in2="bg"/></filter><mask id="mask-6" x="834.32" y="906.23" width="334.44" height="16" maskUnits="userSpaceOnUse"><g class="cls-1"><polygon class="cls-2" points="834.32 906.24 836.65 922.23 1164.72 922.23 1168.77 906.24 834.32 906.24"/></g></mask><filter id="luminosity-noclip-7" x="805.82" y="992.04" width="358.98" height="31.42" filterUnits="userSpaceOnUse" color-interpolation-filters="sRGB"><feFlood flood-color="#fff" result="bg"/><feBlend in="SourceGraphic" in2="bg"/></filter><mask id="mask-7" x="805.82" y="992.04" width="358.98" height="31.42" maskUnits="userSpaceOnUse"><g class="cls-3"><polygon class="cls-4" points="815.71 992.04 805.82 1023.46 1164.8 1023.46 1164.72 992.04 815.71 992.04"/></g></mask><linearGradient id="_ÂÁ_Ï_ÌÌ_È_ËÂÌÚ_76" x1="769.82" y1="1004.6" x2="1125.81" y2="1009.81" gradientUnits="userSpaceOnUse"><stop offset="0" stop-color="#fff7cc"/><stop offset="1" stop-color="#fff7cc"/></linearGradient><linearGradient id="_ÂÁ_Ï_ÌÌ_È_ËÂÌÚ_2" x1="747.14" y1="808.58" x2="747.14" y2="1055.84" gradientUnits="userSpaceOnUse"><stop offset="0" stop-color="#dad1c0"/><stop offset="0.63" stop-color="#708588"/><stop offset="0.74" stop-color="#73878a"/><stop offset="0.8" stop-color="#7b8f8f"/><stop offset="0.86" stop-color="#8a9d99"/><stop offset="0.9" stop-color="#9eb0a7"/><stop offset="0.95" stop-color="#b9c9b9"/><stop offset="0.99" stop-color="#d9e7cf"/><stop offset="1" stop-color="#e2f0d5"/></linearGradient><filter id="luminosity-noclip-8" x="734.42" y="792.94" width="26.77" height="33.01" filterUnits="userSpaceOnUse" color-interpolation-filters="sRGB"><feFlood flood-color="#fff" result="bg"/><feBlend in="SourceGraphic" in2="bg"/></filter><mask id="mask-8" x="734.42" y="792.94" width="26.77" height="33.01" maskUnits="userSpaceOnUse"><g class="cls-5"><polygon class="cls-6" points="734.42 792.94 737.5 825.95 744.11 825.95 745.26 799.39 761.19 792.94 734.42 792.94"/></g></mask><linearGradient id="_ÂÁ_Ï_ÌÌ_È_ËÂÌÚ_76-2" x1="724.89" y1="784.58" x2="759.05" y2="819.31" xlink:href="#_ÂÁ_Ï_ÌÌ_È_ËÂÌÚ_76"/><linearGradient id="_ÂÁ_Ï_ÌÌ_È_ËÂÌÚ_2-2" x1="1371.04" y1="808.58" x2="1371.04" y2="1055.84" xlink:href="#_ÂÁ_Ï_ÌÌ_È_ËÂÌÚ_2"/><filter id="luminosity-noclip-9" x="1358.33" y="792.94" width="26.77" height="33.01" filterUnits="userSpaceOnUse" color-interpolation-filters="sRGB"><feFlood flood-color="#fff" result="bg"/><feBlend in="SourceGraphic" in2="bg"/></filter><mask id="mask-9" x="1358.33" y="792.94" width="26.77" height="33.01" maskUnits="userSpaceOnUse"><g class="cls-7"><polygon class="cls-8" points="1358.33 792.94 1361.41 825.95 1368.02 825.95 1369.16 799.39 1385.1 792.94 1358.33 792.94"/></g></mask><linearGradient id="_ÂÁ_Ï_ÌÌ_È_ËÂÌÚ_76-3" x1="1348.8" y1="784.58" x2="1382.96" y2="819.31" xlink:href="#_ÂÁ_Ï_ÌÌ_È_ËÂÌÚ_76"/><linearGradient id="_ÂÁ_Ï_ÌÌ_È_ËÂÌÚ_2-3" x1="1815.91" y1="808.58" x2="1815.91" y2="1055.84" xlink:href="#_ÂÁ_Ï_ÌÌ_È_ËÂÌÚ_2"/><filter id="luminosity-noclip-10" x="1803.19" y="792.94" width="26.77" height="33.01" filterUnits="userSpaceOnUse" color-interpolation-filters="sRGB"><feFlood flood-color="#fff" result="bg"/><feBlend in="SourceGraphic" in2="bg"/></filter><mask id="mask-10" x="1803.19" y="792.94" width="26.77" height="33.01" maskUnits="userSpaceOnUse"><g class="cls-9"><polygon class="cls-10" points="1803.19 792.94 1806.28 825.95 1812.88 825.95 1814.03 799.39 1829.96 792.94 1803.19 792.94"/></g></mask><linearGradient id="_ÂÁ_Ï_ÌÌ_È_ËÂÌÚ_76-4" x1="1793.67" y1="784.58" x2="1827.83" y2="819.31" xlink:href="#_ÂÁ_Ï_ÌÌ_È_ËÂÌÚ_76"/></defs><title>PAYSAGE 2 MUSEE 1920x1080</title><g class="cls-11"><g id="Elements_devant" data-name="Elements devant"><polygon class="cls-12" points="1760.41 927.29 831.96 927.29 829.37 902.76 1762.99 902.76 1760.41 927.29"/><polygon class="cls-12" points="1760.36 986.56 832.01 986.56 844.19 927.29 1748.17 927.29 1760.36 986.56"/><path class="cls-13" d="M855.78,934.62l-6.22,42-.08.55H850l231.58,0h.46l0-.47,3-41.43.06-.88h-.89Zm225.36,41.58-230.55,0,6.28-40.34,226.49.2Z"/><path class="cls-13" d="M1093.53,934.64c-1.15,14-2.2,28.09-3.17,42l0,.52h.51l234.21,0h.5v-.5l.33-41.45v-.83H1325Zm1.12,1.22,229.57.22.32,40.12-233.19,0C1092.54,962.69,1093.65,949.29,1094.65,935.86Z"/><path class="cls-13" d="M1566,976.67l-2.12-41.47,0-.78h-.79l-229.06.22c-1.15,14-2.2,28.09-3.18,42l0,.52h.51l234.21,0h.52Zm-230.89-40.81,227.17.22L1565,976.2l-233.16,0C1333,962.69,1334.11,949.29,1335.11,935.86Z"/><polygon class="cls-12" points="796.01 1030.28 1788.87 1030.28 1775.36 986.56 809.53 986.56 796.01 1030.28"/><polygon class="cls-14" points="1762.99 902.76 1760.41 927.29 1748.17 927.29 1760.36 986.56 1775.36 986.56 1788.87 1030.28 1586.4 1030.28 1582.09 986.56 1578.95 939.02 842.17 937.13 844.19 927.29 1586.4 927.29 1590.93 902.84 1762.99 902.76"/><g class="cls-15"><polygon class="cls-16" points="834.32 906.24 836.65 922.23 1164.72 922.23 1168.77 906.24 834.32 906.24"/></g><g class="cls-17"><polygon class="cls-18" points="815.71 992.04 805.82 1023.46 1164.8 1023.46 1164.72 992.04 815.71 992.04"/></g><path class="cls-19" d="M753,830.26a203.43,203.43,0,0,0,34.41,16.29,274.86,274.86,0,0,0,36.8,10.18c25,5.33,50.71,7.9,76.39,10.47a1227.5,1227.5,0,0,0,154.59,4.61c25.77-1,51.53-2.67,77.19-5.35,6.41-.68,12.84-1.26,19.24-2l19.19-2.52,9.6-1.21,9.57-1.46,19.15-2.93c25.43-4.41,50.8-9.37,75.94-15.42,25.27-5.56,50.1-12.83,75-19.89l2.19,6.53c-24.48,9-49.29,17.15-74.47,24.12-25.11,7.22-50.67,12.77-76.27,18.09-25.68,4.87-51.49,9.27-77.52,12-13,1.69-26,2.74-39.06,3.84-6.51.64-13.06.84-19.59,1.26s-13.06.81-19.6,1a1008.2,1008.2,0,0,1-156.74-6.17c-13-1.8-25.93-3.29-38.88-5.47s-25.87-4.73-38.67-8c-25.47-6.74-50.75-16.55-72.32-32.2Z"/><path class="cls-19" d="M1377.16,824.48a503.38,503.38,0,0,0,104.27,37.09,496.77,496.77,0,0,0,54.34,9.48,479,479,0,0,0,55,3.12,485.72,485.72,0,0,0,109.21-13,527.92,527.92,0,0,0,104.41-36.57l3.29,6c-32.07,20-67.41,34.85-104.05,44.93a428.7,428.7,0,0,1-225.62-.53,409,409,0,0,1-104.12-44.55Z"/><polygon class="cls-20" points="779.12 1030.06 751.52 1020.88 755.04 800.66 739.83 800.66 743.35 1020.88 715.15 1030.06 779.12 1030.06"/><polygon class="cls-21" points="759.56 828.59 735.42 828.59 731.74 790.5 763.24 790.5 759.56 828.59"/><g class="cls-22"><polygon class="cls-23" points="734.42 792.94 737.5 825.95 744.11 825.95 745.26 799.39 761.19 792.94 734.42 792.94"/></g><polygon class="cls-24" points="744.25 828.59 747.8 832.99 747.14 1021.31 750.14 1021.31 752.97 828.59 744.25 828.59"/><polygon class="cls-25" points="1403.03 1030.06 1375.43 1020.88 1378.94 800.66 1363.74 800.66 1367.26 1020.88 1339.06 1030.06 1403.03 1030.06"/><polygon class="cls-21" points="1383.47 828.59 1359.33 828.59 1355.65 790.5 1387.15 790.5 1383.47 828.59"/><g class="cls-26"><polygon class="cls-27" points="1358.33 792.94 1361.41 825.95 1368.02 825.95 1369.16 799.39 1385.1 792.94 1358.33 792.94"/></g><polygon class="cls-24" points="1368.16 828.59 1371.71 832.99 1371.05 1021.31 1374.05 1021.31 1376.88 828.59 1368.16 828.59"/><polygon class="cls-28" points="1847.9 1030.06 1820.3 1020.88 1823.81 800.66 1808.61 800.66 1812.12 1020.88 1783.93 1030.06 1847.9 1030.06"/><polygon class="cls-21" points="1828.33 828.59 1804.2 828.59 1800.51 790.5 1832.02 790.5 1828.33 828.59"/><g class="cls-29"><polygon class="cls-30" points="1803.19 792.94 1806.28 825.95 1812.88 825.95 1814.03 799.39 1829.96 792.94 1803.19 792.94"/></g><polygon class="cls-24" points="1813.03 828.59 1816.58 832.99 1815.91 1021.31 1818.91 1021.31 1821.75 828.59 1813.03 828.59"/></g></g></svg>