<?xml version="1.0" encoding="utf-8"?>
<!-- Generator: Adobe Illustrator 15.1.0, SVG Export Plug-In . SVG Version: 6.00 Build 0)  -->
<!DOCTYPE svg PUBLIC "-//W3C//DTD SVG 1.1//EN" "http://www.w3.org/Graphics/SVG/1.1/DTD/svg11.dtd">
<svg version="1.1" id="Calque_1" xmlns="http://www.w3.org/2000/svg" xmlns:xlink="http://www.w3.org/1999/xlink" x="0px" y="0px"
	 width="850.394px" height="226.771px" viewBox="0 0 850.394 226.771" enable-background="new 0 0 850.394 226.771"
	 xml:space="preserve">
<g>
	<path fill="#FFFFFF" d="M32.861,128.175c3.567-5.302,10.82-15.979,22.083-32.373l0.109-0.16
		c9.806-14.271,19.079-27.757,30.298-39.776c5.871-6.292,13.842-10.208,20.798-10.208c5.16,0,11.958,2.152,15.036,12.394
		c3.966,13.161,2.849,37.736,2.535,43.419C117.16,103.915,82.467,116.526,32.861,128.175L32.861,128.175z"/>
	<path fill="#FFFFFF" d="M1.008,112.859C1.48,88.667,11.26,66.01,28.544,49.084c17.26-16.908,40.06-26.223,64.2-26.223
		c0.606,0,1.214,0.011,1.832,0.014c36.652,0.72,69.051,22.894,83.03,56.652c-4.815,2.234-17.754,8.084-35.746,15.092
		c-2.468-16.208-5.6-35.309-8.561-45.335c-3.495-11.81-11.992-18.573-23.315-18.573c-6.443,0-13.521,2.122-21.026,6.313
		c-8.701,4.863-24.247,17.217-46.22,36.751C25.214,89.355,8.749,105.642,1,113.451C1,113.257,1.008,113.055,1.008,112.859
		L1.008,112.859z"/>
	<path fill="#FFFFFF" d="M92.812,206.443c-0.607,0-1.211-0.008-1.824-0.02c-32.188-0.627-61.827-18.231-77.843-46.094
		c11.916-5.09,54.548-22.608,109.476-36.979l-7.023,80.225C108.186,205.487,100.523,206.443,92.812,206.443L92.812,206.443
		L92.812,206.443z"/>
	<path fill="#FFFFFF" d="M152.603,184.273c-1.206-11.635-4.475-42.477-7.595-66.185c20.97-4.188,33.983-6.304,39.485-7.15
		c0.077,1.843,0.098,3.69,0.059,5.515C184.039,142.697,172.44,167.223,152.603,184.273L152.603,184.273z"/>
	<path fill="#FFFFFF" d="M261.695,23.983h17.502l48.969,113.682h-23.119l-10.599-26.014h-49.292l-10.278,26.014h-22.64
		L261.695,23.983L261.695,23.983z M287.383,94.306l-17.499-46.238l-17.825,46.238H287.383L287.383,94.306z"/>
	<path fill="#FFFFFF" d="M401.377,137.665h-18.303v-12.367h-0.32c-3.537,7.708-10.76,14.292-23.604,14.292
		c-20.716,0-28.098-14.612-28.098-30.348V60.591h19.268v39.02c0,8.51,0.641,22.635,14.128,22.635
		c12.684,0,17.664-9.311,17.664-19.587V60.591h19.265V137.665L401.377,137.665z"/>
	<path fill="#FFFFFF" d="M476.195,126.097h-0.32c-5.621,9.317-15.736,13.493-26.49,13.493c-23.766,0-38.054-17.665-38.054-40.463
		c0-22.799,15.253-40.461,37.247-40.461c14.451,0,22.16,6.747,26.178,11.725h0.478V23.983h19.271v113.682h-18.309V126.097
		L476.195,126.097z M453.237,122.245c14.127,0,22.638-11.078,22.638-23.119c0-12.046-8.511-23.118-22.638-23.118
		c-14.13,0-22.641,11.071-22.641,23.118C430.596,111.167,439.107,122.245,453.237,122.245L453.237,122.245z"/>
	<path fill="#FFFFFF" d="M523.718,105.871c1.286,11.405,9.953,18.306,20.714,18.306c9.632,0,15.894-4.494,20.71-10.44l13.813,10.44
		c-8.996,11.075-20.398,15.413-32.596,15.413c-23.286,0-41.909-16.213-41.909-40.463c0-24.241,18.623-40.461,41.909-40.461
		c21.513,0,36.125,15.093,36.125,41.907v5.298H523.718L523.718,105.871z M563.22,91.422c-0.164-11.241-7.552-18.307-19.593-18.307
		c-11.403,0-18.467,7.226-19.909,18.307H563.22L563.22,91.422z"/>
	<path fill="#FFFFFF" d="M592.435,60.591h18.307v12.365h0.316c3.537-7.706,10.764-14.29,23.604-14.29
		c20.71,0,28.099,14.614,28.099,30.345v48.655h-19.268V98.643c0-8.507-0.641-22.634-14.129-22.634
		c-12.686,0-17.664,9.312-17.664,19.586v42.07h-19.266V60.591L592.435,60.591z"/>
	<path fill="#FFFFFF" d="M729.23,83.715c-4.5-4.659-9.479-7.707-14.61-7.707c-14.131,0-22.644,11.071-22.644,23.118
		c0,12.041,8.513,23.119,22.644,23.119c5.938,0,11.398-2.563,14.932-7.224l12.847,13.809c-7.871,7.867-21.04,10.76-27.778,10.76
		c-23.282,0-41.908-16.213-41.908-40.463c0-24.241,18.626-40.461,41.908-40.461c9.795,0,20.552,3.532,27.939,11.725L729.23,83.715
		L729.23,83.715z"/>
	<path fill="#FFFFFF" d="M755.722,22.861c7.06,0,12.519,4.977,12.519,11.556c0,6.584-5.459,11.563-12.519,11.563
		c-7.066,0-12.205-5.462-12.205-11.563C743.517,28.322,748.656,22.861,755.722,22.861L755.722,22.861z M746.248,60.591h19.269
		v77.074h-19.269V60.591L746.248,60.591z"/>
	<path fill="#FFFFFF" d="M827.812,127.065h-0.483c-5.458,8.673-14.451,12.524-24.725,12.524c-14.293,0-28.099-7.867-28.099-23.122
		c0-25.046,29.224-26.816,48.491-26.816h4.815v-2.088c0-9.469-7.388-14.449-17.66-14.449c-8.028,0-15.413,3.212-20.554,8.027
		l-10.114-10.113c8.51-8.672,20.554-12.364,32.755-12.364c32.916,0,32.916,23.766,32.916,34.682v44.318h-17.343V127.065
		L827.812,127.065z M826.691,103.142h-4.015c-10.601,0-28.905,0.802-28.905,11.88c0,7.066,7.226,10.113,13.491,10.113
		c13.162,0,19.429-6.902,19.429-17.656V103.142L826.691,103.142z"/>
	<g>
		<path fill="#FFFFFF" d="M212.482,168.694h13.104c6.155,0,12.856,1.29,12.856,8.935c0,3.922-2.432,6.603-6.056,7.743v0.101
			c4.617,0.595,7.694,4.02,7.694,8.586c0,7.348-6.949,9.779-13.204,9.779h-14.395V168.694z M220.226,182.742h5.609
			c2.383,0,4.865-0.993,4.865-3.823c0-2.928-2.78-3.673-5.212-3.673h-5.261V182.742z M220.226,197.286h6.949
			c2.433,0,5.163-1.043,5.163-4.121c0-3.325-3.723-3.871-6.254-3.871h-5.857V197.286z"/>
		<path fill="#FFFFFF" d="M286.443,190.286c0,8.29-5.063,14.445-14.792,14.445c-9.779,0-14.842-6.155-14.842-14.445v-21.592h7.744
			v21.294c0,4.319,2.979,7.595,7.098,7.595c4.07,0,7.049-3.275,7.049-7.595v-21.294h7.743V190.286z"/>
		<path fill="#FFFFFF" d="M323.125,177.281c-1.241-1.588-3.723-2.333-5.609-2.333c-2.184,0-5.212,0.993-5.212,3.623
			c0,6.403,16.182,2.284,16.182,14.594c0,7.844-6.304,11.566-13.552,11.566c-4.517,0-8.488-1.34-11.813-4.418l5.509-6.056
			c1.588,2.084,4.17,3.325,6.751,3.325c2.532,0,5.361-1.19,5.361-3.673c0-6.453-16.48-2.978-16.48-14.692
			c0-7.496,6.502-11.417,13.402-11.417c3.971,0,7.793,1.042,10.771,3.673L323.125,177.281z"/>
		<path fill="#FFFFFF" d="M346.306,168.694h7.744v35.144h-7.744V168.694z"/>
		<path fill="#FFFFFF" d="M373.259,168.694h10.523l14.941,24.421h0.099v-24.421h7.744v35.144H396.44l-15.338-25.018h-0.099v25.018
			h-7.744V168.694z"/>
		<path fill="#FFFFFF" d="M426.174,168.694h23.875v7.147h-16.132v6.553h15.238v7.147h-15.238v7.147h17.025v7.148h-24.769V168.694z"
			/>
		<path fill="#FFFFFF" d="M486.681,177.281c-1.241-1.588-3.723-2.333-5.608-2.333c-2.185,0-5.213,0.993-5.213,3.623
			c0,6.403,16.183,2.284,16.183,14.594c0,7.844-6.304,11.566-13.551,11.566c-4.518,0-8.489-1.34-11.814-4.418l5.51-6.056
			c1.589,2.084,4.17,3.325,6.751,3.325c2.532,0,5.361-1.19,5.361-3.673c0-6.453-16.479-2.978-16.479-14.692
			c0-7.496,6.502-11.417,13.401-11.417c3.972,0,7.793,1.042,10.772,3.673L486.681,177.281z"/>
		<path fill="#FFFFFF" d="M527.334,177.281c-1.241-1.588-3.723-2.333-5.608-2.333c-2.185,0-5.213,0.993-5.213,3.623
			c0,6.403,16.183,2.284,16.183,14.594c0,7.844-6.304,11.566-13.552,11.566c-4.517,0-8.488-1.34-11.813-4.418l5.51-6.056
			c1.589,2.084,4.169,3.325,6.751,3.325c2.532,0,5.361-1.19,5.361-3.673c0-6.453-16.479-2.978-16.479-14.692
			c0-7.496,6.502-11.417,13.401-11.417c3.972,0,7.793,1.042,10.771,3.673L527.334,177.281z"/>
		<path fill="#FFFFFF" d="M594.842,177.281c-1.241-1.588-3.723-2.333-5.608-2.333c-2.185,0-5.213,0.993-5.213,3.623
			c0,6.403,16.183,2.284,16.183,14.594c0,7.844-6.305,11.566-13.552,11.566c-4.517,0-8.488-1.34-11.813-4.418l5.51-6.056
			c1.589,2.084,4.169,3.325,6.751,3.325c2.531,0,5.36-1.19,5.36-3.673c0-6.453-16.479-2.978-16.479-14.692
			c0-7.496,6.503-11.417,13.402-11.417c3.971,0,7.793,1.042,10.771,3.673L594.842,177.281z"/>
		<path fill="#FFFFFF" d="M641.105,177.828c-1.539-1.837-3.772-2.88-6.651-2.88c-5.857,0-10.177,4.766-10.177,11.317
			c0,6.553,4.319,11.317,9.928,11.317c3.128,0,5.659-1.39,7.247-3.771l6.453,4.815c-2.929,4.169-7.893,6.104-12.708,6.104
			c-10.97,0-18.961-7.197-18.961-18.466c0-11.268,7.991-18.465,18.961-18.465c3.922,0,8.887,1.341,11.865,5.162L641.105,177.828z"/>
		<path fill="#FFFFFF" d="M664.286,168.694h7.743v13.104h15.04v-13.104h7.744v35.144h-7.744v-15.188h-15.04v15.188h-7.743V168.694z"
			/>
		<path fill="#FFFFFF" d="M731.199,167.801c10.97,0,18.961,7.197,18.961,18.465c0,11.269-7.991,18.466-18.961,18.466
			c-10.972,0-18.962-7.197-18.962-18.466C712.237,174.998,720.227,167.801,731.199,167.801z M731.199,197.583
			c6.602,0,10.92-4.765,10.92-11.317c0-6.552-4.318-11.317-10.92-11.317c-6.603,0-10.922,4.766-10.922,11.317
			C720.277,192.818,724.596,197.583,731.199,197.583z"/>
		<path fill="#FFFFFF" d="M784.657,167.801c10.972,0,18.963,7.197,18.963,18.465c0,11.269-7.991,18.466-18.963,18.466
			c-10.97,0-18.961-7.197-18.961-18.466C765.696,174.998,773.687,167.801,784.657,167.801z M784.657,197.583
			c6.603,0,10.922-4.765,10.922-11.317c0-6.552-4.319-11.317-10.922-11.317c-6.601,0-10.92,4.766-10.92,11.317
			C773.737,192.818,778.056,197.583,784.657,197.583z"/>
		<path fill="#FFFFFF" d="M821.34,168.694h7.743v27.995h14.345v7.148H821.34V168.694z"/>
	</g>
</g>
</svg>
