<svg xmlns="http://www.w3.org/2000/svg" xmlns:xlink="http://www.w3.org/1999/xlink" viewBox="0 0 792.95 518.99"><defs><style>.cls-1{fill:#5028b5;}.cls-2{fill:#252088;}.cls-11,.cls-16,.cls-19,.cls-24,.cls-3,.cls-5{fill:none;}.cls-3{stroke:#252088;}.cls-16,.cls-19,.cls-24,.cls-3,.cls-5{stroke-linecap:round;stroke-linejoin:round;}.cls-16,.cls-19,.cls-24,.cls-3{stroke-width:10px;}.cls-4{fill:url(#Dégradé_sans_nom_31);}.cls-11,.cls-5{stroke:#14114a;stroke-width:2px;}.cls-6{fill:url(#Dégradé_sans_nom_31-2);}.cls-7{fill:#2d71e5;}.cls-8{fill:url(#Dégradé_sans_nom_31-3);}.cls-9{fill:url(#Dégradé_sans_nom_7);}.cls-10{fill:#14114a;}.cls-11{stroke-miterlimit:10;}.cls-12{fill:#fff;}.cls-13{fill:#ff9db0;}.cls-14{fill:#00ccab;}.cls-15{fill:url(#Dégradé_sans_nom_47);}.cls-16{stroke:#fff;}.cls-17{fill:url(#Dégradé_sans_nom_7-2);}.cls-18{fill:url(#Dégradé_sans_nom_41);}.cls-19{stroke:#0094be;}.cls-20{fill:#0094be;}.cls-21{fill:url(#Dégradé_sans_nom_11);}.cls-22{fill:url(#Dégradé_sans_nom_34);}.cls-23{fill:url(#Dégradé_sans_nom_31-4);}.cls-24{stroke:#00ccab;}.cls-25{fill:url(#Dégradé_sans_nom_31-5);}.cls-26{fill:url(#Dégradé_sans_nom_31-6);}.cls-27{fill:url(#Dégradé_sans_nom_41-2);}.cls-28{fill:#44a5a7;}</style><linearGradient id="Dégradé_sans_nom_31" x1="364.77" y1="323.63" x2="364.77" y2="239.29" gradientUnits="userSpaceOnUse"><stop offset="0" stop-color="#0094be"/><stop offset="1" stop-color="#00ccab"/></linearGradient><linearGradient id="Dégradé_sans_nom_31-2" x1="341.27" y1="340.47" x2="341.27" y2="268.82" xlink:href="#Dégradé_sans_nom_31"/><linearGradient id="Dégradé_sans_nom_31-3" x1="160.24" y1="206.12" x2="160.24" y2="116.33" xlink:href="#Dégradé_sans_nom_31"/><linearGradient id="Dégradé_sans_nom_7" y1="439.24" x2="770.44" y2="439.24" gradientUnits="userSpaceOnUse"><stop offset="0" stop-color="#f9741f"/><stop offset="0.04" stop-color="#fa7a29"/><stop offset="0.21" stop-color="#fc8c47"/><stop offset="0.38" stop-color="#fd9a5f"/><stop offset="0.56" stop-color="#fea470"/><stop offset="0.75" stop-color="#ffaa7a"/><stop offset="1" stop-color="#ffac7d"/></linearGradient><linearGradient id="Dégradé_sans_nom_47" x1="367.24" y1="124.75" x2="367.24" y2="44.13" gradientUnits="userSpaceOnUse"><stop offset="0" stop-color="#ffddb5"/><stop offset="1" stop-color="#fff"/></linearGradient><linearGradient id="Dégradé_sans_nom_7-2" x1="0" y1="360.86" x2="770.44" y2="360.86" xlink:href="#Dégradé_sans_nom_7"/><linearGradient id="Dégradé_sans_nom_41" x1="471.86" y1="515.15" x2="471.86" y2="282.47" gradientUnits="userSpaceOnUse"><stop offset="0" stop-color="#2d71e5"/><stop offset="1" stop-color="#0094be"/></linearGradient><linearGradient id="Dégradé_sans_nom_11" x1="466.25" y1="515.15" x2="466.25" y2="328.78" gradientUnits="userSpaceOnUse"><stop offset="0" stop-color="#1e575f"/><stop offset="1" stop-color="#44a5a7"/></linearGradient><linearGradient id="Dégradé_sans_nom_34" x1="505.41" y1="426.84" x2="505.41" y2="348.61" gradientUnits="userSpaceOnUse"><stop offset="0" stop-color="#252088"/><stop offset="0.33" stop-color="#28218b"/><stop offset="0.6" stop-color="#322295"/><stop offset="0.85" stop-color="#4225a6"/><stop offset="1" stop-color="#5028b5"/></linearGradient><linearGradient id="Dégradé_sans_nom_31-4" x1="561.5" y1="494.25" x2="561.5" y2="328.79" xlink:href="#Dégradé_sans_nom_31"/><linearGradient id="Dégradé_sans_nom_31-5" x1="493.93" y1="391.2" x2="493.93" y2="341.8" xlink:href="#Dégradé_sans_nom_31"/><linearGradient id="Dégradé_sans_nom_31-6" x1="222.6" y1="599.2" x2="222.6" y2="300.55" xlink:href="#Dégradé_sans_nom_31"/><linearGradient id="Dégradé_sans_nom_41-2" x1="207.73" y1="516.82" x2="207.73" y2="374.8" xlink:href="#Dégradé_sans_nom_41"/></defs><title>Fichier 4</title><g id="Calque_2" data-name="Calque 2"><g id="Calque_2-2" data-name="Calque 2"><path class="cls-1" d="M475,237.22c67.49-4.5,149.66-39.67,179.05-61.91,28-21.16,57.31-36.39,87.12-41.61a176.27,176.27,0,0,0-1.62-19.87C729.28,41.8,662.19,5,616.09.65,547.92-5.78,479,36.22,456.6,107.4c-20.39,64.78-67.92,68.82-86.58,68.15-18-.65-40.13-8.29-61.34-24-34.73-25.72-58.66-39.33-97.74-39a120.15,120.15,0,0,0-30.78,3.78A111.73,111.73,0,0,0,143.58,134C115,154.81,93.27,190.71,88.75,241.17c-2.81,31.31-12.41,55.49-23.49,73.59,15.9.85,28.78,4.39,45.35,19,0,0,126.41-12.55,175.41-37.55C331.22,273.15,407.52,241.72,475,237.22Z"/><path class="cls-2" d="M144.05,350.49l-13.28,9.2,147,.27a59.09,59.09,0,0,1,6.49,8.54c2.16,3.48,4.44,7.5,6.89,11.93,7.53,4.35,21.18,8.67,43.38,4.29,22-4.35,37.45-14.22,48.12-24.58l355.64.64c-21.86-2.57-39.87-42.44-23.15-93.89,8.45-26,27.46-81.32,26.06-133.19-29.81,5.22-59.14,20.45-87.12,41.61C624.68,197.55,542.51,232.72,475,237.22s-143.8,35.93-189,59c-49,25-175.4,37.55-175.41,37.55h0C127,348.21,144.05,350.49,144.05,350.49Z"/><path class="cls-3" d="M650.07,164.31C620.68,186.55,538.51,221.72,471,226.22s-143.8,35.93-189,59c-49,25-175.4,37.55-175.41,37.55h0"/><path class="cls-4" d="M382.66,284.57c-4.61-8.24-6.2-18-3.5-27.06a11.71,11.71,0,0,0,.49-3.33,14.89,14.89,0,1,0-29.77,0,25.91,25.91,0,0,0,1.92,8.47,23.55,23.55,0,0,1-4,23.6c-3.4,4-6.27,8.9-6.27,14.13a23.25,23.25,0,0,0,46.5,0C388,295.63,385.65,289.9,382.66,284.57Z"/><polyline class="cls-5" points="367.68 372.22 367.68 306.38 372.68 301.38"/><path class="cls-6" d="M356.47,307.28a29.82,29.82,0,0,1-3-23,9.73,9.73,0,0,0,.42-2.83,12.65,12.65,0,1,0-25.29,0,22.08,22.08,0,0,0,1.63,7.2,20,20,0,0,1-3.41,20c-2.89,3.39-5.32,7.56-5.32,12a19.75,19.75,0,0,0,39.5,0C361,316.68,359,311.81,356.47,307.28Z"/><polyline class="cls-5" points="340.68 384.22 340.68 323.22 345.68 318.22"/><path class="cls-7" d="M273.65,349.7a19.33,19.33,0,0,0,4.87,22.42c-5.23,8.89-17.35,13.24-29,5.66a9.92,9.92,0,0,1-2.82-2.77c-4.37-6.46-5-13-3.24-18.54a19.07,19.07,0,0,1-4.2-5.12c-5.88,2.63-13.29,2.44-20.56-2.46a9.78,9.78,0,0,1-2.7-2.74c-10.13-15.45.72-31.77,15.37-31.77a19.33,19.33,0,0,1,16.8,9.77,19.32,19.32,0,0,1,26.28,23.53Z"/><path class="cls-8" d="M144.88,135.52a16.35,16.35,0,0,1-1.53,23.27c-5.93,5-9.8,11.71-9.8,19,0,15.63,10.95,28.3,26.58,28.3s26.8-12.67,26.8-28.3c0-7.25-4.18-13.87-10.27-18.88a16.3,16.3,0,0,1-1.52-23.61,20.84,20.84,0,0,0,5-19A111.73,111.73,0,0,0,143.58,134c.27.35.55.7.85,1Z"/><path class="cls-9" d="M284.25,368.5a59.09,59.09,0,0,0-6.49-8.54L21.87,359.5H7.72a7.72,7.72,0,1,0,0,15.43H41.16c19.29,0,68.17,6.43,111.9,37.3S310,519,402.58,519a215.27,215.27,0,0,0,42.63-3.84l-.18-1.31C344.7,504.84,307.4,405.8,284.25,368.5Z"/><path class="cls-10" d="M110.61,333.77c-16.57-14.62-29.45-18.16-45.35-19-19.42,31.7-43.39,44.74-43.39,44.74l108.9.19,13.28-9.2S127,348.21,110.61,333.77Z"/><line class="cls-11" x1="160.35" y1="264.32" x2="160.35" y2="171.28"/><polygon class="cls-10" points="102.47 355.21 102.47 291.33 130.34 263.46 158.2 291.33 158.2 355.21 102.47 355.21"/><rect class="cls-12" x="158.2" y="291.33" width="69.46" height="63.88"/><rect class="cls-13" x="176.64" y="303.76" width="13.08" height="16.51" rx="1" ry="1"/><rect class="cls-13" x="200.79" y="303.76" width="13.08" height="16.51" rx="1" ry="1"/><rect class="cls-13" x="176.64" y="330.74" width="13.08" height="16.51" rx="1" ry="1"/><polygon class="cls-14" points="199.79 263.46 130.34 263.46 158.2 291.33 227.66 291.33 199.79 263.46"/><line class="cls-11" x1="160.35" y1="183.29" x2="170.96" y2="172.68"/><line class="cls-11" x1="160.35" y1="195.29" x2="154.24" y2="189.18"/><circle class="cls-15" cx="367.24" cy="84.44" r="40.31"/><path class="cls-16" d="M342.29,109.5a34.65,34.65,0,1,0,20.5-58.93"/><path class="cls-17" d="M738.28,360.78h-9.41A56.31,56.31,0,0,0,738.28,360.78Z"/><line class="cls-5" x1="367.68" y1="306.38" x2="367.68" y2="293.38"/><polygon class="cls-12" points="598.89 255.65 598.89 188.12 581.16 188.12 581.16 237.92 598.89 255.65"/><polygon class="cls-14" points="581.16 188.12 598.89 147.38 598.89 188.12 581.16 188.12"/><rect class="cls-10" x="598.89" y="188.12" width="26.41" height="121.09"/><polygon class="cls-7" points="564.33 237.92 581.16 237.92 598.89 255.65 564.33 255.65 564.33 237.92"/><rect class="cls-10" x="564.33" y="255.65" width="34.56" height="53.57"/><polygon class="cls-10" points="625.3 256.62 625.3 256.62 643.03 274.35 625.3 274.35 625.3 256.62"/><rect class="cls-10" x="625.3" y="274.35" width="17.73" height="67.2"/><polygon class="cls-12" points="500.06 258.29 500.06 237.92 521.18 237.92 521.18 279.41 500.06 258.29"/><polygon class="cls-14" points="500.06 237.92 520.05 217.93 521.18 217.93 521.18 237.92 500.06 237.92"/><polygon class="cls-7" points="564.33 237.92 544.34 217.93 521.18 217.93 521.18 237.92 564.33 237.92"/><polyline class="cls-10" points="521.18 237.92 564.33 237.92 564.33 309.22 521.18 309.22"/><polygon class="cls-12" points="436.68 309.22 436.68 279.41 457.81 258.29 478.93 279.41 478.93 309.22 436.68 309.22"/><polygon class="cls-7" points="500.06 258.29 457.81 258.29 478.93 279.41 521.18 279.41 500.06 258.29"/><rect class="cls-10" x="478.93" y="279.41" width="42.25" height="29.8"/><circle class="cls-13" cx="612.95" cy="209.63" r="4.53"/><path class="cls-18" d="M401.35,458.22c25.33-20.67,40.83-46.5,70.67-49.67,31.33-3.33,74-18.33,102.66-52.33,23.45-27.82,56.72-29.31,77.9-26.37-5.55-4-11.24-8.53-17.06-13.63-57-50-103.5-30.5-111.5-27.5s-30,12.5-59,14.5c-28.45,2-55.69,16.79-66,35.5a91.75,91.75,0,0,1-16.38,21.42c-10.67,10.36-26.13,20.23-48.12,24.58-22.2,4.38-35.85.06-43.38-4.29,13.41,24.29,31.7,61,61.43,89.89C364.63,471.84,384.83,471.69,401.35,458.22Z"/><path class="cls-19" d="M527.39,292.79c-8,3-30,12.5-59,14.5-28.45,2-55.68,16.79-66,35.5A92.18,92.18,0,0,1,386,364.22c-10.68,10.35-26.13,20.23-48.13,24.57"/><path class="cls-10" d="M604.57,135.22h-2.68a3,3,0,0,0-3,3v9.16h8.68v-9.16A3,3,0,0,0,604.57,135.22Z"/><polygon class="cls-7" points="607.57 147.38 598.89 147.38 598.89 188.12 625.3 188.12 607.57 147.38"/><path class="cls-10" d="M601.62,94.48a6.47,6.47,0,0,1,12.93,0Z"/><path class="cls-10" d="M463.58,81.72a22,22,0,0,1,34.89-17.9,27.38,27.38,0,0,1,51.62,5.55,17.44,17.44,0,0,1,28.39,13.56,17.1,17.1,0,0,1-.22,2.6,11.63,11.63,0,0,1,19,9H443.89Z"/><path class="cls-10" d="M703.23,205.92a14.78,14.78,0,0,1,23.41-12,18.37,18.37,0,0,1,34.63,3.73,11.69,11.69,0,0,1,19.05,9.09,12.5,12.5,0,0,1-.14,1.74,7.8,7.8,0,0,1,12.77,6H690C693.37,208.26,703.23,205.92,703.23,205.92Z"/><path class="cls-10" d="M39.23,227.25a14.77,14.77,0,0,1,23.41-12A18.37,18.37,0,0,1,97.27,219a11.7,11.7,0,0,1,19,9.1,12.5,12.5,0,0,1-.14,1.74,7.79,7.79,0,0,1,12.77,6H26C29.37,229.6,39.23,227.25,39.23,227.25Z"/><circle class="cls-20" cx="319.35" cy="392.88" r="5.47"/><rect class="cls-13" x="532.68" y="248.37" width="7.02" height="8.86" rx="1" ry="1"/><rect class="cls-13" x="545.96" y="248.37" width="7.02" height="8.86" rx="1" ry="1"/><rect class="cls-13" x="532.68" y="263.4" width="7.02" height="8.86" rx="1" ry="1"/><rect class="cls-13" x="545.99" y="263.4" width="7.02" height="8.86" rx="1" ry="1"/><rect class="cls-13" x="609.45" y="246.79" width="7.02" height="8.86" rx="1" ry="1"/><polygon class="cls-12" points="515.02 359.72 515.02 333.21 533.81 314.41 552.6 333.21 552.6 359.72 515.02 359.72"/><polygon class="cls-7" points="571.39 314.41 533.81 314.41 552.6 333.21 590.18 333.21 571.39 314.41"/><rect class="cls-10" x="552.6" y="333.21" width="37.58" height="26.51"/><rect class="cls-7" x="529.02" y="342.88" width="8" height="11.33" rx="1" ry="1"/><path class="cls-21" d="M499.35,442.55c-31.67,3-47.33,23.67-73,42.33-13.7,10-31,10.34-44.16,8.52A144.45,144.45,0,0,0,445,513.84l.1.75.08.56a138.63,138.63,0,0,0,29.5-9.3c31.84-14.27,47.87-37.27,75.59-54A93.5,93.5,0,0,0,499.35,442.55Z"/><path class="cls-22" d="M574.68,356.22c.87-1,1.75-2,2.64-3a115.72,115.72,0,0,1-50.8-1.54c-43.5-11-94,7-93,57.5A125.75,125.75,0,0,0,435,426.84c10.77-9.45,22.11-16.7,37-18.29C503.35,405.22,546,390.22,574.68,356.22Z"/><polygon class="cls-12" points="284.43 476.63 284.43 436.29 303.22 417.5 322.02 436.29 322.02 476.63 284.43 476.63"/><polygon class="cls-7" points="360.52 417.5 303.22 417.5 322.02 436.29 379.31 436.29 360.52 417.5"/><rect class="cls-10" x="322.02" y="436.29" width="57.33" height="37.59"/><path class="cls-23" d="M764,360.78H738.28a56.31,56.31,0,0,1-9.41,0c-14-1-42.23-6.29-76.29-30.92-20.4-2.83-52-1.54-75.26,23.41-.89.95-1.77,1.93-2.64,3-28.66,34-71.33,49-102.66,52.33-14.93,1.59-26.27,8.84-37,18.29s-21,21.05-33.63,31.38c-16.52,13.47-36.72,13.62-48.78,12.1a165.63,165.63,0,0,0,29.62,23.08c13.16,1.82,30.46,1.44,44.16-8.52,25.67-18.66,41.33-39.33,73-42.33a93.5,93.5,0,0,1,50.95,9.34c1.33-.8,2.67-1.59,4.05-2.36,40.93-22.74,66.89-16.72,75.89-16.72s32.16,2.57,48.88-21.86,41.15-37.3,66.88-37.3h18a6.44,6.44,0,0,0,0-12.87Z"/><path class="cls-24" d="M765,365.78H739.28a56.31,56.31,0,0,1-9.41,0c-14-1-42.23-6.29-76.29-30.92-20.4-2.83-52-1.54-75.26,23.41-.89.95-1.77,1.93-2.64,3-28.66,34-71.33,49-102.66,52.33"/><path class="cls-25" d="M504.42,368.32a20.54,20.54,0,0,1-2.06-15.85,6.52,6.52,0,0,0,.29-2,8.72,8.72,0,1,0-17.44,0,15.05,15.05,0,0,0,1.13,5A13.82,13.82,0,0,1,484,369.31c-2,2.33-3.68,5.21-3.68,8.27a13.62,13.62,0,0,0,27.24,0C507.55,374.8,506.16,371.44,504.42,368.32Z"/><line class="cls-5" x1="493.53" y1="383.22" x2="493.53" y2="372.55"/><polyline class="cls-5" points="493.53 445.72 493.53 383.22 496.98 379.77"/><path class="cls-10" d="M500.35,442.55c-31.67,3-47.33,23.67-73,42.33-13.7,10-31,10.34-44.16,8.52A144.45,144.45,0,0,0,446,513.84l.1.75.08.56a138.63,138.63,0,0,0,29.5-9.3c31.84-14.27,47.87-37.27,75.59-54A93.5,93.5,0,0,0,500.35,442.55Z"/><path class="cls-26" d="M245.52,432.72c26.34,27,63.34,64.23,128.78,84.1A195.76,195.76,0,0,0,402.58,519a215.27,215.27,0,0,0,42.63-3.84l-.18-1.31c-100.33-9-137.63-108-160.78-145.34-1.9-3.07-4.44-5.63-6.49-8.54-25.66-36.48-81.36-32.63-114.41-18.47-36,15.43-106.76,18-141.48,18H7.72a7.72,7.72,0,1,0,0,15.43H41.16S183.52,369.22,245.52,432.72Z"/><path class="cls-27" d="M374.3,516.82C308.86,497,271.86,459.7,245.52,432.72c-62-63.5-204.36-57.79-204.36-57.79,19.29,0,68.17,6.43,111.9,37.3C192.42,440,288.05,504.26,374.3,516.82Z"/><circle class="cls-14" cx="225.22" cy="370.88" r="5.47"/><circle class="cls-14" cx="548.55" cy="418.22" r="5.47"/><circle class="cls-20" cx="426.92" cy="365.55" r="2.24"/><circle class="cls-20" cx="228.5" cy="441.13" r="1.76"/><circle class="cls-20" cx="260.8" cy="466.88" r="1.76"/><circle class="cls-20" cx="402.02" cy="417.97" r="1.76"/><circle class="cls-14" cx="322.02" cy="473.88" r="5.47"/><circle class="cls-14" cx="265.95" cy="426.82" r="2.73"/><circle class="cls-14" cx="629.35" cy="414.82" r="2.73"/><circle class="cls-14" cx="261.77" cy="402.22" r="1.02"/><circle class="cls-28" cx="608.02" cy="387.24" r="1.02"/><circle class="cls-14" cx="152.02" cy="370.72" r="2.73"/><circle class="cls-14" cx="658.68" cy="366.22" r="2.73"/><path class="cls-24" d="M280.65,373.45c-1.9-3.07-4.43-7.2-6.49-10.12-14.89-21.17-39.91-27.18-64.74-27.05"/><rect class="cls-13" x="350" y="446.28" width="7.02" height="8.86" rx="1" ry="1"/><rect class="cls-13" x="561" y="339.28" width="7.02" height="8.86" rx="1" ry="1"/><rect class="cls-13" x="363.29" y="446.28" width="7.02" height="8.86" rx="1" ry="1"/></g></g></svg>