<svg id="Calque_1" data-name="Calque 1" xmlns="http://www.w3.org/2000/svg" xmlns:xlink="http://www.w3.org/1999/xlink" viewBox="0 0 147.44 84.97"><defs><style>.cls-1{font-size:12px;fill:#0093bf;font-family:Roboto-Regular, Roboto;}.cls-2{fill:url(#Dégradé_sans_nom_31);}.cls-3{fill:#fff;}.cls-4{fill:#f29bb0;}</style><linearGradient id="Dégradé_sans_nom_31" x1="52.77" y1="45.63" x2="53.3" y2="24.09" gradientUnits="userSpaceOnUse"><stop offset="0" stop-color="#0495bf"/><stop offset="1" stop-color="#45b7a2"/></linearGradient></defs><title>picto-chauffage-au-bois</title><text class="cls-1" transform="translate(0 81.13)">Chauffage au bois</text><path class="cls-2" d="M45.06,59.15s-5.82,2.11-10.57-6.87-3.35-17.62,2.64-24.66,14.56-10.45,16-16.74a17.14,17.14,0,0,0,.08-7.8s5.14.08,8.32,7.45S61.12,22.16,60,23.68s-5.79,8.53,0,13.88c-1.16-3.83-1.23-7.88.5-11s6-4.26,6.8-4.26c-.73.86-2.39,4.84,1.59,8.81a18.4,18.4,0,0,1,5.2,12.43c0,3.18-.72,8.46-4,11.71s-4,3.9-8.89,3.9c4.19-2.74,5.35-5,5.57-8.74s-2.75-5.57-3.26-7.59a12,12,0,0,1-.21-4s-3.18,1-4,3a10.64,10.64,0,0,0-.65,4.12s-3.39-2.32-2.31-5.93c-3.25,2-3.18,6.22-2.24,8-3.47-2.74-2.6-6.28-2-8.6s1.08-7.44-5.64-10.19a10,10,0,0,1-2.53,8.46c-3,3.49-5,7.22-4.7,11.92C39.51,54.76,43.37,57.54,45.06,59.15Z" transform="translate(-5.01 -3.08)"/><path class="cls-3" d="M53.1,56s.29-3.32,2.53-3.54,3.69-2.6,3.25-5.06c4.92,1.09,4,6.44,4,7.16s-.8,3.9-3.54,4.62S47,59.24,47,59.24a4.86,4.86,0,0,1-1.88-4.19c0-3,1.59-3.4.87-5.93s-1.81-2.6-1.81-2.6,4.77,1.15,4.55,5.35C50.28,49.41,50.5,50,50.5,50s-.65,2.74.5,3.75S52.81,54.9,53.1,56Z" transform="translate(-5.01 -3.08)"/><rect class="cls-4" x="33.53" y="58.95" width="45.42" height="2.43" transform="translate(-15.46 8.75) rotate(-11)"/><rect class="cls-4" x="50.31" y="37.42" width="2.43" height="45.42" transform="translate(-22.34 96.15) rotate(-79)"/></svg>