<svg id="Calque_1" data-name="Calque 1" xmlns="http://www.w3.org/2000/svg" xmlns:xlink="http://www.w3.org/1999/xlink" viewBox="0 0 149.74 69.64"><defs><style>.cls-1,.cls-4,.cls-5{fill:none;}.cls-1{stroke:#f29bb0;}.cls-1,.cls-5{stroke-miterlimit:10;stroke-width:1.98px;}.cls-2{fill:url(#Dégradé_sans_nom_31);}.cls-3{fill:#2d2e7d;}.cls-4{stroke:#45b7a2;stroke-linecap:round;stroke-linejoin:round;stroke-width:3.3px;}.cls-5{stroke:#212146;}.cls-6{fill:#f29bb0;}.cls-7{fill:#fff;}.cls-8{fill:#212146;}.cls-9{font-size:12px;fill:#0093bf;font-family:Roboto-Regular, Roboto;}</style><linearGradient id="Dégradé_sans_nom_31" x1="50.55" y1="46.12" x2="50.55" y2="10.1" gradientUnits="userSpaceOnUse"><stop offset="0" stop-color="#0495bf"/><stop offset="1" stop-color="#45b7a2"/></linearGradient></defs><title>picto-epandage</title><line class="cls-1" x1="12.03" y1="19.66" x2="6.8" y2="19.66"/><path class="cls-2" d="M54.09,28.11l-2.9-18H36.08v18L29,46.12H72.1V29.76a1.65,1.65,0,0,0-1.66-1.65Z" transform="translate(-24.05 -8.45)"/><polygon class="cls-3" points="16.98 19.66 16.98 6.61 22.91 6.61 25 19.66 16.98 19.66"/><polyline class="cls-1" points="43.09 19.66 43.09 9.14 45.73 6.5"/><line class="cls-4" x1="29.87" y1="1.65" x2="12.03" y2="1.65"/><line class="cls-5" x1="48.04" y1="24.61" x2="31.08" y2="24.61"/><line class="cls-5" x1="48.04" y1="29.57" x2="36.04" y2="29.57"/><line class="cls-5" x1="34.11" y1="29.57" x2="31.14" y2="29.57"/><path class="cls-6" d="M29,46.12A7.07,7.07,0,0,1,36.08,39V34.09a12,12,0,1,0,0,24v-5A7.07,7.07,0,0,1,29,46.12Z" transform="translate(-24.05 -8.45)"/><path class="cls-7" d="M36.08,34.09V39a7.08,7.08,0,0,1,0,14.15v5a12,12,0,1,0,0-24Z" transform="translate(-24.05 -8.45)"/><path class="cls-8" d="M43.15,46.12A7.07,7.07,0,0,0,36.08,39V53.19A7.07,7.07,0,0,0,43.15,46.12Z" transform="translate(-24.05 -8.45)"/><path class="cls-8" d="M29,46.12a7.07,7.07,0,0,0,7.07,7.07V39A7.07,7.07,0,0,0,29,46.12Z" transform="translate(-24.05 -8.45)"/><path class="cls-6" d="M70.09,51.07A2.12,2.12,0,0,1,72.21,49V44a7.07,7.07,0,1,0,0,14.14v-5A2.12,2.12,0,0,1,70.09,51.07Z" transform="translate(-24.05 -8.45)"/><path class="cls-7" d="M72.21,44v5a2.12,2.12,0,1,1,0,4.24v5a7.07,7.07,0,1,0,0-14.14Z" transform="translate(-24.05 -8.45)"/><path class="cls-8" d="M70.09,51.07a2.12,2.12,0,0,0,2.12,2.12V49A2.12,2.12,0,0,0,70.09,51.07Z" transform="translate(-24.05 -8.45)"/><path class="cls-8" d="M74.33,51.07A2.12,2.12,0,0,0,72.21,49v4.24A2.12,2.12,0,0,0,74.33,51.07Z" transform="translate(-24.05 -8.45)"/><text class="cls-9" transform="translate(2.3 65.79)">Épandage</text></svg>