<svg xmlns="http://www.w3.org/2000/svg" xmlns:xlink="http://www.w3.org/1999/xlink" viewBox="0 0 252.78 305.16"><defs><style>.cls-1{fill:#5028b5;}.cls-2{fill:#ff9db0;}.cls-3{fill:#14114a;}.cls-4{fill:#fff;}.cls-11,.cls-5,.cls-6{fill:none;}.cls-5,.cls-6{stroke:#14114a;}.cls-5{stroke-miterlimit:10;stroke-width:5.27px;}.cls-6{stroke-linecap:square;stroke-width:1.89px;}.cls-11,.cls-6{stroke-linejoin:round;}.cls-7{fill:#252088;}.cls-8{fill:#2d71e5;}.cls-9{fill:url(#Dégradé_sans_nom_31);}.cls-10{fill:url(#Dégradé_sans_nom_31-2);}.cls-11{stroke:#00ccab;stroke-linecap:round;stroke-width:8.79px;}</style><linearGradient id="Dégradé_sans_nom_31" x1="118.35" y1="259.65" x2="118.35" y2="219.15" gradientUnits="userSpaceOnUse"><stop offset="0" stop-color="#0094be"/><stop offset="1" stop-color="#00ccab"/></linearGradient><linearGradient id="Dégradé_sans_nom_31-2" x1="115.5" y1="128.33" x2="115.5" y2="0" xlink:href="#Dégradé_sans_nom_31"/></defs><title>Fichier 1</title><g id="Calque_2" data-name="Calque 2"><g id="Calque_1-2" data-name="Calque 1"><path class="cls-1" d="M252.78,178.59v.17c0,1.05,0,2.1,0,3.13,0,.76,0,1.52-.08,2.26,0,.43,0,.85-.06,1.27s0,1.07-.09,1.61c-.07,1.07-.15,2.14-.25,3.2,0,.57-.11,1.13-.17,1.69a2.7,2.7,0,0,1-.05.41c-.06.64-.13,1.27-.21,1.91-.16,1.31-.33,2.61-.53,3.91l0,.18c-.09.56-.17,1.12-.27,1.68l-.18,1c-.13.79-.28,1.58-.44,2.35-.07.41-.15.81-.24,1.21s-.1.51-.16.76-.12.61-.2.91c-.4,1.83-.84,3.66-1.34,5.46-.08.29-.15.56-.23.83-.13.5-.27,1-.41,1.47s-.25.86-.39,1.28c0,.12-.06.22-.09.32-.16.53-.32,1.06-.49,1.58s-.35,1.13-.54,1.7c-.31.89-.62,1.79-.94,2.68s-.65,1.78-1,2.66c-.24.63-.48,1.24-.74,1.87l-.41,1c-.31.77-.65,1.54-1,2.3l-.15.36c-.39.87-.79,1.75-1.2,2.62,0,.08-.07.15-.1.22-.4.87-.82,1.71-1.24,2.56-.09.18-.18.38-.28.56l-.54,1c-.18.37-.37.73-.57,1.09a4,4,0,0,1-.27.5c-.17.32-.34.64-.52,1-1,1.92-2.14,3.81-3.28,5.66-.46.76-1,1.52-1.43,2.26s-.8,1.23-1.21,1.84c-.51.78-1,1.53-1.57,2.29-.17.25-.35.49-.52.73H23.44l0,0c-.58-.82-1.16-1.67-1.73-2.51-.15-.21-.29-.43-.44-.65-.38-.57-.76-1.14-1.13-1.72-.66-1-1.3-2-1.92-3.07-.2-.34-.4-.66-.59-1-.46-.79-.92-1.57-1.37-2.37q-.37-.66-.72-1.32h0A122.73,122.73,0,0,1,6.22,218c-.2-.62-.4-1.23-.59-1.85-.12-.4-.25-.81-.36-1.23,0,0,0,0,0-.05-.37-1.22-.72-2.45-1-3.68A126.45,126.45,0,0,1,1.3,197C1,195,.78,193.11.59,191.16Q0,185,0,178.76A126.39,126.39,0,0,1,224.61,99.22q3.84,4.74,7.22,9.84a125.78,125.78,0,0,1,20.95,69.53Z"/><path class="cls-2" d="M250,205.31c-.05.31-.12.61-.19.91-.4,1.84-.84,3.66-1.34,5.47-.07.28-.15.56-.23.82-.13.5-.27,1-.41,1.48s-.26.86-.38,1.28c0,.11-.07.21-.1.31-.16.54-.32,1.06-.49,1.59s-.36,1.12-.55,1.69c-.3.9-.61,1.8-.93,2.68s-.65,1.79-1,2.67l-.73,1.86q-.21.5-.42,1c-.31.77-.64,1.53-1,2.3l-.15.35c-.39.88-.79,1.76-1.2,2.62,0,.09-.07.15-.1.23-.41.86-.82,1.71-1.24,2.55-.1.19-.18.38-.29.56-.17.34-.35.7-.53,1s-.28.56-.43.82l-.14.28c-.09.17-.17.33-.27.49l-.52,1c-1,1.92-2.14,3.8-3.28,5.66-.46.76-1,1.51-1.43,2.25s-.79,1.23-1.21,1.84c-.51.78-1,1.53-1.57,2.29-.17.25-.34.5-.52.74H112.52c.15-.3.31-.6.47-.89.85-1.55,1.71-3.11,2.71-4.6a28.51,28.51,0,0,1,3-3.87,78.25,78.25,0,0,0,12.87-18.94,31.28,31.28,0,0,1,4-6.38A33.28,33.28,0,0,1,143,211c2.57-1.7,5.36-3.22,8.36-4.84.39-.23,6.84,10.32,7.25,10.09,5.8-3.2,34.73-43.6,53.72-45.92S241,183.06,250,205.31Z"/><path class="cls-3" d="M229.75,230.37l-.85,2-.14.32c-.34.76-.69,1.53-1,2.28a2,2,0,0,1-.09.2c-.35.75-.72,1.49-1.08,2.23-.08.16-.16.32-.25.48-.32.62-.63,1.25-1,1.87-.07.15-.15.29-.23.43q-1.58,2.94-3.32,5.77c-1.31,2.11-2.68,4.19-4.12,6.2H38.21c-.52-.73-1-1.46-1.53-2.2l-.38-.57c-.33-.5-.67-1-1-1.5-.58-.87-1.14-1.77-1.68-2.68l-.51-.86-1.2-2.06a108.43,108.43,0,0,1-8.73-19.82c-.18-.53-.34-1.07-.51-1.6-.12-.38-.23-.74-.34-1.12-.32-1.06-.62-2.14-.9-3.21,5.29-7.12,63.51-84,66.82-87.9,8.74-2,11.84-1.36,17.86-.81,0,2.07,29.43-.56,33.75,1.61a15.07,15.07,0,0,1,3.16,2.14C147.07,135,229.87,230.06,229.75,230.37Z"/><path class="cls-4" d="M238.29,237.56l-.14.28c-.09.17-.17.33-.27.49l-.52,1c-1,1.92-2.14,3.8-3.28,5.66-.46.76-1,1.51-1.43,2.25s-.79,1.23-1.21,1.84c-.51.78-1,1.53-1.57,2.29-.17.25-.34.5-.52.74H182.09l-46.9-.59.42-34.09,1.12-88.46c1.39,0,2.7-.07,3.93-.12a15.58,15.58,0,0,1,3.13,2.18c1.35,1.19,13.7,15.08,29.62,33.08l15.46,17.52c17.71,20.08,36.74,41.68,49.27,55.78A.84.84,0,0,1,238.29,237.56Z"/><path class="cls-3" d="M245.54,136.51H186C188.9,131,197.57,129,197.57,129a13,13,0,0,1,20.58-10.55,16.14,16.14,0,0,1,13.68-9.37A125.56,125.56,0,0,1,245.54,136.51Z"/><line class="cls-5" x1="103.88" y1="129.72" x2="103.88" y2="166.34"/><line class="cls-5" x1="113.11" y1="128.57" x2="113.11" y2="150.16"/><line class="cls-5" x1="95.4" y1="126.81" x2="95.4" y2="143.44"/><polyline class="cls-6" points="191.05 273.06 191.05 208.74 195.3 203.86"/><line class="cls-6" x1="191.05" y1="208.79" x2="191.05" y2="195.96"/><polyline class="cls-6" points="157.03 266.69 157.03 177.76 161.27 171.01"/><line class="cls-6" x1="157.03" y1="177.83" x2="157.03" y2="160.09"/><polyline class="cls-6" points="147.71 276.83 147.71 201.1 143.46 195.35"/><line class="cls-6" x1="147.71" y1="201.16" x2="147.71" y2="186.06"/><polyline class="cls-6" points="170.6 258.73 170.6 183 166.36 177.25"/><line class="cls-6" x1="170.6" y1="183.06" x2="170.6" y2="167.96"/><path class="cls-7" d="M229.36,252.08a126.39,126.39,0,0,1-205.91,0Z"/><circle class="cls-8" cx="131.64" cy="274.2" r="5.51"/><circle class="cls-8" cx="92.1" cy="285.2" r="2.26"/><circle class="cls-8" cx="167.74" cy="280.42" r="1.77"/><path class="cls-3" d="M163.71,245.88s-4.22,1.54-7.68-5S153.6,228.08,158,223s10.58-7.59,11.65-12.16a12.55,12.55,0,0,0,.07-5.67s3.73.05,6,5.41-.32,8.46-1.16,9.56-4.2,6.2,0,10.09c-.84-2.79-.89-5.73.37-8a7.24,7.24,0,0,1,4.94-3.1c-.53.63-1.74,3.52,1.15,6.41a13.38,13.38,0,0,1,3.79,9c0,2.31-.53,6.14-3,8.51s-2.89,2.83-6.46,2.83C169.14,248.72,162.49,244.71,163.71,245.88Z"/><path class="cls-4" d="M167.25,227.45S156.75,241.71,167,247c7.55,3.87,8.87-1.4,8.87-1.4s1.58-6.7-4.18-9.45C168.75,234.71,165.5,233.21,167.25,227.45Z"/><path class="cls-9" d="M231.44,249.05c-.51.78-1,1.54-1.57,2.29l-.52.74-190.9.07s-3.71,0-9.2-.07l-5.83,0c-.58-.83-1.16-1.68-1.73-2.51-.15-.21-.3-.44-.44-.66-.38-.56-.76-1.14-1.13-1.71-.66-1-1.3-2-1.92-3.08-.2-.33-.4-.65-.59-1-.46-.78-.92-1.57-1.37-2.37-.25-.44-.49-.87-.72-1.32h0A122.07,122.07,0,0,1,6.22,218c-.2-.61-.4-1.23-.59-1.84-.12-.41-.25-.82-.36-1.23a87.34,87.34,0,0,1,12.51-10.5c5.59-3.83,10.83-8.12,20.8-8,16.33.19,26.47,11.35,44.63,20.42,5.33,2.67,10.21,5,14.92,7.15A225,225,0,0,0,136,237.32q4.36,1.16,9.22,2.28c25.61,6,50.45,6.28,61.92,7.15,1.23.1,6.27.58,13.38,1.25Z"/><path class="cls-10" d="M132.29,105.21a13.07,13.07,0,0,1-3.71,7.25,17,17,0,0,0-4.31,15.69c-1.17.06-2.4.12-3.71.15H119.5a116.22,116.22,0,0,1-13.37-.5A24.81,24.81,0,0,0,102.75,115c-2.3-4-4.18-8.39-4.18-12a16.85,16.85,0,0,1,4.12-11,12.51,12.51,0,0,0,3.21-9.17,27.61,27.61,0,0,0-3.42-11c-2.18-3.87-3.91-8-3.91-11.5a16.82,16.82,0,0,1,4.66-11.64A10.3,10.3,0,0,0,106,41.46a26.82,26.82,0,0,0-3.5-13c-2.18-3.87-3.91-8-3.91-11.51a16.94,16.94,0,1,1,33.69,2.48,12.92,12.92,0,0,1-3.67,7,17.1,17.1,0,0,0-3.64,18v0a10.16,10.16,0,0,0,2.4,3.78,16.87,16.87,0,0,1,4.9,14.53,13,13,0,0,1-3.68,7c-4.64,4.8-7.14,10.14-5,15.75a15.14,15.14,0,0,0,3.1,4.78A16.89,16.89,0,0,1,132.29,105.21Z"/><line class="cls-11" x1="85.12" y1="128.35" x2="145.56" y2="128.99"/></g></g></svg>