<svg xmlns="http://www.w3.org/2000/svg" xmlns:xlink="http://www.w3.org/1999/xlink" viewBox="0 0 250.66 250.66"><defs><style>.cls-1{fill:#5028b5;}.cls-2{fill:#14114a;}.cls-3,.cls-6,.cls-7{fill:none;}.cls-3{stroke:#ff9db0;}.cls-3,.cls-7{stroke-miterlimit:10;stroke-width:6px;}.cls-4{fill:url(#Dégradé_sans_nom_31);}.cls-5{fill:#252088;}.cls-6{stroke:#00ccab;stroke-linecap:round;stroke-linejoin:round;stroke-width:10px;}.cls-7{stroke:#14114a;}.cls-8{fill:#2d71e5;}.cls-9{fill:#ff9db0;}.cls-10{fill:#fff;}</style><linearGradient id="Dégradé_sans_nom_31" x1="121.96" y1="161.63" x2="121.96" y2="52.63" gradientUnits="userSpaceOnUse"><stop offset="0" stop-color="#0094be"/><stop offset="1" stop-color="#00ccab"/></linearGradient></defs><title>Fichier 1</title><g id="Calque_2" data-name="Calque 2"><g id="Calque_1-2" data-name="Calque 1"><path class="cls-1" d="M250.66,125.33A124.73,124.73,0,0,1,227.43,198H23.25a125.33,125.33,0,1,1,227.41-72.7Z"/><path class="cls-2" d="M51.76,77H9.68a125.07,125.07,0,0,1,9.85-18.82,18,18,0,0,1,.55,2A11.7,11.7,0,0,1,39.13,69.2,12.26,12.26,0,0,1,39,70.94a7.8,7.8,0,0,1,12.77,6Z"/><line class="cls-3" x1="78.16" y1="107.13" x2="62.33" y2="107.13"/><path class="cls-4" d="M132.66,107.13l-8.77-54.5H78.16v54.5l-21.4,54.5h130.4v-49.5a5,5,0,0,0-5-5Z"/><polygon class="cls-5" points="93.16 107.13 93.16 67.63 111.11 67.63 117.41 107.13 93.16 107.13"/><polyline class="cls-3" points="172.16 107.13 172.16 75.3 180.16 67.3"/><line class="cls-6" x1="132.16" y1="52.63" x2="78.16" y2="52.63"/><line class="cls-7" x1="187.16" y1="122.12" x2="135.83" y2="122.12"/><line class="cls-7" x1="187.16" y1="137.12" x2="150.82" y2="137.12"/><line class="cls-7" x1="144.99" y1="137.12" x2="135.99" y2="137.12"/><path class="cls-5" d="M125.33,250.66A125.15,125.15,0,0,0,227.43,198H23.25A125.17,125.17,0,0,0,125.33,250.66Z"/><circle class="cls-8" cx="130.53" cy="217.97" r="5.47"/><circle class="cls-8" cx="91.33" cy="228.87" r="2.24"/><circle class="cls-8" cx="166.33" cy="226.13" r="1.76"/><path class="cls-9" d="M56.76,161.63a21.4,21.4,0,0,1,21.4-21.4v-15a36.4,36.4,0,1,0,0,72.79V183A21.41,21.41,0,0,1,56.76,161.63Z"/><path class="cls-10" d="M78.16,125.24v15a21.41,21.41,0,0,1,0,42.81v15a36.4,36.4,0,1,0,0-72.79Z"/><path class="cls-2" d="M99.56,161.63a21.4,21.4,0,0,0-21.4-21.4V183A21.41,21.41,0,0,0,99.56,161.63Z"/><path class="cls-2" d="M56.76,161.63A21.41,21.41,0,0,0,78.16,183V140.23A21.4,21.4,0,0,0,56.76,161.63Z"/><path class="cls-9" d="M181.08,176.62a6.41,6.41,0,0,1,6.41-6.41v-15a21.41,21.41,0,0,0,0,42.81V183A6.41,6.41,0,0,1,181.08,176.62Z"/><path class="cls-10" d="M187.49,155.22v15a6.42,6.42,0,0,1,0,12.83v15a21.41,21.41,0,1,0,0-42.81Z"/><path class="cls-2" d="M181.08,176.62a6.41,6.41,0,0,0,6.41,6.42V170.21A6.41,6.41,0,0,0,181.08,176.62Z"/><path class="cls-2" d="M193.9,176.62a6.41,6.41,0,0,0-6.41-6.41V183A6.41,6.41,0,0,0,193.9,176.62Z"/></g></g></svg>