<svg xmlns="http://www.w3.org/2000/svg" xmlns:xlink="http://www.w3.org/1999/xlink" viewBox="0 0 250.67 250.67"><defs><style>.cls-1{fill:#5028b5;}.cls-2{fill:url(#Dégradé_sans_nom_31);}.cls-3,.cls-5{fill:none;stroke:#14114a;stroke-width:2px;}.cls-3{stroke-linecap:round;stroke-linejoin:round;}.cls-4{fill:#14114a;}.cls-5{stroke-miterlimit:10;}.cls-6{fill:#fff;}.cls-7{fill:#ff9db0;}.cls-8{fill:#252088;}.cls-9{fill:#2d71e5;}.cls-10{fill:#00ccab;}</style><linearGradient id="Dégradé_sans_nom_31" x1="192.67" y1="144.01" x2="192.67" y2="94.6" gradientUnits="userSpaceOnUse"><stop offset="0" stop-color="#0094be"/><stop offset="1" stop-color="#00ccab"/></linearGradient></defs><title>Fichier 4</title><g id="Calque_2" data-name="Calque 2"><g id="Calque_1-2" data-name="Calque 1"><path class="cls-1" d="M250.67,125.33A124.8,124.8,0,0,1,227.44,198H23.25A125.32,125.32,0,0,1,216.87,39.74q3,3.25,5.86,6.72a124.86,124.86,0,0,1,27.94,78.87Z"/><path class="cls-2" d="M203.15,121.12a20.58,20.58,0,0,1-2.05-15.85,6.86,6.86,0,0,0,.29-2,8.72,8.72,0,1,0-17.44,0,15.33,15.33,0,0,0,1.12,5,13.79,13.79,0,0,1-2.35,13.82c-2,2.33-3.67,5.21-3.67,8.28a13.62,13.62,0,0,0,27.24,0C206.29,127.6,204.9,124.24,203.15,121.12Z"/><line class="cls-3" x1="192.26" y1="136.02" x2="192.26" y2="125.35"/><polyline class="cls-3" points="192.26 193.67 192.26 136.02 195.71 132.57"/><path class="cls-4" d="M238.11,70.6H187.7l19.7-12.77a22,22,0,0,1,9.47-18.09q3,3.25,5.86,6.72A125.61,125.61,0,0,1,238.11,70.6Z"/><line class="cls-5" x1="110.86" y1="26.97" x2="110.86"/><path class="cls-4" d="M145,27.09V205.68h0l-.39.4a16,16,0,0,0-1.76,2.28h-7a1.57,1.57,0,0,0-1.58,1.58v9.83c-10.67-6-20.92-15.78-38.47-16.6V27.09Z"/><path class="cls-6" d="M59.21,64.44V214c-3.72,2-7.42,4-11.19,5.89l-1.14.57c-.79.38-1.58.75-2.38,1.11h0V64.44Z"/><path class="cls-4" d="M95.37,64.44V203.16c-.66,0-1.34,0-2,0a50,50,0,0,0-12.69,1.67c-7.59,2-14.56,5.5-21.45,9.17V64.44Z"/><rect class="cls-7" x="68.08" y="72.83" width="4.65" height="5.87" rx="1" ry="1"/><rect class="cls-7" x="76.89" y="72.83" width="4.65" height="5.87" rx="1" ry="1"/><rect class="cls-7" x="68.08" y="82.78" width="4.65" height="5.87" rx="1" ry="1"/><rect class="cls-7" x="76.91" y="82.78" width="4.65" height="5.87" rx="1" ry="1"/><rect class="cls-7" x="68.08" y="92.73" width="4.65" height="5.87" rx="1" ry="1"/><rect class="cls-7" x="76.89" y="92.73" width="4.65" height="5.87" rx="1" ry="1"/><rect class="cls-7" x="68.08" y="102.68" width="4.65" height="5.87" rx="1" ry="1"/><rect class="cls-7" x="76.91" y="102.68" width="4.65" height="5.87" rx="1" ry="1"/><rect class="cls-7" x="68.08" y="112.63" width="4.65" height="5.87" rx="1" ry="1"/><rect class="cls-7" x="76.91" y="112.63" width="4.65" height="5.87" rx="1" ry="1"/><rect class="cls-7" x="68.08" y="122.58" width="4.65" height="5.87" rx="1" ry="1"/><rect class="cls-7" x="76.91" y="122.58" width="4.65" height="5.87" rx="1" ry="1"/><rect class="cls-7" x="68.08" y="132.53" width="4.65" height="5.87" rx="1" ry="1"/><rect class="cls-7" x="76.89" y="132.53" width="4.65" height="5.87" rx="1" ry="1"/><rect class="cls-7" x="68.08" y="142.48" width="4.65" height="5.87" rx="1" ry="1"/><rect class="cls-7" x="76.91" y="142.48" width="4.65" height="5.87" rx="1" ry="1"/><rect class="cls-7" x="68.08" y="152.43" width="4.65" height="5.87" rx="1" ry="1"/><rect class="cls-7" x="76.91" y="152.43" width="4.65" height="5.87" rx="1" ry="1"/><rect class="cls-7" x="68.08" y="162.38" width="4.65" height="5.87" rx="1" ry="1"/><rect class="cls-7" x="76.89" y="162.38" width="4.65" height="5.87" rx="1" ry="1"/><rect class="cls-7" x="68.08" y="172.33" width="4.65" height="5.87" rx="1" ry="1"/><rect class="cls-7" x="76.91" y="172.33" width="4.65" height="5.87" rx="1" ry="1"/><path class="cls-6" d="M95.37,27v176.2c-.66,0-1.34,0-2,0a50,50,0,0,0-12.69,1.67V27Z"/><rect class="cls-7" x="104.47" y="37.58" width="4.65" height="5.87" rx="1" ry="1"/><rect class="cls-7" x="113.27" y="37.58" width="4.65" height="5.87" rx="1" ry="1"/><rect class="cls-7" x="104.47" y="47.53" width="4.65" height="5.87" rx="1" ry="1"/><rect class="cls-7" x="113.29" y="47.53" width="4.65" height="5.87" rx="1" ry="1"/><rect class="cls-7" x="122.07" y="37.58" width="4.65" height="5.87" rx="1" ry="1"/><rect class="cls-7" x="130.87" y="37.58" width="4.65" height="5.87" rx="1" ry="1"/><rect class="cls-7" x="122.07" y="47.53" width="4.65" height="5.87" rx="1" ry="1"/><rect class="cls-7" x="130.89" y="47.53" width="4.65" height="5.87" rx="1" ry="1"/><rect class="cls-7" x="104.47" y="57.48" width="4.65" height="5.87" rx="1" ry="1"/><rect class="cls-7" x="113.27" y="57.48" width="4.65" height="5.87" rx="1" ry="1"/><rect class="cls-7" x="104.47" y="67.43" width="4.65" height="5.87" rx="1" ry="1"/><rect class="cls-7" x="113.29" y="67.43" width="4.65" height="5.87" rx="1" ry="1"/><rect class="cls-7" x="122.07" y="57.48" width="4.65" height="5.87" rx="1" ry="1"/><rect class="cls-7" x="130.87" y="57.48" width="4.65" height="5.87" rx="1" ry="1"/><rect class="cls-7" x="122.07" y="67.43" width="4.65" height="5.87" rx="1" ry="1"/><rect class="cls-7" x="130.89" y="67.43" width="4.65" height="5.87" rx="1" ry="1"/><rect class="cls-7" x="104.47" y="77.39" width="4.65" height="5.87" rx="1" ry="1"/><rect class="cls-7" x="113.29" y="77.39" width="4.65" height="5.87" rx="1" ry="1"/><rect class="cls-7" x="122.07" y="77.39" width="4.65" height="5.87" rx="1" ry="1"/><rect class="cls-7" x="130.89" y="77.39" width="4.65" height="5.87" rx="1" ry="1"/><rect class="cls-7" x="104.47" y="87.34" width="4.65" height="5.87" rx="1" ry="1"/><rect class="cls-7" x="113.29" y="87.34" width="4.65" height="5.87" rx="1" ry="1"/><rect class="cls-7" x="122.07" y="87.34" width="4.65" height="5.87" rx="1" ry="1"/><rect class="cls-7" x="130.89" y="87.34" width="4.65" height="5.87" rx="1" ry="1"/><rect class="cls-7" x="104.47" y="97.29" width="4.65" height="5.87" rx="1" ry="1"/><rect class="cls-7" x="113.27" y="97.29" width="4.65" height="5.87" rx="1" ry="1"/><rect class="cls-7" x="104.47" y="107.24" width="4.65" height="5.87" rx="1" ry="1"/><rect class="cls-7" x="113.29" y="107.24" width="4.65" height="5.87" rx="1" ry="1"/><rect class="cls-7" x="122.07" y="97.29" width="4.65" height="5.87" rx="1" ry="1"/><rect class="cls-7" x="130.87" y="97.29" width="4.65" height="5.87" rx="1" ry="1"/><rect class="cls-7" x="122.07" y="107.24" width="4.65" height="5.87" rx="1" ry="1"/><rect class="cls-7" x="130.89" y="107.24" width="4.65" height="5.87" rx="1" ry="1"/><rect class="cls-7" x="104.47" y="117.19" width="4.65" height="5.87" rx="1" ry="1"/><rect class="cls-7" x="113.29" y="117.19" width="4.65" height="5.87" rx="1" ry="1"/><rect class="cls-7" x="122.07" y="117.19" width="4.65" height="5.87" rx="1" ry="1"/><rect class="cls-7" x="130.89" y="117.19" width="4.65" height="5.87" rx="1" ry="1"/><rect class="cls-7" x="104.47" y="127.14" width="4.65" height="5.87" rx="1" ry="1"/><rect class="cls-7" x="113.27" y="127.14" width="4.65" height="5.87" rx="1" ry="1"/><rect class="cls-7" x="104.47" y="137.09" width="4.65" height="5.87" rx="1" ry="1"/><rect class="cls-7" x="113.29" y="137.09" width="4.65" height="5.87" rx="1" ry="1"/><rect class="cls-7" x="122.07" y="127.14" width="4.65" height="5.87" rx="1" ry="1"/><rect class="cls-7" x="130.87" y="127.14" width="4.65" height="5.87" rx="1" ry="1"/><rect class="cls-7" x="122.07" y="137.09" width="4.65" height="5.87" rx="1" ry="1"/><rect class="cls-7" x="130.89" y="137.09" width="4.65" height="5.87" rx="1" ry="1"/><rect class="cls-7" x="104.47" y="166.94" width="4.65" height="5.87" rx="1" ry="1"/><rect class="cls-7" x="113.29" y="166.94" width="4.65" height="5.87" rx="1" ry="1"/><rect class="cls-7" x="122.07" y="166.94" width="4.65" height="5.87" rx="1" ry="1"/><rect class="cls-7" x="130.89" y="166.94" width="4.65" height="5.87" rx="1" ry="1"/><rect class="cls-7" x="104.47" y="147.04" width="4.65" height="5.87" rx="1" ry="1"/><rect class="cls-7" x="113.29" y="147.04" width="4.65" height="5.87" rx="1" ry="1"/><rect class="cls-7" x="122.07" y="147.04" width="4.65" height="5.87" rx="1" ry="1"/><rect class="cls-7" x="130.89" y="147.04" width="4.65" height="5.87" rx="1" ry="1"/><rect class="cls-7" x="104.47" y="156.99" width="4.65" height="5.87" rx="1" ry="1"/><rect class="cls-7" x="113.29" y="156.99" width="4.65" height="5.87" rx="1" ry="1"/><rect class="cls-7" x="122.07" y="156.99" width="4.65" height="5.87" rx="1" ry="1"/><rect class="cls-7" x="130.89" y="156.99" width="4.65" height="5.87" rx="1" ry="1"/><line class="cls-5" x1="70.23" y1="67.24" x2="70.23" y2="45.18"/><path class="cls-8" d="M125.33,250.67A125.19,125.19,0,0,0,227.44,198H23.25A125.15,125.15,0,0,0,125.33,250.67Z"/><circle class="cls-9" cx="130.53" cy="217.97" r="5.47"/><circle class="cls-9" cx="91.33" cy="228.88" r="2.24"/><circle class="cls-9" cx="166.33" cy="226.14" r="1.76"/><polygon class="cls-10" points="174.71 167.16 200.69 167.16 187.7 180.15 161.72 180.15 174.71 167.16"/><rect class="cls-6" x="161.72" y="180.15" width="25.98" height="17.88" transform="translate(349.42 378.18) rotate(-180)"/><polygon class="cls-4" points="187.7 198.03 213.68 198.03 213.68 180.15 200.69 167.16 187.7 180.15 187.7 198.03 187.7 198.03"/><rect class="cls-7" x="177.04" y="184.35" width="4.85" height="6.13" rx="1" ry="1" transform="translate(358.93 374.83) rotate(-180)"/><rect class="cls-7" x="167.11" y="184.35" width="4.85" height="6.13" rx="1" ry="1" transform="translate(339.07 374.83) rotate(-180)"/></g></g></svg>