<svg xmlns="http://www.w3.org/2000/svg" xmlns:xlink="http://www.w3.org/1999/xlink" viewBox="0 0 250.66 250.66"><defs><style>.cls-1{fill:#5028b5;}.cls-2,.cls-8{fill:none;}.cls-2{stroke:#14114a;stroke-miterlimit:10;stroke-width:6px;}.cls-3{fill:#ff9db0;}.cls-4{fill:url(#Dégradé_sans_nom_31);}.cls-5{fill:url(#Dégradé_sans_nom_31-2);}.cls-6{fill:#14114a;}.cls-7{fill:#fff;}.cls-8{stroke:#00ccab;stroke-linecap:round;stroke-linejoin:round;stroke-width:10px;}.cls-9{fill:#252088;}.cls-10{fill:#2d71e5;}</style><linearGradient id="Dégradé_sans_nom_31" x1="71.15" y1="126.1" x2="71.15" y2="7.87" gradientUnits="userSpaceOnUse"><stop offset="0" stop-color="#0094be"/><stop offset="1" stop-color="#00ccab"/></linearGradient><linearGradient id="Dégradé_sans_nom_31-2" x1="118.82" y1="142.76" x2="118.82" y2="0" xlink:href="#Dégradé_sans_nom_31"/></defs><title>Fichier 11</title><g id="Calque_2" data-name="Calque 2"><g id="Calque_1-2" data-name="Calque 1"><path class="cls-1" d="M250.66,125.33A124.73,124.73,0,0,1,227.43,198H23.25A125.4,125.4,0,0,1,81.54,7.87,123.16,123.16,0,0,1,101,2.37,125.38,125.38,0,0,1,125.33,0q5.58,0,11,.48a125.14,125.14,0,0,1,86.37,46q3,3.75,5.79,7.74a124.85,124.85,0,0,1,22.14,71.13Z"/><line class="cls-2" x1="187.83" y1="163.94" x2="187.83" y2="149.85"/><line class="cls-2" x1="166.88" y1="163.94" x2="166.88" y2="149.85"/><polyline class="cls-2" points="113.56 149.85 208.83 149.85 208.83 163.69"/><rect class="cls-3" x="160.34" y="163.1" width="13.08" height="35.71" rx="3" ry="3"/><rect class="cls-3" x="181.3" y="163.1" width="13.08" height="35.71" rx="3" ry="3"/><rect class="cls-3" x="202.25" y="163.1" width="13.08" height="35.71" rx="3" ry="3"/><path class="cls-4" d="M90.24,78.08A14.74,14.74,0,0,1,86,86.31a19.47,19.47,0,0,0-4.14,20.43,21.47,21.47,0,0,1,1.6,7,12.33,12.33,0,1,1-24.66,0,9.9,9.9,0,0,1,.48-3,26.86,26.86,0,0,0-2.66-21.6C54,84.58,51.89,79.6,51.89,75.49a19.13,19.13,0,0,1,4.67-12.55A14.26,14.26,0,0,0,60.21,52.5,31,31,0,0,0,56.32,40c-2.47-4.42-4.43-9.16-4.43-13.1a18.69,18.69,0,0,1,.3-3.37A124.6,124.6,0,0,1,81.54,7.87c.1.34.22.68.34,1v0a11.84,11.84,0,0,0,2.74,4.29A19.17,19.17,0,0,1,90.2,29.74a14.65,14.65,0,0,1-4.18,8c-5.28,5.46-8.13,11.55-5.63,17.92a17.41,17.41,0,0,0,3.53,5.45A19.21,19.21,0,0,1,90.24,78.08Z"/><path class="cls-5" d="M136.61,98a13.69,13.69,0,0,1-3.93,7.67,18.14,18.14,0,0,0-3.85,19.06,20.14,20.14,0,0,1,1.48,6.55,11.5,11.5,0,0,1-23,0,9.14,9.14,0,0,1,.45-2.81,25.06,25.06,0,0,0-2.49-20.15c-2.44-4.26-4.42-8.9-4.42-12.73a17.83,17.83,0,0,1,4.35-11.7,13.31,13.31,0,0,0,3.4-9.74A28.87,28.87,0,0,0,105,62.5c-2.3-4.11-4.13-8.54-4.13-12.21a17.86,17.86,0,0,1,4.94-12.35,11,11,0,0,0,2.91-7.59A28.53,28.53,0,0,0,105,16.54c-2.3-4.11-4.13-8.54-4.13-12.21a18.25,18.25,0,0,1,.11-2A125.38,125.38,0,0,1,125.33,0q5.58,0,11,.48A18.42,18.42,0,0,1,136.58,7a13.6,13.6,0,0,1-3.89,7.45,18.14,18.14,0,0,0-3.86,19.06v0a10.84,10.84,0,0,0,2.56,4,17.9,17.9,0,0,1,5.19,15.43,13.58,13.58,0,0,1-3.9,7.45c-4.93,5.1-7.58,10.77-5.24,16.72a15.87,15.87,0,0,0,3.28,5.07A17.88,17.88,0,0,1,136.61,98Z"/><polygon class="cls-6" points="102.9 133.54 84.9 217.04 124.9 225.21 124.9 133.54 102.9 133.54"/><polygon class="cls-7" points="132.4 133.54 124.9 133.54 124.9 225.21 153.41 231.04 132.4 133.54"/><line class="cls-8" x1="102.9" y1="133.54" x2="132.4" y2="133.54"/><polygon class="cls-6" points="56.4 115.04 38.4 198.54 78.4 206.71 78.4 115.04 56.4 115.04"/><polygon class="cls-7" points="85.9 115.04 78.4 115.04 78.4 206.71 106.92 212.54 85.9 115.04"/><line class="cls-8" x1="56.4" y1="115.04" x2="85.9" y2="115.04"/><path class="cls-9" d="M125.33,250.66A125.15,125.15,0,0,0,227.43,198H23.25A125.17,125.17,0,0,0,125.33,250.66Z"/><circle class="cls-10" cx="130.53" cy="217.97" r="5.47"/><circle class="cls-10" cx="91.33" cy="228.87" r="2.24"/><circle class="cls-10" cx="166.33" cy="226.13" r="1.76"/><path class="cls-6" d="M244.17,85.45H174.79c3.35-6.21,13.22-8.56,13.22-8.56a14.77,14.77,0,0,1,23.4-12,18.38,18.38,0,0,1,16.7-10.69h.41A124.31,124.31,0,0,1,244.17,85.45Z"/></g></g></svg>