<svg xmlns="http://www.w3.org/2000/svg" xmlns:xlink="http://www.w3.org/1999/xlink" viewBox="0 0 796.1 505.76"><defs><style>.cls-1{fill:#5028b5;}.cls-2{fill:#252088;}.cls-12,.cls-15,.cls-16,.cls-19,.cls-3,.cls-7{fill:none;}.cls-3{stroke:#252088;}.cls-12,.cls-15,.cls-16,.cls-3,.cls-7{stroke-linecap:round;stroke-linejoin:round;}.cls-12,.cls-15,.cls-16,.cls-3{stroke-width:10px;}.cls-4{fill:#fff;}.cls-5{fill:#14114a;}.cls-6{fill:#ff9db0;}.cls-19,.cls-7{stroke:#14114a;stroke-width:2px;}.cls-8{fill:#0094be;}.cls-9{fill:url(#Dégradé_sans_nom_31);}.cls-10{fill:url(#Dégradé_sans_nom_31-2);}.cls-11{fill:url(#Dégradé_sans_nom_31-3);}.cls-12{stroke:#00ccab;}.cls-13{fill:url(#Dégradé_sans_nom_41);}.cls-14{fill:url(#Dégradé_sans_nom_47);}.cls-15{stroke:#fff;}.cls-16{stroke:#0094be;}.cls-17{fill:#00ccab;}.cls-18{fill:url(#Dégradé_sans_nom_31-4);}.cls-19{stroke-miterlimit:10;}.cls-20{fill:url(#Dégradé_sans_nom_41-2);}</style><linearGradient id="Dégradé_sans_nom_31" x1="590.12" y1="501.84" x2="590.12" y2="305.54" gradientUnits="userSpaceOnUse"><stop offset="0" stop-color="#0094be"/><stop offset="1" stop-color="#00ccab"/></linearGradient><linearGradient id="Dégradé_sans_nom_31-2" x1="131.11" y1="220.1" x2="131.11" y2="52.37" xlink:href="#Dégradé_sans_nom_31"/><linearGradient id="Dégradé_sans_nom_31-3" x1="178.77" y1="236.76" x2="178.77" y2="80.37" xlink:href="#Dégradé_sans_nom_31"/><linearGradient id="Dégradé_sans_nom_41" x1="249.86" y1="505.76" x2="249.86" y2="290.93" gradientUnits="userSpaceOnUse"><stop offset="0" stop-color="#2d71e5"/><stop offset="1" stop-color="#0094be"/></linearGradient><linearGradient id="Dégradé_sans_nom_47" x1="344.9" y1="80.62" x2="344.9" gradientUnits="userSpaceOnUse"><stop offset="0" stop-color="#ffddb5"/><stop offset="1" stop-color="#fff"/></linearGradient><linearGradient id="Dégradé_sans_nom_31-4" x1="171.1" y1="371.8" x2="171.1" y2="322.39" xlink:href="#Dégradé_sans_nom_31"/><linearGradient id="Dégradé_sans_nom_41-2" x1="592.96" y1="468.42" x2="677.55" y2="468.42" xlink:href="#Dégradé_sans_nom_41"/></defs><title>Fichier 3</title><g id="Calque_2" data-name="Calque 2"><g id="Calque_2-2" data-name="Calque 2"><path class="cls-1" d="M111.55,387.35a237,237,0,0,1,61.83,37c38.31,32,74.4,53.4,107.48,66.21l12.19-104.21a80.84,80.84,0,0,1,12.54-19.9h-194Z"/><path class="cls-1" d="M661.09,210.9c-14.51,10.38-32.68,18.38-54.37,18.74-70,1.16-168.8,25.21-188.67,58-26.67,44-87.88,63.34-95.31,63.34H111.55V333.31a3,3,0,0,0-3-3H85.05a3,3,0,0,1-3-3V311c15.45-16,31.28-38.35,45.33-69.39,0,0,44-136,114-145.33s66.67,36,118,27.33c22.65-3.82,35.8-17.65,46.95-34,10.06-14.76,18.49-31.56,30.83-44.9a71.69,71.69,0,0,1,27.56-19.1c47.33-18,94.66,2,107.33,56.67,10.51,45.37,21.84,85.11,43.5,104.5C625.21,195.46,643.61,202.5,661.09,210.9Z"/><path class="cls-2" d="M745.66,328.31a3,3,0,0,1-2.81,2h-23.5a3,3,0,0,0-3,3V351s-391.11.28-393.61,0c7.06-1.17,68.64-19.34,95.31-63.34,19.87-32.79,118.63-56.84,188.67-58,21.69-.36,39.86-8.36,54.37-18.74,14.2,6.82,27.8,14.54,35.63,24.74,6.56,8.56,12.17,22.57,18.6,37.94,2.56,6.13,5.26,12.48,8.2,18.79a181.51,181.51,0,0,0,14.81,26.51A103.56,103.56,0,0,0,745.66,328.31Z"/><path class="cls-2" d="M293.05,386.31,280.86,490.52c29.67,11.49,56.92,16.07,81.19,15.12a97.5,97.5,0,0,0,23.72-4V472a3,3,0,0,1,3-3h18.48a3,3,0,0,1,3,3v19.95C438.6,478.15,464.65,459,498.72,459c36.25,0,56.62,19.76,77.84,31.73V472a3,3,0,0,1,3-3H598a3,3,0,0,1,3,3v27.4a48.6,48.6,0,0,0,5,.26c39.5,0,67-41.72,82-66.83,8.31-13.87,17.58-26.48,28.3-36.9v-29.5H305.59A80.84,80.84,0,0,0,293.05,386.31Z"/><path class="cls-3" d="M635.29,212a90.77,90.77,0,0,1-34.24,7.34c-70,1.16-168.79,25.21-188.67,58-26.66,44-88.25,63.17-95.31,64.33,0,0-28.69,7.34-50,3.34"/><rect class="cls-4" x="329.71" y="275.63" width="19.02" height="226.8"/><path class="cls-5" d="M412.43,275.63V491.85c-.73.37-1.45.73-2.18,1.08q-2.25,1.1-4.52,2.13h0v-1l-.51.23-.94.44-1.61.7c-.63.28-1.27.56-1.91.82q-1.26.54-2.52,1.05l-.09,0-.17.07-1.05.41c-.23.1-.46.19-.7.27l-.56.22H348.73V275.63Z"/><rect class="cls-6" x="360.5" y="289.37" width="6.02" height="7.59" rx="1" ry="1"/><rect class="cls-6" x="371.89" y="289.37" width="6.02" height="7.59" rx="1" ry="1"/><rect class="cls-6" x="360.5" y="302.24" width="6.02" height="7.59" rx="1" ry="1"/><rect class="cls-6" x="371.91" y="302.24" width="6.02" height="7.59" rx="1" ry="1"/><rect class="cls-6" x="383.27" y="289.37" width="6.02" height="7.59" rx="1" ry="1"/><rect class="cls-6" x="394.65" y="289.37" width="6.02" height="7.59" rx="1" ry="1"/><rect class="cls-6" x="383.27" y="302.24" width="6.02" height="7.59" rx="1" ry="1"/><rect class="cls-6" x="394.68" y="302.24" width="6.02" height="7.59" rx="1" ry="1"/><rect class="cls-6" x="360.5" y="315.11" width="6.02" height="7.59" rx="1" ry="1"/><rect class="cls-6" x="371.89" y="315.11" width="6.02" height="7.59" rx="1" ry="1"/><rect class="cls-6" x="360.5" y="327.98" width="6.02" height="7.59" rx="1" ry="1"/><rect class="cls-6" x="371.91" y="327.98" width="6.02" height="7.59" rx="1" ry="1"/><rect class="cls-6" x="383.27" y="315.11" width="6.02" height="7.59" rx="1" ry="1"/><rect class="cls-6" x="394.65" y="315.11" width="6.02" height="7.59" rx="1" ry="1"/><rect class="cls-6" x="383.27" y="327.98" width="6.02" height="7.59" rx="1" ry="1"/><rect class="cls-6" x="394.68" y="327.98" width="6.02" height="7.59" rx="1" ry="1"/><rect class="cls-6" x="360.5" y="340.85" width="6.02" height="7.59" rx="1" ry="1"/><rect class="cls-6" x="371.91" y="340.85" width="6.02" height="7.59" rx="1" ry="1"/><rect class="cls-6" x="383.27" y="340.85" width="6.02" height="7.59" rx="1" ry="1"/><rect class="cls-6" x="394.68" y="340.85" width="6.02" height="7.59" rx="1" ry="1"/><rect class="cls-6" x="360.5" y="353.72" width="6.02" height="7.59" rx="1" ry="1"/><rect class="cls-6" x="371.91" y="353.72" width="6.02" height="7.59" rx="1" ry="1"/><rect class="cls-6" x="383.27" y="353.72" width="6.02" height="7.59" rx="1" ry="1"/><rect class="cls-6" x="394.68" y="353.72" width="6.02" height="7.59" rx="1" ry="1"/><rect class="cls-6" x="360.5" y="366.59" width="6.02" height="7.59" rx="1" ry="1"/><rect class="cls-6" x="371.89" y="366.59" width="6.02" height="7.59" rx="1" ry="1"/><rect class="cls-6" x="360.5" y="379.46" width="6.02" height="7.59" rx="1" ry="1"/><rect class="cls-6" x="371.91" y="379.46" width="6.02" height="7.59" rx="1" ry="1"/><rect class="cls-6" x="383.27" y="366.59" width="6.02" height="7.59" rx="1" ry="1"/><rect class="cls-6" x="394.65" y="366.59" width="6.02" height="7.59" rx="1" ry="1"/><rect class="cls-6" x="383.27" y="379.46" width="6.02" height="7.59" rx="1" ry="1"/><rect class="cls-6" x="394.68" y="379.46" width="6.02" height="7.59" rx="1" ry="1"/><rect class="cls-6" x="360.5" y="392.33" width="6.02" height="7.59" rx="1" ry="1"/><rect class="cls-6" x="371.91" y="392.33" width="6.02" height="7.59" rx="1" ry="1"/><rect class="cls-6" x="383.27" y="392.33" width="6.02" height="7.59" rx="1" ry="1"/><rect class="cls-6" x="394.68" y="392.33" width="6.02" height="7.59" rx="1" ry="1"/><rect class="cls-6" x="360.5" y="405.2" width="6.02" height="7.59" rx="1" ry="1"/><rect class="cls-6" x="371.89" y="405.2" width="6.02" height="7.59" rx="1" ry="1"/><rect class="cls-6" x="360.5" y="418.07" width="6.02" height="7.59" rx="1" ry="1"/><rect class="cls-6" x="371.91" y="418.07" width="6.02" height="7.59" rx="1" ry="1"/><rect class="cls-6" x="383.27" y="405.2" width="6.02" height="7.59" rx="1" ry="1"/><rect class="cls-6" x="394.65" y="405.2" width="6.02" height="7.59" rx="1" ry="1"/><rect class="cls-6" x="383.27" y="418.07" width="6.02" height="7.59" rx="1" ry="1"/><rect class="cls-6" x="394.68" y="418.07" width="6.02" height="7.59" rx="1" ry="1"/><rect class="cls-6" x="360.5" y="443.81" width="6.02" height="7.59" rx="1" ry="1"/><rect class="cls-6" x="371.91" y="443.81" width="6.02" height="7.59" rx="1" ry="1"/><rect class="cls-6" x="383.27" y="443.81" width="6.02" height="7.59" rx="1" ry="1"/><rect class="cls-6" x="394.68" y="443.81" width="6.02" height="7.59" rx="1" ry="1"/><rect class="cls-6" x="360.5" y="456.68" width="6.02" height="7.59" rx="1" ry="1"/><rect class="cls-6" x="371.91" y="456.68" width="6.02" height="7.59" rx="1" ry="1"/><rect class="cls-6" x="383.27" y="456.68" width="6.02" height="7.59" rx="1" ry="1"/><rect class="cls-6" x="394.68" y="456.68" width="6.02" height="7.59" rx="1" ry="1"/><rect class="cls-6" x="360.5" y="430.94" width="6.02" height="7.59" rx="1" ry="1"/><rect class="cls-6" x="371.91" y="430.94" width="6.02" height="7.59" rx="1" ry="1"/><rect class="cls-6" x="383.27" y="430.94" width="6.02" height="7.59" rx="1" ry="1"/><rect class="cls-6" x="394.68" y="430.94" width="6.02" height="7.59" rx="1" ry="1"/><rect class="cls-4" x="624.21" y="183.62" width="19.02" height="226.8"/><rect class="cls-5" x="643.24" y="183.62" width="63.69" height="222.68"/><rect class="cls-6" x="655.01" y="197.35" width="6.02" height="7.59" rx="1" ry="1"/><rect class="cls-6" x="666.39" y="197.35" width="6.02" height="7.59" rx="1" ry="1"/><rect class="cls-6" x="655.01" y="210.22" width="6.02" height="7.59" rx="1" ry="1"/><rect class="cls-6" x="666.42" y="210.22" width="6.02" height="7.59" rx="1" ry="1"/><rect class="cls-6" x="677.78" y="197.35" width="6.02" height="7.59" rx="1" ry="1"/><rect class="cls-6" x="689.16" y="197.35" width="6.02" height="7.59" rx="1" ry="1"/><rect class="cls-6" x="677.78" y="210.22" width="6.02" height="7.59" rx="1" ry="1"/><rect class="cls-6" x="689.19" y="210.22" width="6.02" height="7.59" rx="1" ry="1"/><rect class="cls-6" x="655.01" y="223.09" width="6.02" height="7.59" rx="1" ry="1"/><rect class="cls-6" x="666.39" y="223.09" width="6.02" height="7.59" rx="1" ry="1"/><rect class="cls-6" x="655.01" y="235.96" width="6.02" height="7.59" rx="1" ry="1"/><rect class="cls-6" x="666.42" y="235.96" width="6.02" height="7.59" rx="1" ry="1"/><rect class="cls-6" x="677.78" y="223.09" width="6.02" height="7.59" rx="1" ry="1"/><rect class="cls-6" x="689.16" y="223.09" width="6.02" height="7.59" rx="1" ry="1"/><rect class="cls-6" x="677.78" y="235.96" width="6.02" height="7.59" rx="1" ry="1"/><rect class="cls-6" x="689.19" y="235.96" width="6.02" height="7.59" rx="1" ry="1"/><rect class="cls-6" x="655.01" y="248.83" width="6.02" height="7.59" rx="1" ry="1"/><rect class="cls-6" x="666.42" y="248.83" width="6.02" height="7.59" rx="1" ry="1"/><rect class="cls-6" x="677.78" y="248.83" width="6.02" height="7.59" rx="1" ry="1"/><rect class="cls-6" x="689.19" y="248.83" width="6.02" height="7.59" rx="1" ry="1"/><rect class="cls-6" x="655.01" y="261.7" width="6.02" height="7.59" rx="1" ry="1"/><rect class="cls-6" x="666.42" y="261.7" width="6.02" height="7.59" rx="1" ry="1"/><rect class="cls-6" x="677.78" y="261.7" width="6.02" height="7.59" rx="1" ry="1"/><rect class="cls-6" x="689.19" y="261.7" width="6.02" height="7.59" rx="1" ry="1"/><rect class="cls-6" x="655.01" y="274.57" width="6.02" height="7.59" rx="1" ry="1"/><rect class="cls-6" x="666.39" y="274.57" width="6.02" height="7.59" rx="1" ry="1"/><rect class="cls-6" x="655.01" y="287.44" width="6.02" height="7.59" rx="1" ry="1"/><rect class="cls-6" x="666.42" y="287.44" width="6.02" height="7.59" rx="1" ry="1"/><rect class="cls-6" x="677.78" y="274.57" width="6.02" height="7.59" rx="1" ry="1"/><rect class="cls-6" x="689.16" y="274.57" width="6.02" height="7.59" rx="1" ry="1"/><rect class="cls-6" x="677.78" y="287.44" width="6.02" height="7.59" rx="1" ry="1"/><rect class="cls-6" x="689.19" y="287.44" width="6.02" height="7.59" rx="1" ry="1"/><rect class="cls-6" x="655.01" y="300.31" width="6.02" height="7.59" rx="1" ry="1"/><rect class="cls-6" x="666.42" y="300.31" width="6.02" height="7.59" rx="1" ry="1"/><rect class="cls-6" x="677.78" y="300.31" width="6.02" height="7.59" rx="1" ry="1"/><rect class="cls-6" x="689.19" y="300.31" width="6.02" height="7.59" rx="1" ry="1"/><rect class="cls-6" x="655.01" y="313.18" width="6.02" height="7.59" rx="1" ry="1"/><rect class="cls-6" x="666.39" y="313.18" width="6.02" height="7.59" rx="1" ry="1"/><rect class="cls-6" x="655.01" y="326.05" width="6.02" height="7.59" rx="1" ry="1"/><rect class="cls-6" x="666.42" y="326.05" width="6.02" height="7.59" rx="1" ry="1"/><rect class="cls-6" x="677.78" y="313.18" width="6.02" height="7.59" rx="1" ry="1"/><rect class="cls-6" x="689.16" y="313.18" width="6.02" height="7.59" rx="1" ry="1"/><rect class="cls-6" x="677.78" y="326.05" width="6.02" height="7.59" rx="1" ry="1"/><rect class="cls-6" x="689.19" y="326.05" width="6.02" height="7.59" rx="1" ry="1"/><rect class="cls-6" x="655.01" y="351.79" width="6.02" height="7.59" rx="1" ry="1"/><rect class="cls-6" x="666.42" y="351.79" width="6.02" height="7.59" rx="1" ry="1"/><rect class="cls-6" x="677.78" y="351.79" width="6.02" height="7.59" rx="1" ry="1"/><rect class="cls-6" x="689.19" y="351.79" width="6.02" height="7.59" rx="1" ry="1"/><rect class="cls-6" x="655.01" y="364.66" width="6.02" height="7.59" rx="1" ry="1"/><rect class="cls-6" x="666.42" y="364.66" width="6.02" height="7.59" rx="1" ry="1"/><rect class="cls-6" x="677.78" y="364.66" width="6.02" height="7.59" rx="1" ry="1"/><rect class="cls-6" x="689.19" y="364.66" width="6.02" height="7.59" rx="1" ry="1"/><rect class="cls-6" x="655.01" y="338.92" width="6.02" height="7.59" rx="1" ry="1"/><rect class="cls-6" x="666.42" y="338.92" width="6.02" height="7.59" rx="1" ry="1"/><rect class="cls-6" x="677.78" y="338.92" width="6.02" height="7.59" rx="1" ry="1"/><rect class="cls-6" x="689.19" y="338.92" width="6.02" height="7.59" rx="1" ry="1"/><polyline class="cls-7" points="183.36 256.06 278.06 256.06 278.06 269.81"/><path class="cls-5" d="M213.38,302.56h81.48a3,3,0,0,1,3,3v71.5Z"/><circle class="cls-8" cx="435.38" cy="464.24" r="1.37"/><path class="cls-9" d="M795.1,358.69a7.72,7.72,0,0,1-7.72,7.72h-.08c-29.62,0-52.44,11.47-71,29.5-10.71,10.42-20,23-28.29,36.9-3,5-6.51,10.7-10.5,16.57a29.67,29.67,0,0,0-51.67,6.88,29.64,29.64,0,0,0-28.82,7.6l0,0c-.25.25-.49.5-.73.76A30,30,0,0,0,593,469h-13.4a3,3,0,0,0-3,3v18.73c-20.31-11.45-39.83-30-73.24-31.61l-.75,0c-1.26-.05-2.55-.08-3.85-.08a94.94,94.94,0,0,0-24.15,3.19c-14.46,3.79-27.72,10.46-40.85,17.46-7.8,4.16-15.55,8.44-23.48,12.3V472a3,3,0,0,0-3-3H388.77a3,3,0,0,0-3,3v29.69l-.63.17.91-79.53q10.09,1.62,19.67,2.75,14.58,1.77,28,2.49a345.38,345.38,0,0,0,40.85,0,275.92,275.92,0,0,0,28-3.08l.75-.13c27-4.48,49.3-12.68,68-23.06q4-2.2,7.72-4.53a187,187,0,0,0,17.26-12.07c.25-.2.5-.39.75-.6a201.81,201.81,0,0,0,16.32-14.44c40.67-40,61.15-56.39,90-62.66a67.73,67.73,0,0,1,27.55,0,123.36,123.36,0,0,0,14.73,21.37c10.63,12.09,24,20.85,41.72,22.67A7.72,7.72,0,0,1,795.1,358.69Z"/><path class="cls-10" d="M150.17,123.74a19.21,19.21,0,0,0-5.58-16.54,11.82,11.82,0,0,1-2.73-4.29v0A19.47,19.47,0,0,1,146,82.44a14.63,14.63,0,0,0,4.18-8,19.26,19.26,0,1,0-38.32-2.83c0,3.94,2,8.68,4.43,13.1a30.57,30.57,0,0,1,4,14.8,11.8,11.8,0,0,1-3.12,8.15,19.14,19.14,0,0,0-5.3,13.24c0,3.94,2,8.68,4.43,13.1a31,31,0,0,1,3.89,12.48,14.26,14.26,0,0,1-3.65,10.44,19.13,19.13,0,0,0-4.67,12.55c0,4.11,2.13,9.09,4.75,13.66a26.86,26.86,0,0,1,2.66,21.6,9.9,9.9,0,0,0-.48,3,12.33,12.33,0,1,0,24.66,0,21.7,21.7,0,0,0-1.59-7A19.47,19.47,0,0,1,146,180.31a14.74,14.74,0,0,0,4.22-8.23,19.2,19.2,0,0,0-6.32-17,17.23,17.23,0,0,1-3.52-5.45c-2.5-6.37.34-12.46,5.62-17.92A14.66,14.66,0,0,0,150.17,123.74Z"/><path class="cls-11" d="M196.55,146.91a17.9,17.9,0,0,0-5.2-15.42,11,11,0,0,1-2.55-4v0a18.14,18.14,0,0,1,3.86-19.06,13.6,13.6,0,0,0,3.89-7.45,18,18,0,1,0-35.72-2.63c0,3.67,1.83,8.1,4.13,12.21a28.53,28.53,0,0,1,3.72,13.81,11,11,0,0,1-2.91,7.59,17.86,17.86,0,0,0-4.94,12.35c0,3.67,1.83,8.1,4.13,12.21a28.83,28.83,0,0,1,3.62,11.64,13.23,13.23,0,0,1-3.4,9.74,17.83,17.83,0,0,0-4.35,11.7c0,3.83,2,8.47,4.43,12.73a25.09,25.09,0,0,1,2.48,20.15,9.14,9.14,0,0,0-.45,2.81,11.5,11.5,0,0,0,23,0,20.14,20.14,0,0,0-1.48-6.55,18.16,18.16,0,0,1,3.85-19.06,13.72,13.72,0,0,0,3.93-7.67,17.9,17.9,0,0,0-5.88-15.83,15.71,15.71,0,0,1-3.29-5.07c-2.33-6,.32-11.62,5.24-16.72A13.65,13.65,0,0,0,196.55,146.91Z"/><polygon class="cls-5" points="162.86 227.54 144.86 311.04 184.86 319.21 184.86 227.54 162.86 227.54"/><polygon class="cls-4" points="192.36 227.54 184.86 227.54 184.86 319.21 213.38 325.04 192.36 227.54"/><line class="cls-12" x1="162.86" y1="227.54" x2="192.36" y2="227.54"/><polygon class="cls-5" points="116.36 209.04 98.36 292.54 138.36 300.71 138.36 209.04 116.36 209.04"/><polygon class="cls-4" points="145.86 209.04 138.36 209.04 138.36 300.71 166.88 306.54 145.86 209.04"/><path class="cls-13" d="M498.72,459l-1.86,0c-.7,0-1.4,0-2.1.07l-1.53.08h-.07l-.67.05c-.54,0-1.08.07-1.61.12-1,.09-2,.19-3,.32l-1.54.19-.63.09-.3.05-.57.08-.75.12c-.63.1-1.26.2-1.88.32l-1.81.35h-.05q-1.08.21-2.16.45l-.58.13c-1,.23-2,.48-3,.74l-.54.15q-1.08.29-2.16.6l-.22.06-2.45.74-1.32.43-1.32.44-1.22.42-.62.23-.6.21-.89.32-.5.19-1.4.53c-.74.28-1.48.58-2.22.88l-.36.15-2.37,1-.19.09c-.85.36-1.7.73-2.54,1.11L453,470l-1.89.87-1.25.58-1.26.6h0l-.93.45c-1.11.53-2.21,1.08-3.31,1.63l-.27.13-2.31,1.17q-2.67,1.36-5.31,2.77l-2.33,1.23-.28.15-.14.07h0l-.12.06c-.79.42-1.57.85-2.36,1.26a4.77,4.77,0,0,1-.44.24l-2.17,1.16-.75.41L425,484.34l-4.17,2.21-1.68.89h0l-.94.49-2.63,1.36-2.06,1-1,.52c-.73.37-1.45.73-2.18,1.08h0q-2.25,1.1-4.51,2.13h0l-.51.23-2.36,1.05a1.11,1.11,0,0,1-.19.09c-.63.28-1.27.56-1.91.82q-1.26.54-2.52,1.05l-.09,0-.17.07-1.05.41-.7.27-.56.22h0l-1,.4-1,.36-1.36.49-.2.07-1.56.54-.21.07h0c-1.5.5-3,1-4.52,1.43-2.36.69-4.74,1.3-7.16,1.83l-2.3.47c-.65.13-1.31.25-2,.36l-1.47.24-1.47.22-1.49.2-.91.11c-2.19.26-4.41.43-6.66.53h-.3c-3,.12-5.95.15-9,.1l-1.53,0c-1.16,0-2.34-.07-3.51-.13l-1.61-.08-1.44-.08c-1.24-.08-2.48-.18-3.72-.29-.85-.07-1.7-.14-2.56-.23l-1.95-.21-2-.23-2-.25-2.36-.32-1.63-.25c-1.34-.2-2.68-.42-4-.66l-2.42-.44-.8-.15c-1-.19-2-.39-3-.6l-2.28-.48-1.65-.37-2.38-.56-2.44-.59-1.37-.35-2.72-.72-3.12-.87c-.93-.26-1.87-.54-2.81-.82-2.48-.74-5-1.53-7.49-2.38-1-.32-1.91-.64-2.86-1-.75-.26-1.5-.52-2.25-.8l-1.1-.39-.15-.05-3.22-1.2-1.85-.72c-.51-.18-1-.38-1.53-.59q-5.1-2-10.29-4.29-3.46-1.53-7-3.17l-.14-.06-3.38-1.62q-3.51-1.72-7.08-3.55l-3.57-1.87c-1.19-.64-2.39-1.28-3.59-1.94s-2.33-1.28-3.5-1.94l-.24-.13-3.49-2c-2.43-1.4-4.86-2.85-7.31-4.33-1.23-.75-2.46-1.5-3.69-2.27s-2.46-1.54-3.7-2.33l-.07,0q-3.67-2.36-7.38-4.83l-1.71-1.15-1.7-1.15-.42-.29c-1.28-.88-2.57-1.76-3.85-2.66s-2.55-1.8-3.83-2.72q-.75-.52-1.5-1.08l-2.43-1.77q-5.83-4.25-11.74-8.83c-1.19-.92-2.38-1.86-3.57-2.8-1-.8-2-1.61-3.05-2.44-.3-.23-.6-.48-.9-.73q-3.42-2.74-6.86-5.62c-.89-.74-1.78-1.48-2.68-2.2a238.18,238.18,0,0,0-59.15-34.76l-1-.41c-44.58-18.15-85-20.32-97.72-20.53H8.32A7.72,7.72,0,0,1,8.72,351c7.69,0,39-4.92,72.33-38.92.33-.34.67-.68,1-1,.66-.68,1.31-1.37,2-2.08q2-2.18,4.07-4.51c.63-.71,1.26-1.44,1.88-2.18s1.33-1.57,2-2.37,1.32-1.62,2-2.45l2-2.52c.66-.86,1.32-1.72,2-2.6h0l.5-.05a335.68,335.68,0,0,1,39.94-1.2c3.45.1,7,.25,10.7.47,4.79.29,9.75.69,14.84,1.24,6.78.71,13.79,1.67,21,2.94,7.63,1.35,15.43,3,23.3,5.15,2,.53,4,1.1,6,1.69,23.57,6.93,47.46,17.73,68.87,34.25q5.28,4.08,11,8.7l3.76,3c1,.8,2,1.62,3,2.45,6.06,4.89,12.45,10.07,19.15,15.43q4.72,3.79,9.66,7.67c6.13,4.82,12.47,9.72,19,14.61q5.77,4.32,11.77,8.61c1.22.88,2.45,1.76,3.69,2.62q4,2.81,8,5.55,2.82,1.93,5.7,3.83,6.11,4.05,12.39,7.94c1.46.9,2.92,1.8,4.39,2.68,2,1.21,4,2.39,6,3.56l2.13,1.22c1,.56,1.93,1.11,2.9,1.65h0c2.22,1.24,4.45,2.47,6.7,3.67,7,3.73,14.08,7.23,21.29,10.42a245.3,245.3,0,0,0,40.85,14.19A193.11,193.11,0,0,0,498.72,459Z"/><path class="cls-5" d="M410.24,472v19.95q-2.25,1.1-4.51,2.13h0l-.51.23-.94.44-1.42.61a1.11,1.11,0,0,1-.19.09c-.63.28-1.27.56-1.91.82-.83.36-1.68.71-2.52,1.05l-.09,0-.17.07-1.05.41c-.23.1-.46.19-.7.27l-.56.22h0l-1,.4-1,.36-1.36.49-.2.07-1.56.54-.21.07c-1.49.5-3,1-4.52,1.42V472a3,3,0,0,1,3-3h18.47A3,3,0,0,1,410.24,472Z"/><path class="cls-5" d="M501.61,89.64H406.33c10.06-14.76,18.49-31.56,30.83-44.9A27.41,27.41,0,0,1,454.4,64.53a17.43,17.43,0,0,1,28.39,13.56,17,17,0,0,1-.22,2.59,11.63,11.63,0,0,1,19,9Z"/><rect class="cls-5" x="199.5" y="366.31" width="15.44" height="0.1"/><rect class="cls-5" x="390.29" y="366.31" width="15.44" height="0.1"/><path class="cls-5" d="M107.55,330.31H84.05a3,3,0,0,1-3-3V311C47.37,346,15.49,351,7.72,351a7.72,7.72,0,1,0,0,15.43s1.44,0,4.11,0c12.8.21,53.74,2.41,98.72,20.94v-54A3,3,0,0,0,107.55,330.31Z"/><path class="cls-5" d="M8.72,366.41h4.11C10.16,366.37,8.72,366.41,8.72,366.41Z"/><line class="cls-12" x1="116.36" y1="209.04" x2="145.86" y2="209.04"/><circle class="cls-14" cx="344.9" cy="40.31" r="40.31"/><path class="cls-15" d="M320,65.37a34.65,34.65,0,1,0,20.5-58.93"/><circle class="cls-8" cx="264.05" cy="408.31" r="5.47"/><circle class="cls-8" cx="359.92" cy="441.51" r="5.47"/><circle class="cls-8" cx="318.05" cy="468.31" r="2.73"/><circle class="cls-8" cx="182.65" cy="386.31" r="2.73"/><circle class="cls-8" cx="329.02" cy="399.98" r="1.37"/><path class="cls-16" d="M426.44,442.6c-58-27.52-108.74-73.46-143.72-100.46-51-39.37-116.15-46.2-157.35-45.86"/><path class="cls-5" d="M199.5,366.41v78.34q7.8,5.7,15.44,10.8V366.41Z"/><path class="cls-5" d="M405.73,366.41V494.07h0l-.51.23-.94.44-1.61.7c-.63.28-1.27.56-1.91.82q-1.26.54-2.52,1.05l-.09,0-.17.07-1.05.41c-.23.1-.46.19-.7.27l-.56.22h0l-1,.4-1,.36-1.36.49-.2.07-1.56.54-.21.07V366.41Z"/><polygon class="cls-17" points="343.56 461.51 305.98 461.51 324.77 480.3 362.35 480.3 343.56 461.51"/><path class="cls-4" d="M362.35,480.3v25.33h-.3A176.18,176.18,0,0,1,324.77,503V480.3Z"/><rect class="cls-6" x="333.17" y="486.38" width="7.02" height="8.86" rx="1" ry="1"/><rect class="cls-6" x="347.54" y="486.38" width="7.02" height="8.86" rx="1" ry="1"/><path class="cls-5" d="M306,461.51l-18.8,18.79v13.57q7.11,2.53,14,4.56c2.67.78,5.32,1.51,7.95,2.17q8,2,15.64,3.37V480.3Z"/><path class="cls-5" d="M788.38,351c-17.71-1.81-31.09-10.58-41.72-22.67a3,3,0,0,1-2.81,2h-23.5a3,3,0,0,0-3,3v62.6c18.51-18,41.33-29.5,70.95-29.5h.08a7.72,7.72,0,1,0,0-15.43Z"/><path class="cls-12" d="M704.72,312.31c-28.85,6.27-49.34,22.67-90,62.67-23.86,23.46-56,44.21-103.06,53.44"/><circle class="cls-17" cx="682.05" cy="386.98" r="5.47"/><circle class="cls-17" cx="628.05" cy="418.31" r="5.47"/><circle class="cls-17" cx="561.05" cy="457.31" r="2.73"/><circle class="cls-17" cx="522.3" cy="445.31" r="1.37"/><rect class="cls-5" x="109.05" y="350.98" width="609" height="15.43"/><path class="cls-18" d="M181.58,348.92a20.58,20.58,0,0,1-2.05-15.85,7,7,0,0,0,.29-2,8.72,8.72,0,1,0-17.44,0,15.11,15.11,0,0,0,1.13,5,13.79,13.79,0,0,1-2.36,13.82c-2,2.33-3.67,5.21-3.67,8.28a13.62,13.62,0,0,0,27.24,0C184.72,355.39,183.33,352,181.58,348.92Z"/><line class="cls-19" x1="170.7" y1="363.81" x2="170.7" y2="353.14"/><polyline class="cls-19" points="170.7 426.31 170.7 363.81 174.15 360.36"/><path class="cls-20" d="M643,439.15a29.59,29.59,0,0,0-17.14,17.11A29.64,29.64,0,0,0,593,469H598a3,3,0,0,1,3,3v27.4a48.6,48.6,0,0,0,5,.26c31.61,0,55.5-26.71,71.5-50.26A29.66,29.66,0,0,0,643,439.15Z"/><path class="cls-5" d="M601,472a3,3,0,0,0-3-3h-1.52V366.41H581.08V469h-1.52a3,3,0,0,0-3,3v18.73c1.5.85,3,1.64,4.52,2.4h0l1,.49.54.26c.85.4,1.7.79,2.56,1.16l.57.24c.78.33,1.57.65,2.36,1l.41.15c.86.32,1.74.62,2.62.9l.69.21c.89.27,1.79.52,2.71.75l.25.06c.58.13,1.15.27,1.73.38v0c1.49.3,3,.56,4.52.73Z"/><rect class="cls-5" x="229.86" y="269.23" width="13" height="35.5" rx="3" ry="3"/><rect class="cls-5" x="250.69" y="269.23" width="13" height="35.5" rx="3" ry="3"/><rect class="cls-5" x="271.52" y="269.23" width="13" height="35.5" rx="3" ry="3"/><line class="cls-7" x1="257.19" y1="270.06" x2="257.19" y2="256.06"/><line class="cls-7" x1="236.36" y1="270.06" x2="236.36" y2="256.06"/><path class="cls-5" d="M265.66,173.38a16.85,16.85,0,0,1,26.7-13.69,21,21,0,0,1,39.51,4.24,13.35,13.35,0,0,1,21.73,10.38,13,13,0,0,1-.17,2A8.9,8.9,0,0,1,368,183.15H250.58C254.41,176.06,265.66,173.38,265.66,173.38Z"/><path class="cls-5" d="M231.93,183.15a6.47,6.47,0,1,1,12.93,0Z"/><path class="cls-5" d="M433.72,479.64v1c-7.08,3.78-14.12,7.65-21.29,11.21-.73.37-1.45.73-2.18,1.08q-2.25,1.1-4.52,2.13h0v-1h0q2.26-1,4.51-2.13h0c.73-.35,1.45-.71,2.18-1.08l1-.52,2.06-1,2.63-1.36.94-.49h0l1.68-.89,4.17-2.21,2.92-1.57.75-.41,2.17-1.16a4.77,4.77,0,0,0,.44-.24c.79-.41,1.57-.84,2.36-1.26Z"/><rect class="cls-6" x="519.89" y="371.17" width="8.85" height="11.18" rx="1" ry="1"/><rect class="cls-6" x="536.68" y="371.17" width="8.85" height="11.18" rx="1" ry="1"/><rect class="cls-6" x="553.4" y="371.17" width="8.85" height="11.18" rx="1" ry="1"/><rect class="cls-6" x="570.19" y="371.17" width="8.85" height="11.18" rx="1" ry="1"/><rect class="cls-5" x="581.08" y="366.31" width="15.44" height="0.1"/><line class="cls-19" x1="532.05" y1="124.64" x2="532.05" y2="73.31"/><path class="cls-5" d="M597.06,124.89v340l0,0c-.25.25-.49.5-.73.76A30,30,0,0,0,593,470h-13.4a3,3,0,0,0-3,3v18.73c-20.31-11.45-39.83-30-73.24-31.61V124.89Z"/><path class="cls-4" d="M433.72,196V480.64c-7.08,3.78-14.12,7.65-21.29,11.21-.73.37-1.45.73-2.18,1.08q-2.25,1.1-4.52,2.13h0V196Z"/><path class="cls-5" d="M502.57,196V460.06c-1.26-.05-2.55-.08-3.85-.08a94.94,94.94,0,0,0-24.15,3.19c-14.46,3.79-27.72,10.46-40.85,17.46V196Z"/><rect class="cls-6" x="450.62" y="211.95" width="8.85" height="11.18" rx="1" ry="1"/><rect class="cls-6" x="467.38" y="211.95" width="8.85" height="11.18" rx="1" ry="1"/><rect class="cls-6" x="450.62" y="230.9" width="8.85" height="11.18" rx="1" ry="1"/><rect class="cls-6" x="467.42" y="230.9" width="8.85" height="11.18" rx="1" ry="1"/><rect class="cls-6" x="450.62" y="249.84" width="8.85" height="11.18" rx="1" ry="1"/><rect class="cls-6" x="467.38" y="249.84" width="8.85" height="11.18" rx="1" ry="1"/><rect class="cls-6" x="450.62" y="268.78" width="8.85" height="11.18" rx="1" ry="1"/><rect class="cls-6" x="467.42" y="268.78" width="8.85" height="11.18" rx="1" ry="1"/><rect class="cls-6" x="450.62" y="287.72" width="8.85" height="11.18" rx="1" ry="1"/><rect class="cls-6" x="467.42" y="287.72" width="8.85" height="11.18" rx="1" ry="1"/><rect class="cls-6" x="450.62" y="306.66" width="8.85" height="11.18" rx="1" ry="1"/><rect class="cls-6" x="467.42" y="306.66" width="8.85" height="11.18" rx="1" ry="1"/><rect class="cls-6" x="450.62" y="325.61" width="8.85" height="11.18" rx="1" ry="1"/><rect class="cls-6" x="467.38" y="325.61" width="8.85" height="11.18" rx="1" ry="1"/><rect class="cls-6" x="450.62" y="344.55" width="8.85" height="11.18" rx="1" ry="1"/><rect class="cls-6" x="467.42" y="344.55" width="8.85" height="11.18" rx="1" ry="1"/><rect class="cls-6" x="450.62" y="363.49" width="8.85" height="11.18" rx="1" ry="1"/><rect class="cls-6" x="467.42" y="363.49" width="8.85" height="11.18" rx="1" ry="1"/><rect class="cls-6" x="450.62" y="382.43" width="8.85" height="11.18" rx="1" ry="1"/><rect class="cls-6" x="467.38" y="382.43" width="8.85" height="11.18" rx="1" ry="1"/><rect class="cls-6" x="450.62" y="401.38" width="8.85" height="11.18" rx="1" ry="1"/><rect class="cls-6" x="467.42" y="401.38" width="8.85" height="11.18" rx="1" ry="1"/><path class="cls-4" d="M502.57,124.64V460.06c-1.26-.05-2.55-.08-3.85-.08a94.94,94.94,0,0,0-24.15,3.19V124.64Z"/><rect class="cls-6" x="519.89" y="144.86" width="8.85" height="11.18" rx="1" ry="1"/><rect class="cls-6" x="536.65" y="144.86" width="8.85" height="11.18" rx="1" ry="1"/><rect class="cls-6" x="519.89" y="163.8" width="8.85" height="11.18" rx="1" ry="1"/><rect class="cls-6" x="536.68" y="163.8" width="8.85" height="11.18" rx="1" ry="1"/><rect class="cls-6" x="553.4" y="144.86" width="8.85" height="11.18" rx="1" ry="1"/><rect class="cls-6" x="570.16" y="144.86" width="8.85" height="11.18" rx="1" ry="1"/><rect class="cls-6" x="553.4" y="163.8" width="8.85" height="11.18" rx="1" ry="1"/><rect class="cls-6" x="570.19" y="163.8" width="8.85" height="11.18" rx="1" ry="1"/><rect class="cls-6" x="519.89" y="182.74" width="8.85" height="11.18" rx="1" ry="1"/><rect class="cls-6" x="536.65" y="182.74" width="8.85" height="11.18" rx="1" ry="1"/><rect class="cls-6" x="519.89" y="201.69" width="8.85" height="11.18" rx="1" ry="1"/><rect class="cls-6" x="536.68" y="201.69" width="8.85" height="11.18" rx="1" ry="1"/><rect class="cls-6" x="553.4" y="182.74" width="8.85" height="11.18" rx="1" ry="1"/><rect class="cls-6" x="570.16" y="182.74" width="8.85" height="11.18" rx="1" ry="1"/><rect class="cls-6" x="553.4" y="201.69" width="8.85" height="11.18" rx="1" ry="1"/><rect class="cls-6" x="570.19" y="201.69" width="8.85" height="11.18" rx="1" ry="1"/><rect class="cls-6" x="519.89" y="220.63" width="8.85" height="11.18" rx="1" ry="1"/><rect class="cls-6" x="536.68" y="220.63" width="8.85" height="11.18" rx="1" ry="1"/><rect class="cls-6" x="553.4" y="220.63" width="8.85" height="11.18" rx="1" ry="1"/><rect class="cls-6" x="570.19" y="220.63" width="8.85" height="11.18" rx="1" ry="1"/><rect class="cls-6" x="519.89" y="239.57" width="8.85" height="11.18" rx="1" ry="1"/><rect class="cls-6" x="536.68" y="239.57" width="8.85" height="11.18" rx="1" ry="1"/><rect class="cls-6" x="553.4" y="239.57" width="8.85" height="11.18" rx="1" ry="1"/><rect class="cls-6" x="570.19" y="239.57" width="8.85" height="11.18" rx="1" ry="1"/><rect class="cls-6" x="519.89" y="258.51" width="8.85" height="11.18" rx="1" ry="1"/><rect class="cls-6" x="536.65" y="258.51" width="8.85" height="11.18" rx="1" ry="1"/><rect class="cls-6" x="519.89" y="277.45" width="8.85" height="11.18" rx="1" ry="1"/><rect class="cls-6" x="536.68" y="277.45" width="8.85" height="11.18" rx="1" ry="1"/><rect class="cls-6" x="553.4" y="258.51" width="8.85" height="11.18" rx="1" ry="1"/><rect class="cls-6" x="570.16" y="258.51" width="8.85" height="11.18" rx="1" ry="1"/><rect class="cls-6" x="553.4" y="277.45" width="8.85" height="11.18" rx="1" ry="1"/><rect class="cls-6" x="570.19" y="277.45" width="8.85" height="11.18" rx="1" ry="1"/><rect class="cls-6" x="519.89" y="296.4" width="8.85" height="11.18" rx="1" ry="1"/><rect class="cls-6" x="536.68" y="296.4" width="8.85" height="11.18" rx="1" ry="1"/><rect class="cls-6" x="553.4" y="296.4" width="8.85" height="11.18" rx="1" ry="1"/><rect class="cls-6" x="570.19" y="296.4" width="8.85" height="11.18" rx="1" ry="1"/><rect class="cls-6" x="519.89" y="315.34" width="8.85" height="11.18" rx="1" ry="1"/><rect class="cls-6" x="536.65" y="315.34" width="8.85" height="11.18" rx="1" ry="1"/><rect class="cls-6" x="519.89" y="334.28" width="8.85" height="11.18" rx="1" ry="1"/><rect class="cls-6" x="536.68" y="334.28" width="8.85" height="11.18" rx="1" ry="1"/><rect class="cls-6" x="553.4" y="315.34" width="8.85" height="11.18" rx="1" ry="1"/><rect class="cls-6" x="570.16" y="315.34" width="8.85" height="11.18" rx="1" ry="1"/><rect class="cls-6" x="553.4" y="334.28" width="8.85" height="11.18" rx="1" ry="1"/><rect class="cls-6" x="570.19" y="334.28" width="8.85" height="11.18" rx="1" ry="1"/><rect class="cls-6" x="519.89" y="391.11" width="8.85" height="11.18" rx="1" ry="1"/><rect class="cls-6" x="536.68" y="391.11" width="8.85" height="11.18" rx="1" ry="1"/><rect class="cls-6" x="553.4" y="391.11" width="8.85" height="11.18" rx="1" ry="1"/><rect class="cls-6" x="570.19" y="391.11" width="8.85" height="11.18" rx="1" ry="1"/><rect class="cls-6" x="519.89" y="353.22" width="8.85" height="11.18" rx="1" ry="1"/><rect class="cls-6" x="536.68" y="353.22" width="8.85" height="11.18" rx="1" ry="1"/><rect class="cls-6" x="553.4" y="353.22" width="8.85" height="11.18" rx="1" ry="1"/><rect class="cls-6" x="570.19" y="353.22" width="8.85" height="11.18" rx="1" ry="1"/><rect class="cls-6" x="519.89" y="372.17" width="8.85" height="11.18" rx="1" ry="1"/><rect class="cls-6" x="536.68" y="372.17" width="8.85" height="11.18" rx="1" ry="1"/><rect class="cls-6" x="553.4" y="372.17" width="8.85" height="11.18" rx="1" ry="1"/><rect class="cls-6" x="570.19" y="372.17" width="8.85" height="11.18" rx="1" ry="1"/><line class="cls-19" x1="454.72" y1="201.31" x2="454.72" y2="159.31"/></g></g></svg>