<?xml version="1.0" encoding="utf-8"?>
<!-- Generator: Adobe Illustrator 23.0.1, SVG Export Plug-In . SVG Version: 6.00 Build 0)  -->
<svg version="1.1" id="Layer_1" xmlns="http://www.w3.org/2000/svg" xmlns:xlink="http://www.w3.org/1999/xlink" x="0px" y="0px"
	 viewBox="0 0 200 230" style="enable-background:new 0 0 200 230;" xml:space="preserve">
<style type="text/css">
	.st0{fill:#B13737;}
	.st1{fill:url(#SVGID_1_);}
	.st2{fill:url(#SVGID_2_);}
	.st3{fill:url(#SVGID_3_);}
	.st4{fill:url(#SVGID_4_);}
	.st5{fill:#262585;}
	.st6{fill:url(#SVGID_5_);}
	.st7{fill:#FF3C67;}
	.st8{fill:none;stroke:#FF765F;stroke-width:1.4173;stroke-linecap:round;stroke-linejoin:round;stroke-miterlimit:10;}
	.st9{fill:url(#SVGID_6_);}
	.st10{fill:none;stroke:#FF847F;stroke-width:1.4173;stroke-linecap:round;stroke-linejoin:round;stroke-miterlimit:10;}
	.st11{fill:url(#SVGID_7_);}
	.st12{fill:url(#SVGID_8_);}
	.st13{fill:url(#SVGID_9_);}
	.st14{fill:url(#SVGID_10_);}
	.st15{fill:url(#SVGID_11_);}
	.st16{fill:url(#SVGID_12_);}
	.st17{fill:#FFFFFF;}
	.st18{font-family:'Roboto-Regular';}
	.st19{font-size:14px;}
</style>
<g>
	<g>
		
			<rect x="81.8" y="72" transform="matrix(3.315583e-03 -1 1 3.315583e-03 -13.0337 212.6797)" class="st0" width="36.8" height="81.7"/>
	</g>
	<linearGradient id="SVGID_1_" gradientUnits="userSpaceOnUse" x1="45.2382" y1="159.9614" x2="154.5349" y2="159.9614">
		<stop  offset="4.344019e-03" style="stop-color:#E22C22"/>
		<stop  offset="0.2849" style="stop-color:#DF2C21"/>
		<stop  offset="0.4844" style="stop-color:#D62A1C"/>
		<stop  offset="0.6588" style="stop-color:#C62815"/>
		<stop  offset="0.8177" style="stop-color:#B0250B"/>
		<stop  offset="0.9483" style="stop-color:#982100"/>
	</linearGradient>
	<path class="st1" d="M154.4,194.8l-109.2-0.4l0.1-26.3c0.1-23.9,19.5-43.1,43.4-43.1l22.8,0.1c23.9,0.1,43.1,19.5,43.1,43.4
		L154.4,194.8z"/>
	<linearGradient id="SVGID_2_" gradientUnits="userSpaceOnUse" x1="97.6583" y1="159.8902" x2="159.8497" y2="159.8902">
		<stop  offset="6.027748e-03" style="stop-color:#B91000"/>
		<stop  offset="0.3515" style="stop-color:#B60F00"/>
		<stop  offset="0.5972" style="stop-color:#AD0D00"/>
		<stop  offset="0.8112" style="stop-color:#9D0900"/>
		<stop  offset="0.9794" style="stop-color:#8B0400"/>
	</linearGradient>
	<path class="st2" d="M111.6,125.1h-11c17.5,5,30.3,21.1,30.3,40.1c0,11.5-4.6,21.9-12.1,29.4h36.1v-26.3
		C154.8,144.5,135.4,125.1,111.6,125.1z"/>
	<g>
		
			<radialGradient id="SVGID_3_" cx="95.2791" cy="108.8486" r="24.0856" gradientTransform="matrix(1 3.315579e-03 -3.315579e-03 1 5.4431 -1.1425)" gradientUnits="userSpaceOnUse">
			<stop  offset="0.4851" style="stop-color:#FF3C67"/>
			<stop  offset="0.541" style="stop-color:#FF476B"/>
			<stop  offset="0.7332" style="stop-color:#FF6876"/>
			<stop  offset="0.8931" style="stop-color:#FF7D7D"/>
			<stop  offset="1" style="stop-color:#FF847F"/>
		</radialGradient>
		<path class="st3" d="M100,135.6L100,135.6c-6.9,0-12.5-5.6-12.4-12.5l0.1-20.7l25,0.1l-0.1,20.7C112.5,130,106.9,135.6,100,135.6z
			"/>
	</g>
	<g>
		
			<linearGradient id="SVGID_4_" gradientUnits="userSpaceOnUse" x1="54.6457" y1="45.7275" x2="135.4509" y2="92.3804" gradientTransform="matrix(1 3.315579e-03 -3.315579e-03 1 5.4431 -1.1425)">
			<stop  offset="2.985990e-03" style="stop-color:#FF847F"/>
			<stop  offset="0.482" style="stop-color:#FF827E"/>
			<stop  offset="0.6545" style="stop-color:#FF7B7C"/>
			<stop  offset="0.7775" style="stop-color:#FF7078"/>
			<stop  offset="0.8769" style="stop-color:#FF5F73"/>
			<stop  offset="0.9611" style="stop-color:#FF496B"/>
			<stop  offset="1" style="stop-color:#FF3C67"/>
		</linearGradient>
		<path class="st4" d="M100.1,120L100.1,120c-23-0.1-41.5-18.7-41.4-41.7l0.1-20.3c0.1-23,18.7-41.5,41.7-41.4h0
			c23,0.1,41.5,18.7,41.4,41.7l-0.1,20.3C141.7,101.5,123,120,100.1,120z"/>
	</g>
	<g>
		<path class="st5" d="M79.3,73l0-2c0-2.9,2.4-5.2,5.2-5.2h0c2.9,0,5.2,2.4,5.2,5.2l0,2c0,2.9-2.4,5.2-5.2,5.2h0
			C81.6,78.2,79.3,75.8,79.3,73z"/>
	</g>
	<g>
		<path class="st5" d="M109.8,73.1l0-2c0-2.9,2.4-5.2,5.2-5.2h0c2.9,0,5.2,2.4,5.2,5.2l0,2c0,2.9-2.4,5.2-5.2,5.2h0
			C112.1,78.3,109.7,75.9,109.8,73.1z"/>
	</g>
	
		<radialGradient id="SVGID_5_" cx="589.3417" cy="70.8566" r="59.1199" gradientTransform="matrix(-1 3.315579e-03 3.315579e-03 1 689.3506 -1.1425)" gradientUnits="userSpaceOnUse">
		<stop  offset="6.200637e-02" style="stop-color:#A22833"/>
		<stop  offset="0.7131" style="stop-color:#973534"/>
		<stop  offset="0.8144" style="stop-color:#953834"/>
	</radialGradient>
	<path class="st6" d="M49.5,56C49.4,28,72,5.3,100,5.2l0,0c28-0.1,50.7,22.5,50.8,50.5l0,8.9l-0.1,0.1l0.2,63.2
		c0,5.6-4.5,10.2-10.1,10.2h0c-5.6,0-10.2-4.5-10.2-10.1l-0.2-80l-22.1-22L70,64.4l0.2,63.7c0,5.6-4.5,10.2-10.1,10.2h0
		c-5.6,0-10.2-4.5-10.2-10.1l-0.2-66.5l-0.1-0.1L49.5,56z"/>
	<g>
		<path class="st7" d="M97.1,82.8c-1,0-1.7,1-1.3,1.9c0.7,1.7,2.4,2.9,4.4,2.9c2,0,3.7-1.2,4.4-2.9c0.4-0.9-0.3-2-1.3-2L97.1,82.8z"
			/>
	</g>
	<path class="st7" d="M109.1,94.4c-0.5,0-1,0.2-1.4,0.6c-1.9,1.7-4.4,2.8-7.2,2.8c-2.8,0-5.3-1.1-7.1-2.8c-0.4-0.4-0.9-0.6-1.5-0.6
		h0c-2,0-3.1,2.5-1.6,3.9c2.7,2.5,6.2,4,10.2,4c3.9,0,7.4-1.4,10.1-3.8C112.1,97,111.2,94.4,109.1,94.4L109.1,94.4z"/>
	<path class="st8" d="M45.2,194.5l0.1-26.3c0,0-1.1-16.5,12-29.8"/>
	<g>
		
			<radialGradient id="SVGID_6_" cx="51.7246" cy="62.4109" r="62.7309" gradientTransform="matrix(1 3.315579e-03 -3.315579e-03 1 78.9138 -1.1425)" gradientUnits="userSpaceOnUse">
			<stop  offset="1.719087e-02" style="stop-color:#A83D39"/>
			<stop  offset="0.2065" style="stop-color:#A33A38"/>
			<stop  offset="0.4388" style="stop-color:#943134"/>
			<stop  offset="0.6937" style="stop-color:#7B222D"/>
			<stop  offset="0.963" style="stop-color:#580E23"/>
			<stop  offset="1" style="stop-color:#530B22"/>
		</radialGradient>
		<path class="st9" d="M100.6,5.2L100.6,5.2c-7.5,0-14.6,1.6-21,4.5c1.9-0.2,3.9-0.4,5.8-0.4c24.9,0.1,45.3,20.3,45.2,45.3l-0.1,39
			l-0.1,0l-0.1,34.6c0,5.6,4.5,10.2,10.1,10.2h0c5.6,0,10.2-4.5,10.2-10.1l0.3-72.1C151.2,28,128.6,5.3,100.6,5.2z"/>
	</g>
	<path class="st10" d="M100.7,5.3C65.5,5.2,49.9,33.7,49.9,55.8c-0.1,22.1-0.1,68.9-0.1,68.9"/>
</g>
<g>
	<g>
		
			<rect x="655.6" y="2185.1" transform="matrix(3.315583e-03 -1 1 3.315583e-03 -1554.1663 2892.5439)" class="st0" width="36.8" height="81.7"/>
	</g>
	<linearGradient id="SVGID_7_" gradientUnits="userSpaceOnUse" x1="619.0541" y1="2273.0188" x2="728.3508" y2="2273.0188">
		<stop  offset="4.344019e-03" style="stop-color:#E22C22"/>
		<stop  offset="0.2849" style="stop-color:#DF2C21"/>
		<stop  offset="0.4844" style="stop-color:#D62A1C"/>
		<stop  offset="0.6588" style="stop-color:#C62815"/>
		<stop  offset="0.8177" style="stop-color:#B0250B"/>
		<stop  offset="0.9483" style="stop-color:#982100"/>
	</linearGradient>
	<path class="st11" d="M728.3,2307.9l-109.2-0.4l0.1-26.3c0.1-23.9,19.5-43.1,43.4-43.1l22.8,0.1c23.9,0.1,43.1,19.5,43.1,43.4
		L728.3,2307.9z"/>
	<linearGradient id="SVGID_8_" gradientUnits="userSpaceOnUse" x1="671.4742" y1="2272.9478" x2="733.6656" y2="2272.9478">
		<stop  offset="6.027748e-03" style="stop-color:#B91000"/>
		<stop  offset="0.3515" style="stop-color:#B60F00"/>
		<stop  offset="0.5972" style="stop-color:#AD0D00"/>
		<stop  offset="0.8112" style="stop-color:#9D0900"/>
		<stop  offset="0.9794" style="stop-color:#8B0400"/>
	</linearGradient>
	<path class="st12" d="M685.4,2238.2h-11c17.5,5,30.3,21.1,30.3,40.1c0,11.5-4.6,21.9-12.1,29.4h36.1v-26.3
		C728.6,2257.5,709.2,2238.2,685.4,2238.2z"/>
	<g>
		
			<radialGradient id="SVGID_9_" cx="676.0978" cy="2219.9919" r="24.0856" gradientTransform="matrix(1 3.315579e-03 -3.315579e-03 1 5.4431 -1.1425)" gradientUnits="userSpaceOnUse">
			<stop  offset="0.4851" style="stop-color:#FF3C67"/>
			<stop  offset="0.541" style="stop-color:#FF476B"/>
			<stop  offset="0.7332" style="stop-color:#FF6876"/>
			<stop  offset="0.8931" style="stop-color:#FF7D7D"/>
			<stop  offset="1" style="stop-color:#FF847F"/>
		</radialGradient>
		<path class="st13" d="M673.9,2248.6L673.9,2248.6c-6.9,0-12.5-5.6-12.4-12.5l0.1-20.7l25,0.1l-0.1,20.7
			C686.4,2243.1,680.8,2248.6,673.9,2248.6z"/>
	</g>
	<g>
		
			<linearGradient id="SVGID_10_" gradientUnits="userSpaceOnUse" x1="635.4645" y1="2156.8708" x2="716.2697" y2="2203.5237" gradientTransform="matrix(1 3.315579e-03 -3.315579e-03 1 5.4431 -1.1425)">
			<stop  offset="2.985990e-03" style="stop-color:#FF847F"/>
			<stop  offset="0.482" style="stop-color:#FF827E"/>
			<stop  offset="0.6545" style="stop-color:#FF7B7C"/>
			<stop  offset="0.7775" style="stop-color:#FF7078"/>
			<stop  offset="0.8769" style="stop-color:#FF5F73"/>
			<stop  offset="0.9611" style="stop-color:#FF496B"/>
			<stop  offset="1" style="stop-color:#FF3C67"/>
		</linearGradient>
		<path class="st14" d="M673.9,2233L673.9,2233c-23-0.1-41.5-18.7-41.4-41.7l0.1-20.3c0.1-23,18.7-41.5,41.7-41.4h0
			c23,0.1,41.5,18.7,41.4,41.7l-0.1,20.3C715.5,2214.5,696.9,2233.1,673.9,2233z"/>
	</g>
	<g>
		<path class="st5" d="M653.1,2186l0-2c0-2.9,2.4-5.2,5.2-5.2l0,0c2.9,0,5.2,2.4,5.2,5.2l0,2c0,2.9-2.4,5.2-5.2,5.2l0,0
			C655.5,2191.2,653.1,2188.9,653.1,2186z"/>
	</g>
	<g>
		<path class="st5" d="M683.6,2186.1l0-2c0-2.9,2.4-5.2,5.2-5.2l0,0c2.9,0,5.2,2.4,5.2,5.2l0,2c0,2.9-2.4,5.2-5.2,5.2h0
			C685.9,2191.3,683.6,2189,683.6,2186.1z"/>
	</g>
	
		<radialGradient id="SVGID_11_" cx="22.535" cy="2185.8049" r="59.1199" gradientTransform="matrix(-1 3.315579e-03 3.315579e-03 1 689.3506 -1.1425)" gradientUnits="userSpaceOnUse">
		<stop  offset="6.200637e-02" style="stop-color:#A22833"/>
		<stop  offset="0.7131" style="stop-color:#973534"/>
		<stop  offset="0.8144" style="stop-color:#953834"/>
	</radialGradient>
	<path class="st15" d="M623.3,2169.1c-0.1-28,22.5-50.7,50.5-50.8h0c28-0.1,50.7,22.5,50.8,50.5l0,8.9l-0.1,0.1l0.2,63.2
		c0,5.6-4.5,10.2-10.1,10.2h0c-5.6,0-10.2-4.5-10.2-10.1l-0.2-80l-22.1-22l-38.3,38.5l0.2,63.7c0,5.6-4.5,10.2-10.1,10.2l0,0
		c-5.6,0-10.2-4.5-10.2-10.1l-0.2-66.5l-0.1-0.1L623.3,2169.1z"/>
	<g>
		<path class="st7" d="M670.9,2195.8c-1,0-1.7,1-1.3,1.9c0.7,1.7,2.4,2.9,4.4,2.9c2,0,3.7-1.2,4.4-2.9c0.4-0.9-0.3-2-1.3-2
			L670.9,2195.8z"/>
	</g>
	<path class="st7" d="M682.9,2207.5c-0.5,0-1,0.2-1.4,0.6c-1.9,1.7-4.4,2.8-7.2,2.8c-2.8,0-5.3-1.1-7.1-2.8
		c-0.4-0.4-0.9-0.6-1.5-0.6l0,0c-2,0-3.1,2.5-1.6,3.9c2.7,2.5,6.2,4,10.2,4c3.9,0,7.4-1.4,10.1-3.8
		C685.9,2210.1,685,2207.5,682.9,2207.5L682.9,2207.5z"/>
	<path class="st8" d="M619.1,2307.5l0.1-26.3c0,0-1.1-16.5,12-29.8"/>
	<g>
		
			<radialGradient id="SVGID_12_" cx="632.5433" cy="2173.5542" r="62.7309" gradientTransform="matrix(1 3.315579e-03 -3.315579e-03 1 78.9138 -1.1425)" gradientUnits="userSpaceOnUse">
			<stop  offset="1.719087e-02" style="stop-color:#A83D39"/>
			<stop  offset="0.2065" style="stop-color:#A33A38"/>
			<stop  offset="0.4388" style="stop-color:#943134"/>
			<stop  offset="0.6937" style="stop-color:#7B222D"/>
			<stop  offset="0.963" style="stop-color:#580E23"/>
			<stop  offset="1" style="stop-color:#530B22"/>
		</radialGradient>
		<path class="st16" d="M674.5,2118.2L674.5,2118.2c-7.5,0-14.6,1.6-21,4.5c1.9-0.2,3.9-0.4,5.8-0.4c24.9,0.1,45.3,20.3,45.2,45.3
			l-0.1,39h-0.1l-0.1,34.6c0,5.6,4.5,10.2,10.1,10.2h0c5.6,0,10.2-4.5,10.2-10.1l0.3-72.1C725,2141.1,702.4,2118.3,674.5,2118.2z"/>
	</g>
	<path class="st10" d="M674.5,2118.4c-35.2-0.1-50.8,28.4-50.8,50.5s-0.1,68.9-0.1,68.9"/>
</g>
<text transform="matrix(1 0 0 1 77.8245 209.4062)"><tspan x="0" y="0" class="st17 st18 st19">BRUNE</tspan><tspan x="-18.5" y="16.8" class="st17 st18 st19">DE LA FERTÉ</tspan></text>
</svg>
