<?xml version="1.0" encoding="utf-8"?>
<!-- Generator: Adobe Illustrator 23.0.1, SVG Export Plug-In . SVG Version: 6.00 Build 0)  -->
<svg version="1.1" id="Layer_1" xmlns="http://www.w3.org/2000/svg" xmlns:xlink="http://www.w3.org/1999/xlink" x="0px" y="0px"
	 viewBox="0 0 200 230" style="enable-background:new 0 0 200 230;" xml:space="preserve">
<style type="text/css">
	.st0{fill:#B13737;}
	.st1{fill:url(#SVGID_1_);}
	.st2{fill:#FFAF22;}
	.st3{fill:url(#SVGID_2_);}
	.st4{fill:url(#SVGID_3_);}
	.st5{fill:#262585;}
	.st6{fill:url(#SVGID_4_);}
	.st7{fill:#FF3C67;}
	.st8{fill:none;stroke:#FFE05C;stroke-width:1.4173;stroke-linecap:round;stroke-linejoin:round;stroke-miterlimit:10;}
	.st9{fill:url(#SVGID_5_);}
	.st10{fill:url(#SVGID_6_);}
	.st11{fill:none;stroke:#FF847F;stroke-width:1.4173;stroke-linecap:round;stroke-linejoin:round;stroke-miterlimit:10;}
	.st12{fill:#FFFFFF;}
	.st13{font-family:'Roboto-Regular';}
	.st14{font-size:14px;}
</style>
<g>
	<g>
		
			<rect x="81.7" y="72" transform="matrix(3.315565e-03 -1 1 3.315565e-03 -13.0368 212.6277)" class="st0" width="36.8" height="81.7"/>
	</g>
	<g>
		
			<radialGradient id="SVGID_1_" cx="96.6754" cy="126.0041" r="24.0856" gradientTransform="matrix(1 3.315579e-03 3.315579e-03 -1 3.2681 233.7056)" gradientUnits="userSpaceOnUse">
			<stop  offset="0.4851" style="stop-color:#FF3C67"/>
			<stop  offset="0.541" style="stop-color:#FF476B"/>
			<stop  offset="0.7332" style="stop-color:#FF6876"/>
			<stop  offset="0.8931" style="stop-color:#FF7D7D"/>
			<stop  offset="1" style="stop-color:#FF847F"/>
		</radialGradient>
		<path class="st1" d="M100,135.6L100,135.6c-6.9,0-12.5-5.6-12.4-12.5l0.1-20.7l25,0.1l-0.1,20.7C112.5,130,106.9,135.6,100,135.6z
			"/>
	</g>
	<rect x="87.6" y="121.3" class="st2" width="25" height="21.2"/>
	
		<linearGradient id="SVGID_2_" gradientUnits="userSpaceOnUse" x1="45.2" y1="72.1" x2="154.6" y2="72.1" gradientTransform="matrix(1 0 0 -1 0 232)">
		<stop  offset="3.030711e-04" style="stop-color:#FFAF22"/>
		<stop  offset="0.3752" style="stop-color:#FFAD1F"/>
		<stop  offset="0.6417" style="stop-color:#FFA616"/>
		<stop  offset="0.8739" style="stop-color:#FF9B06"/>
		<stop  offset="0.9437" style="stop-color:#FF9600"/>
	</linearGradient>
	<path class="st3" d="M154.4,194.8l-109.2-0.4l0.1-26.3c0.1-23.9,19.5-43.1,43.4-43.1l22.8,0.1c23.9,0.1,43.1,19.5,43.1,43.4
		L154.4,194.8z"/>
	<g>
		
			<linearGradient id="SVGID_3_" gradientUnits="userSpaceOnUse" x1="56.0955" y1="189.0429" x2="136.8242" y2="142.4341" gradientTransform="matrix(1 3.315579e-03 3.315579e-03 -1 3.2681 233.7056)">
			<stop  offset="2.985990e-03" style="stop-color:#FF847F"/>
			<stop  offset="0.482" style="stop-color:#FF827E"/>
			<stop  offset="0.6545" style="stop-color:#FF7B7C"/>
			<stop  offset="0.7775" style="stop-color:#FF7078"/>
			<stop  offset="0.8769" style="stop-color:#FF5F73"/>
			<stop  offset="0.9611" style="stop-color:#FF496B"/>
			<stop  offset="1" style="stop-color:#FF3C67"/>
		</linearGradient>
		<path class="st4" d="M100.1,120L100.1,120c-23-0.1-41.5-18.7-41.4-41.7L58.8,58c0.1-23,18.7-41.5,41.7-41.4l0,0
			c23,0.1,41.5,18.7,41.4,41.7l-0.1,20.3C141.7,101.5,123,120,100.1,120z"/>
	</g>
	<g>
		<path class="st5" d="M79.3,73v-2c0-2.9,2.4-5.2,5.2-5.2l0,0c2.9,0,5.2,2.4,5.2,5.2v2c0,2.9-2.4,5.2-5.2,5.2l0,0
			C81.6,78.2,79.3,75.8,79.3,73z"/>
	</g>
	<g>
		<path class="st5" d="M109.8,73.1v-2c0-2.9,2.4-5.2,5.2-5.2l0,0c2.9,0,5.2,2.4,5.2,5.2v2c0,2.9-2.4,5.2-5.2,5.2l0,0
			C112.1,78.3,109.7,75.9,109.8,73.1z"/>
	</g>
	
		<radialGradient id="SVGID_4_" cx="-1127.2017" cy="158.2513" r="59.1182" gradientTransform="matrix(-1 3.315579e-03 -3.315579e-03 -1 -1026.4744 233.7056)" gradientUnits="userSpaceOnUse">
		<stop  offset="5.739295e-02" style="stop-color:#D1634D"/>
		<stop  offset="0.5255" style="stop-color:#C8564C"/>
		<stop  offset="0.8107" style="stop-color:#C04B4C"/>
	</radialGradient>
	<path class="st6" d="M49.5,56C49.4,28,72,5.3,100,5.2l0,0c28-0.1,50.7,22.5,50.8,50.5v8.9l-0.1,0.1l0.2,63.2
		c0,5.6-4.5,10.2-10.1,10.2l0,0c-5.6,0-10.2-4.5-10.2-10.1l-0.2-80l-22.1-22L70,64.4l0.2,63.7c0,5.6-4.5,10.2-10.1,10.2l0,0
		c-5.6,0-10.2-4.5-10.2-10.1l-0.2-66.5l-0.1-0.1L49.5,56z"/>
	<g>
		<path class="st7" d="M97.1,82.8c-1,0-1.7,1-1.3,1.9c0.7,1.7,2.4,2.9,4.4,2.9s3.7-1.2,4.4-2.9c0.4-0.9-0.3-2-1.3-2L97.1,82.8z"/>
	</g>
	<path class="st7" d="M109.1,94.4c-0.5,0-1,0.2-1.4,0.6c-1.9,1.7-4.4,2.8-7.2,2.8c-2.8,0-5.3-1.1-7.1-2.8c-0.4-0.4-0.9-0.6-1.5-0.6
		l0,0c-2,0-3.1,2.5-1.6,3.9c2.7,2.5,6.2,4,10.2,4c3.9,0,7.4-1.4,10.1-3.8C112.1,97,111.2,94.4,109.1,94.4L109.1,94.4z"/>
	<path class="st8" d="M45.2,194.5l0.1-26.3c0,0-1.1-16.5,12-29.8"/>
	
		<linearGradient id="SVGID_5_" gradientUnits="userSpaceOnUse" x1="97.6583" y1="72.15" x2="159.8497" y2="72.15" gradientTransform="matrix(1 0 0 -1 0 232)">
		<stop  offset="1.144935e-03" style="stop-color:#FF9A00"/>
		<stop  offset="0.3587" style="stop-color:#FF9700"/>
		<stop  offset="0.6129" style="stop-color:#FF8E00"/>
		<stop  offset="0.8343" style="stop-color:#FF7E00"/>
		<stop  offset="0.9391" style="stop-color:#FF7400"/>
	</linearGradient>
	<path class="st9" d="M111.6,125.1h-11c17.5,5,30.3,21.1,30.3,40.1c0,11.5-4.6,21.9-12.1,29.4h36.1v-26.3
		C154.8,144.5,135.4,125.1,111.6,125.1z"/>
	<g>
		
			<radialGradient id="SVGID_6_" cx="53.1209" cy="172.4418" r="62.7309" gradientTransform="matrix(1 3.315579e-03 3.315579e-03 -1 76.7388 233.7056)" gradientUnits="userSpaceOnUse">
			<stop  offset="1.087689e-02" style="stop-color:#B64939"/>
			<stop  offset="0.4872" style="stop-color:#B54438"/>
			<stop  offset="1" style="stop-color:#B13737"/>
		</radialGradient>
		<path class="st10" d="M100.6,5.2L100.6,5.2c-7.5,0-14.6,1.6-21,4.5c1.9-0.2,3.9-0.4,5.8-0.4c24.9,0.1,45.3,20.3,45.2,45.3l-0.1,39
			h-0.1l-0.1,34.6c0,5.6,4.5,10.2,10.1,10.2l0,0c5.6,0,10.2-4.5,10.2-10.1l0.3-72.1C151.2,28,128.6,5.3,100.6,5.2z"/>
	</g>
	<path class="st11" d="M100.7,5.3C65.5,5.2,49.9,33.7,49.9,55.8c-0.1,22.1-0.1,68.9-0.1,68.9"/>
</g>
<text transform="matrix(1 0 0 1 77.2603 209.4062)" class="st12 st13 st14">CÉCILE</text>
<text transform="matrix(1 0 0 1 75.4603 226.2062)" class="st12 st13 st14">MOODY</text>
</svg>
