<?xml version="1.0" encoding="utf-8"?>
<!-- Generator: Adobe Illustrator 23.0.1, SVG Export Plug-In . SVG Version: 6.00 Build 0)  -->
<svg version="1.1" id="Layer_1" xmlns="http://www.w3.org/2000/svg" xmlns:xlink="http://www.w3.org/1999/xlink" x="0px" y="0px"
	 viewBox="0 0 200 230" style="enable-background:new 0 0 200 230;" xml:space="preserve">
<style type="text/css">
	.st0{fill:url(#SVGID_1_);}
	.st1{fill:url(#SVGID_2_);}
	.st2{fill:url(#SVGID_3_);}
	.st3{fill:url(#SVGID_4_);}
	.st4{fill:url(#SVGID_5_);}
	.st5{fill:url(#SVGID_6_);}
	.st6{fill:#262585;}
	.st7{fill:#FF3C67;}
	.st8{fill:none;stroke:#FFE05C;stroke-width:1.4173;stroke-linecap:round;stroke-linejoin:round;stroke-miterlimit:10;}
	.st9{fill:url(#SVGID_7_);}
	.st10{fill:url(#SVGID_8_);}
	.st11{fill:url(#SVGID_9_);}
	.st12{fill:none;stroke:#7259CE;stroke-width:1.4173;stroke-linecap:round;stroke-linejoin:round;stroke-miterlimit:10;}
	.st13{fill:#FFFFFF;}
	.st14{font-family:'Roboto-Regular';}
	.st15{font-size:14px;}
</style>
<g>
	
		<radialGradient id="SVGID_1_" cx="100.0502" cy="889.4498" r="40.3036" gradientTransform="matrix(1 0 0 1 0 -848)" gradientUnits="userSpaceOnUse">
		<stop  offset="6.707974e-02" style="stop-color:#8A5BCE"/>
		<stop  offset="0.2136" style="stop-color:#8557CB"/>
		<stop  offset="0.7975" style="stop-color:#4820A9"/>
	</radialGradient>
	<path class="st0" d="M146.1,74.9l0.1-20.6c0.1-25.5-20.5-46.2-46-46.3l0,0C74.8,7.9,54,28.5,54,54l-0.1,20.9H146.1z"/>
	<g>
		
			<linearGradient id="SVGID_2_" gradientUnits="userSpaceOnUse" x1="-3335.9338" y1="2325.8877" x2="-3314.8662" y2="2325.8877" gradientTransform="matrix(-1 0 0 -1 -3266.7734 2401.6877)">
			<stop  offset="2.985990e-03" style="stop-color:#FF847F"/>
			<stop  offset="0.482" style="stop-color:#FF827E"/>
			<stop  offset="0.6545" style="stop-color:#FF7B7C"/>
			<stop  offset="0.7775" style="stop-color:#FF7078"/>
			<stop  offset="0.8769" style="stop-color:#FF5F73"/>
			<stop  offset="0.9611" style="stop-color:#FF496B"/>
			<stop  offset="1" style="stop-color:#FF3C67"/>
		</linearGradient>
		<circle class="st1" cx="58.6" cy="75.8" r="10.5"/>
	</g>
	<g>
		
			<linearGradient id="SVGID_3_" gradientUnits="userSpaceOnUse" x1="131.3516" y1="923.8" x2="152.4194" y2="923.8" gradientTransform="matrix(1 0 0 1 0 -848)">
			<stop  offset="2.985990e-03" style="stop-color:#FF847F"/>
			<stop  offset="0.482" style="stop-color:#FF827E"/>
			<stop  offset="0.6545" style="stop-color:#FF7B7C"/>
			<stop  offset="0.7775" style="stop-color:#FF7078"/>
			<stop  offset="0.8769" style="stop-color:#FF5F73"/>
			<stop  offset="0.9611" style="stop-color:#FF496B"/>
			<stop  offset="1" style="stop-color:#FF3C67"/>
		</linearGradient>
		<circle class="st2" cx="141.9" cy="75.8" r="10.5"/>
	</g>
	<g>
		
			<radialGradient id="SVGID_4_" cx="98.0623" cy="948.3206" r="24.0856" gradientTransform="matrix(1 3.315579e-03 -3.315579e-03 1 5.4431 -843.4464)" gradientUnits="userSpaceOnUse">
			<stop  offset="0.4851" style="stop-color:#FF3C67"/>
			<stop  offset="0.541" style="stop-color:#FF476B"/>
			<stop  offset="0.7332" style="stop-color:#FF6876"/>
			<stop  offset="0.8931" style="stop-color:#FF7D7D"/>
			<stop  offset="1" style="stop-color:#FF847F"/>
		</radialGradient>
		<path class="st3" d="M100,132.7L100,132.7c-6.9,0-12.5-5.6-12.4-12.5l0.1-20.7l25,0.1l-0.1,20.7
			C112.5,127.2,106.9,132.8,100,132.7z"/>
	</g>
	
		<linearGradient id="SVGID_5_" gradientUnits="userSpaceOnUse" x1="45.2" y1="1005.1" x2="154.6" y2="1005.1" gradientTransform="matrix(1 0 0 1 0 -848)">
		<stop  offset="3.030711e-04" style="stop-color:#FFAF22"/>
		<stop  offset="0.3752" style="stop-color:#FFAD1F"/>
		<stop  offset="0.6417" style="stop-color:#FFA616"/>
		<stop  offset="0.8739" style="stop-color:#FF9B06"/>
		<stop  offset="0.9437" style="stop-color:#FF9600"/>
	</linearGradient>
	<path class="st4" d="M154.4,192l-109.2-0.4l0.1-26.3c0.1-23.9,19.5-43.1,43.4-43.1l22.8,0.1c23.9,0.1,43.1,19.5,43.1,43.4
		L154.4,192z"/>
	<g>
		
			<linearGradient id="SVGID_6_" gradientUnits="userSpaceOnUse" x1="57.4822" y1="885.2043" x2="138.2397" y2="931.8299" gradientTransform="matrix(1 3.315579e-03 -3.315579e-03 1 5.4431 -843.4464)">
			<stop  offset="2.985990e-03" style="stop-color:#FF847F"/>
			<stop  offset="0.482" style="stop-color:#FF827E"/>
			<stop  offset="0.6545" style="stop-color:#FF7B7C"/>
			<stop  offset="0.7775" style="stop-color:#FF7078"/>
			<stop  offset="0.8769" style="stop-color:#FF5F73"/>
			<stop  offset="0.9611" style="stop-color:#FF496B"/>
			<stop  offset="1" style="stop-color:#FF3C67"/>
		</linearGradient>
		<path class="st5" d="M100.1,117.1L100.1,117.1c-23-0.1-41.5-18.7-41.4-41.7l0.1-20.3c0.1-23,18.7-41.5,41.7-41.4l0,0
			c23,0.1,41.5,18.7,41.4,41.7l-0.1,20.3C141.7,98.7,123,117.2,100.1,117.1z"/>
	</g>
	<g>
		<path class="st6" d="M79.3,70.1v-2c0-2.9,2.4-5.2,5.2-5.2l0,0c2.9,0,5.2,2.4,5.2,5.2v2c0,2.9-2.4,5.2-5.2,5.2l0,0
			C81.6,75.4,79.3,73,79.3,70.1z"/>
	</g>
	<g>
		<path class="st6" d="M109.8,70.2v-2c0-2.9,2.4-5.2,5.2-5.2l0,0c2.9,0,5.2,2.4,5.2,5.2v2c0,2.9-2.4,5.2-5.2,5.2l0,0
			C112.1,75.5,109.7,73.1,109.8,70.2z"/>
	</g>
	<g>
		<path class="st7" d="M97.1,79.9c-1,0-1.7,1-1.3,1.9c0.7,1.7,2.4,2.9,4.4,2.9s3.7-1.2,4.4-2.9c0.4-0.9-0.3-2-1.3-2L97.1,79.9z"/>
	</g>
	<path class="st7" d="M109.1,91.6c-0.5,0-1,0.2-1.4,0.6c-1.9,1.7-4.4,2.8-7.2,2.8c-2.8,0-5.3-1.1-7.1-2.8c-0.4-0.4-0.9-0.6-1.5-0.6
		l0,0c-2,0-3.1,2.5-1.6,3.9c2.7,2.5,6.2,4,10.2,4c3.9,0,7.4-1.4,10.1-3.8C112.1,94.2,111.2,91.6,109.1,91.6L109.1,91.6z"/>
	<path class="st8" d="M45.2,191.7l0.1-26.3c0,0-1.1-16.5,12-29.8"/>
	
		<linearGradient id="SVGID_7_" gradientUnits="userSpaceOnUse" x1="97.6583" y1="1005.05" x2="159.8497" y2="1005.05" gradientTransform="matrix(1 0 0 1 0 -848)">
		<stop  offset="1.144935e-03" style="stop-color:#FF9A00"/>
		<stop  offset="0.3587" style="stop-color:#FF9700"/>
		<stop  offset="0.6129" style="stop-color:#FF8E00"/>
		<stop  offset="0.8343" style="stop-color:#FF7E00"/>
		<stop  offset="0.9391" style="stop-color:#FF7400"/>
	</linearGradient>
	<path class="st9" d="M111.6,122.3h-11c17.5,5,30.3,21.1,30.3,40.1c0,11.5-4.6,21.9-12.1,29.4h36.1v-26.3
		C154.8,141.6,135.4,122.3,111.6,122.3z"/>
	
		<radialGradient id="SVGID_8_" cx="71.6489" cy="859.0861" r="47.0074" gradientTransform="matrix(1 0 0 1 0 -848)" gradientUnits="userSpaceOnUse">
		<stop  offset="0" style="stop-color:#4820A9"/>
		<stop  offset="8.873677e-02" style="stop-color:#5A30B3"/>
		<stop  offset="0.2245" style="stop-color:#6F43BF"/>
		<stop  offset="0.3758" style="stop-color:#7E51C8"/>
		<stop  offset="0.5534" style="stop-color:#8759CC"/>
		<stop  offset="0.822" style="stop-color:#8A5BCE"/>
	</radialGradient>
	<polygon class="st10" points="69.2,8.1 100.3,8.1 100.3,33.2 	"/>
	
		<radialGradient id="SVGID_9_" cx="100.1" cy="868.5996" r="30.3089" gradientTransform="matrix(1 0 0 1 0 -848)" gradientUnits="userSpaceOnUse">
		<stop  offset="0" style="stop-color:#8A5BCE"/>
		<stop  offset="1" style="stop-color:#4820A9"/>
	</radialGradient>
	<path class="st11" d="M141.1,33.1c-7.6-14.8-23-24.9-40.8-25l0,0C82.4,8,66.8,18.2,59.1,33.1H141.1z"/>
	<path class="st12" d="M59.1,33.1c0,0-6,12.7-4.9,32.7"/>
</g>
<text transform="matrix(1 0 0 1 72.625 206.4639)" class="st13 st14 st15">JÉRÉMIE </text>
<text transform="matrix(1 0 0 1 66.825 225.6639)" class="st13 st14 st15">GAUTHIER</text>
</svg>
