<?xml version="1.0" encoding="utf-8"?>
<!-- Generator: Adobe Illustrator 23.0.1, SVG Export Plug-In . SVG Version: 6.00 Build 0)  -->
<svg version="1.1" id="Layer_1" xmlns="http://www.w3.org/2000/svg" xmlns:xlink="http://www.w3.org/1999/xlink" x="0px" y="0px"
	 viewBox="0 0 200 230" style="enable-background:new 0 0 200 230;" xml:space="preserve">
<style type="text/css">
	.st0{fill:#AF4D28;}
	.st1{fill:url(#SVGID_1_);}
	.st2{fill:#0AA361;}
	.st3{fill:url(#SVGID_2_);}
	.st4{fill:url(#SVGID_3_);}
	.st5{fill:url(#SVGID_4_);}
	.st6{fill:#262585;}
	.st7{fill:#FF3C67;}
	.st8{fill:none;stroke:#6CFFC0;stroke-width:1.4173;stroke-linecap:round;stroke-linejoin:round;stroke-miterlimit:10;}
	.st9{fill:url(#SVGID_5_);}
	.st10{fill:url(#SVGID_6_);}
	.st11{fill:none;stroke:#FFAD80;stroke-width:1.4173;stroke-linecap:round;stroke-linejoin:round;stroke-miterlimit:10;}
	.st12{fill:#FFFFFF;}
	.st13{font-family:'Roboto-Regular';}
	.st14{font-size:14px;}
</style>
<g>
	<g>
		
			<rect x="81.7" y="72.1" transform="matrix(3.315547e-03 -1 1 3.315547e-03 -13.0882 212.6721)" class="st0" width="36.8" height="81.7"/>
	</g>
	<g>
		
			<radialGradient id="SVGID_1_" cx="98.0717" cy="951.1432" r="24.0856" gradientTransform="matrix(1 3.315579e-03 -3.315579e-03 1 5.4431 -843.4464)" gradientUnits="userSpaceOnUse">
			<stop  offset="0.4851" style="stop-color:#FF3C67"/>
			<stop  offset="0.541" style="stop-color:#FF476B"/>
			<stop  offset="0.7332" style="stop-color:#FF6876"/>
			<stop  offset="0.8931" style="stop-color:#FF7D7D"/>
			<stop  offset="1" style="stop-color:#FF847F"/>
		</radialGradient>
		<path class="st1" d="M100,135.6L100,135.6c-6.9,0-12.5-5.6-12.4-12.5l0.1-20.7l25,0.1l-0.1,20.7C112.5,130,106.9,135.6,100,135.6z
			"/>
	</g>
	<rect x="87.6" y="121.6" class="st2" width="25" height="21.2"/>
	
		<linearGradient id="SVGID_2_" gradientUnits="userSpaceOnUse" x1="45.2" y1="1007.9" x2="154.6" y2="1007.9" gradientTransform="matrix(1 0 0 1 0 -848)">
		<stop  offset="4.310345e-03" style="stop-color:#0AA361"/>
		<stop  offset="0.5899" style="stop-color:#0E9C62"/>
		<stop  offset="0.9507" style="stop-color:#139564"/>
	</linearGradient>
	<path class="st3" d="M154.4,194.8l-109.2-0.4l0.1-26.3c0.1-23.9,19.5-43.1,43.4-43.1l22.8,0.1c23.9,0.1,43.1,19.5,43.1,43.4
		L154.4,194.8z"/>
	
		<linearGradient id="SVGID_3_" gradientUnits="userSpaceOnUse" x1="97.6583" y1="1007.85" x2="159.8497" y2="1007.85" gradientTransform="matrix(1 0 0 1 0 -848)">
		<stop  offset="9.694300e-02" style="stop-color:#378F66"/>
		<stop  offset="0.3452" style="stop-color:#368C64"/>
		<stop  offset="0.5218" style="stop-color:#31835F"/>
		<stop  offset="0.6761" style="stop-color:#297357"/>
		<stop  offset="0.8177" style="stop-color:#1E5D4B"/>
		<stop  offset="0.9493" style="stop-color:#10413B"/>
		<stop  offset="0.9994" style="stop-color:#0A3434"/>
	</linearGradient>
	<path class="st4" d="M111.6,125.1h-11c17.5,5,30.3,21.1,30.3,40.1c0,11.5-4.6,21.9-12.1,29.4h36.1v-26.3
		C154.8,144.5,135.4,125.1,111.6,125.1z"/>
	<g>
		
			<linearGradient id="SVGID_4_" gradientUnits="userSpaceOnUse" x1="57.4918" y1="888.1044" x2="138.2206" y2="934.7132" gradientTransform="matrix(1 3.315579e-03 -3.315579e-03 1 5.4431 -843.4464)">
			<stop  offset="2.985990e-03" style="stop-color:#FF847F"/>
			<stop  offset="0.482" style="stop-color:#FF827E"/>
			<stop  offset="0.6545" style="stop-color:#FF7B7C"/>
			<stop  offset="0.7775" style="stop-color:#FF7078"/>
			<stop  offset="0.8769" style="stop-color:#FF5F73"/>
			<stop  offset="0.9611" style="stop-color:#FF496B"/>
			<stop  offset="1" style="stop-color:#FF3C67"/>
		</linearGradient>
		<path class="st5" d="M100.1,120L100.1,120c-23-0.1-41.5-18.7-41.4-41.7L58.8,58c0.1-23,18.7-41.5,41.7-41.4l0,0
			c23,0.1,41.5,18.7,41.4,41.7l-0.1,20.3C141.7,101.5,123,120,100.1,120z"/>
	</g>
	<g>
		<path class="st6" d="M79.3,73v-2c0-2.9,2.4-5.2,5.2-5.2l0,0c2.9,0,5.2,2.4,5.2,5.2v2c0,2.9-2.4,5.2-5.2,5.2l0,0
			C81.6,78.2,79.3,75.8,79.3,73z"/>
	</g>
	<g>
		<path class="st6" d="M109.8,73.1v-2c0-2.9,2.4-5.2,5.2-5.2l0,0c2.9,0,5.2,2.4,5.2,5.2v2c0,2.9-2.4,5.2-5.2,5.2l0,0
			C112.1,78.3,109.7,75.9,109.8,73.1z"/>
	</g>
	<g>
		<path class="st7" d="M97.1,82.8c-1,0-1.7,1-1.3,1.9c0.7,1.7,2.4,2.9,4.4,2.9s3.7-1.2,4.4-2.9c0.4-0.9-0.3-2-1.3-2L97.1,82.8z"/>
	</g>
	<path class="st7" d="M109.1,94.4c-0.5,0-1,0.2-1.4,0.6c-1.9,1.7-4.4,2.8-7.2,2.8c-2.8,0-5.3-1.1-7.1-2.8c-0.4-0.4-0.9-0.6-1.5-0.6
		l0,0c-2,0-3.1,2.5-1.6,3.9c2.7,2.5,6.2,4,10.2,4c3.9,0,7.4-1.4,10.1-3.8C112.1,97,111.2,94.4,109.1,94.4L109.1,94.4z"/>
	<path class="st8" d="M45.2,194.5l0.1-26.3c0,0-1.1-16.5,12-29.8"/>
	
		<radialGradient id="SVGID_5_" cx="-2843.7771" cy="941.9419" r="69.282" gradientTransform="matrix(-1 3.315579e-03 3.315579e-03 1 -2746.6494 -843.4464)" gradientUnits="userSpaceOnUse">
		<stop  offset="5.969966e-02" style="stop-color:#F19269"/>
		<stop  offset="0.3095" style="stop-color:#EA855C"/>
		<stop  offset="0.7749" style="stop-color:#D66138"/>
		<stop  offset="0.8139" style="stop-color:#D45E35"/>
	</radialGradient>
	<path class="st9" d="M49.5,56C49.4,28,72,5.3,100,5.2l0,0c28-0.1,50.7,22.5,50.8,50.5v8.9l-0.1,0.1l0.2,97.9
		c0,5.6-4.5,10.2-10.1,10.2l0,0c-5.6,0-10.2-4.5-10.2-10.1l-0.2-114.8l-22.1-22L70,64.4l0.2,98.4c0,5.6-4.5,10.2-10.1,10.2l0,0
		c-5.6,0-10.2-4.5-10.2-10.1L49.6,61.7l-0.1-0.1V56z"/>
	<g>
		
			<radialGradient id="SVGID_6_" cx="54.5549" cy="919.3737" r="78.1124" gradientTransform="matrix(1 3.315579e-03 -3.315579e-03 1 78.9138 -843.4464)" gradientUnits="userSpaceOnUse">
			<stop  offset="3.618332e-02" style="stop-color:#E4763B"/>
			<stop  offset="0.2589" style="stop-color:#E07139"/>
			<stop  offset="0.5323" style="stop-color:#D56232"/>
			<stop  offset="0.8311" style="stop-color:#C34927"/>
			<stop  offset="0.9963" style="stop-color:#B63820"/>
		</radialGradient>
		<path class="st10" d="M100.6,5.2L100.6,5.2c-7.5,0-14.6,1.6-21,4.5c1.9-0.2,3.9-0.4,5.8-0.4c24.9,0.1,45.3,20.3,45.2,45.3l-0.1,39
			h-0.1l-0.1,69.3c0,5.6,4.5,10.2,10.1,10.2l0,0c5.6,0,10.2-4.5,10.2-10.1l0.5-107C151.2,28,128.6,5.3,100.6,5.2z"/>
	</g>
	<path class="st11" d="M100.7,5.3C65.5,5.2,49.9,33.7,49.9,55.8c-0.1,22.1-0.1,103.7-0.1,103.7"/>
</g>
<text transform="matrix(1 0 0 1 77.4141 209.4062)" class="st12 st13 st14">SARAH </text>
<text transform="matrix(1 0 0 1 59.0141 226.2062)" class="st12 st13 st14">DULISCOUET</text>
</svg>
