<?xml version="1.0" encoding="UTF-8"?>
<svg width="26px" height="26px" viewBox="0 0 26 26" version="1.1" xmlns="http://www.w3.org/2000/svg" xmlns:xlink="http://www.w3.org/1999/xlink">
    <!-- Generator: Sketch 46.2 (44496) - http://www.bohemiancoding.com/sketch -->
    <title>Shape@2x</title>
    <desc>Created with Sketch.</desc>
    <defs></defs>
    <g id="Page-1" stroke="none" stroke-width="1" fill="none" fill-rule="evenodd">
        <g id="Intro-3" transform="translate(-537.000000, -650.000000)" fill-rule="nonzero" fill="#FFFFFF">
            <g id="texte">
                <g transform="translate(316.000000, 253.000000)">
                    <path d="M234,397 C226.820298,397 221,402.820298 221,410 C221,417.179702 226.820298,423 234,423 C241.179702,423 247,417.179702 247,410 C247,402.820298 241.179702,397 234,397 L234,397 Z M241.12,410.28 L234.12,417.28 L226.9,410.09 C226.016023,409.101113 226.058202,407.594002 226.996102,406.656102 C227.934002,405.718202 229.441113,405.676023 230.43,406.56 L234.11,410.24 L237.6,406.75 C238.22678,406.099282 239.155889,405.837375 240.030248,406.064935 C240.904607,406.292495 241.588155,406.974112 241.818188,407.847824 C242.04822,408.721535 241.788942,409.651382 241.14,410.28 L241.12,410.28 Z" id="Shape"></path>
                </g>
            </g>
        </g>
    </g>
</svg>