<?xml version="1.0" encoding="UTF-8"?>
<svg width="65px" height="90px" viewBox="0 0 65 90" version="1.1" xmlns="http://www.w3.org/2000/svg" xmlns:xlink="http://www.w3.org/1999/xlink">
    <!-- Generator: sketchtool 46.2 (44496) - http://www.bohemiancoding.com/sketch -->
    <title>75ABA548-1C23-4E86-9A03-E79AA36E0C5C@2x</title>
    <desc>Created with sketchtool.</desc>
    <defs></defs>
    <g id="Page-1" stroke="none" stroke-width="1" fill="none" fill-rule="evenodd" stroke-linecap="round">
        <g id="Intro-3" transform="translate(-209.000000, -567.000000)" stroke="#F05A24" stroke-width="2">
            <g id="illu">
                <g transform="translate(168.000000, 125.000000)">
                    <g id="Cylindre" transform="translate(42.000000, 443.000000)">
                        <path d="M43.51,85.54 L43.51,85.54 C30.59,89.28 18.51,86.67 14.75,73.75 L1.31,27.19 C-2.43,14.26 6.31,5.19 19.25,1.51 L19.25,1.51 C32.18,-2.22 44.39,0.74 48.12,13.67 L61.56,60.23 C65.3,73.16 56.44,81.81 43.51,85.54 Z" id="Shape"></path>
                        <path d="M29.81,38.07 C16.88,41.8 4.67,38.84 0.94,25.91" id="Shape"></path>
                        <path d="M47.75,12.4 C51.48,25.32 42.75,34.34 29.81,38.07 L29.81,38.07" id="Shape"></path>
                        <path d="M18.64,59.14 L22.48,72.47" id="Shape"></path>
                        <path d="M15.24,47.37 L16.69,52.41" id="Shape"></path>
                    </g>
                </g>
            </g>
        </g>
    </g>
</svg>