<?xml version="1.0" encoding="UTF-8"?>
<svg width="119px" height="252px" viewBox="0 0 119 252" version="1.1" xmlns="http://www.w3.org/2000/svg" xmlns:xlink="http://www.w3.org/1999/xlink">
    <!-- Generator: sketchtool 46.2 (44496) - http://www.bohemiancoding.com/sketch -->
    <title>F894B1CA-FA66-42A7-B89D-05F4923C5281</title>
    <desc>Created with sketchtool.</desc>
    <defs></defs>
    <g id="Page-1" stroke="none" stroke-width="1" fill="none" fill-rule="evenodd" stroke-linecap="round">
        <g id="Intro-3" transform="translate(-881.000000, -125.000000)">
            <g id="illu">
                <g transform="translate(168.000000, 125.000000)">
                    <g id="Guitare" transform="translate(713.000000, 0.000000)">
                        <path d="M28.13,144.34 C34.6783576,135.6384 44.7017127,130.232217 55.57,129.54" id="Shape" stroke="#F05A24" stroke-width="2"></path>
                        <path d="M91.24,150.66 C95.0410968,158.679195 95.8256726,167.799444 93.45,176.35 C93.3,176.86 93.15,177.35 92.99,177.87 C91.1375968,183.344339 90.7921911,189.216237 91.99,194.87 C96.8127818,216.316849 85.7873046,238.178748 65.6744102,247.04994 C45.5615158,255.921133 21.982783,249.32211 9.39673201,231.299405 C-3.18931901,213.2767 -1.26487149,188.867681 13.99,173.04 C17.8506955,168.935258 20.5046472,163.845346 21.66,158.33 C22.117322,156.280824 22.7462057,154.273748 23.54,152.33" id="Shape" stroke="#F05A24" stroke-width="2"></path>
                        <path d="M65.72,183.3 C70.9116495,190.14772 71.1487319,199.546423 66.3089332,206.647187 C61.4691344,213.747951 52.6343901,216.963401 44.3626684,214.634643 C36.0909466,212.305884 30.2313885,204.95351 29.8070219,196.370713 C29.3826553,187.787915 34.4883473,179.893377 42.49,176.76" id="Shape" stroke="#F05A24" stroke-width="1.61"></path>
                        <path d="M106.18,47.92 C104.962196,48.3741902 103.631674,48.4302121 102.38,48.08" id="Shape" stroke="#F05A24" stroke-width="2"></path>
                        <path d="M79.66,41.47 C77.431098,39.9917571 76.4060338,37.2474908 77.12,34.67 L83.7,10.93 C84.6315047,7.56043872 86.8645025,4.69949356 89.9069652,2.9775572 C92.9494279,1.25562084 96.551685,0.813998825 99.92,1.75 L107.38,3.81 C112.422737,5.20532818 116.162607,9.45143487 116.91,14.63" id="Shape" stroke="#F05A24" stroke-width="2"></path>
                        <path d="M92.95,13.3 L33.96,226.29" id="Shape" stroke="#F05A24" stroke-width="1.73"></path>
                        <path d="M99.7,15.17 L40.7,228.15" id="Shape" stroke="#F05A24" stroke-width="1.73"></path>
                        <path d="M106.44,17.04 L47.45,230.02" id="Shape" stroke="#F05A24" stroke-width="1.73"></path>
                        <path d="M48.21,238.53 L28.93,233.19 C26.805203,232.59714 25.56147,230.396001 26.15,228.27 L26.15,228.27 C26.7384631,226.141161 28.9409859,224.892169 31.07,225.48 L50.34,230.82" id="Shape" stroke="#F05A24" stroke-width="2"></path>
                        <rect id="Rectangle-path" stroke="#F05A24" stroke-width="2" transform="translate(114.530206, 24.433075) rotate(15.480000) translate(-114.530206, -24.433075) " x="112.655206" y="19.4330749" width="3.75" height="10" rx="1.5"></rect>
                        <rect id="Rectangle-path" stroke="#F07824" stroke-width="2" transform="translate(110.516272, 38.888242) rotate(15.480000) translate(-110.516272, -38.888242) " x="108.641272" y="33.8882423" width="3.75" height="10" rx="1.5"></rect>
                    </g>
                </g>
            </g>
        </g>
    </g>
</svg>