<?xml version="1.0" encoding="UTF-8"?>
<svg width="671px" height="263px" viewBox="0 0 671 263" version="1.1" xmlns="http://www.w3.org/2000/svg" xmlns:xlink="http://www.w3.org/1999/xlink">
    <!-- Generator: Sketch 46.2 (44496) - http://www.bohemiancoding.com/sketch -->
    <desc>Created with Sketch.</desc>
    <defs>
        <polygon id="path-1" points="49.65375 25.1730625 49.65375 0.34625 0 0.34625 0 25.1730625 0 49.999875 49.65375 49.999875"></polygon>
        <polygon id="path-3" points="0 50 0 0 50 0 50 50"></polygon>
        <polygon id="path-5" points="0 50 50 50 50 0 0 0"></polygon>
    </defs>
    <g id="Page-1" stroke="none" stroke-width="1" fill="none" fill-rule="evenodd">
        <g id="Ecran-6" transform="translate(-592.000000, -361.000000)">
            <g id="Bulle-1" transform="translate(592.000000, 361.000000)">
                <path d="M23.4146341,196.118561 C23.4146341,197.42305 23.5414634,226.234768 23.5414634,226.234768 C23.5414634,242.043001 13.8985366,255.645083 0,261.968 C18.1521951,261.646112 35.084878,256.541096 49.5180488,247.904734 C61.1356098,256.725569 75.777561,262 91.7073171,262 C129.42439,262 160,232.503096 160,196.116678 C160,159.730261 129.42439,134 91.7073171,134 C53.9902439,134 23.4146341,159.732143 23.4146341,196.118561 Z" id="Bulle" fill="#54778B"></path>
                <rect id="Rectangle-arrondi" fill="#54778B" x="24" y="0" width="647" height="263" rx="17"></rect>
                <text id="Bonne-route-et-à-bie" font-family="Lato-Bold, Lato" font-size="36" font-weight="bold" line-spacing="22" fill="#FFFFFF">
                    <tspan x="119.512" y="64.4179077">Bonne route et à bientôt !</tspan>
                    <tspan x="347.5" y="104" font-size="24"></tspan>
                    <tspan x="47.542" y="121.611938" font-size="24" line-spacing="18">Ravi de vous avoir aidé dans votre choix de parcours !</tspan>
                    <tspan x="333.028" y="139.611938" font-size="24" line-spacing="18"> </tspan>
                    <tspan x="155.968" y="157.611938" font-size="24" line-spacing="18">Retrouvez-nous sur nos réseaux :</tspan>
                </text>
                <g id="INSTAGRAM" transform="translate(423.000000, 182.000000)">
                    <path d="M23.9993713,30 C26.7555639,30 29,27.7594666 29,24.998113 C29,23.9111838 28.6466742,22.9047679 28.0569596,22.0832809 C27.1478687,20.825261 25.6704388,20 23.9993713,20 C22.3345907,20 20.8559034,20.820229 19.9480699,22.0832809 C19.3533258,22.9047679 19.0050295,23.9111838 19,24.998113 C19,27.7594666 21.2444361,30 23.9993713,30" id="Fill-1" fill="#FEFEFE"></path>
                    <polygon id="Fill-3" fill="#FEFEFE" points="36 18.984375 36 14 35.3475992 14 31 14.015625 31.0208768 19"></polygon>
                    <g id="Group-7">
                        <mask id="mask-2" fill="white">
                            <use xlink:href="#path-1"></use>
                        </mask>
                        <g id="Clip-6"></g>
                        <path d="M38.945,22.274875 L38.945,33.837375 C38.945,36.846125 36.49875,39.292375 33.48625,39.292375 L16.1625,39.292375 C13.15375,39.292375 10.7075,36.846125 10.7075,33.837375 L10.7075,16.513625 C10.7075,13.501125 13.15375,11.054875 16.1625,11.054875 L33.48625,11.054875 C36.49875,11.054875 38.945,13.501125 38.945,16.513625 L38.945,22.274875 Z M24.82375,0.346125 C11.1375,0.346125 0,11.484875 0,25.171125 C0,38.862375 11.1375,49.999875 24.82375,49.999875 C38.515,49.999875 49.65375,38.862375 49.65375,25.171125 C49.65375,11.484875 38.515,0.346125 24.82375,0.346125 L24.82375,0.346125 Z" id="Fill-5" fill="#FEFEFE" mask="url(#mask-2)"></path>
                    </g>
                    <path d="M31.4750646,24.8426956 C31.4750646,29.0214705 28.1255292,32.4236263 23.9993952,32.4236263 C19.8793094,32.4236263 16.529774,29.0214705 16.529774,24.8426956 C16.529774,23.8403295 16.7281575,22.8772237 17.0777478,22 L13,22 L13,33.3486986 C13,34.8160547 14.1709463,36 15.617694,36 L32.382306,36 C33.8278441,36 35,34.8160547 35,33.3486986 L35,22 L30.9222522,22 C31.2718425,22.8772237 31.4750646,23.8403295 31.4750646,24.8426956" id="Fill-8" fill="#FEFEFE"></path>
                </g>
                <g id="TWITTER" transform="translate(343.000000, 182.000000)">
                    <mask id="mask-4" fill="white">
                        <use xlink:href="#path-3"></use>
                    </mask>
                    <g id="Clip-2"></g>
                    <path d="M36.1541173,19.2797624 C36.164187,19.5252121 36.1692219,19.7756967 36.1692219,20.02744 C36.1692219,27.6288296 30.3816429,36.3945321 19.7970949,36.3945321 C16.5470886,36.3945321 13.5223926,35.4467185 10.9747501,33.8091282 C11.4266294,33.863253 11.8848023,33.8922035 12.34801,33.8922035 C15.0454397,33.8922035 17.5238527,32.9733404 19.4962616,31.4288951 C16.9788284,31.3798052 14.8541147,29.7182992 14.1215417,27.4312111 C14.4702062,27.5004406 14.8301991,27.5344259 15.2027792,27.5344259 C15.7251466,27.5344259 16.2361856,27.4664552 16.718274,27.3330312 C14.0875563,26.8068877 12.1013015,24.4820381 12.1013015,21.6939808 C12.1013015,21.6688065 12.1013015,21.6448909 12.1063364,21.6197165 C12.8779297,22.0527151 13.769101,22.3082345 14.7131385,22.337185 C13.1674345,21.3100723 12.1503915,19.5453516 12.1503915,17.549027 C12.1503915,16.4967399 12.4348614,15.5086474 12.9282783,14.657755 C15.7641669,18.1393651 20.0085593,20.4302293 24.7866475,20.6706442 C24.6884676,20.2477154 24.6393777,19.8109408 24.6393777,19.3578028 C24.6393777,16.1820608 27.2147119,13.6054679 30.3929713,13.6054679 C32.0481837,13.6054679 33.543539,14.3040556 34.5907912,15.4192785 C35.9036327,15.163759 37.1371749,14.6867054 38.2486217,14.0233618 C37.8156232,15.3701886 36.9068298,16.4967399 35.7160839,17.2091735 C36.8816555,17.0719734 37.9943609,16.7623291 39.020215,16.305415 C38.2549153,17.455882 37.2756338,18.4678901 36.1541173,19.2797624 M24.9981119,0 C11.2164237,0 0,11.2164237 0,24.9981119 C0,38.784835 11.2164237,50 24.9981119,50 C38.784835,50 50,38.784835 50,24.9981119 C50,11.2164237 38.784835,0 24.9981119,0" id="Fill-1" fill="#FEFEFE" mask="url(#mask-4)"></path>
                </g>
                <g id="FACEBOOK" transform="translate(263.000000, 182.000000)">
                    <mask id="mask-6" fill="white">
                        <use xlink:href="#path-5"></use>
                    </mask>
                    <g id="Clip-2"></g>
                    <path d="M31.2166448,25.8779548 L27.1510925,25.8779548 L27.1510925,40.3783702 L21.1219917,40.3783702 L21.1219917,25.8779548 L18.2572249,25.8779548 L18.2572249,20.7549782 L21.1219917,20.7549782 L21.1219917,17.4407774 C21.1219917,15.070614 22.2485148,11.3586587 27.2039573,11.3586587 L31.6685127,11.3775395 L31.6685127,16.3494701 L28.4286577,16.3494701 C27.8974927,16.3494701 27.1510925,16.6150593 27.1510925,17.7453868 L27.1510925,20.7600131 L31.7427751,20.7600131 L31.2166448,25.8779548 Z M24.9974826,0 C11.2148827,0 0,11.2164237 0,24.9981119 C0,38.784835 11.2148827,50 24.9974826,50 C38.7838586,50 50,38.784835 50,24.9981119 C50,11.2164237 38.7838586,0 24.9974826,0 L24.9974826,0 Z" id="Fill-1" fill="#FEFEFE" mask="url(#mask-6)"></path>
                </g>
            </g>
        </g>
    </g>
</svg>
