<?xml version="1.0" encoding="UTF-8"?>
<svg width="56px" height="89px" viewBox="0 0 56 89" version="1.1" xmlns="http://www.w3.org/2000/svg" xmlns:xlink="http://www.w3.org/1999/xlink">
    <!-- Generator: sketchtool 46.2 (44496) - http://www.bohemiancoding.com/sketch -->
    <title>E85454E8-08B6-454D-9BCE-53D1245E92F9@2x</title>
    <desc>Created with sketchtool.</desc>
    <defs></defs>
    <g id="Page-1" stroke="none" stroke-width="1" fill="none" fill-rule="evenodd" stroke-linecap="round">
        <g id="Intro-1" transform="translate(-112.000000, -276.000000)" stroke="#00FFFF" stroke-width="2">
            <g id="illu">
                <g transform="translate(112.000000, 191.000000)">
                    <g id="Chapeau" transform="translate(1.000000, 86.000000)">
                        <path d="M37,83.31 C27.69,87.21 18.35,87.31 12.06,81.89 C8.8548823,79.0197274 6.89600239,75.0122753 6.6,70.72 L0.95,2.78 C0.847299025,1.78635678 1.40911832,0.843157576 2.33175866,0.460261836 C3.254399,0.0773660954 4.31896878,0.345613831 4.95,1.12 L49.37,52.79 C52.466052,56.2898473 53.9372674,60.935982 53.42,65.58 C52.42,73.38 45.96,79.58 37.04,83.31 L37.04,83.31" id="Shape"></path>
                        <path d="M11.77,56.4 L10.99,47.27" id="Shape"></path>
                        <path d="M19.73,62.53 L18.95,53.4" id="Shape"></path>
                    </g>
                </g>
            </g>
        </g>
    </g>
</svg>