<?xml version="1.0" encoding="UTF-8"?>
<svg width="112px" height="34px" viewBox="0 0 112 34" version="1.1" xmlns="http://www.w3.org/2000/svg" xmlns:xlink="http://www.w3.org/1999/xlink">
    <!-- Generator: sketchtool 46.2 (44496) - http://www.bohemiancoding.com/sketch -->
    <title>7ED67E9D-B850-4A6D-9DDB-EE1540253821@2x</title>
    <desc>Created with sketchtool.</desc>
    <defs></defs>
    <g id="Page-1" stroke="none" stroke-width="1" fill="none" fill-rule="evenodd" stroke-linecap="round">
        <g id="Intro-1" transform="translate(-179.000000, -191.000000)" stroke="#00FFFF" stroke-width="2">
            <g id="illu">
                <g transform="translate(112.000000, 191.000000)">
                    <g id="Vague-1" transform="translate(52.000000, 1.000000)">
                        <path d="M16.45,0.06 C20.6103269,0.0573467298 24.6011658,1.7081706 27.5438994,4.64902864 C30.4866329,7.58988668 32.1400008,11.5796722 32.14,15.74" id="Shape"></path>
                        <path d="M63.5,15.74 C63.5,24.3998249 56.4798249,31.42 47.82,31.42 C39.1601751,31.42 32.14,24.3998249 32.14,15.74" id="Shape"></path>
                        <path d="M63.5,15.74 C63.714851,7.23165635 70.6739441,0.446074488 79.185,0.446074488 C87.6960559,0.446074488 94.655149,7.23165635 94.87,15.74" id="Shape"></path>
                        <path d="M110.55,31.43 C106.389672,31.4300008 102.399887,29.7766329 99.4590286,26.8338994 C96.5181706,23.8911658 94.8673467,19.9003269 94.87,15.74" id="Shape"></path>
                        <path d="M120,31 L126,31" id="Shape"></path>
                    </g>
                </g>
            </g>
        </g>
    </g>
</svg>