<?xml version="1.0" encoding="UTF-8"?>
<svg width="129px" height="34px" viewBox="0 0 129 34" version="1.1" xmlns="http://www.w3.org/2000/svg" xmlns:xlink="http://www.w3.org/1999/xlink">
    <!-- Generator: sketchtool 46.2 (44496) - http://www.bohemiancoding.com/sketch -->
    <title>BB297DBC-1F79-41DE-BE7E-633B8E05938D@2x</title>
    <desc>Created with sketchtool.</desc>
    <defs></defs>
    <g id="Page-1" stroke="none" stroke-width="1" fill="none" fill-rule="evenodd" stroke-linecap="round">
        <g id="Intro-1" transform="translate(-925.000000, -492.000000)" stroke="#00FFFF" stroke-width="2">
            <g id="illu">
                <g transform="translate(112.000000, 191.000000)">
                    <g id="Vague-3" transform="translate(814.000000, 302.000000)">
                        <path d="M16.45,0.06 C20.6103269,0.0573467298 24.6011658,1.7081706 27.5438994,4.64902864 C30.4866329,7.58988668 32.1400008,11.5796722 32.14,15.74" id="Shape"></path>
                        <path d="M0.77,15.74 C0.773237565,9.43699656 4.54558971,3.74696644 10.35,1.29" id="Shape"></path>
                        <path d="M63.5,15.74 C63.5,24.3998249 56.4798249,31.42 47.82,31.42 C39.1601751,31.42 32.14,24.3998249 32.14,15.74" id="Shape"></path>
                        <path d="M63.5,15.74 C63.714851,7.23165635 70.6739441,0.446074488 79.185,0.446074488 C87.6960559,0.446074488 94.655149,7.23165635 94.87,15.74" id="Shape"></path>
                        <path d="M126.23,15.74 C126.23,24.3998249 119.209825,31.42 110.55,31.42 C101.890175,31.42 94.87,24.3998249 94.87,15.74" id="Shape"></path>
                        <path d="M126.23,8.92 L126.23,5.47" id="Shape"></path>
                    </g>
                </g>
            </g>
        </g>
    </g>
</svg>