<?xml version="1.0" encoding="UTF-8" standalone="no"?>
<svg
   xmlns:dc="http://purl.org/dc/elements/1.1/"
   xmlns:cc="http://creativecommons.org/ns#"
   xmlns:rdf="http://www.w3.org/1999/02/22-rdf-syntax-ns#"
   xmlns:svg="http://www.w3.org/2000/svg"
   xmlns="http://www.w3.org/2000/svg"
   viewBox="0 0 365.70667 365.70667"
   height="365.70667"
   width="365.70667"
   xml:space="preserve"
   id="svg2"
   version="1.1"><metadata
     id="metadata8"><rdf:RDF><cc:Work
         rdf:about=""><dc:format>image/svg+xml</dc:format><dc:type
           rdf:resource="http://purl.org/dc/dcmitype/StillImage" /></cc:Work></rdf:RDF></metadata><defs
     id="defs6"><clipPath
       id="clipPath18"
       clipPathUnits="userSpaceOnUse"><path
         id="path16"
         d="m 11.81,137.14 c 0,-13.59 2.17,-26.669 6.17,-38.919 v 0 c 0.71,-2.17 1.48,-4.321 2.301,-6.43 v 0 C 24.08,82.02 29.07,72.85 35.06,64.44 v 0 C 57.79,32.591 95.03,11.81 137.14,11.81 v 0 c 42.12,0 79.38,20.77 102.1,52.63 v 0 c 6,8.401 10.981,17.58 14.771,27.351 v 0 c 5.469,14.059 8.46,29.359 8.46,45.349 v 0 c 0,29.89 -10.47,57.33 -27.93,78.87 v 0 c -22.981,28.34 -58.071,46.461 -97.401,46.461 v 0 C 67.92,262.471 11.81,206.36 11.81,137.14" /></clipPath><clipPath
       id="clipPath32"
       clipPathUnits="userSpaceOnUse"><path
         id="path30"
         d="m 121.232,91.969 c -27.958,0 -50.621,-22.664 -50.621,-50.621 v 0 V 30.92 C 89.888,18.814 112.695,11.81 137.14,11.81 v 0 c 22.315,0 43.268,5.831 61.415,16.051 v 0 13.487 c 0,27.957 -22.664,50.621 -50.621,50.621 v 0 z" /></clipPath><linearGradient
       id="linearGradient46"
       spreadMethod="pad"
       gradientTransform="matrix(1.2718872,116.9908,116.9908,-1.2718872,134.49931,18.374254)"
       gradientUnits="userSpaceOnUse"
       y2="0"
       x2="1"
       y1="0"
       x1="0"><stop
         id="stop38"
         offset="0"
         style="stop-opacity:1;stop-color:#0094be" /><stop
         id="stop40"
         offset="0.27098656"
         style="stop-opacity:1;stop-color:#00ccab" /><stop
         id="stop42"
         offset="0.631816"
         style="stop-opacity:1;stop-color:#00ccab" /><stop
         id="stop44"
         offset="1"
         style="stop-opacity:1;stop-color:#00ccab" /></linearGradient><clipPath
       id="clipPath56"
       clipPathUnits="userSpaceOnUse"><path
         id="path54"
         d="m 11.81,137.14 c 0,-13.59 2.17,-26.669 6.17,-38.919 v 0 c 0.71,-2.17 1.48,-4.321 2.301,-6.43 v 0 C 24.08,82.02 29.07,72.85 35.06,64.44 v 0 C 57.79,32.591 95.03,11.81 137.14,11.81 v 0 c 42.12,0 79.38,20.77 102.1,52.63 v 0 c 6,8.401 10.981,17.58 14.771,27.351 v 0 c 5.469,14.059 8.46,29.359 8.46,45.349 v 0 c 0,29.89 -10.47,57.33 -27.93,78.87 v 0 c -22.981,28.34 -58.071,46.461 -97.401,46.461 v 0 C 67.92,262.471 11.81,206.36 11.81,137.14" /></clipPath></defs><g
     transform="matrix(1.3333333,0,0,-1.3333333,0,365.70667)"
     id="g10"><g
       id="g12"><g
         clip-path="url(#clipPath18)"
         id="g14"><g
           transform="translate(234.5406,216.0103)"
           id="g20"><path
             id="path22"
             style="fill:#5028b5;fill-opacity:1;fill-rule:nonzero;stroke:none"
             d="m 0,0 c -22.98,28.34 -58.07,46.46 -97.4,46.46 -69.22,0 -125.33,-56.11 -125.33,-125.33 0,-13.59 2.169,-26.67 6.169,-38.92 0.71,-2.17 1.48,-4.32 2.301,-6.43 3.8,-9.77 8.79,-18.94 14.78,-27.35 22.73,-31.85 59.97,-52.63 102.08,-52.63 42.12,0 79.379,20.769 102.099,52.63 6,8.4 10.981,17.58 14.771,27.35 5.469,14.06 8.46,29.36 8.46,45.35 C 27.93,-48.98 17.46,-21.54 0,0" /></g><path
           id="path24"
           style="fill:#ff9db0;fill-opacity:1;fill-rule:nonzero;stroke:none"
           d="m 89.44,127.847 h 93.832 V 73.139 H 89.44 Z" /></g></g><g
       id="g26"><g
         clip-path="url(#clipPath32)"
         id="g28"><g
           id="g34"><g
             id="g36"><path
               id="path48"
               style="fill:url(#linearGradient46);stroke:none"
               d="m 121.232,91.969 c -27.958,0 -50.621,-22.664 -50.621,-50.621 v 0 V 30.92 C 89.888,18.814 112.695,11.81 137.14,11.81 v 0 c 22.315,0 43.268,5.831 61.415,16.051 v 0 13.487 c 0,27.957 -22.664,50.621 -50.621,50.621 v 0 z" /></g></g></g></g><g
       id="g50"><g
         clip-path="url(#clipPath56)"
         id="g52"><g
           transform="translate(134.5831,79.7457)"
           id="g58"><path
             id="path60"
             style="fill:#ff3c67;fill-opacity:1;fill-rule:nonzero;stroke:none"
             d="M 0,0 V 0 C -8.081,0 -14.631,6.551 -14.631,14.631 V 38.93 H 14.631 V 14.631 C 14.631,6.551 8.081,0 0,0" /></g><g
           transform="translate(134.5831,98.0172)"
           id="g62"><path
             id="path64"
             style="fill:#ff6c93;fill-opacity:1;fill-rule:nonzero;stroke:none"
             d="m 0,0 v 0 c -26.891,0 -48.689,21.8 -48.689,48.689 v 23.835 c 0,26.89 21.798,48.689 48.689,48.689 26.89,0 48.689,-21.799 48.689,-48.689 V 48.689 C 48.689,21.8 26.89,0 0,0" /></g><g
           transform="translate(110.0611,153.0059)"
           id="g66"><path
             id="path68"
             style="fill:#262585;fill-opacity:1;fill-rule:nonzero;stroke:none"
             d="m 0,0 v 2.383 c 0,3.385 2.744,6.129 6.128,6.129 3.385,0 6.129,-2.744 6.129,-6.129 V 0 c 0,-3.385 -2.744,-6.129 -6.129,-6.129 C 2.744,-6.129 0,-3.385 0,0" /></g><g
           transform="translate(145.7271,153.0059)"
           id="g70"><path
             id="path72"
             style="fill:#262585;fill-opacity:1;fill-rule:nonzero;stroke:none"
             d="m 0,0 v 2.383 c 0,3.385 2.743,6.129 6.128,6.129 3.385,0 6.129,-2.744 6.129,-6.129 V 0 c 0,-3.385 -2.744,-6.129 -6.129,-6.129 C 2.743,-6.129 0,-3.385 0,0" /></g><g
           transform="translate(130.9278,141.5777)"
           id="g74"><path
             id="path76"
             style="fill:#ff3c67;fill-opacity:1;fill-rule:nonzero;stroke:none"
             d="m 0,0 c -1.175,0 -1.994,-1.21 -1.519,-2.284 0.878,-1.986 2.864,-3.37 5.174,-3.37 2.31,0 4.297,1.384 5.174,3.37 C 9.304,-1.21 8.485,0 7.31,0 Z" /></g><g
           transform="translate(134.5831,232.5089)"
           id="g78"><path
             id="path80"
             style="fill:#ffffff;fill-opacity:1;fill-rule:nonzero;stroke:none"
             d="m 0,0 v 0 c -32.782,0 -59.357,-26.575 -59.357,-59.357 l 0.112,-98.968 c 0,-6.582 5.336,-11.917 11.917,-11.917 6.582,0 11.917,5.335 11.917,11.917 v 54.935 45.675 h 70.886 v -45.675 h -0.064 v -54.935 c 0,-6.582 5.335,-11.917 11.917,-11.917 6.581,0 11.917,5.335 11.917,11.917 l 0.112,98.968 C 59.357,-26.575 32.782,0 0,0" /></g><g
           transform="translate(145.064,127.98)"
           id="g82"><path
             id="path84"
             style="fill:#ff3c67;fill-opacity:1;fill-rule:nonzero;stroke:none"
             d="m 0,0 c -0.609,0 -1.177,-0.26 -1.622,-0.674 -2.207,-2.055 -5.159,-3.319 -8.414,-3.319 -3.236,0 -6.174,1.25 -8.377,3.286 C -18.883,-0.273 -19.479,0 -20.119,0 h -0.001 c -2.376,0 -3.607,-2.937 -1.862,-4.55 3.139,-2.901 7.336,-4.674 11.946,-4.674 4.532,0 8.663,1.712 11.783,4.525 C 3.587,-3.041 2.477,0 0,0" /></g><g
           transform="translate(147.106,133.7945)"
           id="g86"><path
             id="path88"
             style="fill:none;stroke:#ff3c67;stroke-width:1.41700006;stroke-linecap:round;stroke-linejoin:miter;stroke-miterlimit:10;stroke-dasharray:none;stroke-opacity:1"
             d="M 0,0 C 0,0 3.91,-1.629 7.005,-7.656" /></g><g
           transform="translate(123.1607,133.7945)"
           id="g90"><path
             id="path92"
             style="fill:none;stroke:#ff3c67;stroke-width:1.41700006;stroke-linecap:round;stroke-linejoin:miter;stroke-miterlimit:10;stroke-dasharray:none;stroke-opacity:1"
             d="M 0,0 C 0,0 -3.909,-1.629 -7.004,-7.656" /></g><g
           transform="translate(160.4634,150.8985)"
           id="g94"><path
             id="path96"
             style="fill:none;stroke:#ff3c67;stroke-width:1.41700006;stroke-linecap:round;stroke-linejoin:miter;stroke-miterlimit:10;stroke-dasharray:none;stroke-opacity:1"
             d="M 0,0 C 0,0 0,-5.213 -5.212,-7.004" /></g><g
           transform="translate(107.6856,150.8985)"
           id="g98"><path
             id="path100"
             style="fill:none;stroke:#ff3c67;stroke-width:1.41700006;stroke-linecap:round;stroke-linejoin:miter;stroke-miterlimit:10;stroke-dasharray:none;stroke-opacity:1"
             d="M 0,0 C 0,0 0,-5.213 5.213,-7.004" /></g><g
           transform="translate(128.3736,113.107)"
           id="g102"><path
             id="path104"
             style="fill:none;stroke:#ff3c67;stroke-width:1.41700006;stroke-linecap:round;stroke-linejoin:miter;stroke-miterlimit:10;stroke-dasharray:none;stroke-opacity:1"
             d="M 0,0 C 0,0 5.539,-2.933 12.706,0" /></g></g></g></g></svg>