<?xml version="1.0" encoding="UTF-8" standalone="no"?>
<svg
   xmlns:dc="http://purl.org/dc/elements/1.1/"
   xmlns:cc="http://creativecommons.org/ns#"
   xmlns:rdf="http://www.w3.org/1999/02/22-rdf-syntax-ns#"
   xmlns:svg="http://www.w3.org/2000/svg"
   xmlns="http://www.w3.org/2000/svg"
   viewBox="0 0 365.70667 365.70667"
   height="365.70667"
   width="365.70667"
   xml:space="preserve"
   id="svg2"
   version="1.1"><metadata
     id="metadata8"><rdf:RDF><cc:Work
         rdf:about=""><dc:format>image/svg+xml</dc:format><dc:type
           rdf:resource="http://purl.org/dc/dcmitype/StillImage" /></cc:Work></rdf:RDF></metadata><defs
     id="defs6"><clipPath
       id="clipPath18"
       clipPathUnits="userSpaceOnUse"><path
         id="path16"
         d="M 0,274.28 H 274.28 V 0 H 0 Z" /></clipPath><clipPath
       id="clipPath54"
       clipPathUnits="userSpaceOnUse"><path
         id="path52"
         d="m 136.725,150.961 -14.381,-14.382 c -2.734,-2.734 -2.734,-7.165 0,-9.899 v 0 l 3.305,-3.305 c 2.734,-2.734 7.166,-2.734 9.9,0 v 0 l 14.381,14.381 c 2.733,2.734 2.733,7.166 0,9.899 v 0 l -3.306,3.306 c -1.366,1.366 -3.157,2.05 -4.949,2.05 v 0 c -1.791,0 -3.583,-0.684 -4.95,-2.05" /></clipPath><linearGradient
       id="linearGradient64"
       spreadMethod="pad"
       gradientTransform="matrix(24.280901,24.280901,24.280901,-24.280901,123.99665,125.02703)"
       gradientUnits="userSpaceOnUse"
       y2="0"
       x2="1"
       y1="0"
       x1="0"><stop
         id="stop60"
         offset="0"
         style="stop-opacity:1;stop-color:#2d71e5" /><stop
         id="stop62"
         offset="1"
         style="stop-opacity:1;stop-color:#0094be" /></linearGradient><clipPath
       id="clipPath74"
       clipPathUnits="userSpaceOnUse"><path
         id="path72"
         d="M 0,274.28 H 274.28 V 0 H 0 Z" /></clipPath></defs><g
     transform="matrix(1.3333333,0,0,-1.3333333,0,365.70667)"
     id="g10"><g
       id="g12"><g
         clip-path="url(#clipPath18)"
         id="g14"><g
           transform="translate(234.5406,216.7584)"
           id="g20"><path
             id="path22"
             style="fill:#5028b5;fill-opacity:1;fill-rule:nonzero;stroke:none"
             d="m 0,0 c -22.98,28.34 -58.07,46.46 -97.4,46.46 -69.22,0 -125.33,-56.11 -125.33,-125.33 0,-13.59 2.169,-26.67 6.169,-38.92 0.71,-2.17 1.48,-4.32 2.301,-6.43 3.8,-9.77 8.79,-18.94 14.78,-27.35 22.73,-31.85 59.97,-52.63 102.08,-52.63 42.12,0 79.379,20.769 102.099,52.63 6,8.4 10.981,17.58 14.771,27.35 5.469,14.06 8.46,29.36 8.46,45.35 C 27.93,-48.98 17.46,-21.54 0,0" /></g><g
           transform="translate(200.0045,191.8433)"
           id="g24"><path
             id="path26"
             style="fill:#ffffff;fill-opacity:1;fill-rule:nonzero;stroke:none"
             d="m 0,0 -9.129,9.129 -25.367,-25.367 9.129,-9.129 z" /></g><g
           transform="translate(165.5084,175.605)"
           id="g28"><path
             id="path30"
             style="fill:#ffffff;fill-opacity:1;fill-rule:nonzero;stroke:none"
             d="m 0,0 -15.143,-5.828 c -0.549,-0.212 -1.048,-0.536 -1.465,-0.952 l -1.091,-1.092 9.483,-9.483 L 4.57,-4.57 Z" /></g><g
           transform="translate(167.8541,149.8746)"
           id="g32"><path
             id="path34"
             style="fill:#ffffff;fill-opacity:1;fill-rule:nonzero;stroke:none"
             d="m 0,0 c 0.415,0.416 0.738,0.914 0.949,1.461 l 5.829,15.146 -4.553,4.554 -12.787,-12.786 9.47,-9.47 z" /></g><g
           transform="translate(167.775,147.7755)"
           id="g36"><path
             id="path38"
             style="fill:#ffffff;fill-opacity:1;fill-rule:nonzero;stroke:none"
             d="m 0,0 -20.974,20.973 c -0.78,0.781 -2.047,0.781 -2.828,0 L -88.914,-44.139 -65.112,-67.941 0,-2.829 C 0.781,-2.047 0.781,-0.781 0,0" /></g><g
           transform="translate(78.8609,103.6363)"
           id="g40"><path
             id="path42"
             style="fill:#ffffff;fill-opacity:1;fill-rule:nonzero;stroke:none"
             d="M 0,0 C -6.578,-6.578 -6.578,-17.243 0,-23.821 L 11.91,-11.91 Z" /></g><g
           transform="translate(90.7711,91.7261)"
           id="g44"><path
             id="path46"
             style="fill:#ffffff;fill-opacity:1;fill-rule:nonzero;stroke:none"
             d="m 0,0 -11.91,-11.911 c 6.577,-6.578 17.243,-6.578 23.821,0 z" /></g></g></g><g
       id="g48"><g
         clip-path="url(#clipPath54)"
         id="g50"><g
           id="g56"><g
             id="g58"><path
               id="path66"
               style="fill:url(#linearGradient64);stroke:none"
               d="m 136.725,150.961 -14.381,-14.382 c -2.734,-2.734 -2.734,-7.165 0,-9.899 v 0 l 3.305,-3.305 c 2.734,-2.734 7.166,-2.734 9.9,0 v 0 l 14.381,14.381 c 2.733,2.734 2.733,7.166 0,9.899 v 0 l -3.306,3.306 c -1.366,1.366 -3.157,2.05 -4.949,2.05 v 0 c -1.791,0 -3.583,-0.684 -4.95,-2.05" /></g></g></g></g><g
       id="g68"><g
         clip-path="url(#clipPath74)"
         id="g70"><g
           transform="translate(134.2232,148.5098)"
           id="g76"><path
             id="path78"
             style="fill:none;stroke:#14114a;stroke-width:6;stroke-linecap:butt;stroke-linejoin:miter;stroke-miterlimit:10;stroke-dasharray:none;stroke-opacity:1"
             d="M 0,0 13.256,-13.256" /></g><g
           transform="translate(124.795,139.0816)"
           id="g80"><path
             id="path82"
             style="fill:none;stroke:#14114a;stroke-width:6;stroke-linecap:butt;stroke-linejoin:miter;stroke-miterlimit:10;stroke-dasharray:none;stroke-opacity:1"
             d="M 0,0 13.256,-13.256" /></g></g></g></g></svg>