<?xml version="1.0" encoding="UTF-8" standalone="no"?>
<svg
   xmlns:dc="http://purl.org/dc/elements/1.1/"
   xmlns:cc="http://creativecommons.org/ns#"
   xmlns:rdf="http://www.w3.org/1999/02/22-rdf-syntax-ns#"
   xmlns:svg="http://www.w3.org/2000/svg"
   xmlns="http://www.w3.org/2000/svg"
   viewBox="0 0 365.70667 365.70667"
   height="365.70667"
   width="365.70667"
   xml:space="preserve"
   id="svg2"
   version="1.1"><metadata
     id="metadata8"><rdf:RDF><cc:Work
         rdf:about=""><dc:format>image/svg+xml</dc:format><dc:type
           rdf:resource="http://purl.org/dc/dcmitype/StillImage" /></cc:Work></rdf:RDF></metadata><defs
     id="defs6"><clipPath
       id="clipPath18"
       clipPathUnits="userSpaceOnUse"><path
         id="path16"
         d="m 11.81,137.14 c 0,-13.59 2.17,-26.669 6.17,-38.919 v 0 c 0.71,-2.17 1.48,-4.321 2.301,-6.43 v 0 C 24.08,82.02 29.07,72.85 35.06,64.44 v 0 C 57.79,32.591 95.03,11.81 137.14,11.81 v 0 c 42.12,0 79.38,20.77 102.1,52.63 v 0 c 6,8.401 10.981,17.58 14.771,27.351 v 0 c 5.469,14.059 8.46,29.359 8.46,45.349 v 0 c 0,29.89 -10.47,57.33 -27.93,78.87 v 0 c -22.981,28.34 -58.071,46.461 -97.401,46.461 v 0 C 67.92,262.471 11.81,206.36 11.81,137.14" /></clipPath><clipPath
       id="clipPath36"
       clipPathUnits="userSpaceOnUse"><path
         id="path34"
         d="m 123.426,64.283 c -22.363,0 -40.673,-17.355 -42.199,-39.33 v 0 C 98.057,16.542 117.044,11.81 137.14,11.81 v 0 c 18.122,0 35.346,3.845 50.897,10.764 v 0 C 187.72,45.662 168.904,64.283 145.74,64.283 v 0 z" /></clipPath><linearGradient
       id="linearGradient50"
       spreadMethod="pad"
       gradientTransform="matrix(1.0628518,97.76329,97.76329,-1.0628518,134.51305,2.7832987)"
       gradientUnits="userSpaceOnUse"
       y2="0"
       x2="1"
       y1="0"
       x1="0"><stop
         id="stop42"
         offset="0"
         style="stop-opacity:1;stop-color:#0094be" /><stop
         id="stop44"
         offset="0.27098656"
         style="stop-opacity:1;stop-color:#00ccab" /><stop
         id="stop46"
         offset="0.631816"
         style="stop-opacity:1;stop-color:#00ccab" /><stop
         id="stop48"
         offset="1"
         style="stop-opacity:1;stop-color:#00ccab" /></linearGradient><clipPath
       id="clipPath60"
       clipPathUnits="userSpaceOnUse"><path
         id="path58"
         d="m 11.81,137.14 c 0,-13.59 2.17,-26.669 6.17,-38.919 v 0 c 0.71,-2.17 1.48,-4.321 2.301,-6.43 v 0 C 24.08,82.02 29.07,72.85 35.06,64.44 v 0 C 57.79,32.591 95.03,11.81 137.14,11.81 v 0 c 42.12,0 79.38,20.77 102.1,52.63 v 0 c 6,8.401 10.981,17.58 14.771,27.351 v 0 c 5.469,14.059 8.46,29.359 8.46,45.349 v 0 c 0,29.89 -10.47,57.33 -27.93,78.87 v 0 c -22.981,28.34 -58.071,46.461 -97.401,46.461 v 0 C 67.92,262.471 11.81,206.36 11.81,137.14" /></clipPath></defs><g
     transform="matrix(1.3333333,0,0,-1.3333333,0,365.70667)"
     id="g10"><g
       id="g12"><g
         clip-path="url(#clipPath18)"
         id="g14"><g
           transform="translate(234.5406,216.0103)"
           id="g20"><path
             id="path22"
             style="fill:#5028b5;fill-opacity:1;fill-rule:nonzero;stroke:none"
             d="m 0,0 c -22.98,28.34 -58.07,46.46 -97.4,46.46 -69.22,0 -125.33,-56.11 -125.33,-125.33 0,-13.59 2.169,-26.67 6.169,-38.92 0.71,-2.17 1.48,-4.32 2.301,-6.43 3.8,-9.77 8.79,-18.94 14.78,-27.35 22.73,-31.85 59.97,-52.63 102.08,-52.63 42.12,0 79.379,20.769 102.099,52.63 6,8.4 10.981,17.58 14.771,27.35 5.469,14.06 8.46,29.36 8.46,45.35 C 27.93,-48.98 17.46,-21.54 0,0" /></g><g
           transform="translate(234.5406,216.0103)"
           id="g24"><path
             id="path26"
             style="fill:#5028b5;fill-opacity:1;fill-rule:nonzero;stroke:none"
             d="m 0,0 c -22.98,28.34 -58.07,46.46 -97.4,46.46 -69.22,0 -125.33,-56.11 -125.33,-125.33 0,-13.59 2.169,-26.67 6.169,-38.92 0.71,-2.17 1.48,-4.32 2.301,-6.43 3.8,-9.77 8.79,-18.94 14.78,-27.35 22.73,-31.85 59.97,-52.63 102.08,-52.63 42.12,0 79.379,20.769 102.099,52.63 6,8.4 10.981,17.58 14.771,27.35 5.469,14.06 8.46,29.36 8.46,45.35 C 27.93,-48.98 17.46,-21.54 0,0" /></g><path
           id="path28"
           style="fill:#f5995d;fill-opacity:1;fill-rule:nonzero;stroke:none"
           d="m 89.624,91.131 h 93.451 V 56.52 H 89.624 Z" /></g></g><g
       id="g30"><g
         clip-path="url(#clipPath36)"
         id="g32"><g
           id="g38"><g
             id="g40"><path
               id="path52"
               style="fill:url(#linearGradient50);stroke:none"
               d="m 123.426,64.283 c -22.363,0 -40.673,-17.355 -42.199,-39.33 v 0 C 98.057,16.542 117.044,11.81 137.14,11.81 v 0 c 18.122,0 35.346,3.845 50.897,10.764 v 0 C 187.72,45.662 168.904,64.283 145.74,64.283 v 0 z" /></g></g></g></g><g
       id="g54"><g
         clip-path="url(#clipPath60)"
         id="g56"><g
           transform="translate(134.5831,43.2261)"
           id="g62"><path
             id="path64"
             style="fill:#ff464e;fill-opacity:1;fill-rule:nonzero;stroke:none"
             d="m 0,0 v 0 c -8.048,0 -14.572,6.523 -14.572,14.571 v 24.2 h 29.144 v -24.2 C 14.572,6.523 8.047,0 0,0" /></g><g
           transform="translate(134.5831,61.4234)"
           id="g66"><path
             id="path68"
             style="fill:#ff847f;fill-opacity:1;fill-rule:nonzero;stroke:none"
             d="m 0,0 v 0 c -26.781,0 -48.492,21.711 -48.492,48.492 v 23.737 c 0,26.781 21.711,48.492 48.492,48.492 26.781,0 48.492,-21.711 48.492,-48.492 V 48.492 C 48.492,21.711 26.781,0 0,0" /></g><g
           transform="translate(108.2305,115.813)"
           id="g70"><path
             id="path72"
             style="fill:#262585;fill-opacity:1;fill-rule:nonzero;stroke:none"
             d="m 0,0 v 3.125 c 0,4.437 3.597,8.033 8.034,8.033 4.437,0 8.034,-3.596 8.034,-8.033 V 0 c 0,-4.437 -3.597,-8.033 -8.034,-8.033 C 3.597,-8.033 0,-4.437 0,0" /></g><g
           transform="translate(144.8619,115.813)"
           id="g74"><path
             id="path76"
             style="fill:#262585;fill-opacity:1;fill-rule:nonzero;stroke:none"
             d="m 0,0 v 3.125 c 0,4.437 3.598,8.033 8.034,8.033 4.437,0 8.034,-3.596 8.034,-8.033 V 0 c 0,-4.437 -3.597,-8.033 -8.034,-8.033 C 3.598,-8.033 0,-4.437 0,0" /></g><g
           transform="translate(130.9429,104.8062)"
           id="g78"><path
             id="path80"
             style="fill:#ff464e;fill-opacity:1;fill-rule:nonzero;stroke:none"
             d="m 0,0 c -1.17,0 -1.986,-1.204 -1.513,-2.274 0.874,-1.977 2.852,-3.357 5.153,-3.357 2.3,0 4.279,1.38 5.153,3.357 C 9.266,-1.204 8.45,0 7.28,0 Z" /></g><g
           transform="translate(134.5831,195.3687)"
           id="g82"><path
             id="path84"
             style="fill:#fdad81;fill-opacity:1;fill-rule:nonzero;stroke:none"
             d="m 0,0 v 0 c -32.649,0 -59.116,-26.467 -59.116,-59.116 l 0.112,-68.128 c 0,-6.555 5.314,-11.868 11.869,-11.868 6.554,0 11.868,5.313 11.868,11.868 v 24.274 45.489 h 70.598 v -45.489 h -0.065 v -24.274 c 0,-6.555 5.315,-11.868 11.869,-11.868 6.555,0 11.868,5.313 11.868,11.868 l 0.113,68.128 C 59.116,-26.467 32.649,0 0,0" /></g><g
           transform="translate(145.0211,91.2642)"
           id="g86"><path
             id="path88"
             style="fill:#ff464e;fill-opacity:1;fill-rule:nonzero;stroke:none"
             d="m 0,0 c -0.606,0 -1.171,-0.258 -1.615,-0.671 -2.198,-2.047 -5.139,-3.306 -8.379,-3.306 -3.223,0 -6.15,1.246 -8.344,3.273 C -18.806,-0.271 -19.4,0 -20.037,0 c -2.367,0 -3.593,-2.925 -1.855,-4.531 3.125,-2.89 7.306,-4.656 11.898,-4.656 4.513,0 8.627,1.706 11.734,4.506 C 3.573,-3.028 2.467,0 0,0" /></g></g></g></g></svg>