<?xml version="1.0" encoding="UTF-8" standalone="no"?>
<svg
   xmlns:dc="http://purl.org/dc/elements/1.1/"
   xmlns:cc="http://creativecommons.org/ns#"
   xmlns:rdf="http://www.w3.org/1999/02/22-rdf-syntax-ns#"
   xmlns:svg="http://www.w3.org/2000/svg"
   xmlns="http://www.w3.org/2000/svg"
   viewBox="0 0 365.70667 365.70667"
   height="365.70667"
   width="365.70667"
   xml:space="preserve"
   id="svg2"
   version="1.1"><metadata
     id="metadata8"><rdf:RDF><cc:Work
         rdf:about=""><dc:format>image/svg+xml</dc:format><dc:type
           rdf:resource="http://purl.org/dc/dcmitype/StillImage" /></cc:Work></rdf:RDF></metadata><defs
     id="defs6"><clipPath
       id="clipPath18"
       clipPathUnits="userSpaceOnUse"><path
         id="path16"
         d="M 0,274.28 H 274.28 V 0 H 0 Z" /></clipPath><clipPath
       id="clipPath34"
       clipPathUnits="userSpaceOnUse"><path
         id="path32"
         d="M 110.807,97.974 V 78.64 c 0,-1.104 0.896,-2 2,-2 v 0 h 32.333 v 21.334 71 l -34.333,15.666 z" /></clipPath><linearGradient
       id="linearGradient44"
       spreadMethod="pad"
       gradientTransform="matrix(0,108,108,0,127.97345,76.640198)"
       gradientUnits="userSpaceOnUse"
       y2="0"
       x2="1"
       y1="0"
       x1="0"><stop
         id="stop40"
         offset="0"
         style="stop-opacity:1;stop-color:#2d71e5" /><stop
         id="stop42"
         offset="1"
         style="stop-opacity:1;stop-color:#0094be" /></linearGradient><clipPath
       id="clipPath54"
       clipPathUnits="userSpaceOnUse"><path
         id="path52"
         d="M 0,274.28 H 274.28 V 0 H 0 Z" /></clipPath></defs><g
     transform="matrix(1.3333333,0,0,-1.3333333,0,365.70667)"
     id="g10"><g
       id="g12"><g
         clip-path="url(#clipPath18)"
         id="g14"><g
           transform="translate(234.5406,216.0103)"
           id="g20"><path
             id="path22"
             style="fill:#5028b5;fill-opacity:1;fill-rule:nonzero;stroke:none"
             d="m 0,0 c -22.98,28.34 -58.07,46.46 -97.4,46.46 -69.221,0 -125.33,-56.11 -125.33,-125.33 0,-13.59 2.169,-26.67 6.169,-38.92 0.71,-2.17 1.48,-4.32 2.301,-6.43 3.8,-9.77 8.79,-18.94 14.78,-27.35 22.73,-31.85 59.97,-52.63 102.08,-52.63 42.12,0 79.379,20.769 102.099,52.63 6,8.4 10.981,17.58 14.771,27.35 5.469,14.06 8.46,29.36 8.46,45.35 C 27.93,-48.98 17.46,-21.54 0,0" /></g><g
           transform="translate(133.1871,197.6402)"
           id="g24"><path
             id="path26"
             style="fill:#ffffff;fill-opacity:1;fill-rule:nonzero;stroke:none"
             d="m 0,0 h -10.427 c -2.761,0 -5,-2.239 -5,-5 V -30.333 H 5 V -5 C 5,-2.239 2.761,0 0,0" /></g></g></g><g
       id="g28"><g
         clip-path="url(#clipPath34)"
         id="g30"><g
           id="g36"><g
             id="g38"><path
               id="path46"
               style="fill:url(#linearGradient44);stroke:none"
               d="M 110.807,97.974 V 78.64 c 0,-1.104 0.896,-2 2,-2 v 0 h 32.333 v 21.334 71 l -34.333,15.666 z" /></g></g></g></g><g
       id="g48"><g
         clip-path="url(#clipPath54)"
         id="g50"><g
           transform="translate(161.4732,97.9742)"
           id="g56"><path
             id="path58"
             style="fill:#14114a;fill-opacity:1;fill-rule:nonzero;stroke:none"
             d="M 0,0 H -16.333 V -21.334 H 0 c 1.104,0 2,0.896 2,2 V -2 C 2,-0.896 1.104,0 0,0" /></g></g></g></g></svg>