<svg xmlns="http://www.w3.org/2000/svg" viewBox="0 0 1289.85 860.24"><defs><style>.cls-1{fill:none;stroke:#fff;stroke-miterlimit:10;}</style></defs><title>Fichier 9</title><g id="Calque_2" data-name="Calque 2"><g id="Calque_1-2" data-name="Calque 1"><path class="cls-1" d="M1186.08,545.43c-9.19,16.9-15.75,35.6-28.49,48.68-10.37,10.66-27.35,16.53-41.85,21.52a293.43,293.43,0,0,1-55.3,12.86c-16.44,2.22-19.14,1.19-25.92-1.54-10.38-4.19-21.09-9.24-31.39-13.88-23.33-10.5-64.34-30.28-65.43-60.4-.57-15.59-9.88-47.63,8.32-57.6,14.39-7.89,33.08-8.65,49.08-9.24,22.66-.83,46-1.08,68.58.95,13.86,1.25,26.83,3.28,39.54,8.76,11.31,4.87,23,9.63,34.66,13.66C1147.61,512.55,1199.8,524.73,1186.08,545.43Z" transform="translate(-401.55 -78.73)"/><path class="cls-1" d="M1211.05,540.85c-10.63,20.57-17.51,43.35-32.81,59.14-12.67,13-32.78,20.52-50.58,26.8-21.58,7.62-44.73,12.63-67.55,16.1-10.48,1.59-21.77,2.43-31.73-1.86-12.77-5.49-25.66-11.16-38.22-17C964,612,911.33,584.68,912.57,549.56c.69-19.65-9.76-56.75,12.49-69.47,16.81-9.62,39.61-9.28,58.27-9.8,26.65-.74,54-.41,80.68,2.1,16.43,1.55,31.61,4,46.7,10.49,13.49,5.8,27.5,11.31,41.37,15.95C1164.8,503.08,1226.94,515.91,1211.05,540.85Z" transform="translate(-401.55 -78.73)"/><path class="cls-1" d="M1262.55,529.06c-12.86,28.25-19.9,59.27-40.21,81.34-17.16,18.66-44.4,29.65-68.86,38.87-30,11.33-62.52,19-94,23.51-15,2.15-30.07,3.5-44.39-2.49-17.8-7.43-35.48-15.47-52.87-23.74C925.41,629.07,855.58,591,860.66,540.85c3-29.15-7.08-77.67,23.85-94,22.06-11.65,51.58-10,76.4-9.69,34.36.41,69.69,1.7,103.78,5.35,21.22,2.27,41,5.81,60.62,14.08a554.2,554.2,0,0,0,55,20.23C1197.23,481.92,1281.16,495.53,1262.55,529.06Z" transform="translate(-401.55 -78.73)"/><path class="cls-1" d="M1278.18,524.77c-13.46,30.09-20.62,63.42-42.31,87-18.66,20.27-48,32.34-74.45,42.33a465.72,465.72,0,0,1-102.26,25.66c-16.27,2.13-32.52,3.84-48.32-2.64-19.34-7.93-38.57-16.41-57.41-25.5C913.58,632.35,838.12,592,844.69,537.52c3.75-31.08-6-83,27.52-99.72,23.84-11.91,55.26-9.56,81.84-8.91,36.75.89,74.29,2.67,110.73,6.56,22.67,2.42,44,6.16,64.84,14.82a537.71,537.71,0,0,0,59.15,20.88C1206.49,476.15,1297.6,489.1,1278.18,524.77Z" transform="translate(-401.55 -78.73)"/><path class="cls-1" d="M1376.56,491c-6.1,22.43-12.27,45-18.13,67.35-6.37,24.28-15.34,45.34-31.23,64.34-27.67,33.05-70.77,54.13-110.58,71a630.81,630.81,0,0,1-158.78,43.56c-25.82,3.5-51.12,5.71-75.78-3.92-29.73-11.62-59.44-25.69-88.17-40.36-59.13-30.19-171.17-101.16-148.84-183.12,12.5-45.85,8.76-124,62-144.9,34.52-13.57,76.43-7.07,112.43-3.42,48.81,5,98.47,10,146.63,16.48,30.63,4.14,59.49,10.13,87.9,21.76,27,11.06,55.74,20.65,84.18,27C1265.19,432.7,1396.49,438.55,1376.56,491Z" transform="translate(-401.55 -78.73)"/><path class="cls-1" d="M1418.51,472.5c-5.54,25.71-11.16,51.59-16.77,77.08-6.19,28.14-15.17,52.09-33,74.59-31.15,39.32-80.57,65-126.36,85.47a692.56,692.56,0,0,1-185.12,52.72c-30.17,4.15-59.92,6.61-88.74-4.54-34.63-13.4-69.14-29.79-102.39-47.55-47.87-25.57-94.5-56.83-129.09-99.38C711.37,579.3,688.41,535.35,702.39,494c17.9-52.92,19.4-140.69,81.42-163.4,38.18-14,84.66-4.91,123.92.41,52.9,7.16,106.73,14,159,21.8,33.54,5,65.28,12.12,96.5,24.89,30.27,12.37,62.57,22.73,94.55,29,37.34,7.35,77.15,9.77,114.79,18.62C1394.57,430.54,1429.17,442.61,1418.51,472.5Z" transform="translate(-401.55 -78.73)"/><path class="cls-1" d="M1459.66,451.77c-4.61,28.94-9.45,58.11-14.46,86.72-5.53,31.58-14.83,59.52-34.06,85.1-34.57,46-89.93,76.88-142.05,101.19a756.77,756.77,0,0,1-212.4,62.73c-34.91,4.86-69.06,7.57-102.3-5.2a939.92,939.92,0,0,1-117.58-55.23c-53.53-29.72-107.67-67.23-144.18-116.94-27.76-37.79-49.76-87.67-32.21-134.15,21.81-57.74,32.77-158.81,103.46-180.83,42.12-13.12,91.88-2.27,134.21,4.93,56.26,9.57,113.55,18.33,169.17,27.59,36.12,6,70.51,14.28,104.22,28.11a516,516,0,0,0,104.9,30.68c42.26,7.5,86.79,8,128.7,15.83C1430.76,407.08,1466.79,417.34,1459.66,451.77Z" transform="translate(-401.55 -78.73)"/><path class="cls-1" d="M1561.18,388.13c3.71,37.47-2.16,75.1-5.51,111.54-3.74,40.61-7.58,74.94-30.37,111.28-41.81,66.68-117.27,113.55-185,149.2-88.15,46.37-186.94,78.32-285.06,92-48,6.7-95.81,9.78-141.66-7.19-53-19.59-105.35-47.81-153.42-76.78-69.5-41.88-143.34-96.06-185.43-168.84-32.54-56.26-43-119.17-18.37-179.95,19.8-48.87,47.08-96.08,75.62-139.49,22.79-34.65,51.92-71.58,95.22-80.52,49.91-10.3,107.68,7.23,156.7,20,61.33,16,123.22,30.17,184.88,43.6,41.7,9.09,81.7,20.73,121,36.82,40.77,16.7,83,29,126.81,34.5,55.07,6.87,110.93-.42,166.13,2.58C1516.29,338.73,1557.51,347.21,1561.18,388.13Z" transform="translate(-401.55 -78.73)"/><path class="cls-1" d="M1614.46,346.33c7.7,41.3,3.77,83.66,2.66,124.35-1.25,45.83-3.73,85-27.57,126.9-44.7,78.51-129.79,136.62-206.55,179.35C1282.2,833,1168.49,872,1054.37,888.1c-55.59,7.86-111.27,11.23-164.46-8.49-61.2-22.69-121.39-55.85-176.15-90.39C634.66,739.32,552.39,674,508.07,587.94c-34.17-66.32-40.19-139.28-6.78-206.32,27-54.13,63.07-105.5,100.25-152.32,29.44-37.08,66.34-76.25,115.64-84.11,53.17-8.48,113.31,12.6,164.44,28.76,62.16,19.63,125,37.18,187.95,53.14a913,913,0,0,1,127.32,42.19c44.66,18.6,90.87,31.3,139.15,35.71,61.74,5.63,123.11-5.64,185-7.4C1559.65,296.5,1605,301,1614.46,346.33Z" transform="translate(-401.55 -78.73)"/><path class="cls-1" d="M1675,290.1c13.39,45.32,12.64,93.25,14.87,138.81,2.54,52,2.37,96.82-22.15,146-47,94.12-143.47,166.82-231.16,219.49-116.2,69.8-249.2,117.55-383.15,136.85-65.21,9.39-131,13.07-193.42-10.28-71.55-26.76-141.5-66.34-204.48-108.3C565,752.38,472.09,672,426.78,568.57c-34.54-78.81-34.88-164.64,11.58-238.29,37.8-59.91,85.27-115,134-164.7,38.2-39,85.48-79.82,142.27-85.52C771,74.39,832.2,99,884.72,119.39c61.15,23.79,123.38,45.51,185.84,64.59,45.22,13.82,89.25,30.58,132.6,49.21,48.9,21,99.75,34,153.12,36.68,69.93,3.55,137.77-13.65,206.68-22.23C1605.46,242.35,1659.15,240.35,1675,290.1Z" transform="translate(-401.55 -78.73)"/></g></g></svg>