<svg xmlns="http://www.w3.org/2000/svg" viewBox="0 0 1488.63 614.74"><defs><style>.cls-1{fill:none;stroke:#fff;stroke-miterlimit:10;}</style></defs><title>Fichier 12</title><g id="Calque_2" data-name="Calque 2"><g id="Calque_1-2" data-name="Calque 1"><path class="cls-1" d="M779,419.17c5,2.2,43.88,10.43,34,17.57-27.7,20-79,20.74-113.16,26.14-23.24,3.67-51.29,10.71-71.93-3.29-19.67-13.35-20.54-32.5.46-43.24,17.83-9.13,36.68-19.4,54.82-29.16a99.8,99.8,0,0,1,24.49-8.71s-7.78,4.77,7.93,14.13C734.91,404.11,757.93,410.46,779,419.17Z" transform="translate(0 -120.14)"/><path class="cls-1" d="M793.29,418.23c5.78,2,50.33,11.93,41,20-11.48,10-33.76,13.21-50.27,17.14-27.87,6.64-57.06,11.24-85,15.49-17.16,2.62-36.59,7-53.45,5.89-12.43-.81-21.43-3.88-32.41-10.3-25-14.63-22.28-38.91.78-51.65,20.36-11.23,45.41-20.52,65.62-34.1,8.43-5.67,20.19-10.49,28.79-10.31,1.49,0-3.62,1.51-4.08,4s3.85,7.46,13.24,12.8C741.1,400.62,767.62,409.2,793.29,418.23Z" transform="translate(0 -120.14)"/><path class="cls-1" d="M841.34,413.5c16.66,5.31,34.11,6.8,50.94,11.26,6.09,1.61,25.62,6.13,13.52,15.3-21,15.91-51.58,23.76-76.88,30.92-43.25,12.24-88.77,20.48-132.36,27.06-26.85,4-56.5,9.09-84.08,8-17.88-.7-35.94-7.63-50.59-17.8-13.23-9.2-26.86-23.8-28.09-40.75-1.51-20.78,15.7-31.7,31.88-39.29,32.62-15.3,70.61-29.78,101.15-49.46a101.3,101.3,0,0,1,27.32-12,158,158,0,0,1,16.78-3.41s-6.39,2.42-6.17,6.11c.49,8.26,12.22,15.3,20,19.71C760.73,389.32,801.76,401.71,841.34,413.5Z" transform="translate(0 -120.14)"/><path class="cls-1" d="M850.21,412.37c17.75,5.48,36.28,7.19,54.32,11.36,6.58,1.51,27.3,6.22,14.54,16.06-22.18,17.09-54.93,26-81.73,33.82-46.12,13.43-94.69,22.45-141.25,29.45-28.64,4.32-61,10.73-89.88,8.33-20-1.66-37.14-8-54-19.35-38.44-25.87-37.25-66.29,4.55-85.32,35-15.92,75.66-32.55,107.81-52.06a114.4,114.4,0,0,1,29-12.76,166.47,166.47,0,0,1,17.81-3.61s-6.79,2.57-6.56,6.5c.54,9.19,13,16,21.3,21C762.89,388,807.92,400.19,850.21,412.37Z" transform="translate(0 -120.14)"/><path class="cls-1" d="M889.07,406.42c22.85,5.9,46.28,6.92,69.43,10.83,7.53,1.27,34.43,6.59,19,19.06-26.57,21.5-69,36.75-102.78,47.9-58.7,19.4-120.94,32-180.7,41-36.75,5.49-77.92,12.35-115.93,9.34-25-2-49.35-11.71-69.18-26.77-17.74-13.48-35.85-33.95-36.79-57.53-1.12-28,22.78-41.62,45.44-51.09C545.89,387.29,575.15,376.94,603,364c17.75-8.26,34.85-17.79,51.82-27.49,11.48-6.55,23.7-12.39,36.42-15.84a188.25,188.25,0,0,1,22.24-4.49s-8,2.69-8.2,8.22C704.84,336,723.54,346,731.9,351,778.43,379,835.34,393.3,889.07,406.42Z" transform="translate(0 -120.14)"/><path class="cls-1" d="M903.62,404c24.65,5.83,49.91,6.59,74.92,9.89,7.78,1,37.35,6,20.91,19.59-28.21,23.34-74.49,40.82-110.56,53.1-63.39,21.59-130.76,35.48-195.53,44.87-39.85,5.77-85.07,13.59-125.72,9.08-28.13-3.12-52-12.78-74.89-29.66-19-14-38.95-36.91-39.6-62.15-.76-29.85,25.4-43.83,49.68-53.29,30.7-11.95,62.18-22.35,92.23-35.81,19.16-8.58,37.53-18.72,55.86-28.62,12.48-6.73,25.37-12.94,39.16-16.56A208,208,0,0,1,714,309.78s-8.6,2.85-8.8,8.7c-.43,12.35,19.76,23,28.71,28.28C784.09,376.49,845.55,391.16,903.62,404Z" transform="translate(0 -120.14)"/><path class="cls-1" d="M949.8,394.19c30.7,5.55,61.76,4.76,92.77,6.46,10.94.6,45.78,3.42,26.83,22-33.48,32.74-90.06,56.39-134.66,73.63-78.34,30.29-162.52,49.64-243.8,61.32-50.29,7.23-107.06,15.87-158.31,9.16-34.86-4.56-65.78-18.25-93.47-40.39-23.36-18.68-47.17-48.26-47-80,.17-36.59,34-53,64.08-63,38.13-12.69,77.39-24.41,114.69-40.07,23.7-9.94,46.23-22,68.79-34,15.16-8.06,30.89-16,47.75-19.94,9.58-2.23,20.9-5.73,28.95-5.64,3.77,0-10.41,3.48-10.68,10.72-.58,15.47,23.64,28.21,34.89,34.92C802.24,366.05,878.33,382.05,949.8,394.19Z" transform="translate(0 -120.14)"/><path class="cls-1" d="M995.47,382.13c36.65,5.14,73.62,1.46,110.41.76,14.68-.28,53.6-1,32.9,23.35-37.47,44.07-105.11,74.4-157.55,97.25-93.11,40.57-194.49,66.1-292.71,80.14-60.86,8.7-129.91,18.06-192,8.34-42.48-6.64-79.56-24.46-112.28-52.72-27.47-23.72-55.33-60.67-53.57-99.18,2-43.65,43.1-61.2,79.39-71.33,45.6-12.73,92.69-25.2,137.28-42.66,28.2-11,55.06-24.61,81.62-38.77,17.75-9.47,36.45-18.25,56.08-23.13,11.14-2.77,24.61-6.59,33.81-6.56,4.32,0-11.82,3.79-12.5,12.73-1.42,18.55,28.49,34.22,40.87,41.55C820.12,355.13,910.42,372.09,995.47,382.13Z" transform="translate(0 -120.14)"/><path class="cls-1" d="M1034.94,369.77c41.69,1.55,83.22-2.36,124.3-5.66,12.85-1,64-5.33,41,22.57-15.13,18.37-37.71,37.08-58.37,51.76-38,27-78.95,49.65-120.79,69.73C916,558.61,800.9,590.26,686.39,606.45c-72.12,10.2-151.31,19.68-223.79,6.44C414,604,371.71,582.28,336.31,549,306.73,521.25,272,473.83,275.1,430.65c3.22-45,59-66.87,95-76.64,51.15-13.9,106.12-24.74,157.1-43.53,32.15-11.85,62.39-27,92.73-42.58,20.26-10.43,40.94-20.49,63.18-25.77,12.47-3,27.61-7.39,37.87-7.33,4.81,0-13,4.29-14,14.48-2.09,21,32.1,38.88,46.3,47.45,41.48,25,90.09,40.27,136.79,51.61C937.15,359.79,986,366.62,1034.94,369.77Z" transform="translate(0 -120.14)"/><path class="cls-1" d="M1073.91,355.73c46.79-.39,93-7.34,138.73-14.15,21.56-3.21,67.38-12.48,46.8,21.76-14.73,24.5-40.68,44.35-63.23,62.16-41.6,32.86-87,60.59-133.79,85.22-117.38,61.87-248,100.2-378.15,118.55-82.16,11.59-172.82,21.07-255.22,4.09-55.66-11.46-103.21-37.67-142.64-77.13-32.54-32.57-71.54-87.93-65.64-137.47,6.11-51.27,68-71.88,109.79-81.35,57.8-13.08,119.54-23.25,176.91-43.08,36-12.47,69.85-28.8,103.74-46,22.53-11.43,45.38-22.42,70.07-28.29,13.78-3.28,30.7-8.06,41.78-8.06,5.24,0-14.13,5.08-15.52,16.22-2.78,22.28,36.23,44.25,51.23,53.26C805,309.22,859.16,325.82,911.49,337.3,964.41,348.91,1019.2,354.72,1073.91,355.73Z" transform="translate(0 -120.14)"/><path class="cls-1" d="M1197.64,297.9c63.11-10.27,122.71-31.18,181.66-54.64,16.43-6.54,40.94-20.81,59.34-18.93,18.77,1.92,11.32,18.11,5.72,31.42-16.06,38.2-46.38,72.1-74,102.45-50.72,55.73-108.8,104.37-170.5,147.07C1045.11,612.38,862,678.6,677.3,704.25c-117.6,16.33-248.15,23.65-364.25-9.53-79-22.58-146.13-68.13-196.25-130.75-41-51.17-90.93-137.73-73.68-207.36,16.94-68.35,103.28-82.72,161.82-87.12,79.28-6,162.9-10.6,241.27-31.91C494.82,224.36,540,204.86,585.26,183c29.42-14.23,59.78-28.14,91.32-35.75C693.67,143.12,730,137,730,137c.55.61-17.69,10.4-20,21.89-6.14,30.42,46.25,60.26,66.25,72.38,61,37,133.55,56.6,203.53,66.71C1051.38,308.33,1125.26,308,1197.64,297.9Z" transform="translate(0 -120.14)"/><path class="cls-1" d="M1223.54,283c66.45-13.16,128.69-38,189.81-66.05,17.33-8,42.2-24.81,62-23.87,20.11.95,11.77,19.72,6.7,32.93-15.94,41.49-46.73,78.91-75.09,112.42-52,61.46-112.38,115.41-177.07,162.79-162,118.66-357,192.06-554.08,219.35C550.08,738,410.25,744.37,286.71,706.76,202.32,681.08,132,630.73,79,562.2c-43-55.55-94-150.57-73.95-224,19.66-72,111.88-83.63,173.64-86.2,83.75-3.49,172.05-6.23,255-27.46,51.28-13.12,98.91-33.16,146.52-55.94,30.84-14.75,62.31-29.48,95.65-37.21,18-4.16,55.75-10.67,55.75-10.67.14.24-18.7,12.15-19.95,23.32-3.67,32.66,44.51,62.27,67.08,76.2,64.47,39.81,143,59,216.59,68.44C1070.66,298.38,1147.86,296.94,1223.54,283Z" transform="translate(0 -120.14)"/></g></g></svg>