<svg xmlns="http://www.w3.org/2000/svg" viewBox="0 0 728.49 451.8"><defs><style>.cls-1{fill:none;stroke:#fff;stroke-miterlimit:10;}</style></defs><title>Fichier 5</title><g id="Calque_2" data-name="Calque 2"><g id="Calque_1-2" data-name="Calque 1"><path class="cls-1" d="M355.6,220.24c-1.61,11-5.63,22.82-13.76,30.63-7.19,6.91-16.19,4.8-24,8.18s-17.67-2.54-25.68-4.48c-8.18-2-17.58.22-21.09-1.84-4.54-2.65-4.45-12.93,2.45-19.59,9.66-9.31,23.22-16.24,34.18-22.3,11.94-6.61,24.3-8.33,38.12-4.26C354.94,209.26,357.58,211.75,355.6,220.24Z" transform="translate(-1.02 -34.17)"/><path class="cls-1" d="M376.08,214.39c-1.22,5.75-3,15.49-6.25,23.63-3.28,8.33-8,15.41-13.47,19.73-10.29,8.14-23.67,9.26-36.1,12.64-12.85,3.5-26.05-2.27-37.89-5.94a43.7,43.7,0,0,0-17.46-1.7c-5.07.59-9.77,2.41-13-.6-8.11-7.54-3.35-23.76,4.06-30.25,14.11-12.36,33.13-23.77,49.37-32.4,16.9-9,36.25-10.82,55.53-4.3,6.75,2.28,11.56,4.64,13.75,7S376.8,207.34,376.08,214.39Z" transform="translate(-1.02 -34.17)"/><path class="cls-1" d="M394.14,209.85a154.4,154.4,0,0,1-7.32,28.81c-3.25,8.64-9.95,18.84-17.32,24.7-13.28,10.54-31.83,11.92-47.15,17-15.54,5.1-33.92-2.44-48.61-6.81a54.16,54.16,0,0,0-22.06-1.94c-6.39.85-12.37,2.15-16.31-.63-3.05-2.15-5.86-10.46-5-18.19a36.75,36.75,0,0,1,10.72-22.05c16.91-17.1,41.49-30.34,62.2-41.13,21.77-11.34,46.21-11.78,70.39-3.39,8.74,3,15.06,6,18,9C394.79,198.27,394.76,201.34,394.14,209.85Z" transform="translate(-1.02 -34.17)"/><path class="cls-1" d="M411,206.11c-1.72,11.24-3.86,22.46-8,33.07-4.39,11.21-11.49,21.75-20.93,29.09-16.8,13.05-38.17,14.5-57.8,21.27s-40.09-1.94-58.6-7.3a62.87,62.87,0,0,0-26.22-2.08c-7.56,1.13-14.63,2.83-19.24-.61-3.51-2.61-6.54-13.17-5.61-22.7.9-9.3,6.26-20.72,12.93-27.41,20.7-20.78,48.82-36.25,73.76-49.08,25.65-13.21,56.14-11.74,83.86-1.74,10.55,3.81,18.41,7.36,22.14,10.77C411.26,193,411.42,196.44,411,206.11Z" transform="translate(-1.02 -34.17)"/><path class="cls-1" d="M424.1,203.54c-1.6,12.26-3.78,24.48-8.33,36-4.95,12.55-13.09,24.16-23.73,32.31-19.34,14.82-43.8,16.73-66.26,24.77-22.18,7.93-45.12-1.08-66.3-7.47-8.79-2.65-20.43-3.62-29.33-2.13-8.4,1.4-16.18,4.46-21.42-.56-6.5-6.24-6.49-18.49-6-26.36.74-11.35,6.68-23.25,14.63-31.75,22-23.54,54.37-40.93,82.44-55.09,29.08-14.69,62.94-11.77,94,.06,8.54,3.25,18.39,6.35,25.42,12.14C423.84,189.28,424.21,193.1,424.1,203.54Z" transform="translate(-1.02 -34.17)"/><path class="cls-1" d="M438.53,201a163.84,163.84,0,0,1-8.44,38.88c-4.95,13.89-15.19,26.85-26.84,35.71-22,16.76-50.28,19.2-75.83,28.79-25,9.39-51.3-1.6-74.79-7.43-10.26-2.56-21.93-4.09-32.67-2.14-9.32,1.7-18,5.26-23.71-.47-7-7-7.47-21.16-6.32-30.6a68.08,68.08,0,0,1,16.49-36.72c24-26.86,60.64-46.28,91.76-61.59C331,149.3,368.68,154.93,403.07,168c9.76,3.72,20.88,7.3,29.13,13.66C437.6,185.85,438.24,189.87,438.53,201Z" transform="translate(-1.02 -34.17)"/><path class="cls-1" d="M457.37,198.34a148.14,148.14,0,0,1-8.62,41.4c-5.7,15.5-17.82,29.46-31.06,39.33-25.87,19.28-59.56,22.37-88.5,34.09-27.73,11.22-58.29.8-85.6-6.43-11.83-3.13-24.77-4.43-36.84-1.69-8,1.82-19.66,6.78-26.55-.05-8.73-8.67-7.69-24.86-6.63-35.71a78.83,78.83,0,0,1,18.91-43c27.26-30.89,68.22-52.85,103.8-69.59,37.51-17.65,80-8.67,118.83,5.94,11.55,4.35,24,8.35,34,15.32C455.52,182.46,456.53,186.6,457.37,198.34Z" transform="translate(-1.02 -34.17)"/><path class="cls-1" d="M492.46,194.76c.42,15.68-1.19,31-7.18,45.65-7.61,18.56-22.26,35.41-38.72,46.2-34.63,22.69-75.61,28.59-113.5,45-35.21,15.2-71.56,3.13-106-4.66-14.29-3.24-29.39-5.15-44.21-1.19-9.3,2.49-23.56,9.38-31.39.41-10.19-11.67-8.5-33-7.07-47.18a109.51,109.51,0,0,1,23.17-56.07c14.25-17.94,33.45-32.06,52.32-44.49,23.06-15.2,47.46-29.5,72.49-40.09,46.4-19.62,97.2-2.26,143,15.51,14.72,5.71,30.25,11,43.65,18.95C487.77,177.93,489.84,182.15,492.46,194.76Z" transform="translate(-1.02 -34.17)"/><path class="cls-1" d="M527.77,193.14c3.44,16.6,1.64,32.7-4.06,48-8,21.29-27.4,39.87-46.51,52.09-42.77,27.34-93.89,35.57-140.27,56.79-42,19.22-84.58,7.61-126.29-1.62-16.59-3.67-34-5.24-51-.36-10.56,3-27.05,10.92-35.69,1-10.93-12.53-9-44.56-7.34-59.91,2.69-25.07,12-50.06,27.23-70.58,16.33-21.94,38.68-38.9,60.87-53.84a466.64,466.64,0,0,1,83.86-44.77c53.78-22,115.48,8,165.3,28,18,7.22,36.71,14.23,54,22.65A38.72,38.72,0,0,1,527.77,193.14Z" transform="translate(-1.02 -34.17)"/><path class="cls-1" d="M558.78,193.34c6.83,16.21,5.8,32.88.18,48.44-8.53,23.61-32,43.27-53.45,56.41-50.84,31.19-112,44.07-165.19,67.89-23.49,10.52-49.6,17.06-75.89,15.11-23-1.7-45.46-8.62-68.12-13-18.82-3.66-37.78-5.47-56.53.62-11.38,3.69-29.8,13.24-39,1.62-12.07-15.26-9.56-53.21-7.54-72.08,3.15-29.45,13-59.84,30.53-84.3,18.06-25.21,42.89-45.12,68.1-62.17,28.82-19.5,60.78-37.37,93.28-48.06,31.11-10.23,61.87-5.36,93.2,5,30.35,10,60,24,89.88,36.18,21.14,8.65,42.81,17,63.52,26C543,175.76,552.12,182.87,558.78,193.34Z" transform="translate(-1.02 -34.17)"/><path class="cls-1" d="M589.85,195.06c10.87,14.64,11.22,31.58,5.92,47.57-8.64,26.06-37.59,45.8-60.48,59.92C476.58,338.77,405,353.25,343.7,382.18c-26.51,12.52-56.21,21.1-86.14,19.81-25.63-1.1-50.28-8.27-75.49-13-19.95-3.77-42.39-5.56-61.55,1.81-11.13,4.27-32.8,16.59-41.88,2.31-12.53-19.69-10.14-61.36-7.84-85.24,3.34-34.62,13.91-69.79,33.55-98.94s46.88-51.54,75.14-70.66C210.88,117,245.91,98,281.77,87.69c33.82-9.69,67.23-1,100,12.19,33.27,13.44,65.83,30.17,99.11,44.21,24.3,10.26,49.12,19.95,73.56,29.38C567.52,178.52,579.83,184.9,589.85,195.06Z" transform="translate(-1.02 -34.17)"/><path class="cls-1" d="M620.93,198.3c15.82,11.26,18.19,28.93,12.9,45.19-9,27.77-42,48.28-67.09,63.18-35.06,20.8-74.41,33.86-112.37,48-36.05,13.41-72.59,27.9-107.28,43.64-30.33,13.76-63,25.54-96.55,25.14-28-.34-54.94-7.75-82.57-12.7-21.47-3.84-45.78-5.51-66.1,3.22-9.78,4.21-36.41,19.19-44.33,3.06-11.12-22.65-10.76-71.56-8.29-99.38,3.53-39.81,14.84-80.58,36.21-114.53,20.27-32.19,50.86-58.44,82-79.27C201.63,101,240.09,79.64,278.38,71.58,313.94,64.09,349.5,75.7,383.66,92c36.26,17.3,71.48,37.36,108.43,53.45,27.25,11.86,55.08,22.61,83.14,32.46C590.68,183.33,607.57,188.37,620.93,198.3Z" transform="translate(-1.02 -34.17)"/><path class="cls-1" d="M647.52,202.3c18.37,8.49,25.85,25.42,20.5,42.37-9,28.44-46.37,49.68-73.18,64.81-39.51,22.29-83.43,36.85-125.74,52.78-40.16,15.12-80.77,31.66-119.11,49.83-33,15.66-68.65,29.63-105.58,30.22-29.9.47-58.79-7-88.38-12.12-23.23-4-47.85-5.38-69.6,4.59-10.07,4.61-37.84,20.86-46.09,3.72C29.08,415.11,29,355.79,31.45,326.22c3.7-44.48,15-90.18,38.19-128.64,21.46-35.58,54.21-64,87.87-86.74,35.27-23.81,76.92-46.75,118-53.06,38.34-5.9,74.1,9.46,109,28.74,38.1,21.06,75.55,43.55,115.31,61.34a872.05,872.05,0,0,0,92.39,35.59C610.61,189.31,630.07,193.68,647.52,202.3Z" transform="translate(-1.02 -34.17)"/><path class="cls-1" d="M669.62,206.51c16.32,7.26,35.65,18.68,27.84,39.36-11.6,30.74-50.79,50.77-78.3,65.66C575.7,335,527.83,350.81,481.73,368.32,438,384.93,393.88,403.26,352.41,423.6c-35,17.14-73.43,33.63-113.18,34.8-31.72.94-61.84-6.29-93-11.45-24.2-4-49.92-5.06-72.23,5.84-11.77,5.76-37.87,24.22-47.3,4.31C21.17,445.52,17.5,425.54,16.41,411c-1.92-25.81-1.26-51.76.66-77.44C20.69,285,32,234.9,56.66,192.59c22.3-38.28,56.77-68.95,92.69-93,37.32-25,81-47.95,123.71-53.27,39.41-4.91,76.19,14.6,111.3,36.39,39.28,24.39,78.58,49,120.59,68.21,32.41,14.83,66,28.23,100.38,38.29C626.59,195.38,648.73,199.05,669.62,206.51Z" transform="translate(-1.02 -34.17)"/><path class="cls-1" d="M691.65,211.5c16,5,43.49,13.82,36.13,35.8-10.51,31.4-56.3,52-83.47,66-47.58,24.6-99.59,41.66-149.62,60.8-47.39,18.13-94.11,38.94-139.86,61C317.3,453.16,276.38,473,234,475.45c-33.83,2-65-7.19-97.54-12.18-25.72-3.94-50.78-3.26-74.59,9.05C51,478,22,496.43,13.59,476.31-.54,442.34.5,381.22,3.09,341.92c3.49-52.85,14.48-109.7,40.75-155.85,23-40.42,59.87-71.94,97.51-97.5s82.73-51.9,129.29-53.8C313.59,33,348.53,55.11,383.56,79.43,423.8,107.37,464.77,134,509,154.75c34.85,16.31,71.26,30.82,108.6,41.07C642,202.5,667.14,205.42,691.65,211.5Z" transform="translate(-1.02 -34.17)"/></g></g></svg>