<svg xmlns="http://www.w3.org/2000/svg" viewBox="0 0 430 289.02"><defs><style>.cls-1{fill:none;stroke:#fff;stroke-miterlimit:10;}</style></defs><title>Fichier 3</title><g id="Calque_2" data-name="Calque 2"><g id="Calque_1-2" data-name="Calque 1"><path class="cls-1" d="M377.19,174.38c-1.07,0-4.61-1.88-9,.59-4,2.27-10.37,9.44-16.17,8.5s-12.28,4.58-16.53,1.05c-3.69-3.08-6.19-16.52-6.1-25.18.08-6.87,2.12-7.94,6.82-10.62,4.16-2.38,11.78-7.54,18.64.19s13.53,10.46,17.58,14.27C376.33,166.8,378.31,172.13,377.19,174.38Z" transform="translate(-103.41 -19.93)"/><path class="cls-1" d="M385.57,177.63c-1.44-.08-6.22-2.65-12,.68-5.36,3.06-14,12.73-22,11.33s-17.08,7-22.94,1.09c-8.05-8.15-8.16-22.87-7.84-33.51.26-9.13,3.16-10.52,9.6-14.24,5.68-3.28,15.87-10.47,25-.25,6.89,7.71,16,12.49,23.6,19.35C384.52,167.07,387,174.53,385.57,177.63Z" transform="translate(-103.41 -19.93)"/><path class="cls-1" d="M393.33,180.82c-.83,1.82-2.95-.93-5.35-1.79s-6-.13-9.48,2.37c-7.95,5.77-16.76,13.44-27.42,14-9.41.5-20.82,6.49-29.18,1.08-3.81-2.47-6.68-8.84-8.1-17.16a121.31,121.31,0,0,1-1.13-23.92c.44-7,1.28-8.82,3.21-10.74,1.78-1.77,5.21-4,9.13-6.69,9.17-6.31,21.74-9.8,30.86-1A254.78,254.78,0,0,0,385,161.15C391.35,165.63,395.07,178.81,393.33,180.82Z" transform="translate(-103.41 -19.93)"/><path class="cls-1" d="M399.41,183.42c-.93,2.14-3.4-1.11-6.15-2.14s-6.93-.19-10.86,2.69c-9.14,6.71-19.28,15.55-31.69,16-11,.36-24.55,7.13-34.24.9-4.48-2.87-7.79-10.15-9.32-19.62a130.26,130.26,0,0,1-.87-27.14c.67-8,1.69-10,4-12.2,2.1-2,6.11-4.59,10.67-7.74,10.4-7.19,24.8-12,35.33-1.68,10.12,9.92,22.63,18.73,33.36,27.68a28.43,28.43,0,0,1,8.58,12.58C399.83,177.42,400.38,183.17,399.41,183.42Z" transform="translate(-103.41 -19.93)"/><path class="cls-1" d="M404.9,185.87c-1,2.43-3.79-1.3-6.86-2.48s-7.72-.26-12.08,3C375.73,193.93,364.22,204,350.38,204c-12.78.05-27.63,7.88-39,.67-5.08-3.22-8.83-11.29-10.41-21.8a119.87,119.87,0,0,1-.52-30c1-8.83,2.11-11,4.71-13.48,2.4-2.28,6.81-5.17,12.08-8.71,11-7.4,28.33-13.75,39.33-2.42,10.59,10.92,25.24,20.92,37.17,31a32.87,32.87,0,0,1,9.66,14.32C405.29,179,406,185.6,404.9,185.87Z" transform="translate(-103.41 -19.93)"/><path class="cls-1" d="M411.45,188.91c-1.08,2.78-4.25-1.54-7.7-2.91-3.62-1.44-8.62-.36-13.53,3.29C378.58,197.93,365.59,209,350,209c-14.48,0-31.79,8.68-44.84.3-5.87-3.77-10.13-12.65-11.71-24.37a128.18,128.18,0,0,1,0-33.21c1.27-9.73,2.7-12.19,5.71-15,2.77-2.57,7.81-5.85,13.81-9.89,15.73-10.61,30.14-14.53,44-3.45,12.94,10.35,28.39,23.54,41.66,35a38.32,38.32,0,0,1,11,16.46C411.79,181,412.66,188.6,411.45,188.91Z" transform="translate(-103.41 -19.93)"/><path class="cls-1" d="M415.94,191c-1.13,3-4.57-1.71-8.28-3.23-3.89-1.59-9.25-.49-14.5,3.34-12.58,9.18-26.73,20.79-43.43,20.45-15.21-.3-35.09,9.27-48.86-.17-8-5.49-11.48-16.27-12.66-25.69a131.75,131.75,0,0,1,.35-34.77c1.49-10.17,3.07-12.75,6.35-15.68,3-2.71,8.61-6.16,15-10.48,13.66-9.25,33.16-17.54,47.28-4,13.64,13.1,30.55,25,44.8,37.37a41.94,41.94,0,0,1,11.87,17.75C416.24,182.55,417.23,190.68,415.94,191Z" transform="translate(-103.41 -19.93)"/><path class="cls-1" d="M430.17,198.2c-1.26,3.79-5.57-2.29-10.08-4.3-4.76-2.12-11.13-.76-17.51,3.94-14.92,11-33.37,26.12-53.72,24.39-19.88-1.68-44.54,10.48-62.63-1.49-9.91-6.57-14.34-19.37-15.48-30.9a137.12,137.12,0,0,1,2.32-41.1c2.53-12,4.7-15,8.94-18.62,3.92-3.32,10.85-7.64,19-13.06,16.38-11,39.63-23.69,57.08-7,16.68,16,37.24,30.57,54.33,46a55.38,55.38,0,0,1,14.77,22.74C430.24,187.37,431.71,197.83,430.17,198.2Z" transform="translate(-103.41 -19.93)"/><path class="cls-1" d="M456.26,213.12c-1.38,5.46-7.33-3.59-13.25-6.63-6.33-3.26-14.48-1.45-22.75,4.9-22.22,17.09-44.44,33.11-73.05,30.87s-63.63,11.18-90.93-5.12c-13.32-7.94-19.92-24.89-20.6-39.79-.77-16.77,2.84-35.29,8.2-51.24,3-8.83,7.38-17.79,15.05-23.47,8.58-6.35,18-12.09,26.84-18,19.5-13.14,52.22-35.42,73.92-14.53,11.7,11.25,25.8,23.07,39.07,34.16,10.82,9,22.28,17.59,32.17,27.65a89.44,89.44,0,0,1,20.26,32.94C454.3,193.65,457.6,203.71,456.26,213.12Z" transform="translate(-103.41 -19.93)"/><path class="cls-1" d="M468.16,220.7c-1.4,6.31-8.12-4.27-14.65-7.86-7-3.85-15.41-1.77-25,5.49-11.49,8.7-22.33,18-34.77,25-13.91,7.82-31.87,10-47.3,8.27C313,247.8,273,263,241.15,244.33c-15-8.78-22.82-26.8-22.92-43.54-.11-18.45,4.65-38.44,12-55.25,4.19-9.59,9.61-19.23,18.49-25.49,10-7.07,20.64-13.57,30.71-20.42,25.23-17.16,53.93-40.33,81-18.91,14.38,11.37,28.54,25.35,43,37.67,12,10.22,25,19.81,35.74,31.4,10.1,10.86,18.32,24,22.82,38.08C464.89,196.92,471.18,210.88,468.16,220.7Z" transform="translate(-103.41 -19.93)"/><path class="cls-1" d="M489.71,235.81c-1.33,8-9.43-5.69-17-10.37-9.42-5.76-21.22-.1-28.84,6.14C431,242,418.31,253.58,403,261.1c-17.59,8.67-39.12,11-58,7.86-43.41-7.26-92.56,10.13-134-12-18.26-9.76-28-29.31-27.07-49.77,1-21.55,10.07-43.41,20.87-61.59,6.56-11.06,14.94-21.6,25.93-28.86,12.69-8.38,25.75-16.36,38.2-25,23.23-16.08,64.68-53.87,92.92-28.4,15.65,14.1,33.16,29.29,49.81,43.77,14.25,12.4,29.6,24.54,42.16,38.51,12.29,13.67,21.51,31,27.55,48.25C485.66,206.13,492,222.69,489.71,235.81Z" transform="translate(-103.41 -19.93)"/><path class="cls-1" d="M497.81,242c-1.29,8.67-9.94-6.28-17.92-11.41-9.83-6.31-22.26-.29-30.21,6.35-13.5,11.27-27.17,23.19-43,31.21-19.06,9.67-42,10.55-62.21,7.5-45.9-6.93-100.46,9.72-145.76-14.06a53.25,53.25,0,0,1-28.6-51.91c1.74-22.63,12.61-45.2,24.94-63.67,7.77-11.64,17.33-22.28,29.17-30C237.86,107,252.09,98.4,265.42,89.2c23.41-16.17,67.9-58.68,97-32.51,16.4,14.74,34.88,30.63,52.27,46C429.85,116,445.93,128.92,459.28,144s22.89,33.68,29.35,52.39C492.92,208.78,501.13,228.6,497.81,242Z" transform="translate(-103.41 -19.93)"/><path class="cls-1" d="M505.8,248.34c-1.24,9.38-10.44-6.9-18.76-12.5-10.21-6.87-23.26-.48-31.5,6.55-14.09,12-28.43,24.56-45.15,32.88-20.37,10.14-44,9.33-66.46,7-26.33-2.69-53.69-2.76-80.25-3.1-25.57-.31-54.93-.72-77.94-12.61a55.31,55.31,0,0,1-29.56-54.81c2.39-23.8,15-46.34,29.13-65.18,9.2-12.26,20.13-23.2,32.95-31.53,14.43-9.36,29.54-18.14,43.63-27.84,17.95-12.36,35-27.31,53.77-38.63C332.77,38.25,348.63,40,363,50c18.26,12.75,36.52,32,54.65,48.07,16,14.21,33,27.85,47,44.12,14.16,16.47,24.5,36.17,31.14,56.65C500.27,212.84,509.17,233.35,505.8,248.34Z" transform="translate(-103.41 -19.93)"/><path class="cls-1" d="M522.94,263l-2.26,3.16c-6.6-5.64-11.33-12.85-18.18-18.2-11.53-9-24.65-1.18-34.14,6.93-15.46,13.2-30.67,28.34-49.66,36.45-24.12,10.3-50.76,8.85-76,5.62-30.61-3.91-62.74-4.84-94-5.75-30.54-.89-64.88-1.82-92.49-15.05-22.33-10.69-37.15-33.37-32.65-58.78,4.67-26.33,22.28-49.78,40.27-68.7a209.51,209.51,0,0,1,41.43-33.87C222.2,104.38,239.26,94.26,255.67,83c20.52-14.11,39-32.12,59.22-45.37,17.73-11.63,32.68-13.34,49.29-2.28,20.16,13.43,40,34.75,59.62,52.4,17.84,16.07,36.77,31.77,52.09,50.4,16,19.49,27.43,42.59,35,66.47C516.1,220.89,526.26,245.28,522.94,263Z" transform="translate(-103.41 -19.93)"/><path class="cls-1" d="M532,271.43c-.53,1.18-1.07,2.35-1.6,3.53-8.07-4.22-12.68-14.3-19.69-20-11.9-9.75-25.63-1.49-35.44,7.11-16.54,14.5-32.11,29.22-52,38.35-25,11.49-54.58,8.46-81.25,4.62-33.05-4.75-68-6.06-101.83-7.4-33.33-1.31-70.78-2.88-100.94-16.37-23.36-10.46-40-34.3-34.25-60.64,6-27.76,27-51.41,47.18-70.29a277.7,277.7,0,0,1,46.52-35.08c18.27-11,36.55-21.9,54.13-34.1C274.63,66,294,47,314.9,32c17.74-12.73,32.75-15.82,49.94-4.63C385.89,41,406.67,63.45,427,81.9c18.86,17.1,38.8,33.93,54.84,53.88,17.22,21.41,28.76,46.43,37.09,72.07C524.61,225.28,536.16,252.56,532,271.43Z" transform="translate(-103.41 -19.93)"/></g></g></svg>