<svg xmlns="http://www.w3.org/2000/svg" viewBox="0 0 791.32 634.35"><defs><style>.cls-1{fill:none;stroke:#fff;stroke-miterlimit:10;}</style></defs><title>Fichier 6</title><g id="Calque_2" data-name="Calque 2"><g id="Calque_1-2" data-name="Calque 1"><path class="cls-1" d="M719.48,839.19c.37,19.69-8.88,33.83-28,38.1-16.33,3.64-28-15.89-36.71-26.67-19-23.34-42-46.8-58.15-72.4-10.81-17.07-.93-17.34,1.15-19.87,4.34-5.29,25.55-.08,36.09-.92,10.1-.8,19.48-9.41,28.63-8.19,15.66,2.08,35.3,17.28,44.69,31.79C717.31,796.72,716.79,821.1,719.48,839.19Z" transform="translate(-314.58 -506.67)"/><path class="cls-1" d="M734.42,848.48c-1.28,22.5-13.1,42.54-37.11,46.4-8.08,1.29-14.93-.13-20.45-4.75-8.86-7.42-16-18.09-23.06-27.06-12.9-16.31-27-32.54-40.44-48.79-10.9-13.22-23.24-26.94-31-41.18-4.45-8.13-10.66-19.17.47-25.32,10.93-6,32.55-.83,44.52-1.1,8.72-.19,16-2.72,20.13-5.48,4.31-2.89,6.56-6.49,16-4.41,11.21,2.47,22.53,9,32.14,15.41,9.9,6.63,19.57,14.93,25.44,25.15C732.73,797.8,732.82,825.09,734.42,848.48Z" transform="translate(-314.58 -506.67)"/><path class="cls-1" d="M778.5,874.93c-5.52,34.8-35,62.1-68,67.08-9.43,1.42-20.65,2-28.8-5.26-11.76-10.47-21.34-26.24-30.6-38.77-18.28-24.78-39-49.47-58.77-73.85-17.2-21.24-35.73-42.91-49.34-65.81-8.49-14.3-17.94-30.79-4.25-42.49,13.41-11.47,50.38-.33,67.86-1.08,10.64-.45,24-1.12,32.58-7.46,8.8-6.48,16-7.19,26.85-5.55,19.31,2.92,39.49,16.44,55.54,27,16.26,10.72,32.81,23.54,43.26,40.63C783.26,799.54,780.16,840.89,778.5,874.93Z" transform="translate(-314.58 -506.67)"/><path class="cls-1" d="M806.68,891.31c-9.88,41.59-52.41,69.57-91.75,79.24-10.69,2.63-23.89,3.34-32.63-4.57-13.23-12-22.95-30.53-32.95-44.92-20.86-30-45.17-59.75-68.36-89-21.2-26.72-43.66-53.79-61.14-82.26-11.49-18.73-23.91-37.68-9.24-55.09,12.18-14.45,64.1-1.24,81.82-1.48,13.6-.18,28.74-1.21,40.86-8.61,12.6-7.69,19.58-8.92,34.49-6,25.69,5,51,21.49,72.45,35.42,20.88,13.53,42.76,29.54,55.92,51.09C818.42,801.62,812.38,850.37,806.68,891.31Z" transform="translate(-314.58 -506.67)"/><path class="cls-1" d="M834.83,907.21c-16.22,47.71-72.44,79.25-118.5,90.1-11.64,2.75-25.58,6.13-35.31-3.2-13.72-13.17-23.18-34.16-33.43-50C624.78,909,597.4,874.61,571.24,841c-25.11-32.31-51.52-64.8-73-99.07-14.52-23.13-29.07-45.31-15.69-68.74,5.09-8.91,23.42-6.58,32.56-6.12,20.85,1.06,42.11,4.15,62.43,4.18,15.89,0,35-1.22,49.38-9.52,15.83-9.12,23.91-10.35,42.64-6.11,32.19,7.28,63.64,27.24,90.84,44.59,25.34,16.17,52.77,35.66,69.23,61.62C842,781.35,845.9,804.49,846,827.35,846.09,854.48,841.9,880.92,834.83,907.21Z" transform="translate(-314.58 -506.67)"/><path class="cls-1" d="M884,933.87c-16.13,34.61-54.61,54.86-87.33,70.78-27.55,13.4-56.32,26.19-85.27,35.31-10.71,3.38-28.07,10.88-37.14.75-13.08-14.6-20.12-38.73-29.74-56.16-24.1-43.63-56.26-85.49-86.56-125.89-31.89-42.53-65.25-85-94-129.3-12.82-19.72-30.69-43.06-34.32-67.24-1.5-10,1.35-19.21,3.91-28,3.66-12.62,26.94-9.73,37.55-9.15,26.27,1.43,52.86,5.65,78.62,6.26,21.19.5,45.42-1,64.83-10.53,21.57-10.61,33-12,58.09-5.52,43.47,11.22,88.48,38.74,126.6,62.45,34.58,21.5,73.57,46.35,95.32,81,15.43,24.61,19.82,51.55,17.12,80.8C908.59,872.56,898.53,903.83,884,933.87Z" transform="translate(-314.58 -506.67)"/><path class="cls-1" d="M908.54,946.66c-23.18,37.1-68.27,57.44-106.55,74.1-31.59,13.76-64.48,26.75-96.62,38.58-9.13,3.37-28.9,13.42-36.67,3.44-11.78-15.12-16.78-40-25.72-58-23.66-47.71-58-92.9-89.88-136.17C517.87,820.76,481,773.17,448.46,723.79c-15-22.76-35.4-49.32-41-77.11-2.33-11.48,0-21.78,1.66-32.67,2.15-14.44,28.88-11.53,39.18-11,29,1.51,58.21,6.52,86.69,7.54,23.6.85,51.14-.65,72.81-10.74,24.15-11.25,39-12.32,66.39-4.84,50,13.65,101.72,44.91,146.19,72.23,39.3,24.13,83.15,51.71,109.5,91,17.63,26.3,21.48,57.23,16.85,87.9C941.24,882.23,927.6,915.46,908.54,946.66Z" transform="translate(-314.58 -506.67)"/><path class="cls-1" d="M929.54,957.33c-29.19,39.14-81,58.95-124.65,76.27-35.29,14-71.46,27.05-106.6,41.36-7.25,3-29.65,15.36-35.52,6.09-9.89-15.59-12.83-40.19-21.11-59-22.57-51.27-58.83-99-91.79-144.39-38.05-52.44-78-104.49-113.79-158.27-17.36-26.11-39-54.94-47.25-86-3.38-12.79-1.94-25.09-.66-36.93,1.66-15.32,29-13.26,40.18-12.73,30.73,1.48,62.58,7.52,93.53,8.74,26,1,55.93-.14,79.78-10.77,26.91-12,43.54-12.73,73.81-4.06,56.27,16.13,113.58,50.49,163.9,81.06,43.64,26.5,94.27,56.67,122.27,99.74,18.42,28.33,23,60.18,16.28,93.72C970.15,890.82,952.87,925.45,929.54,957.33Z" transform="translate(-314.58 -506.67)"/><path class="cls-1" d="M964.46,974.52c-45.58,38.48-101.87,59.74-157.65,78.82-41.69,14.27-85,26.33-124.5,45.55-7.47,3.63-28.85,15.62-31.72,11.34-6.56-9.78-4.29-39.3-11.12-59.31-19.28-56.45-58.33-107.82-92.68-156.56-42.9-60.86-88.57-120.43-130.21-182.1-21.41-31.7-45.2-65-57.14-100.54-4.79-14.24-7.73-30.53-6-45.14,2.08-17.7,29.18-16.37,41.33-15.81,34.25,1.59,69.76,8.89,104.46,10.85,29.51,1.67,64.72.94,91.66-10.5,9.68-4.11,20.18-9.86,31.15-11.78,18.93-3.31,38.28,4.18,55.64,9.46C744.12,569,812.54,609.4,873,645.46,924.2,676,984.35,710.35,1017.8,760c21,31.24,25.08,65.81,14.62,102.86C1020.28,905.92,995.14,942.48,964.46,974.52Z" transform="translate(-314.58 -506.67)"/><path class="cls-1" d="M1002.76,992.59c-60.09,39.81-130.75,60-199.24,79.76-48.25,13.93-101.4,25.4-144.23,50.17-4.86,2.81-25.77,17.87-25.77,17.87-.33-.28,7.42-39.09,3.54-57.72-12.63-60.5-56.43-117.52-91.37-168.5-47.94-69.9-99.56-137.91-147.38-207.89-25.9-37.9-53.63-77.1-70.61-119-6.77-16.68-14.14-36-12.35-54.52,2-20.43,25.35-20.53,40.74-20.25,38.81.7,78.73,12,118.13,14.9,34.49,2.52,70.54.33,102.73-11.31,36.57-13.23,64.65-10.84,103.13.93,79.63,24.36,160.15,72.71,232.6,115.13,59.73,35,131.76,73.73,171.49,131.16,24.11,34.86,27.16,72.42,11.78,112.12C1077.54,923,1042.57,960.86,1002.76,992.59Z" transform="translate(-314.58 -506.67)"/></g></g></svg>