<svg xmlns="http://www.w3.org/2000/svg" viewBox="0 0 1076.15 727.57"><defs><style>.cls-1{fill:none;stroke:#fff;stroke-miterlimit:10;}</style></defs><title>Fichier 1</title><g id="Calque_2" data-name="Calque 2"><g id="Calque_1-2" data-name="Calque 1"><path class="cls-1" d="M646.25,380.28c-10.72-1-20.34,5-28,11.65-18.07,15.73-34.5,38.36-59.89,44-20.87,4.6-47,21.41-66.94,5.84-23.42-18.24-28.19-59.08-28.66-86.49-.38-21.61,7.51-38.74,24.62-50.72,20.86-14.61,41.48-15.49,62,.16C571,321.18,595.25,336,618.06,351.74,628.08,358.65,643.39,367.24,646.25,380.28Z" transform="translate(0 0)"/><path class="cls-1" d="M668.14,381.89c-13.07-1.6-25.53,7.11-34.31,15.06-21.86,19.8-42.28,47.71-74.38,54.38C535,456.4,497.39,474.8,475,456.26c-26-21.47-34.22-72.54-33.44-105.28.62-26.09,11-46.59,31.7-60.86,25.2-17.35,50.14-20.11,75.09-.87,26.43,20.38,56.07,38,84.27,57.19C644.3,354.39,665.75,366.2,668.14,381.89Z" transform="translate(0 0)"/><path class="cls-1" d="M690.08,383.21c-15.76-1.54-30.08,8.89-40.56,18.73-25.13,23.61-50.51,58.46-89,64.83-31.58,5.22-74.23,26.1-102.61,3.13-31.22-25.28-39.58-85.23-37.49-123.46,1.69-30.88,14.82-53.44,39.24-70.3,29.08-20.08,58.16-25.38,87.64-2.33,31.18,24.38,66.17,44.65,99.65,67C660.91,350.11,686.72,364.42,690.08,383.21Z" transform="translate(0 0)"/><path class="cls-1" d="M709.33,384.14c-.2,4.68-7-.34-15.29,1.13-12.46,2.23-22.43,12.32-30.71,20.72-29.76,30.18-59.77,62.88-101.9,74.29-35.81,9.69-84.94,27.63-119,1.06-18.46-14.38-28.54-37.76-34-59.92-6.28-25.55-8.83-53.43-6.45-79.18,1.55-16.67,4.48-33.61,14.67-47.62,8.63-11.86,19.93-21.11,31.52-30.13,31.85-24.78,65.89-27.23,98.2-4.18,36,25.69,73.54,54.79,113,75.54C675.34,344.26,706.27,363.67,709.33,384.14Z" transform="translate(0 0)"/><path class="cls-1" d="M728.61,384.84c-.11,5.36-7.87-.34-17.15,1.5-13.75,2.72-25.09,14.12-34.16,23.92-32.17,34.78-66.44,72.48-114.94,83.52-42.45,9.66-97.3,28.19-135.92-1.92-20.37-15.87-32.16-42.73-37.57-67.19-6.23-28.14-8.73-58.41-5.28-86.83,2.22-18.3,6.05-37.25,17.76-51.8C411.46,273.47,423.88,263,437.07,253c35.31-26.84,72-32.05,108.36-6.17,40.17,28.6,82.33,61.55,126.11,83.59C690.86,340.12,723,361.47,728.61,384.84Z" transform="translate(0 0)"/><path class="cls-1" d="M747.93,385.33c0,6.06-8.74-.28-19,1.91-15.45,3.29-27.51,16.37-37.54,27.27-36.37,39.55-74,80.39-128.1,92.78-47.71,10.92-109.52,28.83-153.26-5.61-22.58-17.78-34.84-47.15-41-74.45a263.3,263.3,0,0,1-3.71-94c3-20,7.95-39.57,21.08-55.59,11.35-13.84,25.58-25.06,40-35.84,38.55-28.79,77.92-37.06,118.11-8.5,44.14,31.37,92.21,64.73,139,90.92,16.16,9.06,33.64,20.05,46.39,34.18C737,366.37,744.86,374.69,747.93,385.33Z" transform="translate(0 0)"/><path class="cls-1" d="M764.52,385.57c.14,6.68-9.69.08-20.6,2.3-16.08,3.26-30,18.65-40.37,30.26-38.13,42.75-80,89-139.48,100.74-53.84,10.62-120.72,28.91-168.48-9.35-24.25-19.42-38.06-51.11-43.86-80.65-6.38-32.45-7.74-67.39-2.07-99.77,3.71-21.24,9.7-41.79,24.13-58.53C386.38,256,401.91,244,417.53,232.48c41.19-30.42,82.86-41.49,126.18-10.77,47.61,33.77,99.34,69.43,149.88,97.35,17.83,9.84,36.12,21.83,50.78,37C752,364,762.29,374.34,764.52,385.57Z" transform="translate(0 0)"/><path class="cls-1" d="M778.37,385.64c.26,7.21-10.34.18-21.94,2.66-17.09,3.65-31.78,20.33-42.67,32.82-41.14,47.16-85.44,94.69-149,107.39-56.28,11.25-131.73,29-181.43-12.85-25-21.09-40-54.23-46.15-85.81-6.57-33.54-7-71.1-.49-104.3,4.33-22.12,11.39-43.95,26.81-60.76,13.72-15,30.18-27.64,46.89-39.87,43.27-31.67,86.84-45.21,132.68-12.85,50.39,35.57,105.36,73.36,158.89,102.55C721,325,741.1,337.81,756.41,354,764.57,362.67,775.76,373.38,778.37,385.64Z" transform="translate(0 0)"/><path class="cls-1" d="M792.23,385.6c.39,7.75-11,.35-23.26,3-17.64,3.87-33.9,22.23-44.94,35.46-43.19,51.77-90.61,101.33-158.63,114.06-60.86,11.39-141.5,28.58-194.59-16.73-26.37-22.5-42.64-57-48.37-91-6.05-35.8-6.4-73.6,1.28-108.58,5.07-23,13.12-44.88,29.59-62.79,14.66-15.94,32.63-28.92,50.09-41.56,45-32.55,91-49,139-15.12,53.18,37.49,111.19,77.11,167.79,107.63,20.41,11,41.82,24.57,58.23,41.78C777.23,361.09,789.26,372.47,792.23,385.6Z" transform="translate(0 0)"/><path class="cls-1" d="M806.1,385.45c.55,8.3-11.67.47-24.57,3.44C762.66,393.23,746,413,734.36,427.07c-45.42,54.55-95.73,108-168.3,120.74-65.54,11.47-151.41,27.88-208-21-27.68-23.91-44.43-60.44-50.52-96.1-6.23-36.43-5.67-77,3.23-112.61,6-24,14.93-46.32,32.5-64.62,15.79-16.45,34.83-29.94,53.31-43.16,46.82-33.53,94.77-53,145.11-17.58,56,39.38,117,80.75,176.6,112.59,21.73,11.61,44,26.4,62,44.14C789.86,358.85,802.84,372,806.1,385.45Z" transform="translate(0 0)"/><path class="cls-1" d="M822.77,385.12c-4.91,7.66-17.24,2.07-26.15,4-20.8,4.41-37.53,26.41-49.79,41.52-47.89,59.06-101.84,116.26-180,128.79-72.06,11.55-162.71,26.84-224.29-26.56-29.69-25.74-47.29-64.05-53-102.26-5.76-38.45-4.65-79.76,5.82-117.09,7-25,17.45-47.93,36.13-66.54,17.07-17,37.57-31.06,57.22-45,48.9-34.66,98.88-58.16,152.21-20.77C600.24,222.77,664.79,266.05,728,299.55c23.35,12.37,47.62,27.58,66.66,47C804.29,356.34,820.36,370.62,822.77,385.12Z" transform="translate(0 0)"/><path class="cls-1" d="M839.46,384.62c-3,8.58-19.65,2.75-27.72,4.52-22.17,4.85-39.4,28.55-52.34,45C709.07,498,651.42,558.69,567.65,571c-78,11.42-175.2,25.25-240.94-32.69-31.17-27.47-49.86-67.86-55.38-108.4-5.43-39.95-3.39-82.83,8.66-121.21C288,283,299.74,259.21,319.9,240.51c18.76-17.4,40.31-32,61.19-46.68,50.87-35.62,101.65-63.09,159.05-24.21,34.25,23.19,67.56,48,102.42,70.14,30.7,19.45,63.2,36.07,94.93,53.8,25.3,14.14,50.92,29.22,71.35,49.77C819.34,353.89,836.61,369,839.46,384.62Z" transform="translate(0 0)"/><path class="cls-1" d="M862.4,383.43c-1.62,9.19-22.46,3.56-29.9,5.29-23.82,5.53-42.14,31.26-56,49.07-54,69.43-117.19,133.93-208.19,145.24C482.24,593.74,376.4,604.77,305,541c-32.9-29.36-53.23-71.86-58.59-115.13-5.09-41.15-1.83-85.33,12.26-124.17,9.53-26.29,23.1-50.09,44.91-68.57,20.76-17.59,44.22-32.49,66.65-47.63,53.66-36.22,108-68.39,169-28.19,36.54,24.08,72,50,109.23,72.89,33.13,20.45,68.12,37.82,102.34,56.32,27.4,14.81,55.3,30.7,77.71,52.65C839.71,350.2,859.1,366.8,862.4,383.43Z" transform="translate(0 0)"/><path class="cls-1" d="M936.2,378.23c1.12,11.28-29.11,5.84-36.71,8.37-28,9.29-50.14,42.67-66.15,65.84-63.83,92.35-144.27,172.35-261.59,180.67-115.17,8.17-250.54,7.61-341.17-78.43C192,518,166.66,465.92,163.4,413.09c-2.84-46.23,6.42-94.73,28.55-135.21,15.66-28.65,36.39-51.79,63.86-70.15s57.14-34.81,84.92-52.67c30.5-19.6,60.95-42.49,94.62-57.15,36.07-15.71,67.45-11.67,100.43,9.36,43,27.39,84.75,57.26,128.52,83.54,40.75,24.45,83.69,44.84,125.89,66.61,35.15,18.14,70.23,37.74,99.56,64.54C905,335.86,931.94,356.77,936.2,378.23Z" transform="translate(0 0)"/><path class="cls-1" d="M1010.24,369.79c2.78,13.6-35.3,9.21-43.37,12.14-32.89,11.92-57.68,56.35-75,84.52C859.7,519,823.63,572,774.42,611.4c-57.36,46-127.06,70.17-199.25,71.8-146.25,3.29-314.94-12.72-423.85-125.61C108.58,513.28,76.8,452.34,77.75,389.76c.76-50.15,17.28-100.14,48.73-138.63,23.25-28.46,52-49,85.06-65.72,35-17.68,70.83-34.93,104.11-55.34,36.65-22.48,71-50.57,108.85-71.91s70.28-23.75,107.86-1c48.58,29.44,95.72,62.94,145.18,91.84,48.26,28.19,99,51.25,149,75.93,43.25,21.32,86.05,44.48,122.79,76.12C969.28,318.24,1002.53,343.18,1010.24,369.79Z" transform="translate(0 0)"/><path class="cls-1" d="M1075.15,359.7c5.73,16-39.69,12.15-49,16-36.7,15.25-63.31,69.53-81.47,102.4C910.06,540.69,869.87,603.36,812.7,649c-67.26,53.73-150,79.31-234.53,78-176.1-2.79-374.44-36.92-499.75-175.93C32.71,500.38-4.94,430.5,1.15,360.52A200.18,200.18,0,0,1,70.28,225.37c30.75-26.46,67.42-42.56,105.08-56.75,41.77-15.74,83.32-33.19,121.63-55.73,42.42-25,80.2-57.6,120.79-86C453.36,1.91,490-10.65,529.36,13.37c50.84,31,104,66.6,157.56,97.25C741.55,141.85,799,167,855.78,193.93c50.67,24,100.69,50.34,144.23,86,19,15.58,37.32,32.07,53.9,50.35C1061.12,338.19,1072.73,348.7,1075.15,359.7Z" transform="translate(0 0)"/></g></g></svg>