<svg xmlns="http://www.w3.org/2000/svg" viewBox="0 0 1364.66 802.02"><defs><style>.cls-1{fill:none;stroke:#fff;stroke-miterlimit:10;}</style></defs><title>Fichier 7</title><g id="Calque_2" data-name="Calque 2"><g id="Calque_1-2" data-name="Calque 1"><path class="cls-1" d="M942.3,480.28c9,18.17-16.08,33.79-29.09,40.26-8.3,4.14-14.85,7.29-18.65,8.42-4.36,1.3-6.75,1.2-20-1.05-14.55-2.47-29.69-5.75-44.19-9.74-10-2.74-22.82-6.29-29.33-13.54-6.18-6.89.53-18.88,2-26.83,2.45-13,28.5-20.23,39.3-25.4,7.91-3.78,13.27-8.08,15.72-11,2.65-3.19,3.16-5.68,12.49-7.12,10.48-1.6,21.66-1.3,32.27-.26,11.77,1.15,20.59,3.7,24.72,7.81C936.39,450.53,937.63,468.21,942.3,480.28Z" transform="translate(-158.13 -71.28)"/><path class="cls-1" d="M978.82,478.22c17.53,26.81-23.9,52.87-42.66,62.69-9.31,4.88-19.22,10.22-29.08,13.13s-21.5.11-31.43-1.6c-22.83-3.93-46.76-8.74-69.16-15.75-15.25-4.77-34.78-10.1-44.92-21.83s3.76-26.76,5.28-40.41c2.22-19.91,46.68-30.07,60.74-37.22,8.12-4.12,17.55-9.47,23.59-16.63,4.1-4.87,4.78-8.59,18.41-10.87,15.11-2.53,31.92-2.35,47.3-1,12.68,1.11,27.2,3.07,36.85,11.1C968.14,431.81,970.72,461.24,978.82,478.22Z" transform="translate(-158.13 -71.28)"/><path class="cls-1" d="M1008.67,475.7c22.52,35.18-27.51,68.4-52.86,81.7-12,6.3-25,13.14-37.95,17.15-12.79,4-28.74.13-41.36-2-29.9-5.13-61.22-11.65-90.5-21.17-19.15-6.23-48.16-14.24-57.76-29.25-10.51-16.43,6.81-31.44,9-51.21,2.71-24.16,60.62-37.07,78.7-46.12,10.66-5.34,22-11.84,29.83-21.14,5.21-6.22,6.36-10.76,22.94-14,18.25-3.52,39.87-3.06,58.62-1.86,15.42,1,34.57,3.39,46.36,13.4C993,417.6,996.38,453.09,1008.67,475.7Z" transform="translate(-158.13 -71.28)"/><path class="cls-1" d="M1025.24,474c26.44,39.63-28.78,77.18-58.18,92.51-13.93,7.26-28.17,14.9-43,19.46-14.62,4.5-32.69.13-47.08-2.28-33.82-5.66-69.43-13.22-102.71-24.38-21.79-7.31-49.17-15.8-64.92-33.64-14.91-16.9,9.2-40.47,11.54-57.06,3.77-26.7,68.9-40.87,88.82-50.77,11.9-5.91,25.2-12.71,33.24-23.62,6.39-8.67,14.62-14,25.33-15.68a297.83,297.83,0,0,1,64.52-2.44c17.41,1.35,38,3.22,51.48,14.55C1006.19,409.08,1010.53,448.5,1025.24,474Z" transform="translate(-158.13 -71.28)"/><path class="cls-1" d="M1058.77,469.68c34.89,47.63-33.24,94.67-68.56,113.13-17.28,9-35.06,18.47-53.48,23.92s-40.58.34-59-2.69c-42.27-7-86.55-16.67-128-30.94-26.65-9.18-65.52-20.81-79.42-42.53-14.8-23.11,13.21-40.73,17.25-67.42,2.56-16.93,27.39-25.11,40.51-30.64,22.88-9.64,47.18-17.12,69.12-27.61,14.43-6.89,29.79-15,40.06-28,9.2-11.65,15.17-15.31,30-18.85,24.21-5.76,51.5-5.26,76-3.8,20.72,1.24,44.65,3.19,61.59,16.2C1032.62,391.72,1039.81,440.54,1058.77,469.68Z" transform="translate(-158.13 -71.28)"/><path class="cls-1" d="M1145.85,454.14c22.17,30.7,23.29,61.75,4.56,93.54-20.55,34.85-59.33,60.71-94.54,80.48-26.1,14.67-54,29.25-82.61,37.51-29.22,8.42-64.14,1-93.07-3.75C814.14,651.17,745.26,634.86,681.32,610c-38.87-15.1-97.81-35.75-117.39-70.7-20.27-36.17,28-60.76,38.13-94.63,6.81-22.63,43.08-32.82,64.12-40.06,33.67-11.59,69.37-20.76,101.66-36.15,20.4-9.73,42.93-22.1,56.66-40.34,12-15.93,19.66-22.41,40.39-28,31.26-8.41,67.77-9,100.11-8.51,28.77.48,60.39,3.1,84.94,19.83,21,14.3,32.36,38.16,43.63,59.82C1108.64,400.22,1125.75,428.11,1145.85,454.14Z" transform="translate(-158.13 -71.28)"/><path class="cls-1" d="M1221.34,435.16c27.51,37.83,39.94,77.22,18.85,120.62-24,49.32-78.46,84-123.51,110.55-32.64,19.26-69,40.32-106.43,50.59-40.86,11.21-87.15,2.1-127.91-4.35-89.69-14.18-180.54-37.87-264.72-73.79-35.78-15.27-71.21-32.41-103.6-54.31-18.12-12.26-39.67-27-49.67-46.64-13.43-26.43,1.69-40,19.7-59.16,16.11-17.14,29.7-37.22,44.32-55.38,20.66-25.67,55.23-36.47,86.21-45.59,44-13,90.19-21.59,131.85-41.1,26.14-12.25,50.42-27.8,68-51,13.42-17.68,26.37-29.86,48.34-36.15C898.23,239.33,939.87,236.44,977,236c34.31-.46,75,2.1,104.48,21.06,27.34,17.57,43.29,48.83,60.49,75.1C1165.07,367.46,1194.83,401.06,1221.34,435.16Z" transform="translate(-158.13 -71.28)"/><path class="cls-1" d="M1258.75,423.78c32.62,40.65,49.39,84.21,27.4,134.18-24.86,56.49-86.73,96.73-136.45,126.69-36.74,22.15-78,46.07-120.4,57.79-46.58,12.86-99.49,2.77-145.89-4.55-102-16.06-205.08-43.8-300.06-86.28-40.14-18-79.77-38.18-115.75-63.85-20-14.28-43.68-31.41-54.15-53.76-14-29.82,4.35-44.22,25.53-64.26,19.11-18.08,35.59-39.15,53-59,24.26-27.58,64.3-38.16,98.43-47.17,48.73-12.85,99.94-21.69,145.87-43,28.73-13.31,55.14-30.51,74.12-56.12,14.08-19,28.08-33.24,51.25-40.33C898.24,213,942.23,209,981.13,207.76c36.93-1.19,80.78,2.54,112.35,21.46,30.09,18,50.93,53.76,70.87,82.08C1192.05,350.64,1227.17,386.6,1258.75,423.78Z" transform="translate(-158.13 -71.28)"/><path class="cls-1" d="M1290.62,413c37.48,43.09,58.48,90.05,35.75,145.71-25.66,62.81-93.22,108-147.38,141.23-40.45,24.82-85.82,51.29-132.74,64.28-51.68,14.32-110.39,3.46-161.92-4.64C771.47,741.87,657.46,710.39,553,661.8c-43.93-20.44-87.19-43.53-126.21-72.67-21.4-16-46.84-35.38-57.79-60.2-14.49-32.88,7.69-48.3,31.06-68.32C421.83,442,441,419.79,461.14,399.06c27.94-28.8,71.68-39,109.26-47.92,52.74-12.56,108.23-21.36,157.81-44.21,30.9-14.23,59.06-32.8,79.18-60.51,14.65-20.16,29.09-35.95,53.37-43.95,37.54-12.39,82.52-17,122.77-19,39.27-1.9,84.73,2,118.51,21.65,33.32,19.35,57.18,57.38,80.34,87.78C1214.59,335.18,1254.32,373.35,1290.62,413Z" transform="translate(-158.13 -71.28)"/><path class="cls-1" d="M1369.31,382.05c49.92,47.34,84.41,104.26,60.84,173.89-26.86,79.35-108.05,138.17-174,180.52-50,32.1-106.5,65.5-165,81.95-65.12,18.31-139.23,5.61-204.55-4.54-141.58-22-284.47-64-413.09-130-53.6-27.51-106.09-58.63-152.47-97.48-24.8-20.77-54.74-46.27-65.89-77.71-14.62-41.24,16.49-57,47-77,29.28-19.24,55.76-43.75,83.13-65.78,37.89-30.49,91-39,137.69-47.19,62.52-11,129.15-19.32,187.3-45.84,35.74-16.31,68.67-38.68,91-71.43,15.63-22.89,30.65-42.48,57.17-53.23,38-15.39,84.83-22.34,126.4-25.73,43.84-3.58,93,.84,131.48,21.74,42.05,22.83,74.4,65.63,106.31,100.81C1267,293.91,1320,337,1369.31,382.05Z" transform="translate(-158.13 -71.28)"/><path class="cls-1" d="M1431.1,353.07c61.21,50,108.27,113.38,85.23,195.49-26.19,93.33-119.25,165-194.39,215.12-57.77,38.56-123.74,78.22-192.23,97.66-76.91,21.82-164.14,7.89-241.25-4.06-166.23-25.75-333.62-77.36-482.29-159.49-61.56-34-121.34-72.68-173.42-120.36-27.38-25.07-62-57-71.72-93.43-12.4-46.33,25.54-63.92,62.42-81.91,18.34-8.95,36.15-19.11,52.4-31.34s33-25,50.22-35.39c46.49-28,107.52-37,161.68-43.84,70.16-8.91,145.44-16.33,210.49-45.72,39.68-17.94,75.67-43.49,99.69-80.12,16.39-25,30.88-47.22,58.69-60.89C893.45,86.68,939.92,78,981.07,73.5c46.69-5,97.88.65,139.37,21.72,49.36,25.06,89.6,71.49,129.39,109.8C1305.38,258.51,1370.05,304.65,1431.1,353.07Z" transform="translate(-158.13 -71.28)"/></g></g></svg>