<svg xmlns="http://www.w3.org/2000/svg" viewBox="0 0 1174.7 577.31"><defs><style>.cls-1{fill:none;stroke:#fff;stroke-miterlimit:10;}</style></defs><title>Fichier 11</title><g id="Calque_2" data-name="Calque 2"><g id="Calque_1-2" data-name="Calque 1"><path class="cls-1" d="M798.28,559.43c27.51,11.82-25.19,51.4-33.12,57.55-39.37,30.52-86.26,52-135.55,59.72-55.47,8.68-127.32,4.67-175.68-27.73-27.1-18.16-33.38-40.43-26.63-71.69,6.4-29.6,51.86-44.5,76.94-53.6a212.77,212.77,0,0,1,95.49-12.14c41,4.15,83.79,8.57,124.08,18.68C750.18,536.84,774,547,798.28,559.43Z" transform="translate(-21.84 -285.54)"/><path class="cls-1" d="M824,550.15c31.17,13.68-26.09,58.94-36.49,67.35-44.68,36.17-99,61.26-156.1,69.54-64.47,9.35-147.3,2.39-202.47-36.62-29.77-21-36.34-44.66-28.65-80.06,6.88-31.73,63.42-47.23,89.06-56a262,262,0,0,1,108.44-13.25c46.34,3.92,94.82,8.3,140.69,18.44C768.58,526.23,796.07,537.08,824,550.15Z" transform="translate(-21.84 -285.54)"/><path class="cls-1" d="M953.66,482.91c56.71,21.8-25.17,113-43.43,132.17-31.05,32.59-67.46,60.91-106.47,83.83-49.28,29-103.65,45-161,51-70,7.36-142.29-3.82-207.51-27.16-50.48-18.07-101.68-44.22-140.36-81.62-36-34.76-61.36-78.11-33.12-125.95,12-20.39,39.39-27.83,60.6-34.18,30.39-9.09,61.72-15.61,92.53-22.7,28.16-6.49,56.52-13.64,85.19-17.65s57.78-3.54,86.3-2.41c37.83,1.5,76.53,3.13,114.81,4.52,35.61,1.29,71.8,2.56,106.71,7C856.59,455.89,907.3,464.13,953.66,482.91Z" transform="translate(-21.84 -285.54)"/><path class="cls-1" d="M1025.06,427.43c75.53,22-15.94,150-38.29,178-36.42,45.53-81,84.82-130.48,116.34-62.08,39.57-132.87,60.76-206.61,66.46-90.78,7-183.17-12.63-264.79-50C321.84,709.31,260.17,668.52,215,615.3c-35.3-41.56-72.2-100.41-32.05-149.37,16.5-20.13,51.41-22,75.71-25.41,38.17-5.33,76.63-10,114.34-16.56,34.37-6,69-14.13,103.7-19.13,34.12-4.91,68.79-5.27,102.81-4.86,44.78.55,90.66.59,135.92-.09,42.46-.64,85.71-1.65,127.58.79C903.21,404.17,966.17,409.59,1025.06,427.43Z" transform="translate(-21.84 -285.54)"/><path class="cls-1" d="M1053.52,400.32c84.49,21.08-10.28,167.35-33.64,198.87C981.56,650.87,933.55,695.6,879.56,731c-67.72,44.46-145.51,68.11-226.91,73.56-100.08,6.7-201.45-17.47-289.75-61.92-68.34-34.4-133.9-82.52-181.12-143.31-33.44-43-76.6-110.54-31-158.21,18.49-19.33,56.26-17.59,81.43-19.41,41.35-3,82.84-6.35,123.5-12.49,37-5.57,74.18-13.93,111.42-19.51,36.25-5.43,73.22-6.15,109.39-6.18,47.45,0,96.09-.88,144-2.67,45.11-1.68,91.08-3.94,135.65-2.64C921.16,380.16,989.39,383.49,1053.52,400.32Z" transform="translate(-21.84 -285.54)"/><path class="cls-1" d="M1141.28,289.93c42.85,4,54.5,48.22,54.75,84.71.47,67.79-27.18,135-59.33,192.3A616.24,616.24,0,0,1,964.6,761C877,825.4,772.27,858.2,663,862c-134.16,4.68-268.64-39.72-378.1-114C199.12,689.81,124.36,611.24,74.17,520.19,54.74,485-14.69,366.16,48,337.07c25.48-11.82,70.42,7.87,96.47,12.55a631.92,631.92,0,0,0,153.72,8.62c45.89-3.08,92-12.28,137.82-19.81,43.11-7.09,87-10,130.1-12.27,55.39-2.88,112.07-7.6,167.66-14.17,52.9-6.26,106.88-13.85,159.3-17.83C974.08,288,1058.83,281.8,1141.28,289.93Z" transform="translate(-21.84 -285.54)"/></g></g></svg>